<?xml version="1.0" encoding="utf-8"?>
<!-- Generator: Adobe Illustrator 23.0.1, SVG Export Plug-In . SVG Version: 6.00 Build 0)  -->
<svg version="1.1" id="Ebene_1" xmlns="http://www.w3.org/2000/svg" xmlns:xlink="http://www.w3.org/1999/xlink" x="0px" y="0px"
	 viewBox="0 0 17 23" style="enable-background:new 0 0 17 23;" xml:space="preserve">
<style type="text/css">
	.st0{fill:#0087BF;}
</style>
<g>
	<path class="st0" d="M14.6,9.5h-1.3v1.6h1.3c0.2,0,0.4,0.2,0.4,0.4V20c0,0.2-0.2,0.4-0.4,0.4H2.9c-0.2,0-0.4-0.2-0.4-0.4v-8.4
		c0-0.2,0.2-0.4,0.4-0.4h1.3V9.5H2.9c-1.1,0-2,0.9-2,2V20c0,1.1,0.9,2,2,2h11.7c1.1,0,2-0.9,2-2v-8.4C16.6,10.4,15.7,9.5,14.6,9.5z"
		/>
	<rect x="3.5" y="18" class="st0" width="10.5" height="1.3"/>
	<rect x="3.5" y="15.9" class="st0" width="10.5" height="1.3"/>
	<rect x="3.5" y="13.9" class="st0" width="10.5" height="1.3"/>
	<polygon class="st0" points="13.2,8.2 12.1,7.1 9.4,9.7 9.4,1 8,1 8,9.7 5.4,7.1 4.2,8.2 8.7,12.6 	"/>
</g>
</svg>
