<?xml version="1.0" encoding="utf-8"?>
<!-- Generator: Adobe Illustrator 23.0.1, SVG Export Plug-In . SVG Version: 6.00 Build 0)  -->
<svg version="1.1" id="Ebene_1" xmlns="http://www.w3.org/2000/svg" xmlns:xlink="http://www.w3.org/1999/xlink" x="0px" y="0px"
	 viewBox="0 0 18 23" style="enable-background:new 0 0 18 23;" xml:space="preserve">
<style type="text/css">
	.st0{clip-path:url(#SVGID_2_);fill:#000000;}
	.st1{fill:#000000;}
</style>
<g>
	<defs>
		<rect id="SVGID_1_" x="0.6" y="1" width="16.5" height="21"/>
	</defs>
	<clipPath id="SVGID_2_">
		<use xlink:href="#SVGID_1_"  style="overflow:visible;"/>
	</clipPath>
	<path class="st0" d="M5.1,15.5c-0.1,0-0.1,0-0.2,0v-1.7c0.1,0,0.2,0,0.3,0c0.5,0,0.7,0.4,0.7,0.8C5.9,15.2,5.6,15.5,5.1,15.5
		 M5,12.9c-0.4,0-0.8,0-1.1,0.1v5.4h1.1v-2h0.2c0.4,0,1-0.2,1.3-0.5c0.3-0.3,0.5-0.7,0.5-1.3c0-0.5-0.1-0.9-0.5-1.2
		C6.1,13,5.6,12.9,5,12.9"/>
	<path class="st0" d="M8.8,17.6c-0.1,0-0.1,0-0.2,0v-3.8c0.1,0,0.1,0,0.2,0c0.6,0,0.9,0.7,0.9,1.8C9.8,17.1,9.3,17.6,8.8,17.6
		 M8.6,12.9c-0.4,0-0.8,0-1.1,0.1v5.3c0.2,0,0.5,0.1,0.9,0.1c0.8,0,1.3-0.2,1.7-0.5c0.5-0.4,0.8-1.2,0.8-2.3c0-1.1-0.2-1.8-0.7-2.2
		C9.8,13.1,9.3,12.9,8.6,12.9"/>
</g>
<polygon class="st1" points="11.5,18.4 12.6,18.4 12.6,16.2 13.8,16.2 13.8,15.3 12.6,15.3 12.6,13.9 13.9,13.9 13.9,13 11.5,13 "/>
<path class="st1" d="M1.9,2.3h8.8L11,2.6v4.5h4.5l0.3,0.3v13.2H1.9V2.3z M0.6,1v21h16.5V6.9L11.3,1H0.6z"/>
</svg>
