<?xml version="1.0" encoding="utf-8"?>
<!-- Generator: Adobe Illustrator 23.0.1, SVG Export Plug-In . SVG Version: 6.00 Build 0)  -->
<svg version="1.1" id="Ebene_1" xmlns="http://www.w3.org/2000/svg" xmlns:xlink="http://www.w3.org/1999/xlink" x="0px" y="0px"
	 viewBox="0 0 13 17" style="enable-background:new 0 0 13 17;" xml:space="preserve">
<style type="text/css">
	.st0{fill:#0087BF;}
</style>
<path class="st0" d="M11,16H2.5C1.7,16,1,15.3,1,14.5V8.4c0-0.8,0.7-1.5,1.5-1.5h1v1.2h-1c-0.1,0-0.3,0.1-0.3,0.3v6.1
	c0,0.1,0.1,0.3,0.3,0.3H11c0.1,0,0.3-0.1,0.3-0.3V8.4c0-0.1-0.1-0.3-0.3-0.3h-1V6.9h1c0.8,0,1.5,0.7,1.5,1.5v6.1
	C12.4,15.3,11.8,16,11,16z"/>
<rect x="6.2" y="1.7" class="st0" width="1" height="9.9"/>
<polygon class="st0" points="4.3,5 3.4,4.2 6.7,1 10,4.2 9.2,5 6.7,2.6 "/>
</svg>
