<?xml version="1.0" encoding="utf-8"?>
<!-- Generator: Adobe Illustrator 23.0.1, SVG Export Plug-In . SVG Version: 6.00 Build 0)  -->
<svg version="1.1" id="Ebene_1" xmlns="http://www.w3.org/2000/svg" xmlns:xlink="http://www.w3.org/1999/xlink" x="0px" y="0px"
	 viewBox="0 0 18 17" style="enable-background:new 0 0 18 17;" xml:space="preserve">
<style type="text/css">
	.st0{fill:#0087BF;}
	.st1{clip-path:url(#SVGID_2_);fill:#0087BF;}
</style>
<polygon class="st0" points="5.2,1 5.2,1.5 5.2,4.4 6.2,4.4 6.2,2 14.4,2 14.4,4.4 15.4,4.4 15.4,1.5 15.4,1 "/>
<polygon class="st0" points="14.4,9.5 14.4,15 8.2,15 8.2,12.7 6.2,12.7 6.2,9.5 5.2,9.5 5.2,13.4 5.2,13.6 5.3,13.8 7.4,15.9 
	7.6,16 7.8,16 14.9,16 15.4,16 15.4,15.5 15.4,9.5 "/>
<rect x="7.1" y="11.4" class="st0" width="6.4" height="0.8"/>
<rect x="7.1" y="10.2" class="st0" width="6.4" height="0.8"/>
<rect x="8.9" y="12.7" class="st0" width="4.5" height="0.8"/>
<rect x="1.6" y="9.7" class="st0" width="1.8" height="0.8"/>
<g>
	<defs>
		<rect id="SVGID_1_" x="0.4" y="1" width="17.3" height="15"/>
	</defs>
	<clipPath id="SVGID_2_">
		<use xlink:href="#SVGID_1_"  style="overflow:visible;"/>
	</clipPath>
	<path class="st1" d="M17.1,11.5h-1V9H4.5v2.5H1c-0.3,0-0.6-0.3-0.6-0.6V3.4C0.4,3,0.7,2.8,1,2.8h3.5v2.1h11.6V2.8h1
		c0.3,0,0.6,0.3,0.6,0.6v7.6C17.6,11.2,17.4,11.5,17.1,11.5"/>
</g>
</svg>
