<?xml version="1.0" encoding="utf-8"?>
<!-- Generator: Adobe Illustrator 23.0.1, SVG Export Plug-In . SVG Version: 6.00 Build 0)  -->
<svg version="1.1" id="Ebene_1" xmlns="http://www.w3.org/2000/svg" xmlns:xlink="http://www.w3.org/1999/xlink" x="0px" y="0px"
	 viewBox="0 0 26 23" style="enable-background:new 0 0 26 23;" xml:space="preserve">
<style type="text/css">
	.st0{fill:#0087BF;}
</style>
<g>
	<path class="st0" d="M0.6,22.6l3-5.4c-2-1.8-3.1-4.2-3.1-6.7C0.5,4.9,6.1,0.4,13,0.4s12.5,4.5,12.5,10.1S19.9,20.6,13,20.6
		c-1,0-2.1-0.1-3.1-0.3L0.6,22.6z M13,2C7,2,2.1,5.8,2.1,10.5c0,2.2,1.1,4.3,3,5.9l0.5,0.4l-1.9,3.4l6.1-1.5H10c1,0.2,2,0.3,3,0.3
		c6,0,10.9-3.8,10.9-8.5S19,2,13,2z"/>
</g>
</svg>
