<?xml version="1.0" encoding="utf-8"?>
<!-- Generator: Adobe Illustrator 23.0.3, SVG Export Plug-In . SVG Version: 6.00 Build 0)  -->
<svg version="1.1" id="Layer_1" xmlns="http://www.w3.org/2000/svg" xmlns:xlink="http://www.w3.org/1999/xlink" x="0px" y="0px"
	 viewBox="0 0 90.2 90.3" style="enable-background:new 0 0 90.2 90.3;" width="15px" height="15px" xml:space="preserve">
<style type="text/css">
	.st0{fill:#FFFFFF;}
	.st1{fill:#576D7E;}
</style>
<circle class="st0" cx="44.9" cy="44.7" r="43.3"/>
<path class="st1" d="M45.9,45.7c0.1,0,0.2,0,0.2,0c0.1,0,0.2,0,0.2,0c3.2,0,6-1.1,8.1-3.2c4.9-5,4.6-13.8,4.6-14.8
	c0-5.6-1.5-9.7-4.4-12.5c-3.5-3.1-7.6-3.1-8.6-3.1c-1,0-5.1-0.1-8.6,3c-3,2.7-4.5,7-4.4,12.5c0,1-0.2,10,4.6,14.8
	C39.9,44.7,42.6,45.7,45.9,45.7z M38.1,27.8v-0.1c0-4.1,0.9-7.1,2.7-8.8c2.1-2,4.9-1.7,5-1.7l0,0c0.1,0,0.2,0,0.2,0h0.1l0,0
	c0,0,2.7-0.2,4.9,1.7c1.9,1.7,2.9,4.7,2.7,8.8v0.1C54,29.9,53.6,36,50.6,39c-1.2,1.2-2.7,1.9-4.7,1.7l0,0l0,0c-2,0-3.5-0.5-4.7-1.7
	C38.4,36,38,29.9,38.1,27.8z M44.1,74.4c-4.6,0-14-0.7-23.3-5.6c-0.7-0.4-1.2-1.1-1.4-2c-0.6-6.4,0.2-9.8,1.1-11.6
	c0.5-1.1,1.4-2,2.4-2.6c1.1-0.6,2.4-1.1,2.7-1.2h0.1c4.9-1.2,10.2-4.7,10.3-4.9c1.1-0.7,2.7-0.4,3.5,0.7s0.4,2.7-0.7,3.5
	c-0.2,0.1-6.1,4-11.7,5.5c-0.4,0.1-1.1,0.4-1.6,0.7c-0.2,0.1-0.4,0.2-0.4,0.4c-0.4,0.7-1.1,2.9-0.7,7.6c8.1,3.9,15.8,4.5,19.9,4.5
	h1.9h1.9c4,0,11.8-0.6,19.9-4.5c0.4-4.6-0.4-6.9-0.7-7.6C67.2,57.1,67,57,66.9,57c-0.6-0.4-1.5-0.6-1.7-0.7
	c-5.6-1.5-11.5-5.2-11.7-5.5c-1.1-0.7-1.5-2.2-0.7-3.5c0.7-1.1,2.2-1.5,3.5-0.7c0,0,5.5,3.6,10.3,4.9h0.1c0.4,0.1,1.6,0.5,2.7,1.1
	c1,0.6,1.9,1.5,2.4,2.5c0.9,1.9,1.7,5.4,1.1,11.6c-0.1,0.9-0.6,1.6-1.4,2c-9.5,4.9-18.7,5.6-23.3,5.6h-1.9c0,0,0,0-0.1,0l0,0
	L44.1,74.4z M45.1,0.3c-24.8,0-45,20.2-45,45s20.2,45,45,45s45-20.2,45-45S69.9,0.3,45.1,0.3z M45.1,86.3c-22.6,0-41-18.4-41-41
	s18.4-41,41-41s41,18.4,41,41S67.7,86.3,45.1,86.3z"/>
</svg>
