<?xml version="1.0" encoding="utf-8"?>
<!-- Generator: Adobe Illustrator 15.0.0, SVG Export Plug-In . SVG Version: 6.00 Build 0)  -->
<!DOCTYPE svg PUBLIC "-//W3C//DTD SVG 1.1//EN" "http://www.w3.org/Graphics/SVG/1.1/DTD/svg11.dtd">
<svg version="1.1" id="Ebene_1" xmlns="http://www.w3.org/2000/svg" xmlns:xlink="http://www.w3.org/1999/xlink" x="0px" y="0px"
	 width="539px" height="436.5px" viewBox="0 0 539 436.5" enable-background="new 0 0 539 436.5" xml:space="preserve">
<g id="Ebene_17">
</g>
<g id="Ebene_1_1_" display="none">
	<g display="inline">
		<g>
			<g>
				<g>
					<g>
						<defs>
							<rect id="SVGID_1_" x="6.613" y="5.501" width="526.51" height="643"/>
						</defs>
						<clipPath id="SVGID_2_">
							<use xlink:href="#SVGID_1_"  overflow="visible"/>
						</clipPath>
						<path clip-path="url(#SVGID_2_)" fill="#FFFFFF" d="M446.423,215.915c36.333,0,65.771-29.46,65.771-65.793
							c0-36.307-29.438-65.755-65.771-65.755c-36.329,0-65.768,29.448-65.768,65.755
							C380.656,186.455,410.093,215.915,446.423,215.915"/>
					</g>
				</g>
			</g>
			<g>
				<g>
					<g>
						<defs>
							<rect id="SVGID_3_" x="6.613" y="5.501" width="526.51" height="643"/>
						</defs>
						<clipPath id="SVGID_4_">
							<use xlink:href="#SVGID_3_"  overflow="visible"/>
						</clipPath>
						<path clip-path="url(#SVGID_4_)" fill="#FFFFFF" d="M93.313,215.915c36.333,0,65.768-29.46,65.768-65.793
							c0-36.307-29.436-65.755-65.768-65.755c-36.333,0-65.771,29.448-65.771,65.755C27.545,186.455,56.98,215.915,93.313,215.915"
							/>
					</g>
				</g>
			</g>
			<g>
				<g>
					<g>
						<defs>
							<rect id="SVGID_5_" x="6.613" y="5.501" width="526.51" height="643"/>
						</defs>
						<clipPath id="SVGID_6_">
							<use xlink:href="#SVGID_5_"  overflow="visible"/>
						</clipPath>
						<path clip-path="url(#SVGID_6_)" fill="#FFFFFF" d="M155.5,261.482c-15.768-16.24-37.771-26.354-62.188-26.354
							c-47.884,0-86.7,38.83-86.7,86.712c0,47.896,38.816,259.795,86.7,259.795c26.805,0,50.758-66.426,66.671-133.29
							c-11.233-54.826-18.032-105.853-18.032-130.025C141.95,297.861,146.848,278.577,155.5,261.482"/>
					</g>
				</g>
			</g>
			<g>
				<g>
					<g>
						<defs>
							<rect id="SVGID_7_" x="6.613" y="5.501" width="526.51" height="643"/>
						</defs>
						<clipPath id="SVGID_8_">
							<use xlink:href="#SVGID_7_"  overflow="visible"/>
						</clipPath>
						<path clip-path="url(#SVGID_8_)" fill="#FFFFFF" d="M268.15,178.767c47.858,0,86.649-38.781,86.649-86.638
							c0-47.835-38.791-86.628-86.649-86.628c-47.833,0-86.627,38.793-86.627,86.627
							C181.523,139.985,220.317,178.767,268.15,178.767"/>
					</g>
				</g>
			</g>
			<g>
				<g>
					<g>
						<defs>
							<rect id="SVGID_9_" x="6.613" y="5.501" width="526.51" height="643"/>
						</defs>
						<clipPath id="SVGID_10_">
							<use xlink:href="#SVGID_9_"  overflow="visible"/>
						</clipPath>
						<path clip-path="url(#SVGID_10_)" fill="#FFFFFF" d="M365.718,368.564c0.22-1.241,0.392-2.532,0.536-3.705
							c0-0.192,0-0.34,0.051-0.512c0.145-1.097,0.29-2.19,0.438-3.266c0.048-0.314,0.071-0.609,0.121-0.926
							c0.146-1.195,0.293-2.413,0.414-3.583c0-0.099,0.049-0.244,0.049-0.365c0.146-1.071,0.271-2.146,0.415-3.192
							c0.023-0.269,0.05-0.584,0.072-0.828c0.122-1.168,0.271-2.313,0.414-3.41c0-0.072,0-0.146,0.024-0.221
							c0.097-1.048,0.218-2.07,0.339-3.095c0.023-0.292,0.05-0.537,0.05-0.778c0.123-1.072,0.22-2.121,0.315-3.168
							c0-0.074,0.024-0.146,0.024-0.195c0.098-0.975,0.194-1.948,0.269-2.899l0.071-0.719c0.05-0.976,0.171-1.976,0.244-2.925
							v-0.122c0.049-0.927,0.121-1.826,0.195-2.691c0-0.231,0.022-0.426,0.049-0.657c0.048-0.891,0.122-1.791,0.17-2.668v-0.099
							c0.049-0.829,0.1-1.621,0.146-2.425c0-0.195,0-0.391,0.022-0.598c0.022-0.815,0.073-1.621,0.097-2.362v-0.05
							c0.023-0.778,0.072-1.475,0.072-2.182v-0.548v-2.071c0-1.146,0-2.242-0.049-3.387c0-0.279-0.023-0.548-0.023-0.854
							c-0.047-1-0.097-1.998-0.169-2.998c-0.022-0.121-0.022-0.219-0.022-0.365c-0.1-1.145-0.196-2.303-0.316-3.424l-0.073-0.547
							c-0.099-1.047-0.243-2.098-0.392-3.146c0-0.071-0.022-0.171-0.048-0.269c-0.342-2.377-0.758-4.729-1.315-7.043
							c0-0.049,0-0.071-0.022-0.121c-0.514-2.354-1.099-4.666-1.777-6.969v-0.023c-12.601-42.191-51.731-73.03-97.958-73.03
							c-44.567,0-82.559,28.692-96.494,68.57c-1.364,3.886-2.512,7.932-3.389,12.024c0,0.072-0.022,0.146-0.049,0.221
							c-0.27,1.326-0.561,2.617-0.778,3.972c0,0.072,0,0.194-0.05,0.328c-0.438,2.62-0.756,5.288-1.021,7.979
							c0,0.194-0.024,0.401-0.05,0.598c-0.099,1.268-0.194,2.547-0.244,3.813c-0.023,0.231-0.023,0.451-0.023,0.707
							c-0.049,1.315-0.098,2.646-0.098,3.961c0,0.476,0,0.949,0.022,1.424v0.524c0,0.329,0,0.669,0.024,0.999v0.622
							c0.023,0.329,0.023,0.621,0.023,0.951c0.023,0.255,0.023,0.475,0.023,0.669c0.022,0.329,0.022,0.683,0.049,0.975
							c0,0.258,0.023,0.475,0.023,0.731c0.024,0.341,0.049,0.694,0.049,1.022c0.023,0.243,0.023,0.463,0.049,0.719
							c0.023,0.401,0.049,0.828,0.073,1.244c0,0.254,0.023,0.5,0.05,0.777c0.022,0.499,0.049,1.021,0.098,1.521
							c0.023,0.316,0.023,0.646,0.049,0.951c0.023,0.315,0.05,0.621,0.072,0.951c0.023,0.34,0.072,0.693,0.072,1.047
							c0,0.293,0,0.598,0.049,0.891c0.051,0.377,0.074,0.755,0.1,1.121c0.023,0.279,0.048,0.57,0.07,0.853
							c0.023,0.402,0.072,0.792,0.098,1.218c0.023,0.258,0.05,0.5,0.074,0.758c0.049,0.451,0.072,0.89,0.123,1.34
							c0.023,0.184,0.023,0.353,0.048,0.475c0.194,1.814,0.364,3.645,0.563,5.544c0,0.05,0.024,0.146,0.024,0.243
							c0.07,0.607,0.12,1.243,0.191,1.827c0.024,0.122,0.024,0.245,0.05,0.392c0.071,0.608,0.146,1.219,0.22,1.852
							c0,0.146,0.023,0.244,0.023,0.392c0.072,0.608,0.121,1.269,0.221,1.949c0,0.048,0,0.146,0.023,0.194
							c4.801,41.276,16.008,103.073,30.481,157.485c27.222,102.275,54.271,138.534,69.158,138.534
							c14.889,0,41.96-36.259,69.154-138.53c12.187-45.857,22.079-96.958,27.756-136.579c0.022-0.146,0.05-0.293,0.073-0.438
							c0.146-1.146,0.29-2.27,0.438-3.363L365.718,368.564z"/>
					</g>
				</g>
			</g>
			<g>
				<g>
					<g>
						<defs>
							<rect id="SVGID_11_" x="6.613" y="5.501" width="526.51" height="643"/>
						</defs>
						<clipPath id="SVGID_12_">
							<use xlink:href="#SVGID_11_"  overflow="visible"/>
						</clipPath>
						<path clip-path="url(#SVGID_12_)" fill="#FFFFFF" d="M446.423,235.143c-25.584,0-48.563,11.109-64.45,28.717
							c7.919,16.496,12.354,34.967,12.354,54.449c0,23.017-6.188,70.385-16.425,122.144c15.862,69.447,40.67,141.186,68.521,141.186
							c47.885,0,86.7-211.9,86.7-259.782C533.122,273.97,494.307,235.143,446.423,235.143"/>
					</g>
				</g>
			</g>
		</g>
	</g>
</g>
<g id="Ebene_2" display="none">
	<g display="inline">
		<polygon fill="#FFFFFF" points="58.642,301.73 223.922,201.558 130.212,12.403 6.166,77.582 		"/>
		<polygon opacity="0.4" fill="#FFFFFF" enable-background="new    " points="223.922,201.558 381.36,252.458 243.062,56.937 
			130.212,12.403 		"/>
		<polygon opacity="0.8" fill="#FFFFFF" enable-background="new    " points="381.36,252.458 533.948,172.945 359.069,4.436 
			243.062,56.937 		"/>
	</g>
</g>
<g id="Ebene_9" display="none">
	<g display="inline">
		<g opacity="0.5">
			<polygon points="58.081,365.4 223.769,264.993 129.804,75.439 5.5,140.744 			"/>
			<polygon opacity="0.4" enable-background="new    " points="223.769,264.993 381.541,316 242.908,120.027 129.804,75.439 			"/>
			<polygon opacity="0.8" enable-background="new    " points="381.541,316 534.478,236.339 359.193,67.446 242.908,120.027 			"/>
		</g>
		<path fill="#A7171F" d="M215.748,5.126c-22.077,0-39.914,17.892-39.914,39.944c0,22.046,39.914,100.678,39.914,100.678
			s39.886-78.631,39.886-100.678C255.634,23.018,237.824,5.126,215.748,5.126z M215.748,77.124c-15.877,0-28.71-12.862-28.71-28.685
			c0-15.853,12.833-28.686,28.71-28.686c15.85,0,28.683,12.833,28.683,28.686C244.431,64.262,231.598,77.124,215.748,77.124z"/>
	</g>
</g>
<g id="Ebene_14" display="none">
	<polygon display="inline" fill="#FFFFFF" points="5.216,236.189 531.854,10.605 306.267,537.174 258.26,284.131 	"/>
</g>
<g id="Ebene_15" display="none">
	<g display="inline">
		<path fill="#FFFFFF" d="M342.654,327.975V523.79H196.288V327.975H5.502V198.785h190.786V5h146.365v193.785h190.754v129.189
			H342.654z"/>
	</g>
</g>
<g id="Ebene_16" display="none">
	<path display="inline" fill="#FFFFFF" d="M6.86,173.597V5.551H532v168.046H6.86z"/>
</g>
<g id="Ebene_10" display="none">
	<g display="inline">
		<g opacity="0.8">
			<path fill="#FFFFFF" d="M432.739,301.521h-45.633v60.797h39.53V587.25H68.042V362.318h39.505v-60.797H61.969
				c-30.224,0-54.75,24.574-54.75,54.726v237.075c0,30.15,24.526,54.678,54.75,54.678h370.77c30.175,0,54.672-24.526,54.672-54.678
				V356.247C487.41,326.096,462.913,301.521,432.739,301.521z"/>
			<polygon fill="#FFFFFF" points="189.168,5.342 189.168,182.156 126.728,182.156 247.339,390.977 367.926,182.156 
				305.511,182.156 305.511,5.342 			"/>
			<rect x="92.284" y="503.123" fill="#FFFFFF" width="310.134" height="55.241"/>
			<rect x="92.284" y="418.734" fill="#FFFFFF" width="310.134" height="55.241"/>
		</g>
	</g>
</g>
<g id="Ebene_12" display="none">
	<g display="inline">
		<polygon opacity="0.2" fill="#FFFFFF" enable-background="new    " points="265.479,650.979 9.182,339.725 265.479,204.241 
			521.823,339.725 		"/>
		<g opacity="0.3">
			<polygon fill="#FFFFFF" points="265.479,514.092 9.182,235.786 265.479,100.271 521.823,235.786 			"/>
		</g>
		<g opacity="0.4">
			<polygon fill="#FFFFFF" points="265.479,376.786 9.182,142.415 265.479,6.9 521.823,142.415 			"/>
		</g>
	</g>
</g>
<g id="Ebene_13" display="none">
	<g display="inline" opacity="0.5">
		<g>
			<path fill="#FFFFFF" d="M49.294,574.289c-23.166,0-42.014-20.398-42.014-45.471V52.479C7.281,27.402,26.128,7,49.294,7h440.574
				c23.165,0,42.012,20.402,42.012,45.479v476.339c0,25.071-18.847,45.471-42.012,45.471H49.294z"/>
			<path d="M489.868,8c22.613,0,41.012,19.954,41.012,44.479v476.339c0,24.521-18.397,44.471-41.012,44.471H49.294
				c-22.615,0-41.014-19.949-41.014-44.471V52.479C8.281,27.954,26.68,8,49.294,8H489.868 M489.868,6H49.294
				C25.577,6,6.281,26.816,6.281,52.479v476.339c0,25.686,19.297,46.471,43.014,46.471h440.574
				c23.771,0,43.012-20.785,43.012-46.471V52.479C532.88,26.816,513.641,6,489.868,6L489.868,6z"/>
		</g>
		<g opacity="0.8">
			<path d="M361.31,486.203H201.305v-8.527l11.832-0.537c9.487-1.037,15.245-3.51,17.216-7.428
				c1.974-3.92,2.985-12.395,2.985-25.504l0.479-24.521V292.512l-0.479-21.82c-0.691-8.502-1.705-14.931-2.985-19.168
				c-1.332-4.262-7.193-6.926-17.695-7.994l-13.325-1.063v-8.474h129.466v185.693l0.531,24.521c0,12.738,0.959,21.156,2.934,25.229
				c1.971,4.082,7.674,6.664,17.214,7.701l11.833,0.537V486.203L361.31,486.203z M232.325,145.088
				c0-13.807,4.743-25.613,14.125-35.392c9.381-9.756,20.68-14.629,33.897-14.629c13.484,0,24.945,4.714,34.378,14.12
				c9.381,9.411,14.072,21.349,14.072,35.901c0,14.202-4.691,26.167-14.072,35.923c-9.433,9.752-20.894,14.657-34.378,14.657
				c-13.218,0-24.517-4.905-33.897-14.657C237.069,171.255,232.325,159.29,232.325,145.088z"/>
		</g>
	</g>
</g>
<g id="Ebene_3" display="none">
	<g display="inline">
		<path fill="#1D1D1B" d="M268.271,5.827C123.492,5.827,5.7,123.666,5.7,268.448c0,144.729,117.792,262.521,262.57,262.521
			s262.523-117.792,262.523-262.521C530.795,123.666,413.05,5.827,268.271,5.827z M268.271,478.955
			c-116.128,0-210.557-94.43-210.557-210.507c0-116.177,94.429-210.606,210.557-210.606c116.077,0,210.557,94.429,210.557,210.606
			C478.827,384.525,384.349,478.955,268.271,478.955z"/>
		<path fill="#1D1D1B" d="M326.945,181.366l-58.92,52.405l-106.92-92.767c-10.821-9.401-27.229-8.225-36.683,2.55
			c-9.403,10.869-8.23,27.329,2.597,36.735l115.687,100.401c4.604,9.5,14.302,16.063,25.565,16.063
			c11.362,0,21.157-6.709,25.664-16.354l67.592-60.245c10.724-9.5,11.705-25.955,2.152-36.683
			C354.08,172.744,337.673,171.761,326.945,181.366z"/>
	</g>
</g>
<g id="Ebene_4" display="none">
	<g display="inline">
		<g>
			<path fill="#1A171B" d="M341.321,5.441H7.113V648.5h514.426V185.617L341.321,5.441z M84.279,82.607h221.773v138.284h138.321
				v350.444H84.279V82.607z"/>
			<rect x="127.95" y="472.916" fill="#1A171B" width="272.714" height="53.431"/>
			<rect x="127.95" y="368.4" fill="#1A171B" width="272.714" height="53.423"/>
			<rect x="127.95" y="263.918" fill="#1A171B" width="272.714" height="53.422"/>
		</g>
	</g>
</g>
<g id="Ebene_5" display="none">
	<g display="inline">
		<path fill="#FFFFFF" d="M341.324,5.503H6.268v644.701H522V186.141L341.324,5.503z M83.626,82.862h222.342v138.637H444.64v351.345
			H83.626V82.862z"/>
		<rect x="127.401" y="474.175" fill="#FFFFFF" width="273.41" height="53.566"/>
		<rect x="127.401" y="369.393" fill="#FFFFFF" width="273.41" height="53.561"/>
		<rect x="127.401" y="264.634" fill="#FFFFFF" width="273.41" height="53.562"/>
	</g>
</g>
<g id="Ebene_6" display="none">
	<g display="inline">
		<g opacity="0.2">
			<polygon fill="#FFFFFF" points="352.988,527.654 533.735,429.354 533.053,56.111 352.327,154.412 			"/>
		</g>
		<g opacity="0.6">
			<polygon fill="#FFFFFF" points="352.327,154.412 533.053,56.111 187.24,7.502 6.492,105.803 			"/>
		</g>
		<g>
			<polygon fill="#FFFFFF" points="6.492,105.803 7.222,479.045 352.988,527.654 352.327,154.412 			"/>
		</g>
	</g>
</g>
<g id="Ebene_7" display="none">
	<g display="inline">
		<g opacity="0.5">
			<g>
				<g>
					<path d="M420.308,174.522h-82.034v51.733h82.034c4.647,0,8.611,3.859,8.611,8.61v353.503c0,4.759-3.964,8.617-8.611,8.617
						H66.75c-4.703,0-8.611-3.858-8.611-8.617V234.865c0-4.751,3.908-8.61,8.611-8.61h81.979v-51.733H66.75
						c-33.264,0-60.343,27.081-60.343,60.343v353.503c0,33.271,27.079,60.396,60.343,60.396h353.557
						c33.265,0,60.289-27.127,60.289-60.396V234.865C480.597,201.603,453.572,174.522,420.308,174.522z"/>
				</g>
				<polygon points="183.234,5.024 183.234,274.621 118.483,274.621 243.481,491.149 368.575,274.621 303.777,274.621 
					303.777,5.024 				"/>
			</g>
			<g>
				<g opacity="0.5">
					<path fill="#009245" d="M420.308,174.522h-82.034v51.733h82.034c4.647,0,8.611,3.859,8.611,8.61v353.503
						c0,4.759-3.964,8.617-8.611,8.617H66.75c-4.703,0-8.611-3.858-8.611-8.617V234.865c0-4.751,3.908-8.61,8.611-8.61h81.979
						v-51.733H66.75c-33.264,0-60.343,27.081-60.343,60.343v353.503c0,33.271,27.079,60.396,60.343,60.396h353.557
						c33.265,0,60.289-27.127,60.289-60.396V234.865C480.597,201.603,453.572,174.522,420.308,174.522z"/>
				</g>
				<polygon opacity="0.5" fill="#009245" enable-background="new    " points="183.234,5.024 183.234,274.621 118.483,274.621 
					243.481,491.149 368.575,274.621 303.777,274.621 303.777,5.024 				"/>
			</g>
		</g>
	</g>
</g>
<g id="Ebene_8" display="none">
	<g display="inline">
		<path fill="#FFFFFF" d="M6,7.5v445h527V7.5H6z M490,50.5v210.439L372.282,118.488L236.02,252.598l50.418,62.637
			c2.827,3.636,2.866,8.856-0.77,11.703c-1.524,1.205-3.008,1.78-4.805,1.78c-0.91,0-1.594-0.278-2.463-0.595
			c-0.556-0.197-1.015-0.477-1.548-0.75c-0.831-0.516-1.611-1.049-2.245-1.859l-47.98-61.252l-0.142,0.117l-45.029-57.178
			L45,325.631V50.5H490z"/>
		<path fill="#FFFFFF" d="M123.046,167.895c24.991,0,45.218-20.265,45.218-45.236c0-24.991-20.227-45.199-45.218-45.199
			s-45.218,20.208-45.218,45.199C77.829,147.63,98.055,167.895,123.046,167.895z"/>
	</g>
</g>
<g>
	<g>
		<defs>
			<rect id="SVGID_13_" x="114.83" y="7.75" width="311.583" height="417"/>
		</defs>
		<clipPath id="SVGID_14_">
			<use xlink:href="#SVGID_13_"  overflow="visible"/>
		</clipPath>
		<path clip-path="url(#SVGID_14_)" d="M390.933,199.934h-29.605v39.448h25.651v145.949H154.296V239.382h25.635v-39.448h-29.577
			c-19.611,0-35.524,15.937-35.524,35.51v153.813c0,19.581,15.914,35.509,35.524,35.509h240.579c19.581,0,35.48-15.928,35.48-35.509
			V235.443C426.413,215.87,410.514,199.934,390.933,199.934"/>
		<polygon clip-path="url(#SVGID_14_)" points="232.89,7.75 232.89,122.479 192.36,122.479 270.637,257.988 348.881,122.479 
			308.382,122.479 308.382,7.75 		"/>
		<rect x="170.026" y="330.743" clip-path="url(#SVGID_14_)" width="201.235" height="35.844"/>
		<rect x="170.026" y="275.987" clip-path="url(#SVGID_14_)" width="201.235" height="35.844"/>
	</g>
</g>
</svg>
