<?xml version="1.0" encoding="utf-8"?>
<!-- Generator: Adobe Illustrator 26.3.1, SVG Export Plug-In . SVG Version: 6.00 Build 0)  -->
<svg version="1.1" id="Ebene_1" xmlns="http://www.w3.org/2000/svg" xmlns:xlink="http://www.w3.org/1999/xlink" x="0px" y="0px"
	 viewBox="0 0 100 100" width="100" height="100" style="enable-background:new 0 0 100 100;" xml:space="preserve">
<style type="text/css">
	.st0{fill:#020203;}
	.st1{fill:#FFFFFF;}
</style>
<g>
	<path class="st0" d="M0,8.5C0,3.8,3.8,0,8.5,0h83c4.7,0,8.5,3.8,8.5,8.5v83c0,4.7-3.8,8.5-8.5,8.5h-83C3.8,100,0,96.2,0,91.5V8.5z"
		/>
</g>
<g>
	<path class="st1" d="M87.1,48.8c-0.2-0.2-4.3-5.2-10.8-10.3c-8.9-6.8-18.1-10.5-26.5-10.5s-17.7,3.5-26.5,10.3
		c-6.6,5-10.8,10.1-10.9,10.4l-1.1,1.5l1.1,1.5c0.2,0.2,4.3,5.2,10.8,10.3c8.8,6.8,18.1,10.3,26.5,10.3s17.8-3.5,26.5-10.3
		C82.8,57,86.7,52,87,51.7l1.1-1.5L87.1,48.8z M49.9,67.6c-9,0-16.4-7.9-16.4-17.3s7.3-17.3,16.4-17.3s16.4,7.8,16.4,17.3
		S58.8,67.6,49.9,67.6z M17.4,50.3c1.6-1.8,4.8-4.9,8.9-8.3c1.9-1.6,4.3-3.1,6.8-4.4c-2.6,3.5-4,8-4,12.7s1.5,9.2,4,12.7
		c-2.7-1.5-4.9-3.1-6.8-4.4C22,55.3,19,52.1,17.4,50.3z M73.5,58.4c-1.9,1.6-4.3,3.1-6.8,4.4c2.6-3.5,4-8,4-12.7s-1.5-9.2-4-12.7
		c2.7,1.5,4.9,3.1,6.8,4.4c4.2,3.1,7.3,6.4,8.9,8.3C80.5,52.1,77.6,55.3,73.5,58.4z"/>
	<path class="st1" d="M49.9,37.8c-1.6,0-3.1,0.4-4.6,0.9c2.6,0.2,4.4,2,4.4,4.6s-2,4.6-4.6,4.6c-2.6,0-4.6-2-4.6-4.6
		c0-0.6,0.2-1.1,0.3-1.5c-2,2.2-3.3,5.2-3.3,8.3c0,6.8,5.5,12.5,12.5,12.5s12.5-5.5,12.5-12.5S56.7,37.8,49.9,37.8z"/>
</g>
</svg>
