<?xml version="1.0" encoding="utf-8"?>
<!-- Generator: Adobe Illustrator 14.0.0, SVG Export Plug-In . SVG Version: 6.00 Build 43363)  -->
<!DOCTYPE svg PUBLIC "-//W3C//DTD SVG 1.1//EN" "http://www.w3.org/Graphics/SVG/1.1/DTD/svg11.dtd">
<svg version="1.1" id="Ebene_1" xmlns="http://www.w3.org/2000/svg" xmlns:xlink="http://www.w3.org/1999/xlink" x="0px" y="0px"
	 width="342.992px" height="119.055px" viewBox="0 0 342.992 119.055" enable-background="new 0 0 342.992 119.055"
	 xml:space="preserve">
<g>
	<g>
		<defs>
			<rect id="SVGID_1_" width="342.992" height="119.055"/>
		</defs>
		<clipPath id="SVGID_2_">
			<use xlink:href="#SVGID_1_"  overflow="visible"/>
		</clipPath>
		<path clip-path="url(#SVGID_2_)" fill="#FFFFFF" d="M284.835,38.178c0.582,0.592,1.386,0.885,2.417,0.885
			c1.025,0,1.836-0.293,2.424-0.885c0.594-0.59,0.89-1.322,0.89-2.194c0-0.868-0.296-1.598-0.89-2.189
			c-0.588-0.59-1.398-0.888-2.424-0.888c-1.031,0-1.835,0.298-2.417,0.888c-0.581,0.592-0.872,1.322-0.872,2.189
			C283.963,36.856,284.254,37.588,284.835,38.178 M303.195,35.984c0-0.868,0.297-1.598,0.89-2.189
			c0.59-0.59,1.401-0.888,2.423-0.888c1.031,0,1.841,0.298,2.43,0.888c0.593,0.592,0.89,1.322,0.89,2.189
			c0,0.873-0.297,1.604-0.89,2.194c-0.589,0.592-1.398,0.885-2.43,0.885c-1.021,0-1.833-0.293-2.423-0.885
			C303.492,37.588,303.195,36.856,303.195,35.984 M40.273,33.082v25.171c0,5.349-2.542,8.023-7.623,8.023
			c-2.505,0-4.401-0.666-5.687-2.004c-1.288-1.338-1.936-3.276-1.936-5.811v-25.38h-6.573V58.45c0,4.121,1.278,7.347,3.836,9.667
			c2.557,2.323,6.009,3.486,10.359,3.486c4.297,0,7.738-1.179,10.321-3.537c2.585-2.355,3.878-5.558,3.878-9.592V33.082H40.273
			L40.273,33.082z M84.249,33.082h-6.548v27.064L60.709,33.082h-6.604v37.997h6.604V44.12l16.937,26.959h6.602V33.082L84.249,33.082
			z M99.234,33.082h-6.576v37.997h6.576V33.082L99.234,33.082z M111.399,33.082h-7.228l13.625,37.997h6.392l13.675-37.997h-7.252
			l-9.66,29.727L111.399,33.082L111.399,33.082z M164.567,48.897h-15.605V38.406h18.06v-5.324h-24.663v37.997h24.842v-5.321h-18.239
			V54.116h15.605V48.897L164.567,48.897z M194.378,71.079h7.07v-0.336l-8.535-15.827c2.194-0.919,3.9-2.242,5.128-3.955
			c1.229-1.717,1.839-3.846,1.839-6.387c0-3.727-1.192-6.574-3.575-8.541c-2.382-1.97-5.766-2.952-10.15-2.952h-13.361v37.997h6.604
			V56.466h7.359L194.378,71.079L194.378,71.079z M179.396,38.406h6.967c2.294,0.035,4.023,0.611,5.181,1.723
			c1.154,1.114,1.736,2.686,1.736,4.721c0,1.952-0.629,3.486-1.877,4.61c-1.254,1.122-2.996,1.68-5.223,1.68h-6.784V38.406
			L179.396,38.406z M224.484,64.986c-1.158,0.932-2.886,1.396-5.182,1.396c-2.658,0-4.706-0.59-6.13-1.775
			c-1.431-1.182-2.141-2.851-2.141-5.01h-6.604c0,2.384,0.638,4.473,1.918,6.261c1.278,1.794,3.072,3.2,5.372,4.217
			c2.306,1.018,4.837,1.528,7.584,1.528c4.161,0,7.451-0.937,9.88-2.808c2.427-1.869,3.64-4.385,3.64-7.553
			c0-1.949-0.42-3.651-1.254-5.104c-0.834-1.453-2.147-2.738-3.939-3.861c-1.791-1.124-4.165-2.122-7.125-2.997
			c-2.958-0.873-5.078-1.774-6.368-2.704c-1.286-0.926-1.93-2.081-1.93-3.467c0-1.647,0.594-2.931,1.786-3.846
			c1.196-0.92,2.87-1.379,5.025-1.379c2.312,0,4.095,0.557,5.333,1.67c1.246,1.111,1.868,2.652,1.868,4.618h6.574
			c0-2.191-0.591-4.187-1.771-5.989c-1.185-1.8-2.809-3.186-4.883-4.162c-2.072-0.975-4.426-1.462-7.068-1.462
			c-3.986,0-7.229,0.991-9.726,2.975c-2.494,1.984-3.741,4.505-3.741,7.57c0,3.497,1.729,6.333,5.192,8.507
			c1.807,1.131,4.244,2.156,7.304,3.078c3.064,0.925,5.182,1.836,6.359,2.74c1.169,0.904,1.759,2.194,1.759,3.86
			C226.219,62.824,225.641,64.056,224.484,64.986 M245.798,33.082h-6.579v37.997h6.579V33.082L245.798,33.082z M280.826,33.082
			H250.68v5.324h11.748v32.673h6.551V38.406h11.848V33.082L280.826,33.082z M307.27,71.079h6.887l-14.377-37.997h-5.928
			l-14.351,37.997h6.861l3.081-8.847h14.718L307.27,71.079L307.27,71.079z M296.801,41.147l5.507,15.764h-11.011L296.801,41.147
			L296.801,41.147z M343.001,33.082h-30.146v5.324h11.745v32.673h6.547V38.406h11.854V33.082L343.001,33.082z"/>
		<path clip-path="url(#SVGID_2_)" fill="#FFFFFF" d="M31.529,10.792h-9.116V4.054h10.454V0.88h-14.39v22.654h3.936v-9.571h9.116
			V10.792L31.529,10.792z M48.974,23.534h4.219v-0.2l-5.09-9.435c1.307-0.551,2.331-1.338,3.061-2.359
			c0.73-1.024,1.095-2.292,1.095-3.809c0-2.221-0.71-3.918-2.132-5.091c-1.42-1.175-3.438-1.761-6.052-1.761h-7.969v22.654h3.936
			v-8.715h4.391L48.974,23.534L48.974,23.534z M40.042,4.054h4.156c1.368,0.021,2.398,0.363,3.087,1.028
			c0.69,0.662,1.036,1.603,1.036,2.814c0,1.165-0.374,2.079-1.122,2.746c-0.745,0.671-1.782,1.005-3.109,1.005h-4.048V4.054
			L40.042,4.054z M60.275,0.88h-3.921v22.654h3.921V0.88L60.275,0.88z M78.483,10.31h-9.306V4.054h10.77V0.88H65.242v22.654h14.812
			V20.36H69.177v-6.942h9.306V10.31L78.483,10.31z M89.906,23.534c2.044,0,3.857-0.439,5.436-1.322
			c1.587-0.88,2.801-2.137,3.659-3.766c0.857-1.626,1.285-3.515,1.285-5.662v-1.138c0-2.118-0.427-3.993-1.276-5.63
			c-0.849-1.642-2.053-2.905-3.603-3.797c-1.552-0.893-3.329-1.34-5.329-1.34h-6.691v22.654H89.906L89.906,23.534z M90.078,4.054
			c2.036,0,3.587,0.646,4.653,1.942s1.605,3.167,1.605,5.622v1.258c-0.027,2.411-0.588,4.261-1.688,5.55
			c-1.107,1.291-2.691,1.935-4.757,1.935h-2.566V4.054H90.078L90.078,4.054z M117.202,23.534h4.214v-0.2l-5.086-9.435
			c1.308-0.551,2.326-1.338,3.056-2.359c0.733-1.024,1.098-2.292,1.098-3.809c0-2.221-0.709-3.918-2.134-5.091
			c-1.418-1.175-3.436-1.761-6.05-1.761h-7.967v22.654h3.94v-8.715h4.386L117.202,23.534L117.202,23.534z M108.273,4.054h4.149
			c1.374,0.021,2.4,0.363,3.092,1.028c0.691,0.662,1.035,1.603,1.035,2.814c0,1.165-0.374,2.079-1.121,2.746
			c-0.745,0.671-1.787,1.005-3.113,1.005h-4.042V4.054L108.273,4.054z M128.505,0.88h-3.923v22.654h3.923V0.88L128.505,0.88z
			 M146.831,16.161c-0.204,1.617-0.697,2.774-1.478,3.469c-0.777,0.696-1.934,1.041-3.483,1.041c-1.689,0-2.974-0.642-3.852-1.93
			c-0.875-1.289-1.317-3.156-1.317-5.608v-2.006c0.023-2.421,0.492-4.258,1.412-5.506c0.917-1.25,2.235-1.878,3.944-1.878
			c1.471,0,2.59,0.36,3.353,1.081c0.763,0.723,1.237,1.896,1.421,3.527h3.923c-0.249-2.481-1.134-4.398-2.659-5.751
			c-1.528-1.354-3.537-2.031-6.038-2.031c-1.855,0-3.493,0.442-4.908,1.324c-1.419,0.881-2.505,2.136-3.261,3.762
			c-0.757,1.629-1.137,3.515-1.137,5.65v2.114c0.033,2.087,0.421,3.917,1.166,5.496c0.748,1.574,1.81,2.792,3.184,3.648
			c1.374,0.857,2.965,1.285,4.769,1.285c2.584,0,4.653-0.676,6.21-2.033c1.552-1.352,2.446-3.239,2.674-5.654H146.831
			L146.831,16.161z M172.386,0.88h-3.923v9.43h-10.127V0.88h-3.938v22.654h3.938v-10.05h10.127v10.05h3.923V0.88L172.386,0.88z
			 M184.878,12.378h-8.171v3.047h8.171V12.378L184.878,12.378z M200.834,19.901c-0.688,0.556-1.718,0.833-3.089,0.833
			c-1.585,0-2.807-0.353-3.656-1.058c-0.851-0.708-1.275-1.701-1.275-2.99h-3.935c0,1.423,0.382,2.667,1.146,3.736
			c0.76,1.07,1.827,1.904,3.201,2.513c1.374,0.607,2.882,0.911,4.52,0.911c2.484,0,4.445-0.558,5.89-1.673
			c1.448-1.116,2.176-2.618,2.176-4.506c0-1.159-0.256-2.174-0.752-3.042c-0.498-0.865-1.28-1.635-2.347-2.3
			c-1.071-0.67-2.482-1.267-4.252-1.788c-1.762-0.522-3.026-1.058-3.792-1.613c-0.771-0.55-1.152-1.24-1.152-2.069
			c0-0.981,0.354-1.745,1.066-2.292c0.706-0.547,1.706-0.823,2.994-0.823c1.377,0,2.436,0.332,3.181,0.997
			c0.745,0.663,1.116,1.579,1.116,2.757h3.917c0-1.31-0.351-2.5-1.06-3.576c-0.703-1.071-1.668-1.9-2.905-2.479
			c-1.237-0.582-2.645-0.873-4.219-0.873c-2.374,0-4.304,0.592-5.793,1.773c-1.489,1.184-2.234,2.69-2.234,4.514
			c0,2.083,1.03,3.777,3.095,5.072c1.08,0.677,2.528,1.288,4.356,1.835c1.825,0.552,3.092,1.095,3.789,1.633
			c0.7,0.54,1.054,1.307,1.054,2.304C201.873,18.613,201.528,19.346,200.834,19.901 M222.944,16.161
			c-0.205,1.617-0.701,2.774-1.479,3.469c-0.773,0.696-1.937,1.042-3.486,1.042c-1.688,0-2.971-0.644-3.849-1.932
			c-0.876-1.289-1.314-3.156-1.314-5.608v-2.006c0.021-2.421,0.489-4.258,1.406-5.506c0.92-1.25,2.237-1.878,3.946-1.878
			c1.472,0,2.591,0.36,3.351,1.081c0.766,0.723,1.24,1.896,1.425,3.527h3.926c-0.253-2.481-1.14-4.398-2.662-5.751
			c-1.525-1.354-3.537-2.031-6.039-2.031c-1.856,0-3.492,0.442-4.911,1.324c-1.415,0.881-2.501,2.136-3.261,3.762
			c-0.757,1.629-1.133,3.515-1.133,5.65v2.114c0.032,2.087,0.421,3.917,1.169,5.496c0.748,1.574,1.807,2.792,3.181,3.648
			c1.374,0.857,2.961,1.285,4.766,1.285c2.588,0,4.652-0.676,6.211-2.033c1.558-1.352,2.447-3.239,2.68-5.654H222.944
			L222.944,16.161z M248.564,0.88h-3.924v9.43h-10.127V0.88h-3.938v22.654h3.938v-10.05h10.127v10.05h3.924V0.88L248.564,0.88z
			 M257.496,0.88h-3.923v22.654h3.923V0.88L257.496,0.88z M266.398,0.88h-3.936v22.654h14.219V20.36h-10.283V0.88L266.398,0.88z
			 M283.77,0.88h-3.941v22.656h14.223V20.36H283.77V0.88L283.77,0.88z M310.436,10.31h-9.299V4.055h10.763V0.88h-14.7v22.656h14.81
			V20.36h-10.872v-6.942h9.299V10.31L310.436,10.31z M328.211,23.536h4.216v-0.202l-5.086-9.435c1.31-0.549,2.327-1.338,3.058-2.359
			c0.732-1.024,1.094-2.292,1.094-3.809c0-2.22-0.706-3.918-2.133-5.089c-1.418-1.177-3.437-1.763-6.051-1.763h-7.968v22.656h3.941
			v-8.716h4.389L328.211,23.536L328.211,23.536z M319.282,4.055h4.15c1.371,0.02,2.401,0.362,3.09,1.027
			c0.688,0.662,1.032,1.603,1.032,2.814c0,1.165-0.367,2.079-1.115,2.746c-0.748,0.671-1.786,1.005-3.113,1.005h-4.044V4.055
			L319.282,4.055z M343.092,12.378h-8.166v3.049h8.166V12.378L343.092,12.378z"/>
	</g>
	<path fill="#FFFFFF" d="M18.369,106.632c0,2.069-0.526,3.692-1.58,4.868c-1.056,1.17-2.472,1.761-4.247,1.761
		c-1.9,0-3.352-0.51-4.353-1.531c-1.001-1.017-1.501-2.539-1.501-4.561H0.1c0,3.575,1.081,6.371,3.241,8.389
		c2.159,2.023,5.225,3.032,9.201,3.032c3.726,0,6.729-1.07,9.002-3.213c2.274-2.145,3.411-5.034,3.411-8.678V80.016h-6.586V106.632
		L18.369,106.632z M55.285,95.854h-15.63V85.345h18.083v-5.329H33.044v38.055h24.88v-5.336H39.655v-11.652h15.63V95.854
		L55.285,95.854z M94.028,80.016h-6.562v27.104L70.452,80.016h-6.608v38.055h6.608V91.069l16.965,27.001h6.611V80.016L94.028,80.016
		z M127.259,118.07h6.899L119.76,80.016h-5.933L99.453,118.07h6.873l3.084-8.861h14.738L127.259,118.07L127.259,118.07z
		 M116.779,88.091l5.513,15.787h-11.026L116.779,88.091L116.779,88.091z"/>
</g>
</svg>
