<?xml version="1.0" encoding="utf-8"?>
<!-- Generator: Adobe Illustrator 15.0.0, SVG Export Plug-In . SVG Version: 6.00 Build 0)  -->
<!DOCTYPE svg PUBLIC "-//W3C//DTD SVG 1.1//EN" "http://www.w3.org/Graphics/SVG/1.1/DTD/svg11.dtd">
<svg version="1.1" id="Ebene_1" xmlns="http://www.w3.org/2000/svg" xmlns:xlink="http://www.w3.org/1999/xlink" x="0px" y="0px"
	 width="505.2px" height="39.571px" viewBox="0 0 505.2 39.571" enable-background="new 0 0 505.2 39.571" xml:space="preserve">
<g>
	<g>
		<defs>
			<rect id="SVGID_1_" x="0" y="2.002" width="505.201" height="37.569"/>
		</defs>
		<clipPath id="SVGID_2_">
			<use xlink:href="#SVGID_1_"  overflow="visible"/>
		</clipPath>
		<path clip-path="url(#SVGID_2_)" fill="#FFFFFF" d="M501.337,14.422c-2.413,0.404-3.917,0.84-4.511,1.306
			c-0.595,0.465-0.893,1.185-0.893,2.159c0,1.344,0.667,2.016,2.002,2.016c1.146,0,2.279-0.664,3.4-1.991L501.337,14.422
			L501.337,14.422z M495.339,12.381l-0.504-0.131l-0.103-0.129v-1.603c1.532-1.137,3.022-1.706,4.471-1.706
			c0.99,0,1.813,0.185,2.47,0.556c0.654,0.37,1.128,0.833,1.422,1.39c0.292,0.556,0.438,1.204,0.438,1.944l-0.064,2.599v3.851
			c0,0.526,0.036,0.845,0.109,0.956c0.074,0.112,0.156,0.188,0.252,0.227c0.096,0.039,0.271,0.071,0.53,0.098l0.735,0.064
			l0.104,0.116v0.518l-0.104,0.104c-0.629-0.052-1.215-0.079-1.757-0.079c-0.518,0-1.139,0.026-1.862,0.079l-0.192-0.182
			l0.053-2.081l-2.818,2.196c-0.474,0.197-0.989,0.298-1.55,0.298c-0.689,0-1.283-0.125-1.777-0.375
			c-0.495-0.25-0.875-0.6-1.138-1.048c-0.263-0.447-0.394-0.99-0.394-1.629c0-1.267,0.395-2.255,1.188-2.966
			c0.792-0.71,2.955-1.315,6.488-1.815c0-1.275-0.285-2.175-0.854-2.694c-0.568-0.522-1.331-0.782-2.286-0.782
			c-0.501,0-0.956,0.073-1.363,0.219c-0.411,0.147-0.646,0.266-0.705,0.356c-0.063,0.09-0.293,0.617-0.697,1.582L495.339,12.381z
			 M477.453,9.796c1.646-0.199,3.033-0.522,4.162-0.97l0.246,0.167c-0.054,0.577-0.088,1.335-0.104,2.275
			c0.689-0.569,1.345-1.146,1.965-1.732c0.182-0.164,0.353-0.283,0.512-0.361c0.157-0.078,0.424-0.16,0.795-0.246
			c0.368-0.086,0.749-0.129,1.137-0.129c0.655,0,1.29,0.133,1.906,0.399c0.616,0.268,1.081,0.583,1.396,0.95
			s0.533,0.799,0.653,1.299c0.121,0.499,0.181,1.115,0.181,1.849v2.274c0,0.146,0.021,1.218,0.065,3.217
			c0.017,0.818,0.105,1.306,0.271,1.46c0.163,0.155,0.698,0.233,1.604,0.233l0.104,0.103v0.557l-0.104,0.103
			c-1.094-0.067-1.836-0.103-2.223-0.103c-0.225,0-0.854,0.035-1.888,0.103l-0.155-0.142c0.112-1.121,0.167-2.58,0.167-4.381v-1.693
			c0-1.017-0.022-1.749-0.069-2.197c-0.048-0.447-0.191-0.855-0.434-1.222c-0.24-0.366-0.563-0.651-0.97-0.853
			c-0.404-0.203-0.888-0.304-1.447-0.304c-0.446,0-0.831,0.044-1.149,0.136c-0.318,0.09-0.678,0.275-1.072,0.556
			c-0.396,0.28-0.689,0.542-0.879,0.788c-0.19,0.246-0.303,0.474-0.343,0.685c-0.038,0.212-0.059,0.662-0.059,1.352v2.249
			c0,0.188,0.018,0.799,0.052,1.829c0.034,1.028,0.071,1.63,0.108,1.802c0.04,0.173,0.099,0.298,0.176,0.375
			c0.077,0.078,0.173,0.127,0.285,0.148c0.111,0.022,0.576,0.059,1.396,0.11l0.115,0.104v0.542l-0.104,0.115
			c-1.076-0.067-2.114-0.103-3.115-0.103c-0.99,0-2.023,0.035-3.101,0.103l-0.116-0.115v-0.542l0.116-0.104
			c0.835-0.052,1.308-0.09,1.415-0.117c0.106-0.025,0.201-0.08,0.285-0.161c0.08-0.082,0.137-0.207,0.168-0.375
			c0.028-0.167,0.063-0.723,0.103-1.667c0.038-0.943,0.058-1.655,0.058-2.139v-2.547c0-0.344-0.017-0.814-0.051-1.409
			c-0.035-0.594-0.063-0.961-0.084-1.099c-0.021-0.139-0.089-0.238-0.201-0.304c-0.11-0.063-0.335-0.098-0.671-0.098l-1.087-0.013
			l-0.115-0.104V9.894L477.453,9.796z M466.995,13.956c0.155,0.026,0.751,0.057,1.791,0.092c1.037,0.033,1.806,0.051,2.306,0.051
			c1.197,0,1.926-0.021,2.187-0.065c0.008-0.207,0.013-0.366,0.013-0.478c0-1.336-0.271-2.329-0.814-2.979s-1.283-0.977-2.224-0.977
			c-1.025,0-1.824,0.366-2.396,1.099C467.282,11.431,466.995,12.517,466.995,13.956 M475.28,19.241l-0.415,0.932
			c-0.896,0.577-1.694,0.952-2.396,1.125c-0.703,0.172-1.329,0.258-1.88,0.258c-1.035,0-2.015-0.202-2.94-0.607
			c-0.927-0.404-1.68-1.09-2.262-2.055c-0.581-0.964-0.873-2.127-0.873-3.489c0-0.905,0.113-1.721,0.336-2.449
			c0.226-0.728,0.459-1.268,0.704-1.623c0.247-0.354,0.661-0.744,1.248-1.176c0.586-0.431,1.205-0.774,1.861-1.034
			c0.653-0.258,1.36-0.387,2.119-0.387c1.034,0,1.944,0.244,2.732,0.73s1.343,1.109,1.66,1.866c0.319,0.759,0.479,1.564,0.479,2.417
			c0,0.269-0.014,0.526-0.038,0.775l-0.144,0.143c-0.585,0.13-1.374,0.216-2.365,0.259c-0.989,0.043-1.646,0.063-1.965,0.063h-4.147
			c0.018,1.784,0.466,3.099,1.345,3.942c0.878,0.844,1.956,1.266,3.229,1.266c0.604,0,1.185-0.103,1.737-0.31
			c0.559-0.207,1.146-0.496,1.767-0.866L475.28,19.241z M463.91,2.97v0.646l-0.091,0.09c-0.604,0.019-1.066,0.043-1.391,0.077
			c-0.322,0.035-0.559,0.101-0.705,0.195s-0.242,0.316-0.29,0.666c-0.048,0.348-0.07,0.833-0.07,1.454l-0.025,2.973v9.279
			c0,1.362-0.121,2.475-0.363,3.341c-0.24,0.865-0.662,1.666-1.267,2.403c-0.603,0.735-1.225,1.283-1.866,1.641
			c-0.643,0.357-1.276,0.537-1.906,0.537c-0.181,0-0.362-0.022-0.544-0.065c0.019-0.344,0.031-0.688,0.04-1.032
			c0-0.215-0.013-0.534-0.04-0.957l0.246-0.167c0.44,0.327,0.9,0.491,1.383,0.491c0.423,0,0.771-0.08,1.041-0.238
			c0.271-0.16,0.464-0.375,0.574-0.647c0.111-0.271,0.183-0.768,0.207-1.492c0.025-0.724,0.038-1.345,0.038-1.861V9.072
			l-0.025-2.521c-0.008-0.982-0.032-1.615-0.076-1.899c-0.045-0.285-0.106-0.474-0.188-0.569c-0.082-0.095-0.237-0.172-0.465-0.232
			c-0.229-0.061-0.804-0.107-1.728-0.143l-0.091-0.09V2.972l0.091-0.09c2.183,0.068,3.417,0.103,3.711,0.103
			c0.301,0,1.538-0.034,3.709-0.103L463.91,2.97z M440.782,10.996v-0.337l0.09-0.129c0.81-0.301,1.465-0.582,1.966-0.84
			c0-2.248-0.027-3.558-0.079-3.928c0.89-0.313,1.616-0.644,2.187-0.996l0.309,0.258c-0.086,0.542-0.188,2.12-0.309,4.73
			c0.43,0.009,0.895,0.014,1.396,0.014c1.017,0,1.743-0.026,2.185-0.079l0.091,0.09l-0.246,1.086l-0.104,0.116
			c-0.439-0.008-0.928-0.013-1.461-0.013c-0.481,0-1.103,0.005-1.859,0.013l-0.078,5.261c0,1.214,0.026,2.011,0.083,2.385
			c0.057,0.375,0.212,0.667,0.466,0.878c0.254,0.212,0.631,0.316,1.13,0.316c0.577,0,1.112-0.15,1.604-0.453l0.311,0.465
			c-0.206,0.146-0.703,0.578-1.486,1.292c-0.447,0.208-0.904,0.312-1.369,0.312c-1.938,0-2.907-0.94-2.907-2.818
			c0-0.688,0.017-1.273,0.051-1.757c0.008-0.146,0.013-0.297,0.013-0.453v-5.363h-0.528c-0.389,0-0.831,0.018-1.332,0.052
			L440.782,10.996z M431.149,6.111c-0.388,0-0.719-0.137-0.995-0.413c-0.276-0.275-0.413-0.607-0.413-0.995s0.137-0.72,0.413-0.996
			c0.276-0.275,0.607-0.413,0.995-0.413c0.396,0,0.729,0.135,1.002,0.406c0.271,0.272,0.406,0.605,0.406,1.003
			c0,0.387-0.138,0.72-0.413,0.995S431.537,6.111,431.149,6.111 M436.617,6.111c-0.389,0-0.72-0.137-0.995-0.413
			c-0.276-0.275-0.415-0.607-0.415-0.995c0-0.396,0.137-0.73,0.408-1.003c0.271-0.271,0.604-0.406,1.002-0.406
			c0.396,0,0.729,0.135,1.001,0.406c0.271,0.272,0.408,0.605,0.408,1.003c0,0.387-0.14,0.72-0.415,0.995
			C437.335,5.973,437.004,6.111,436.617,6.111 M436.085,14.422c-2.412,0.404-3.915,0.84-4.509,1.306
			c-0.596,0.465-0.893,1.185-0.893,2.159c0,1.344,0.667,2.016,2.004,2.016c1.146,0,2.276-0.664,3.396-1.991L436.085,14.422
			L436.085,14.422z M430.089,12.381l-0.504-0.131l-0.103-0.129v-1.603c1.532-1.137,3.022-1.706,4.471-1.706
			c0.99,0,1.813,0.185,2.47,0.556c0.652,0.37,1.127,0.833,1.42,1.39c0.294,0.556,0.439,1.204,0.439,1.944l-0.063,2.599v3.851
			c0,0.526,0.036,0.845,0.11,0.956c0.071,0.112,0.156,0.188,0.251,0.227c0.096,0.039,0.271,0.071,0.53,0.098l0.735,0.064
			l0.104,0.116v0.518l-0.104,0.104c-0.629-0.052-1.215-0.079-1.758-0.079c-0.517,0-1.138,0.026-1.861,0.079l-0.192-0.182
			l0.051-2.081l-2.816,2.196c-0.474,0.197-0.99,0.298-1.552,0.298c-0.688,0-1.281-0.125-1.775-0.375
			c-0.495-0.25-0.875-0.6-1.138-1.048c-0.263-0.447-0.396-0.99-0.396-1.629c0-1.267,0.396-2.255,1.188-2.966
			c0.793-0.71,2.956-1.315,6.487-1.815c0-1.275-0.283-2.175-0.852-2.694c-0.569-0.522-1.332-0.782-2.287-0.782
			c-0.5,0-0.956,0.073-1.365,0.219c-0.408,0.147-0.646,0.266-0.703,0.356c-0.062,0.09-0.294,0.617-0.699,1.582L430.089,12.381z
			 M418.782,10.996v-0.337l0.091-0.129c0.809-0.301,1.464-0.582,1.964-0.84c0-2.248-0.025-3.558-0.078-3.928
			c0.888-0.313,1.616-0.644,2.186-0.996l0.311,0.258c-0.086,0.542-0.188,2.12-0.311,4.73c0.431,0.009,0.896,0.014,1.396,0.014
			c1.019,0,1.745-0.026,2.187-0.079l0.09,0.09l-0.245,1.086l-0.104,0.116c-0.438-0.008-0.926-0.013-1.46-0.013
			c-0.481,0-1.104,0.005-1.86,0.013l-0.078,5.261c0,1.214,0.027,2.011,0.085,2.385c0.056,0.375,0.21,0.667,0.466,0.878
			c0.254,0.212,0.631,0.316,1.13,0.316c0.577,0,1.112-0.15,1.604-0.453l0.31,0.465c-0.207,0.146-0.702,0.578-1.486,1.292
			c-0.448,0.208-0.903,0.312-1.369,0.312c-1.938,0-2.908-0.94-2.908-2.818c0-0.688,0.019-1.273,0.052-1.757
			c0.009-0.146,0.013-0.297,0.013-0.453v-5.363h-0.527c-0.39,0-0.833,0.018-1.332,0.052L418.782,10.996z M411.276,9.796
			c1.646-0.199,3.031-0.522,4.161-0.97l0.245,0.167c-0.096,1.129-0.142,2.564-0.142,4.305v2.921c0,0.188,0.017,0.799,0.052,1.829
			c0.034,1.028,0.07,1.63,0.108,1.802c0.04,0.173,0.098,0.298,0.175,0.375c0.078,0.078,0.173,0.127,0.285,0.148
			c0.11,0.022,0.577,0.059,1.396,0.11l0.116,0.104v0.542l-0.104,0.115c-1.076-0.067-2.115-0.103-3.115-0.103
			c-0.99,0-2.024,0.035-3.103,0.103l-0.114-0.115v-0.542l0.114-0.104c0.836-0.052,1.308-0.09,1.416-0.117
			c0.106-0.025,0.203-0.08,0.283-0.161c0.082-0.082,0.139-0.207,0.169-0.375c0.03-0.167,0.063-0.723,0.104-1.667
			c0.039-0.943,0.058-1.655,0.058-2.139v-2.547c0-0.344-0.017-0.814-0.052-1.409c-0.034-0.594-0.063-0.961-0.084-1.099
			c-0.021-0.139-0.089-0.238-0.2-0.304c-0.112-0.063-0.336-0.098-0.672-0.098l-1.086-0.013l-0.115-0.104V9.896L411.276,9.796z
			 M414.339,3.05c0.404,0,0.749,0.141,1.034,0.426c0.283,0.284,0.426,0.629,0.426,1.034c0,0.396-0.143,0.736-0.426,1.021
			c-0.285,0.284-0.63,0.426-1.034,0.426c-0.396,0-0.739-0.14-1.026-0.421c-0.289-0.278-0.435-0.621-0.435-1.026
			c0-0.404,0.146-0.75,0.435-1.034C413.599,3.189,413.943,3.05,414.339,3.05 M400.306,17.343h0.557l0.116,0.115
			c0.017,0.725,0.061,1.346,0.128,1.862c0.269,0.406,0.729,0.735,1.385,0.988c0.654,0.254,1.301,0.382,1.938,0.382
			c0.913,0,1.644-0.246,2.191-0.737c0.546-0.489,0.819-1.075,0.819-1.757c0-0.37-0.1-0.69-0.299-0.963
			c-0.196-0.271-0.495-0.495-0.896-0.671c-0.4-0.177-1.118-0.385-2.151-0.627c-0.888-0.207-1.509-0.368-1.86-0.484
			c-0.354-0.115-0.694-0.313-1.021-0.588c-0.327-0.274-0.577-0.613-0.749-1.015c-0.174-0.401-0.26-0.842-0.26-1.325
			c0-1.154,0.46-2.079,1.377-2.771c0.919-0.693,2.062-1.04,3.432-1.04c0.577,0,1.206,0.078,1.888,0.238
			c0.68,0.16,1.196,0.313,1.551,0.458l0.117,0.182c-0.069,0.344-0.113,1.25-0.13,2.714l-0.116,0.117h-0.518l-0.116-0.117
			c-0.033-0.525-0.081-0.895-0.143-1.104c-0.062-0.212-0.215-0.438-0.465-0.685c-0.251-0.246-0.604-0.452-1.061-0.62
			c-0.457-0.168-0.938-0.252-1.448-0.252c-0.524,0-0.966,0.077-1.324,0.231c-0.357,0.155-0.646,0.39-0.865,0.705
			c-0.22,0.314-0.33,0.696-0.33,1.145c0,0.328,0.067,0.62,0.2,0.879c0.134,0.259,0.339,0.467,0.615,0.626
			c0.274,0.16,0.563,0.274,0.865,0.342l1.407,0.362c1.206,0.293,2.07,0.547,2.593,0.763c0.521,0.216,0.924,0.541,1.209,0.977
			c0.282,0.435,0.426,0.963,0.426,1.583c0,1.188-0.491,2.211-1.474,3.063c-0.982,0.854-2.244,1.281-3.786,1.281
			c-0.543,0-1.219-0.062-2.023-0.183c-0.805-0.12-1.492-0.254-2.063-0.4l-0.063-0.167l0.13-0.866
			c0.044-0.267,0.069-0.536,0.077-0.808c0.009-0.271,0.018-0.843,0.025-1.713L400.306,17.343z M388.818,9.796
			c1.646-0.199,3.031-0.522,4.161-0.97l0.246,0.167c-0.053,0.5-0.091,1.389-0.116,2.663l0.969-1.228
			c0.319-0.405,0.602-0.717,0.847-0.938c0.246-0.22,0.532-0.389,0.859-0.511c0.327-0.12,0.665-0.18,1.009-0.18
			c0.378,0,0.736,0.077,1.072,0.231l0.091,0.182c-0.139,1.146-0.215,2.153-0.233,3.024h-0.58c-0.346-0.793-0.9-1.188-1.669-1.188
			c-0.533,0-0.999,0.17-1.396,0.51c-0.396,0.341-0.661,0.768-0.794,1.28c-0.134,0.512-0.2,1.16-0.2,1.943v1.436
			c0,0.259,0.018,0.892,0.052,1.898c0.034,1.008,0.071,1.589,0.108,1.745c0.04,0.155,0.1,0.271,0.181,0.343
			c0.084,0.073,0.189,0.123,0.325,0.148c0.133,0.025,0.746,0.069,1.841,0.129l0.116,0.104v0.542l-0.116,0.115
			c-1.146-0.067-2.344-0.103-3.594-0.103c-0.99,0-2.024,0.035-3.101,0.103l-0.116-0.115v-0.542l0.116-0.104
			c0.835-0.052,1.307-0.09,1.415-0.117c0.106-0.025,0.2-0.08,0.282-0.161c0.083-0.082,0.14-0.207,0.17-0.375
			c0.029-0.167,0.063-0.723,0.104-1.667c0.038-0.943,0.058-1.655,0.058-2.139v-2.547c0-0.344-0.017-0.814-0.052-1.409
			c-0.034-0.594-0.063-0.961-0.083-1.099c-0.021-0.139-0.089-0.238-0.201-0.304c-0.111-0.063-0.335-0.098-0.671-0.098l-1.087-0.013
			l-0.115-0.104V9.895L388.818,9.796z M378.478,13.956c0.155,0.026,0.753,0.057,1.79,0.092c1.039,0.033,1.808,0.051,2.308,0.051
			c1.198,0,1.927-0.021,2.185-0.065c0.009-0.207,0.014-0.366,0.014-0.478c0-1.336-0.271-2.329-0.814-2.979s-1.283-0.977-2.224-0.977
			c-1.024,0-1.824,0.366-2.396,1.099C378.764,11.431,378.478,12.517,378.478,13.956 M386.763,19.241l-0.415,0.932
			c-0.896,0.577-1.693,0.952-2.396,1.125c-0.702,0.172-1.329,0.258-1.879,0.258c-1.034,0-2.017-0.202-2.942-0.607
			c-0.926-0.404-1.679-1.09-2.26-2.055c-0.582-0.964-0.874-2.127-0.874-3.489c0-0.905,0.113-1.721,0.336-2.449
			c0.225-0.728,0.46-1.268,0.706-1.623c0.245-0.354,0.66-0.744,1.247-1.176c0.585-0.431,1.205-0.774,1.86-1.034
			c0.654-0.258,1.359-0.387,2.119-0.387c1.034,0,1.944,0.244,2.732,0.73c0.789,0.486,1.342,1.109,1.661,1.866
			c0.317,0.759,0.478,1.564,0.478,2.417c0,0.269-0.013,0.526-0.038,0.775l-0.143,0.143c-0.585,0.13-1.374,0.216-2.364,0.259
			c-0.992,0.043-1.646,0.063-1.966,0.063h-4.147c0.018,1.784,0.467,3.099,1.346,3.942c0.877,0.844,1.955,1.266,3.229,1.266
			c0.604,0,1.184-0.103,1.737-0.31c0.557-0.207,1.144-0.496,1.765-0.866L386.763,19.241z M367.427,21.374l-0.802-2.028l-0.955-2.209
			l-2.648-6.165c-0.175-0.405-0.326-0.672-0.459-0.801c-0.135-0.13-0.27-0.207-0.407-0.233c-0.14-0.025-0.413-0.046-0.827-0.064
			l-0.104-0.103V9.214l0.117-0.116c1.207,0.061,2.163,0.091,2.87,0.091c0.999,0,2.002-0.03,3.011-0.091l0.104,0.104V9.77
			l-0.104,0.103c-0.896,0.026-1.418,0.089-1.563,0.188c-0.146,0.099-0.22,0.226-0.22,0.381c0,0.259,0.172,0.814,0.517,1.668
			l1.577,3.929l1.24,2.935l1.292-2.935l1.071-2.663c0.414-1.008,0.682-1.724,0.803-2.146c0.119-0.422,0.181-0.702,0.181-0.839
			c0-0.164-0.095-0.282-0.283-0.356c-0.188-0.072-0.668-0.127-1.436-0.161l-0.104-0.103V9.215l0.115-0.116
			c1.068,0.061,1.87,0.091,2.404,0.091c0.446,0,1.215-0.03,2.3-0.091l0.117,0.116v0.557l-0.104,0.103
			c-0.508,0.043-0.845,0.116-1.013,0.221c-0.169,0.103-0.332,0.304-0.492,0.601c-0.16,0.296-0.618,1.221-1.376,2.772l-1.241,2.649
			c-0.206,0.448-0.951,2.201-2.234,5.26h-1.347V21.374z M353.793,9.796c1.646-0.199,3.033-0.522,4.162-0.97l0.245,0.167
			c-0.095,1.129-0.144,2.564-0.144,4.305v2.921c0,0.188,0.02,0.799,0.054,1.829c0.032,1.028,0.069,1.63,0.108,1.802
			c0.038,0.173,0.099,0.298,0.174,0.375c0.079,0.078,0.175,0.127,0.285,0.148c0.113,0.022,0.577,0.059,1.396,0.11l0.117,0.104v0.542
			l-0.104,0.115c-1.078-0.067-2.116-0.103-3.115-0.103c-0.989,0-2.023,0.035-3.101,0.103l-0.117-0.115v-0.542l0.117-0.104
			c0.835-0.052,1.306-0.09,1.415-0.117c0.105-0.025,0.201-0.08,0.283-0.161c0.082-0.082,0.139-0.207,0.168-0.375
			c0.028-0.167,0.063-0.723,0.104-1.667c0.038-0.943,0.058-1.655,0.058-2.139v-2.547c0-0.344-0.019-0.814-0.052-1.409
			c-0.033-0.594-0.063-0.961-0.084-1.099c-0.021-0.139-0.089-0.238-0.2-0.304c-0.111-0.063-0.337-0.098-0.673-0.098l-1.085-0.013
			l-0.116-0.104V9.896L353.793,9.796z M356.856,3.05c0.405,0,0.751,0.141,1.033,0.426c0.285,0.284,0.429,0.629,0.429,1.034
			c0,0.396-0.144,0.736-0.429,1.021c-0.282,0.284-0.628,0.426-1.033,0.426c-0.396,0-0.737-0.14-1.027-0.421
			c-0.287-0.278-0.432-0.621-0.432-1.026c0-0.404,0.145-0.75,0.432-1.034C356.119,3.189,356.461,3.05,356.856,3.05 M337.326,9.796
			c1.646-0.199,3.032-0.522,4.163-0.97l0.245,0.167c-0.054,0.577-0.086,1.335-0.104,2.275c0.69-0.569,1.345-1.146,1.966-1.732
			c0.182-0.164,0.351-0.283,0.512-0.361c0.156-0.078,0.423-0.16,0.794-0.246c0.37-0.086,0.749-0.129,1.138-0.129
			c0.654,0,1.289,0.133,1.905,0.399c0.616,0.268,1.081,0.583,1.396,0.95c0.315,0.367,0.532,0.799,0.653,1.299
			c0.12,0.499,0.181,1.115,0.181,1.849v2.274c0,0.146,0.021,1.218,0.065,3.217c0.017,0.818,0.106,1.306,0.271,1.46
			c0.164,0.155,0.698,0.233,1.604,0.233l0.104,0.103v0.557l-0.104,0.103c-1.096-0.067-1.835-0.103-2.223-0.103
			c-0.226,0-0.854,0.035-1.888,0.103l-0.155-0.142c0.112-1.121,0.168-2.58,0.168-4.381v-1.693c0-1.017-0.021-1.749-0.07-2.197
			c-0.046-0.447-0.191-0.855-0.434-1.222c-0.24-0.366-0.563-0.651-0.97-0.853c-0.404-0.203-0.887-0.304-1.447-0.304
			c-0.446,0-0.831,0.044-1.149,0.136c-0.318,0.09-0.677,0.275-1.072,0.556c-0.397,0.28-0.689,0.542-0.879,0.788
			c-0.19,0.246-0.305,0.474-0.343,0.685c-0.038,0.212-0.059,0.662-0.059,1.352v2.249c0,0.188,0.018,0.799,0.052,1.829
			c0.034,1.028,0.071,1.63,0.109,1.802c0.039,0.173,0.097,0.298,0.175,0.375c0.077,0.078,0.172,0.127,0.285,0.148
			c0.111,0.022,0.577,0.059,1.396,0.11l0.114,0.104v0.542l-0.103,0.115c-1.077-0.067-2.115-0.103-3.115-0.103
			c-0.991,0-2.024,0.035-3.102,0.103l-0.116-0.115v-0.542l0.116-0.104c0.835-0.052,1.307-0.09,1.415-0.117
			c0.107-0.025,0.203-0.08,0.283-0.161c0.081-0.082,0.139-0.207,0.17-0.375c0.028-0.167,0.063-0.723,0.103-1.667
			c0.04-0.943,0.059-1.655,0.059-2.139v-2.547c0-0.344-0.018-0.814-0.052-1.409c-0.035-0.594-0.063-0.961-0.084-1.099
			c-0.021-0.139-0.089-0.238-0.2-0.304c-0.112-0.063-0.336-0.098-0.672-0.098l-1.087-0.013l-0.115-0.104V9.894L337.326,9.796z
			 M317.793,2.97l0.104-0.09c2.136,0.068,3.366,0.103,3.695,0.103c0.292,0,1.529-0.034,3.708-0.103l0.104,0.09v0.646l-0.104,0.09
			c-0.594,0.019-1.053,0.043-1.376,0.077c-0.323,0.035-0.558,0.101-0.704,0.195c-0.146,0.095-0.244,0.316-0.292,0.666
			c-0.046,0.348-0.069,0.833-0.069,1.454l-0.025,2.973v4.109c0,1.352,0.028,2.346,0.085,2.979c0.055,0.634,0.176,1.167,0.36,1.603
			c0.186,0.436,0.468,0.81,0.847,1.125c0.379,0.314,0.922,0.57,1.629,0.769c0.705,0.198,1.508,0.297,2.404,0.297
			c0.946,0,1.832-0.13,2.655-0.394c0.821-0.263,1.447-0.645,1.881-1.145c0.43-0.499,0.712-1.155,0.846-1.971
			c0.133-0.813,0.201-1.946,0.201-3.393V9.07c0-0.673-0.012-1.597-0.033-2.771c-0.021-1.177-0.073-1.854-0.155-2.03
			c-0.081-0.176-0.231-0.311-0.452-0.4c-0.219-0.091-0.827-0.145-1.828-0.162l-0.104-0.103V2.996l0.104-0.116
			c1.274,0.068,2.297,0.103,3.063,0.103c0.654,0,1.672-0.034,3.05-0.103l0.116,0.103v0.621l-0.116,0.103
			c-0.81,0.019-1.337,0.051-1.583,0.098c-0.245,0.047-0.417,0.119-0.516,0.213c-0.102,0.095-0.174,0.241-0.221,0.438
			c-0.049,0.198-0.08,0.768-0.098,1.706L334.93,9.07v3.928c0,1.568-0.062,2.806-0.183,3.709c-0.12,0.904-0.39,1.648-0.807,2.23
			c-0.42,0.582-0.913,1.068-1.486,1.459c-0.574,0.393-1.309,0.694-2.205,0.905c-0.895,0.211-1.825,0.316-2.791,0.316
			c-1.206,0-2.272-0.134-3.198-0.4c-0.926-0.268-1.655-0.62-2.188-1.061c-0.535-0.439-0.919-0.902-1.151-1.39
			c-0.233-0.486-0.383-1.061-0.453-1.719c-0.066-0.659-0.104-1.665-0.104-3.019V9.068l-0.025-2.521
			c-0.008-0.982-0.032-1.615-0.07-1.899c-0.038-0.285-0.1-0.474-0.181-0.569c-0.083-0.095-0.239-0.172-0.473-0.232
			c-0.232-0.061-0.807-0.107-1.718-0.143l-0.104-0.09V2.97z M309.173,15.584v-0.181l0.582-1.73h6.915v0.192l-0.621,1.718
			L309.173,15.584L309.173,15.584z M298.357,9.796c1.646-0.199,3.031-0.522,4.16-0.97l0.246,0.167
			c-0.052,0.5-0.091,1.389-0.115,2.663l0.97-1.228c0.317-0.405,0.601-0.717,0.847-0.938c0.245-0.22,0.531-0.389,0.859-0.511
			c0.327-0.12,0.663-0.18,1.009-0.18c0.378,0,0.734,0.077,1.07,0.231l0.092,0.182c-0.138,1.146-0.216,2.153-0.232,3.024h-0.582
			c-0.345-0.793-0.9-1.188-1.667-1.188c-0.534,0-1,0.17-1.396,0.51c-0.396,0.341-0.662,0.768-0.796,1.28
			c-0.134,0.512-0.199,1.16-0.199,1.943v1.436c0,0.259,0.018,0.892,0.051,1.898c0.035,1.008,0.071,1.589,0.11,1.745
			c0.038,0.155,0.099,0.271,0.181,0.343c0.082,0.073,0.188,0.123,0.323,0.148c0.134,0.025,0.747,0.069,1.843,0.129l0.115,0.104
			v0.542l-0.115,0.115c-1.146-0.067-2.346-0.103-3.594-0.103c-0.99,0-2.025,0.035-3.102,0.103l-0.116-0.115v-0.542l0.116-0.104
			c0.835-0.052,1.307-0.09,1.414-0.117c0.107-0.025,0.202-0.08,0.284-0.161c0.081-0.082,0.139-0.207,0.168-0.375
			c0.03-0.167,0.064-0.723,0.104-1.667c0.038-0.943,0.058-1.655,0.058-2.139v-2.547c0-0.344-0.018-0.814-0.052-1.409
			c-0.033-0.594-0.063-0.961-0.084-1.099c-0.021-0.139-0.088-0.238-0.2-0.304c-0.112-0.063-0.336-0.098-0.672-0.098l-1.085-0.013
			l-0.117-0.104V9.895L298.357,9.796z M288.017,13.956c0.154,0.026,0.751,0.057,1.79,0.092c1.037,0.033,1.808,0.051,2.308,0.051
			c1.197,0,1.926-0.021,2.185-0.065c0.008-0.207,0.014-0.366,0.014-0.478c0-1.336-0.271-2.329-0.814-2.979s-1.284-0.977-2.223-0.977
			c-1.025,0-1.824,0.366-2.397,1.099C288.303,11.431,288.017,12.517,288.017,13.956 M296.302,19.241l-0.414,0.932
			c-0.896,0.577-1.694,0.952-2.396,1.125c-0.703,0.172-1.33,0.258-1.881,0.258c-1.034,0-2.016-0.202-2.94-0.607
			c-0.926-0.404-1.681-1.09-2.262-2.055c-0.582-0.964-0.872-2.127-0.872-3.489c0-0.905,0.112-1.721,0.336-2.449
			c0.224-0.728,0.458-1.268,0.704-1.623c0.246-0.354,0.661-0.744,1.247-1.176c0.585-0.431,1.206-0.774,1.86-1.034
			c0.655-0.258,1.361-0.387,2.12-0.387c1.033,0,1.944,0.244,2.733,0.73c0.788,0.486,1.342,1.109,1.66,1.866
			c0.318,0.759,0.479,1.564,0.479,2.417c0,0.269-0.013,0.526-0.039,0.775l-0.142,0.143c-0.586,0.13-1.376,0.216-2.365,0.259
			c-0.991,0.043-1.646,0.063-1.965,0.063h-4.148c0.018,1.784,0.466,3.099,1.345,3.942s1.956,1.266,3.229,1.266
			c0.604,0,1.185-0.103,1.738-0.31c0.557-0.207,1.145-0.496,1.765-0.866L296.302,19.241z M277.978,2.957
			c1.646-0.189,3.032-0.508,4.161-0.957l0.246,0.155c-0.095,0.991-0.143,2.978-0.143,5.958v8.104c0,0.188,0.018,0.799,0.052,1.829
			c0.034,1.028,0.071,1.63,0.11,1.802c0.038,0.173,0.097,0.298,0.174,0.375c0.078,0.078,0.173,0.127,0.284,0.148
			c0.111,0.022,0.577,0.059,1.396,0.11l0.116,0.103v0.543l-0.103,0.115c-1.078-0.067-2.116-0.103-3.115-0.103
			c-0.991,0-2.025,0.035-3.103,0.103l-0.115-0.115v-0.543l0.115-0.103c0.835-0.052,1.308-0.09,1.415-0.117
			c0.107-0.025,0.202-0.08,0.283-0.161c0.082-0.082,0.139-0.207,0.169-0.375c0.029-0.167,0.064-0.723,0.104-1.667
			c0.038-0.943,0.058-1.655,0.058-2.139V9.326l-0.052-2.738c-0.025-0.957-0.054-1.62-0.083-1.991
			c-0.031-0.37-0.072-0.589-0.123-0.659c-0.052-0.068-0.144-0.121-0.272-0.155c-0.128-0.034-0.649-0.051-1.563-0.051l-0.116-0.116
			V3.072L277.978,2.957z M270.277,2.957c1.645-0.189,3.031-0.508,4.161-0.957l0.244,0.155c-0.094,0.991-0.143,2.978-0.143,5.958
			v8.104c0,0.188,0.018,0.799,0.053,1.829c0.034,1.028,0.07,1.63,0.11,1.802c0.038,0.173,0.096,0.298,0.174,0.375
			c0.077,0.078,0.172,0.127,0.284,0.148c0.111,0.022,0.577,0.059,1.396,0.11l0.116,0.103v0.543l-0.104,0.115
			c-1.076-0.067-2.115-0.103-3.114-0.103c-0.991,0-2.024,0.035-3.103,0.103l-0.115-0.115v-0.543l0.115-0.103
			c0.837-0.052,1.309-0.09,1.415-0.117c0.108-0.025,0.203-0.08,0.284-0.161c0.082-0.082,0.139-0.207,0.168-0.375
			c0.03-0.167,0.064-0.723,0.104-1.667c0.039-0.943,0.059-1.655,0.059-2.139V9.326l-0.052-2.738
			c-0.027-0.957-0.055-1.62-0.084-1.991c-0.03-0.37-0.071-0.589-0.123-0.659c-0.052-0.068-0.143-0.121-0.271-0.155
			c-0.13-0.034-0.65-0.051-1.563-0.051l-0.116-0.116V3.072L270.277,2.957z M262.427,9.796c1.646-0.199,3.033-0.522,4.161-0.97
			l0.246,0.167c-0.095,1.129-0.143,2.564-0.143,4.305v2.921c0,0.188,0.018,0.799,0.052,1.829c0.035,1.028,0.071,1.63,0.109,1.802
			c0.039,0.173,0.098,0.298,0.175,0.375c0.078,0.078,0.173,0.127,0.285,0.148c0.11,0.022,0.575,0.059,1.395,0.11l0.117,0.104v0.542
			l-0.104,0.115c-1.077-0.067-2.114-0.103-3.113-0.103c-0.991,0-2.025,0.035-3.104,0.103l-0.115-0.115v-0.542l0.115-0.104
			c0.836-0.052,1.309-0.09,1.416-0.117c0.106-0.025,0.202-0.08,0.284-0.161c0.082-0.082,0.138-0.207,0.168-0.375
			c0.03-0.167,0.064-0.723,0.104-1.667c0.038-0.943,0.059-1.655,0.059-2.139v-2.547c0-0.344-0.018-0.814-0.052-1.409
			c-0.034-0.594-0.063-0.961-0.084-1.099c-0.021-0.139-0.089-0.238-0.2-0.304c-0.111-0.063-0.336-0.098-0.672-0.098l-1.085-0.013
			l-0.117-0.104V9.896L262.427,9.796z M265.492,3.05c0.404,0,0.749,0.141,1.034,0.426c0.283,0.284,0.426,0.629,0.426,1.034
			c0,0.396-0.143,0.736-0.426,1.021c-0.285,0.284-0.63,0.426-1.034,0.426c-0.396,0-0.739-0.14-1.028-0.421
			c-0.288-0.278-0.433-0.621-0.433-1.026c0-0.404,0.145-0.75,0.433-1.034C264.752,3.189,265.094,3.05,265.492,3.05 M246.464,2.957
			c1.646-0.189,3.032-0.508,4.16-0.957l0.246,0.155c-0.095,0.991-0.142,2.978-0.142,5.958v3.192
			c0.724-0.595,1.396-1.186,2.016-1.771c0.182-0.164,0.353-0.284,0.518-0.361c0.164-0.078,0.429-0.16,0.795-0.246
			c0.365-0.086,0.743-0.129,1.132-0.129c0.653,0,1.29,0.133,1.906,0.399c0.615,0.268,1.08,0.583,1.396,0.95
			c0.313,0.367,0.532,0.799,0.651,1.299c0.121,0.499,0.183,1.115,0.183,1.849v2.274c0,0.146,0.021,1.218,0.063,3.217
			c0.027,0.818,0.119,1.306,0.279,1.46c0.158,0.155,0.691,0.233,1.596,0.233l0.104,0.103v0.557l-0.104,0.103
			c-1.095-0.067-1.835-0.103-2.224-0.103c-0.197,0-0.826,0.035-1.886,0.103l-0.156-0.142c0.112-1.121,0.169-2.58,0.169-4.381v-1.693
			c0-1.017-0.024-1.749-0.07-2.197c-0.049-0.447-0.192-0.855-0.435-1.222c-0.241-0.366-0.563-0.651-0.963-0.853
			c-0.4-0.203-0.885-0.304-1.453-0.304c-0.586,0-1.075,0.079-1.468,0.239s-0.79,0.428-1.195,0.807
			c-0.404,0.379-0.647,0.696-0.729,0.95c-0.081,0.254-0.122,0.744-0.122,1.467v2.301c0,0.188,0.018,0.799,0.051,1.828
			c0.036,1.029,0.071,1.631,0.109,1.803c0.04,0.173,0.099,0.298,0.176,0.375c0.077,0.078,0.173,0.127,0.283,0.148
			c0.111,0.022,0.577,0.059,1.396,0.11l0.116,0.103v0.542l-0.104,0.116c-1.078-0.067-2.116-0.103-3.114-0.103
			c-0.99,0-2.024,0.035-3.103,0.103l-0.116-0.116v-0.542l0.116-0.103c0.836-0.052,1.308-0.09,1.415-0.117
			c0.107-0.025,0.202-0.08,0.285-0.161c0.081-0.082,0.137-0.207,0.167-0.375c0.03-0.167,0.064-0.723,0.104-1.667
			c0.038-0.943,0.059-1.655,0.059-2.139V9.323l-0.054-2.738c-0.024-0.957-0.054-1.62-0.083-1.991
			c-0.03-0.37-0.069-0.589-0.123-0.659c-0.052-0.068-0.143-0.121-0.271-0.155c-0.129-0.034-0.65-0.051-1.563-0.051l-0.115-0.116
			V3.069L246.464,2.957z M245.702,19.76l-0.519,0.866c-1.11,0.611-2.352,0.918-3.722,0.918c-1.896,0-3.358-0.564-4.395-1.693
			c-1.033-1.128-1.552-2.584-1.552-4.368c0-0.81,0.09-1.532,0.266-2.165c0.178-0.633,0.4-1.157,0.673-1.57
			c0.271-0.414,0.57-0.74,0.897-0.981c0.326-0.241,0.881-0.577,1.66-1.008c0.78-0.431,1.368-0.712,1.766-0.848
			c0.396-0.133,0.941-0.198,1.642-0.198c1.335,0,2.43,0.254,3.282,0.762c-0.164,0.974-0.289,2.059-0.375,3.257l-0.117,0.104h-0.528
			l-0.116-0.115c-0.034-0.725-0.082-1.211-0.143-1.461s-0.402-0.518-1.026-0.801c-0.625-0.284-1.291-0.427-1.997-0.427
			s-1.335,0.148-1.888,0.446c-0.552,0.298-0.968,0.784-1.247,1.46c-0.28,0.677-0.42,1.484-0.42,2.423
			c0,0.793,0.112,1.566,0.336,2.32c0.225,0.754,0.52,1.379,0.886,1.874c0.364,0.496,0.851,0.894,1.452,1.194
			c0.604,0.303,1.276,0.452,2.018,0.452c0.466,0,0.92-0.06,1.363-0.181s0.955-0.318,1.531-0.594L245.702,19.76z M221.285,20.495
			c0.086-0.543,0.15-1.81,0.193-3.8l0.104-0.103h0.634l0.104,0.103c0.044,1.104,0.102,1.777,0.175,2.022s0.306,0.504,0.698,0.774
			c0.392,0.271,0.913,0.493,1.563,0.666c0.651,0.172,1.309,0.258,1.972,0.258c0.913,0,1.733-0.168,2.464-0.504
			c0.728-0.336,1.294-0.83,1.697-1.479c0.405-0.65,0.607-1.38,0.607-2.19c0-0.568-0.097-1.063-0.29-1.485
			c-0.194-0.423-0.465-0.762-0.814-1.016s-0.747-0.443-1.194-0.567c-0.449-0.125-1.116-0.262-2.003-0.408
			c-0.861-0.137-1.536-0.263-2.022-0.375c-0.487-0.111-0.973-0.283-1.455-0.517c-0.481-0.232-0.885-0.527-1.208-0.886
			c-0.323-0.356-0.582-0.796-0.775-1.316c-0.192-0.522-0.29-1.08-0.29-1.675c0-1.61,0.56-2.931,1.681-3.962
			c1.12-1.028,2.623-1.544,4.511-1.544c0.749,0,1.565,0.093,2.448,0.278s1.687,0.459,2.41,0.821l0.091,0.154
			c-0.189,0.792-0.306,1.922-0.349,3.387l-0.117,0.104h-0.672l-0.104-0.09c-0.018-1.034-0.044-1.685-0.078-1.952
			c-0.035-0.267-0.427-0.599-1.176-0.995c-0.75-0.396-1.563-0.594-2.442-0.594c-0.731,0-1.418,0.146-2.056,0.439
			c-0.637,0.292-1.119,0.754-1.446,1.382c-0.328,0.629-0.49,1.271-0.49,1.926c0,0.508,0.099,0.958,0.296,1.35
			c0.198,0.393,0.455,0.703,0.77,0.932s0.683,0.398,1.099,0.51c0.419,0.113,1.184,0.251,2.295,0.414
			c1.524,0.215,2.635,0.477,3.328,0.782c0.692,0.306,1.248,0.791,1.667,1.453c0.418,0.664,0.626,1.466,0.626,2.404
			c0,1.835-0.747,3.364-2.241,4.588c-1.495,1.224-3.308,1.835-5.437,1.835c-1.781,0-3.347-0.318-4.69-0.957L221.285,20.495z
			 M211.166,15.584v-0.181l0.582-1.73h6.913v0.192l-0.619,1.718L211.166,15.584L211.166,15.584z M194.352,2.957
			c1.646-0.189,3.033-0.508,4.162-0.957l0.246,0.155c-0.096,0.991-0.143,2.978-0.143,5.958v3.192
			c0.724-0.595,1.396-1.186,2.016-1.771c0.182-0.164,0.354-0.284,0.518-0.361c0.164-0.078,0.43-0.16,0.796-0.246
			c0.364-0.086,0.742-0.129,1.13-0.129c0.653,0,1.291,0.133,1.907,0.399c0.614,0.268,1.08,0.583,1.396,0.95
			c0.314,0.367,0.531,0.799,0.652,1.299c0.12,0.499,0.181,1.115,0.181,1.849v2.274c0,0.146,0.022,1.218,0.064,3.217
			c0.025,0.818,0.117,1.306,0.277,1.46c0.16,0.155,0.691,0.233,1.598,0.233l0.104,0.103v0.557l-0.104,0.103
			c-1.096-0.067-1.836-0.103-2.225-0.103c-0.197,0-0.827,0.035-1.887,0.103l-0.154-0.142c0.111-1.121,0.167-2.58,0.167-4.381v-1.693
			c0-1.017-0.022-1.749-0.069-2.197c-0.049-0.447-0.193-0.855-0.434-1.222c-0.243-0.366-0.563-0.651-0.964-0.853
			c-0.4-0.203-0.885-0.304-1.453-0.304c-0.587,0-1.076,0.079-1.468,0.239s-0.79,0.428-1.195,0.807
			c-0.404,0.379-0.647,0.696-0.729,0.95s-0.122,0.744-0.122,1.467v2.301c0,0.188,0.017,0.799,0.051,1.828
			c0.035,1.029,0.071,1.631,0.11,1.803c0.039,0.173,0.097,0.298,0.175,0.375c0.077,0.078,0.172,0.127,0.284,0.148
			c0.11,0.022,0.577,0.059,1.396,0.11l0.117,0.103v0.542l-0.104,0.116c-1.076-0.067-2.115-0.103-3.114-0.103
			c-0.991,0-2.024,0.035-3.103,0.103l-0.117-0.116v-0.542l0.117-0.103c0.836-0.052,1.308-0.09,1.415-0.117
			c0.107-0.025,0.202-0.08,0.284-0.161c0.082-0.082,0.138-0.207,0.168-0.375c0.03-0.167,0.064-0.723,0.104-1.667
			c0.039-0.943,0.059-1.655,0.059-2.139V9.323l-0.052-2.738c-0.026-0.957-0.055-1.62-0.085-1.991c-0.03-0.37-0.07-0.589-0.122-0.659
			c-0.052-0.068-0.144-0.121-0.271-0.155c-0.129-0.034-0.649-0.051-1.563-0.051l-0.116-0.116V3.069L194.352,2.957z M193.59,19.76
			l-0.517,0.866c-1.111,0.611-2.353,0.918-3.724,0.918c-1.895,0-3.358-0.564-4.393-1.693c-1.035-1.128-1.552-2.584-1.552-4.368
			c0-0.81,0.088-1.532,0.266-2.165c0.176-0.633,0.4-1.157,0.672-1.57c0.271-0.414,0.57-0.74,0.897-0.981s0.882-0.577,1.661-1.008
			c0.778-0.431,1.366-0.712,1.764-0.848c0.396-0.133,0.943-0.198,1.642-0.198c1.336,0,2.431,0.254,3.282,0.762
			c-0.163,0.974-0.288,2.059-0.374,3.257l-0.116,0.104h-0.529l-0.116-0.115c-0.035-0.725-0.082-1.211-0.143-1.461
			s-0.402-0.518-1.027-0.801c-0.625-0.284-1.29-0.427-1.996-0.427c-0.707,0-1.336,0.148-1.888,0.446
			c-0.553,0.298-0.968,0.784-1.247,1.46c-0.28,0.677-0.42,1.484-0.42,2.423c0,0.793,0.111,1.566,0.336,2.32
			c0.224,0.754,0.52,1.379,0.886,1.874c0.365,0.496,0.851,0.894,1.453,1.194c0.604,0.303,1.274,0.452,2.017,0.452
			c0.465,0,0.92-0.06,1.363-0.181c0.444-0.121,0.955-0.318,1.532-0.594L193.59,19.76z M175.858,9.796
			c1.646-0.199,3.032-0.522,4.161-0.97l0.246,0.167c-0.096,1.129-0.143,2.564-0.143,4.305v2.921c0,0.188,0.018,0.799,0.052,1.829
			c0.034,1.028,0.071,1.63,0.109,1.802c0.039,0.173,0.098,0.298,0.175,0.375c0.077,0.078,0.172,0.127,0.285,0.148
			c0.109,0.022,0.576,0.059,1.396,0.11l0.116,0.104v0.542l-0.104,0.115c-1.076-0.067-2.115-0.103-3.114-0.103
			c-0.991,0-2.024,0.035-3.103,0.103l-0.116-0.115v-0.542l0.116-0.104c0.836-0.052,1.309-0.09,1.415-0.117
			c0.107-0.025,0.202-0.08,0.284-0.161c0.082-0.082,0.139-0.207,0.169-0.375c0.029-0.167,0.064-0.723,0.104-1.667
			c0.037-0.943,0.058-1.655,0.058-2.139v-2.547c0-0.344-0.018-0.814-0.052-1.409c-0.034-0.594-0.063-0.961-0.084-1.099
			c-0.022-0.139-0.089-0.238-0.2-0.304c-0.112-0.063-0.336-0.098-0.672-0.098l-1.086-0.013l-0.116-0.104V9.896L175.858,9.796z
			 M178.921,3.05c0.405,0,0.75,0.141,1.034,0.426c0.284,0.284,0.427,0.629,0.427,1.034c0,0.396-0.143,0.736-0.427,1.021
			s-0.629,0.426-1.034,0.426c-0.396,0-0.739-0.14-1.027-0.421c-0.289-0.278-0.434-0.621-0.434-1.026c0-0.404,0.145-0.75,0.434-1.034
			C178.181,3.189,178.524,3.05,178.921,3.05 M164.354,9.796c1.646-0.199,3.032-0.522,4.16-0.97l0.246,0.167
			c-0.052,0.5-0.091,1.389-0.116,2.663l0.97-1.228c0.318-0.405,0.602-0.717,0.847-0.938c0.246-0.22,0.532-0.389,0.859-0.511
			c0.327-0.12,0.663-0.18,1.008-0.18c0.38,0,0.736,0.077,1.072,0.231l0.092,0.182c-0.14,1.146-0.217,2.153-0.233,3.024h-0.581
			c-0.345-0.793-0.9-1.188-1.667-1.188c-0.534,0-1,0.17-1.396,0.51c-0.396,0.341-0.661,0.768-0.795,1.28
			c-0.134,0.512-0.2,1.16-0.2,1.943v1.436c0,0.259,0.018,0.892,0.052,1.898c0.035,1.008,0.071,1.589,0.11,1.745
			c0.038,0.156,0.099,0.271,0.182,0.343c0.081,0.073,0.188,0.123,0.322,0.148c0.134,0.025,0.747,0.069,1.842,0.129l0.116,0.104
			v0.542l-0.116,0.115c-1.146-0.067-2.344-0.103-3.593-0.103c-0.991,0-2.025,0.035-3.103,0.103l-0.117-0.115v-0.542l0.117-0.104
			c0.835-0.052,1.309-0.09,1.415-0.117c0.107-0.025,0.202-0.08,0.284-0.161c0.082-0.082,0.138-0.207,0.168-0.375
			c0.03-0.167,0.064-0.723,0.104-1.667c0.038-0.943,0.06-1.655,0.06-2.139v-2.547c0-0.344-0.019-0.814-0.053-1.409
			c-0.034-0.594-0.063-0.961-0.083-1.099c-0.022-0.139-0.09-0.238-0.201-0.304c-0.112-0.063-0.336-0.098-0.672-0.098l-1.085-0.013
			l-0.117-0.104V9.895L164.354,9.796z M158.292,11.823c-0.534-0.603-1.127-1.063-1.776-1.383c-0.65-0.318-1.304-0.479-1.958-0.479
			c-0.724,0-1.397,0.195-2.021,0.588c-0.625,0.393-1.075,0.974-1.353,1.745c-0.274,0.771-0.413,1.608-0.413,2.514
			c0,1.508,0.382,2.719,1.145,3.632s1.721,1.371,2.876,1.371c0.629,0,1.187-0.146,1.674-0.434c0.486-0.288,0.887-0.679,1.201-1.171
			c0.314-0.49,0.498-0.981,0.55-1.473s0.077-1.391,0.077-2.701L158.292,11.823L158.292,11.823z M156.083,3.616V3.073l0.104-0.116
			c1.646-0.189,3.032-0.508,4.162-0.957l0.245,0.155c-0.095,0.991-0.142,2.978-0.142,5.958v8.465c0,0.871,0.014,1.63,0.044,2.281
			c0.029,0.65,0.085,1.036,0.162,1.156c0.076,0.12,0.204,0.22,0.382,0.297c0.176,0.079,0.678,0.151,1.505,0.22l0.116,0.104v0.489
			l-0.116,0.116c-0.93-0.06-1.654-0.09-2.171-0.09c-0.466,0-1.129,0.03-1.99,0.09l-0.143-0.142c0.025-0.845,0.038-1.436,0.038-1.771
			c0-0.044,0.005-0.208,0.014-0.491c-0.475,0.345-0.947,0.728-1.422,1.149c-0.697,0.62-1.153,1.008-1.369,1.163
			c-0.396,0.199-0.961,0.298-1.693,0.298c-1.188,0-2.199-0.293-3.03-0.879s-1.424-1.333-1.776-2.243
			c-0.354-0.908-0.53-1.841-0.53-2.798c0-0.974,0.184-1.911,0.55-2.811c0.365-0.901,0.889-1.559,1.563-1.973
			c0.677-0.413,1.413-0.841,2.21-1.284c0.797-0.444,1.588-0.665,2.372-0.665c1.094,0,2.136,0.271,3.127,0.813l-0.052-2.882
			c-0.019-1-0.042-1.695-0.077-2.087c-0.035-0.393-0.077-0.625-0.129-0.699c-0.053-0.073-0.142-0.127-0.267-0.162
			c-0.125-0.034-0.647-0.051-1.568-0.051L156.083,3.616z M137.583,13.956c0.154,0.026,0.751,0.057,1.79,0.092
			c1.038,0.033,1.807,0.051,2.307,0.051c1.197,0,1.926-0.021,2.186-0.065c0.008-0.207,0.013-0.366,0.013-0.478
			c0-1.336-0.271-2.329-0.814-2.979s-1.284-0.977-2.223-0.977c-1.025,0-1.824,0.366-2.397,1.099
			C137.869,11.431,137.583,12.517,137.583,13.956 M145.867,19.241l-0.414,0.932c-0.896,0.577-1.695,0.952-2.396,1.125
			c-0.703,0.172-1.329,0.258-1.882,0.258c-1.033,0-2.014-0.202-2.939-0.607c-0.927-0.404-1.68-1.09-2.261-2.055
			c-0.583-0.964-0.873-2.127-0.873-3.489c0-0.905,0.111-1.721,0.336-2.449c0.225-0.728,0.459-1.268,0.704-1.623
			c0.245-0.354,0.661-0.744,1.248-1.176c0.585-0.431,1.205-0.774,1.86-1.034c0.653-0.258,1.36-0.387,2.119-0.387
			c1.033,0,1.944,0.244,2.733,0.73c0.788,0.486,1.341,1.109,1.66,1.866c0.318,0.759,0.479,1.564,0.479,2.417
			c0,0.269-0.014,0.526-0.039,0.775l-0.144,0.143c-0.586,0.13-1.374,0.216-2.364,0.259s-1.646,0.063-1.965,0.063h-4.147
			c0.018,1.784,0.465,3.099,1.344,3.942s1.956,1.266,3.231,1.266c0.603,0,1.182-0.103,1.736-0.31
			c0.558-0.207,1.146-0.496,1.766-0.866L145.867,19.241z M127.133,9.796c1.646-0.199,3.033-0.522,4.162-0.97l0.245,0.167
			c-0.096,1.129-0.143,2.564-0.143,4.305v2.921c0,0.188,0.018,0.799,0.052,1.829c0.034,1.028,0.07,1.63,0.109,1.802
			c0.039,0.173,0.098,0.298,0.175,0.375c0.077,0.078,0.173,0.127,0.283,0.148c0.112,0.022,0.577,0.059,1.396,0.11l0.116,0.104v0.542
			l-0.104,0.115c-1.077-0.067-2.115-0.103-3.114-0.103c-0.991,0-2.024,0.035-3.102,0.103l-0.117-0.115v-0.542l0.117-0.104
			c0.835-0.052,1.307-0.09,1.415-0.117c0.106-0.025,0.202-0.08,0.284-0.161c0.082-0.082,0.138-0.207,0.168-0.375
			c0.029-0.167,0.063-0.723,0.103-1.667c0.039-0.943,0.059-1.655,0.059-2.139v-2.547c0-0.344-0.017-0.814-0.052-1.409
			c-0.034-0.594-0.062-0.961-0.084-1.099c-0.021-0.139-0.088-0.238-0.2-0.304c-0.11-0.063-0.336-0.098-0.672-0.098l-1.085-0.013
			l-0.116-0.104V9.896L127.133,9.796z M130.196,3.05c0.404,0,0.75,0.141,1.033,0.426c0.285,0.284,0.428,0.629,0.428,1.034
			c0,0.396-0.143,0.736-0.428,1.021c-0.283,0.284-0.629,0.426-1.033,0.426c-0.396,0-0.738-0.14-1.026-0.421
			c-0.289-0.278-0.435-0.621-0.435-1.026c0-0.404,0.146-0.75,0.435-1.034C129.458,3.189,129.8,3.05,130.196,3.05 M115.628,9.796
			c1.646-0.199,3.034-0.522,4.162-0.97l0.245,0.167c-0.052,0.5-0.091,1.389-0.116,2.663l0.97-1.228
			c0.318-0.405,0.602-0.717,0.847-0.938c0.246-0.22,0.531-0.389,0.859-0.511c0.328-0.12,0.663-0.18,1.008-0.18
			c0.38,0,0.737,0.077,1.073,0.231l0.09,0.182c-0.138,1.146-0.215,2.153-0.231,3.024h-0.581c-0.346-0.793-0.901-1.188-1.668-1.188
			c-0.534,0-1,0.17-1.396,0.51c-0.396,0.341-0.661,0.768-0.795,1.28c-0.133,0.512-0.2,1.16-0.2,1.943v1.436
			c0,0.259,0.019,0.892,0.052,1.898c0.034,1.008,0.071,1.589,0.109,1.745c0.039,0.155,0.1,0.271,0.181,0.343
			c0.083,0.073,0.19,0.123,0.324,0.148c0.133,0.025,0.746,0.069,1.841,0.129l0.116,0.104v0.542l-0.116,0.115
			c-1.146-0.067-2.343-0.103-3.593-0.103c-0.99,0-2.023,0.035-3.102,0.103l-0.116-0.115v-0.542l0.116-0.104
			c0.836-0.052,1.308-0.09,1.415-0.117c0.106-0.025,0.203-0.08,0.283-0.161c0.083-0.082,0.139-0.207,0.169-0.375
			c0.029-0.167,0.063-0.723,0.104-1.667c0.039-0.943,0.059-1.655,0.059-2.139v-2.547c0-0.344-0.018-0.814-0.052-1.409
			c-0.035-0.594-0.063-0.961-0.084-1.099c-0.021-0.139-0.089-0.238-0.2-0.304c-0.111-0.063-0.337-0.098-0.673-0.098l-1.085-0.013
			l-0.117-0.104V9.895L115.628,9.796z M108.369,12.391c-0.87,0-1.525,0.013-1.966,0.039v2.624l0.014,2.521
			c0.009,0.939,0.035,1.563,0.077,1.868c0.044,0.305,0.104,0.503,0.188,0.595c0.081,0.091,0.238,0.168,0.472,0.232
			c0.232,0.063,0.806,0.114,1.72,0.148l0.103,0.077v0.646l-0.103,0.103c-2.188-0.067-3.426-0.103-3.709-0.103
			c-0.276,0-1.51,0.035-3.696,0.103l-0.104-0.103v-0.646l0.104-0.077c0.81-0.034,1.345-0.078,1.608-0.13
			c0.263-0.051,0.438-0.12,0.529-0.207c0.09-0.086,0.163-0.258,0.221-0.517c0.056-0.258,0.088-0.844,0.097-1.757l0.013-2.753V9.072
			l-0.025-2.521c-0.009-0.982-0.031-1.615-0.07-1.899c-0.039-0.285-0.099-0.474-0.181-0.569c-0.082-0.095-0.239-0.172-0.474-0.232
			c-0.231-0.061-0.805-0.107-1.718-0.143l-0.104-0.09V2.972l0.104-0.09c3.652,0.052,5.785,0.078,6.397,0.078
			c2.05,0,4.151-0.025,6.306-0.078l0.104,0.09c-0.138,0.431-0.229,0.921-0.271,1.467c-0.044,0.547-0.091,1.321-0.144,2.32
			l-0.104,0.103h-0.607l-0.09-0.103c-0.018-0.061-0.057-0.393-0.116-0.995c-0.044-0.475-0.111-0.91-0.207-1.307
			c-0.896-0.302-2.133-0.451-3.71-0.451c-0.706,0-1.532,0.052-2.48,0.154c-0.094,0.671-0.143,2.31-0.143,4.912v2.235
			c1.096,0.018,1.841,0.024,2.236,0.024c0.731,0,1.361-0.026,1.887-0.084c0.525-0.056,0.841-0.109,0.943-0.16
			c0.104-0.053,0.184-0.149,0.239-0.292c0.055-0.144,0.108-0.454,0.161-0.938l0.076-0.698l0.092-0.104h0.658l0.104,0.117
			l-0.091,2.83c0,0.327,0.014,0.801,0.039,1.421c0.034,0.707,0.052,1.254,0.052,1.642l-0.116,0.104h-0.646l-0.091-0.104
			l-0.052-1.099c-0.025-0.432-0.068-0.745-0.13-0.943c-0.061-0.198-0.159-0.328-0.297-0.388c-0.139-0.061-0.444-0.116-0.918-0.167
			C110.079,12.419,109.349,12.391,108.369,12.391 M101.364,39.571h403.838v-6.144H101.364V39.571z M505.202,33.427H101.364v-1.535
			h403.838V33.427z M0,33.427h101.362v-1.535H0V33.427z"/>
	</g>
</g>
</svg>
