<?xml version="1.0" encoding="utf-8"?>
<!-- Generator: Adobe Illustrator 15.0.0, SVG Export Plug-In . SVG Version: 6.00 Build 0)  -->
<!DOCTYPE svg PUBLIC "-//W3C//DTD SVG 1.1//EN" "http://www.w3.org/Graphics/SVG/1.1/DTD/svg11.dtd">
<svg version="1.1" id="Ebene_1" xmlns="http://www.w3.org/2000/svg" xmlns:xlink="http://www.w3.org/1999/xlink" x="0px" y="0px"
	 width="539px" height="307.5px" viewBox="0 0 539 307.5" enable-background="new 0 0 539 307.5" xml:space="preserve">
<g id="Ebene_17">
</g>
<g id="Ebene_1_1_" display="none">
	<g display="inline">
		<g>
			<g>
				<g>
					<g>
						<g>
							<defs>
								<rect id="SVGID_1_" x="6.613" y="5.501" width="526.51" height="643"/>
							</defs>
							<clipPath id="SVGID_2_">
								<use xlink:href="#SVGID_1_"  overflow="visible"/>
							</clipPath>
							<path clip-path="url(#SVGID_2_)" fill="#FFFFFF" d="M446.423,215.915c36.333,0,65.771-29.46,65.771-65.793
								c0-36.307-29.438-65.755-65.771-65.755c-36.329,0-65.769,29.448-65.769,65.755
								C380.656,186.455,410.093,215.915,446.423,215.915"/>
						</g>
					</g>
				</g>
			</g>
			<g>
				<g>
					<g>
						<g>
							<defs>
								<rect id="SVGID_3_" x="6.613" y="5.501" width="526.51" height="643"/>
							</defs>
							<clipPath id="SVGID_4_">
								<use xlink:href="#SVGID_3_"  overflow="visible"/>
							</clipPath>
							<path clip-path="url(#SVGID_4_)" fill="#FFFFFF" d="M93.313,215.915c36.333,0,65.769-29.46,65.769-65.793
								c0-36.307-29.437-65.755-65.769-65.755c-36.333,0-65.771,29.448-65.771,65.755C27.545,186.455,56.98,215.915,93.313,215.915"
								/>
						</g>
					</g>
				</g>
			</g>
			<g>
				<g>
					<g>
						<g>
							<defs>
								<rect id="SVGID_5_" x="6.613" y="5.501" width="526.51" height="643"/>
							</defs>
							<clipPath id="SVGID_6_">
								<use xlink:href="#SVGID_5_"  overflow="visible"/>
							</clipPath>
							<path clip-path="url(#SVGID_6_)" fill="#FFFFFF" d="M155.5,261.482c-15.769-16.24-37.771-26.354-62.188-26.354
								c-47.884,0-86.7,38.83-86.7,86.712c0,47.896,38.816,259.795,86.7,259.795c26.806,0,50.758-66.426,66.671-133.29
								c-11.232-54.825-18.031-105.853-18.031-130.024C141.95,297.861,146.848,278.577,155.5,261.482"/>
						</g>
					</g>
				</g>
			</g>
			<g>
				<g>
					<g>
						<g>
							<defs>
								<rect id="SVGID_7_" x="6.613" y="5.501" width="526.51" height="643"/>
							</defs>
							<clipPath id="SVGID_8_">
								<use xlink:href="#SVGID_7_"  overflow="visible"/>
							</clipPath>
							<path clip-path="url(#SVGID_8_)" fill="#FFFFFF" d="M268.15,178.768c47.858,0,86.649-38.782,86.649-86.639
								c0-47.835-38.791-86.628-86.649-86.628c-47.833,0-86.627,38.793-86.627,86.627
								C181.523,139.985,220.317,178.768,268.15,178.768"/>
						</g>
					</g>
				</g>
			</g>
			<g>
				<g>
					<g>
						<g>
							<defs>
								<rect id="SVGID_9_" x="6.613" y="5.501" width="526.51" height="643"/>
							</defs>
							<clipPath id="SVGID_10_">
								<use xlink:href="#SVGID_9_"  overflow="visible"/>
							</clipPath>
							<path clip-path="url(#SVGID_10_)" fill="#FFFFFF" d="M365.718,368.564c0.22-1.241,0.392-2.532,0.536-3.705
								c0-0.192,0-0.34,0.051-0.512c0.145-1.098,0.29-2.19,0.438-3.267c0.048-0.313,0.071-0.608,0.121-0.926
								c0.146-1.195,0.293-2.413,0.414-3.583c0-0.1,0.049-0.244,0.049-0.365c0.146-1.07,0.271-2.146,0.415-3.191
								c0.023-0.27,0.05-0.584,0.072-0.828c0.122-1.168,0.271-2.313,0.414-3.41c0-0.072,0-0.146,0.024-0.221
								c0.097-1.049,0.218-2.07,0.339-3.096c0.022-0.292,0.05-0.537,0.05-0.777c0.123-1.072,0.22-2.121,0.314-3.168
								c0-0.074,0.024-0.146,0.024-0.195c0.098-0.975,0.194-1.948,0.269-2.899l0.071-0.719c0.05-0.976,0.171-1.976,0.244-2.925
								v-0.122c0.049-0.927,0.121-1.826,0.195-2.691c0-0.231,0.021-0.426,0.049-0.657c0.048-0.891,0.122-1.791,0.17-2.668v-0.099
								c0.049-0.829,0.1-1.621,0.146-2.425c0-0.195,0-0.391,0.022-0.598c0.022-0.815,0.073-1.621,0.097-2.362v-0.05
								c0.023-0.778,0.072-1.476,0.072-2.183v-0.548v-2.07c0-1.146,0-2.242-0.049-3.388c0-0.278-0.023-0.548-0.023-0.854
								c-0.047-1-0.097-1.998-0.169-2.998c-0.021-0.121-0.021-0.219-0.021-0.364c-0.101-1.146-0.196-2.304-0.316-3.425l-0.073-0.547
								c-0.099-1.047-0.242-2.098-0.392-3.146c0-0.071-0.022-0.171-0.048-0.269c-0.342-2.377-0.758-4.729-1.315-7.043
								c0-0.049,0-0.071-0.021-0.121c-0.515-2.354-1.1-4.666-1.777-6.969v-0.023c-12.601-42.191-51.731-73.03-97.958-73.03
								c-44.566,0-82.559,28.692-96.494,68.57c-1.363,3.886-2.512,7.932-3.389,12.024c0,0.071-0.021,0.146-0.049,0.221
								c-0.271,1.326-0.562,2.617-0.778,3.972c0,0.071,0,0.194-0.05,0.328c-0.438,2.62-0.756,5.288-1.021,7.979
								c0,0.193-0.024,0.4-0.051,0.598c-0.099,1.268-0.193,2.547-0.244,3.813c-0.022,0.231-0.022,0.451-0.022,0.707
								c-0.049,1.315-0.098,2.646-0.098,3.961c0,0.477,0,0.949,0.021,1.424v0.524c0,0.329,0,0.669,0.024,0.999v0.622
								c0.022,0.329,0.022,0.621,0.022,0.95c0.023,0.256,0.023,0.476,0.023,0.67c0.021,0.328,0.021,0.683,0.049,0.975
								c0,0.258,0.022,0.475,0.022,0.73c0.024,0.342,0.05,0.695,0.05,1.022c0.022,0.243,0.022,0.464,0.049,0.72
								c0.022,0.4,0.049,0.828,0.073,1.244c0,0.254,0.022,0.5,0.05,0.776c0.021,0.499,0.049,1.021,0.098,1.521
								c0.023,0.316,0.023,0.646,0.049,0.951c0.023,0.315,0.051,0.621,0.072,0.951c0.023,0.34,0.072,0.693,0.072,1.047
								c0,0.293,0,0.598,0.049,0.891c0.051,0.377,0.074,0.756,0.1,1.121c0.023,0.279,0.049,0.57,0.07,0.854
								c0.023,0.402,0.072,0.792,0.098,1.218c0.023,0.259,0.051,0.5,0.074,0.759c0.049,0.45,0.072,0.89,0.123,1.34
								c0.023,0.184,0.023,0.353,0.048,0.475c0.194,1.814,0.364,3.645,0.563,5.544c0,0.05,0.023,0.146,0.023,0.243
								c0.07,0.607,0.12,1.242,0.191,1.826c0.024,0.123,0.024,0.246,0.05,0.393c0.071,0.607,0.146,1.219,0.22,1.852
								c0,0.146,0.023,0.244,0.023,0.393c0.072,0.607,0.121,1.27,0.221,1.949c0,0.048,0,0.146,0.023,0.193
								c4.801,41.276,16.008,103.073,30.48,157.485c27.223,102.275,54.271,138.534,69.158,138.534
								c14.89,0,41.96-36.259,69.154-138.53c12.187-45.856,22.079-96.958,27.756-136.579c0.021-0.146,0.05-0.293,0.073-0.438
								c0.146-1.146,0.29-2.271,0.438-3.363L365.718,368.564z"/>
						</g>
					</g>
				</g>
			</g>
			<g>
				<g>
					<g>
						<g>
							<defs>
								<rect id="SVGID_11_" x="6.613" y="5.501" width="526.51" height="643"/>
							</defs>
							<clipPath id="SVGID_12_">
								<use xlink:href="#SVGID_11_"  overflow="visible"/>
							</clipPath>
							<path clip-path="url(#SVGID_12_)" fill="#FFFFFF" d="M446.423,235.143c-25.584,0-48.563,11.109-64.45,28.717
								c7.919,16.496,12.354,34.968,12.354,54.449c0,23.018-6.188,70.385-16.425,122.145
								c15.862,69.447,40.67,141.186,68.521,141.186c47.885,0,86.7-211.899,86.7-259.781
								C533.121,273.97,494.307,235.143,446.423,235.143"/>
						</g>
					</g>
				</g>
			</g>
		</g>
	</g>
</g>
<g id="Ebene_2">
	<g>
		<g>
			<path fill="#FFFFFF" d="M57.323,304.869L3.866,76.531L131.095,9.68l95.435,192.636L57.323,304.869z M8.467,78.633l51.495,219.959
				l161.354-97.791L129.329,15.126L8.467,78.633z"/>
		</g>
		<g enable-background="new    ">
			<path fill="#FFFFFF" d="M386.463,256.21l-163.959-53.008l-0.374-0.757L126.114,8.635l118.237,46.66L386.463,256.21z
				 M225.34,199.915l150.916,48.791L241.773,58.579L134.311,16.17L225.34,199.915z"/>
		</g>
		<g opacity="0.8" enable-background="new    ">
			<path fill="#FFFFFF" d="M380.736,255.039L240.03,56.114L359.48,2.055l177.858,171.38L380.736,255.039z M246.094,57.76
				l135.89,192.117l148.575-77.421L358.656,6.817L246.094,57.76z"/>
		</g>
	</g>
</g>
<g id="Ebene_9" display="none">
	<g display="inline">
		<g opacity="0.5">
			<polygon points="58.081,365.4 223.769,264.993 129.804,75.439 5.5,140.744 			"/>
			<polygon opacity="0.4" enable-background="new    " points="223.769,264.993 381.54,316 242.908,120.027 129.804,75.439 			"/>
			<polygon opacity="0.8" enable-background="new    " points="381.54,316 534.478,236.339 359.193,67.446 242.908,120.027 			"/>
		</g>
		<path fill="#A7171F" d="M215.748,5.126c-22.077,0-39.914,17.892-39.914,39.944c0,22.046,39.914,100.678,39.914,100.678
			s39.886-78.631,39.886-100.678C255.634,23.018,237.824,5.126,215.748,5.126z M215.748,77.124c-15.877,0-28.71-12.862-28.71-28.685
			c0-15.853,12.833-28.686,28.71-28.686c15.85,0,28.683,12.833,28.683,28.686C244.431,64.262,231.598,77.124,215.748,77.124z"/>
	</g>
</g>
<g id="Ebene_14" display="none">
	<polygon display="inline" fill="#FFFFFF" points="5.216,236.189 531.854,10.605 306.267,537.174 258.26,284.131 	"/>
</g>
<g id="Ebene_15" display="none">
	<g display="inline">
		<path fill="#FFFFFF" d="M342.654,327.975V523.79H196.288V327.975H5.502V198.785h190.786V5h146.364v193.785h190.754v129.189
			H342.654L342.654,327.975z"/>
	</g>
</g>
<g id="Ebene_16" display="none">
	<path display="inline" fill="#FFFFFF" d="M6.86,173.598V5.551H532v168.047H6.86z"/>
</g>
<g id="Ebene_10" display="none">
	<g display="inline">
		<g opacity="0.8">
			<path fill="#FFFFFF" d="M432.739,301.521h-45.633v60.797h39.53V587.25H68.042V362.318h39.505v-60.797H61.969
				c-30.224,0-54.75,24.573-54.75,54.726v237.075c0,30.149,24.526,54.678,54.75,54.678h370.77c30.175,0,54.672-24.526,54.672-54.678
				V356.247C487.409,326.096,462.912,301.521,432.739,301.521z"/>
			<polygon fill="#FFFFFF" points="189.168,5.342 189.168,182.156 126.728,182.156 247.339,390.977 367.926,182.156 
				305.511,182.156 305.511,5.342 			"/>
			<rect x="92.284" y="503.123" fill="#FFFFFF" width="310.134" height="55.241"/>
			<rect x="92.284" y="418.734" fill="#FFFFFF" width="310.134" height="55.24"/>
		</g>
	</g>
</g>
<g id="Ebene_11" display="none">
	<g display="inline">
		<g>
			<rect x="161.835" y="22.475" fill="#FFFFFF" width="370.796" height="72.686"/>
			<path fill="#FFFFFF" d="M86.155,33.589v50.5H35.591v-50.5H86.155 M114.511,5.169H7.214v107.318h107.297V5.169L114.511,5.169z"/>
			<rect x="161.835" y="181.559" fill="#FFFFFF" width="370.796" height="72.653"/>
			<path fill="#FFFFFF" d="M86.155,192.63v50.521H35.591V192.63H86.155 M114.511,164.253H7.214v107.286h107.297V164.253
				L114.511,164.253z"/>
			<rect x="161.835" y="340.631" fill="#FFFFFF" width="370.796" height="72.688"/>
			<path fill="#FFFFFF" d="M86.155,351.703v50.499H35.591v-50.499H86.155 M114.511,323.304H7.214v107.318h107.297V323.304
				L114.511,323.304z"/>
		</g>
	</g>
</g>
<g id="Ebene_12" display="none">
	<g display="inline">
		<polygon opacity="0.2" fill="#FFFFFF" enable-background="new    " points="265.479,650.979 9.182,339.725 265.479,204.241 
			521.823,339.725 		"/>
		<g opacity="0.3">
			<polygon fill="#FFFFFF" points="265.479,514.092 9.182,235.786 265.479,100.271 521.823,235.786 			"/>
		</g>
		<g opacity="0.4">
			<polygon fill="#FFFFFF" points="265.479,376.786 9.182,142.415 265.479,6.9 521.823,142.415 			"/>
		</g>
	</g>
</g>
<g id="Ebene_13" display="none">
	<g display="inline" opacity="0.5">
		<g>
			<path fill="#FFFFFF" d="M49.294,574.289c-23.166,0-42.015-20.398-42.015-45.471V52.479C7.281,27.402,26.128,7,49.294,7h440.573
				c23.165,0,42.013,20.402,42.013,45.479v476.339c0,25.07-18.848,45.471-42.013,45.471H49.294z"/>
			<path d="M489.867,8c22.613,0,41.013,19.954,41.013,44.479v476.339c0,24.521-18.397,44.471-41.013,44.471H49.294
				c-22.615,0-41.015-19.949-41.015-44.471V52.479C8.281,27.954,26.68,8,49.294,8H489.867 M489.867,6H49.294
				C25.577,6,6.281,26.816,6.281,52.479v476.339c0,25.686,19.298,46.471,43.015,46.471h440.573
				c23.771,0,43.013-20.785,43.013-46.471V52.479C532.88,26.816,513.641,6,489.867,6L489.867,6z"/>
		</g>
		<g opacity="0.8">
			<path d="M361.31,486.203H201.305v-8.527l11.832-0.537c9.487-1.037,15.245-3.51,17.216-7.428
				c1.975-3.92,2.985-12.395,2.985-25.504l0.479-24.521V292.512l-0.479-21.82c-0.691-8.502-1.705-14.931-2.985-19.168
				c-1.332-4.262-7.192-6.926-17.694-7.994l-13.325-1.063v-8.474h129.466v185.692l0.53,24.521c0,12.738,0.959,21.156,2.935,25.229
				c1.971,4.082,7.674,6.664,17.214,7.701l11.833,0.537L361.31,486.203L361.31,486.203z M232.325,145.088
				c0-13.807,4.742-25.613,14.125-35.392c9.381-9.756,20.68-14.629,33.896-14.629c13.484,0,24.944,4.714,34.378,14.12
				c9.381,9.411,14.072,21.349,14.072,35.901c0,14.202-4.691,26.167-14.072,35.923c-9.434,9.753-20.894,14.657-34.378,14.657
				c-13.218,0-24.517-4.904-33.896-14.657C237.069,171.255,232.325,159.29,232.325,145.088z"/>
		</g>
	</g>
</g>
<g id="Ebene_3" display="none">
	<g display="inline">
		<path fill="#1D1D1B" d="M268.271,5.827C123.492,5.827,5.7,123.666,5.7,268.448c0,144.729,117.792,262.521,262.569,262.521
			c144.778,0,262.523-117.792,262.523-262.521C530.795,123.666,413.05,5.827,268.271,5.827z M268.271,478.955
			c-116.128,0-210.557-94.43-210.557-210.507c0-116.177,94.429-210.606,210.557-210.606c116.077,0,210.557,94.429,210.557,210.606
			C478.826,384.525,384.349,478.955,268.271,478.955z"/>
		<path fill="#1D1D1B" d="M326.945,181.366l-58.92,52.405l-106.92-92.768c-10.82-9.401-27.229-8.225-36.683,2.55
			c-9.403,10.869-8.23,27.329,2.597,36.735l115.688,100.4c4.604,9.5,14.302,16.063,25.564,16.063
			c11.362,0,21.157-6.709,25.664-16.354l67.592-60.244c10.725-9.5,11.705-25.955,2.152-36.684
			C354.079,172.744,337.673,171.761,326.945,181.366z"/>
	</g>
</g>
<g id="Ebene_4" display="none">
	<g display="inline">
		<g>
			<path fill="#1A171B" d="M341.321,5.441H7.113V648.5h514.426V185.617L341.321,5.441z M84.279,82.607h221.773v138.284h138.32
				v350.444H84.279V82.607z"/>
			<rect x="127.95" y="472.916" fill="#1A171B" width="272.713" height="53.431"/>
			<rect x="127.95" y="368.4" fill="#1A171B" width="272.713" height="53.423"/>
			<rect x="127.95" y="263.918" fill="#1A171B" width="272.713" height="53.422"/>
		</g>
	</g>
</g>
<g id="Ebene_5" display="none">
	<g display="inline">
		<path fill="#FFFFFF" d="M341.323,5.503H6.268v644.701H522V186.141L341.323,5.503z M83.626,82.862h222.342v138.637H444.64v351.345
			H83.626V82.862z"/>
		<rect x="127.401" y="474.175" fill="#FFFFFF" width="273.41" height="53.566"/>
		<rect x="127.401" y="369.393" fill="#FFFFFF" width="273.41" height="53.562"/>
		<rect x="127.401" y="264.634" fill="#FFFFFF" width="273.41" height="53.563"/>
	</g>
</g>
<g id="Ebene_6" display="none">
	<g display="inline">
		<g opacity="0.2">
			<polygon fill="#FFFFFF" points="352.988,527.654 533.735,429.354 533.053,56.111 352.326,154.412 			"/>
		</g>
		<g opacity="0.6">
			<polygon fill="#FFFFFF" points="352.326,154.412 533.053,56.111 187.24,7.502 6.492,105.803 			"/>
		</g>
		<g>
			<polygon fill="#FFFFFF" points="6.492,105.803 7.222,479.045 352.988,527.654 352.326,154.412 			"/>
		</g>
	</g>
</g>
<g id="Ebene_7" display="none">
	<g display="inline">
		<g opacity="0.5">
			<g>
				<g>
					<path d="M420.308,174.521h-82.034v51.732h82.034c4.646,0,8.611,3.859,8.611,8.61v353.503c0,4.759-3.965,8.617-8.611,8.617
						H66.75c-4.703,0-8.611-3.858-8.611-8.617V234.865c0-4.751,3.908-8.61,8.611-8.61h81.979v-51.733H66.75
						c-33.265,0-60.343,27.082-60.343,60.345v353.503c0,33.271,27.078,60.396,60.343,60.396h353.557
						c33.265,0,60.289-27.127,60.289-60.396V234.865C480.597,201.604,453.572,174.521,420.308,174.521z"/>
				</g>
				<polygon points="183.234,5.024 183.234,274.621 118.483,274.621 243.481,491.149 368.574,274.621 303.777,274.621 
					303.777,5.024 				"/>
			</g>
			<g>
				<g opacity="0.5">
					<path fill="#009245" d="M420.308,174.521h-82.034v51.732h82.034c4.646,0,8.611,3.859,8.611,8.61v353.503
						c0,4.759-3.965,8.617-8.611,8.617H66.75c-4.703,0-8.611-3.858-8.611-8.617V234.865c0-4.751,3.908-8.61,8.611-8.61h81.979
						v-51.733H66.75c-33.265,0-60.343,27.082-60.343,60.345v353.503c0,33.271,27.078,60.396,60.343,60.396h353.557
						c33.265,0,60.289-27.127,60.289-60.396V234.865C480.597,201.604,453.572,174.521,420.308,174.521z"/>
				</g>
				<polygon opacity="0.5" fill="#009245" enable-background="new    " points="183.234,5.024 183.234,274.621 118.483,274.621 
					243.481,491.149 368.574,274.621 303.777,274.621 303.777,5.024 				"/>
			</g>
		</g>
	</g>
</g>
<g id="Ebene_8" display="none">
	<g display="inline">
		<path fill="#FFFFFF" d="M6,7.5v445h527V7.5H6z M490,50.5v210.439L372.281,118.488L236.02,252.598l50.418,62.637
			c2.827,3.637,2.866,8.856-0.77,11.703c-1.524,1.205-3.008,1.78-4.806,1.78c-0.909,0-1.594-0.278-2.463-0.595
			c-0.556-0.197-1.015-0.477-1.548-0.75c-0.831-0.516-1.61-1.049-2.245-1.859l-47.979-61.252l-0.143,0.117l-45.028-57.178
			L45,325.631V50.5H490z"/>
		<path fill="#FFFFFF" d="M123.046,167.895c24.991,0,45.218-20.265,45.218-45.234c0-24.991-20.227-45.199-45.218-45.199
			S77.828,97.669,77.828,122.66C77.829,147.63,98.055,167.895,123.046,167.895z"/>
	</g>
</g>
</svg>
