<?xml version="1.0" encoding="utf-8"?>
<!-- Generator: Adobe Illustrator 22.1.0, SVG Export Plug-In . SVG Version: 6.00 Build 0)  -->
<svg version="1.1" id="Ebene_1" xmlns="http://www.w3.org/2000/svg" xmlns:xlink="http://www.w3.org/1999/xlink" x="0px" y="0px"
	 width="25px" height="25px" viewBox="0 0 25 25" enable-background="new 0 0 25 25" xml:space="preserve">
<style type="text/css">
	.st0{fill:#EF7E19;}
	.st1{fill:none;stroke:#122D3E;stroke-width:0.5953;stroke-miterlimit:10;}
</style>
<path class="st0" d="M12.7,12.9c-1.9,0-3.4-1.5-3.4-3.4s1.5-3.4,3.4-3.4s3.4,1.5,3.4,3.4C16.1,11.3,14.6,12.9,12.7,12.9 M12.7,2
	C8.6,2,5.2,5.3,5.2,9.5c0,4,7,13.3,7.3,13.6l0.2,0.3l0.2-0.3c0.3-0.4,7.3-9.6,7.3-13.6C20.2,5.3,16.9,2,12.7,2"/>
<path class="st1" d="M12.7,12.9c-1.9,0-3.4-1.5-3.4-3.4s1.5-3.4,3.4-3.4s3.4,1.5,3.4,3.4C16.1,11.3,14.6,12.9,12.7,12.9z M12.7,2
	C8.6,2,5.2,5.3,5.2,9.5c0,4,7,13.3,7.3,13.6l0.2,0.3l0.2-0.3c0.3-0.4,7.3-9.6,7.3-13.6C20.2,5.3,16.9,2,12.7,2z"/>
</svg>
