<?xml version="1.0" encoding="utf-8"?>
<!-- Generator: Adobe Illustrator 15.0.0, SVG Export Plug-In . SVG Version: 6.00 Build 0)  -->
<!DOCTYPE svg PUBLIC "-//W3C//DTD SVG 1.1//EN" "http://www.w3.org/Graphics/SVG/1.1/DTD/svg11.dtd">
<svg version="1.1" id="Ebene_1" xmlns="http://www.w3.org/2000/svg" xmlns:xlink="http://www.w3.org/1999/xlink" x="0px" y="0px"
	 width="81.167px" height="50.917px" viewBox="0 0 81.167 50.917" enable-background="new 0 0 81.167 50.917" xml:space="preserve">
<g>
	<path fill="#FFFFFF" d="M12.989,26.885C26.674,15.108,44.13,7.603,63.3,6.444c-0.795-0.016-1.578-0.058-2.367-0.058
		c-22.667,0-43.534,7.652-60.199,20.498L12.989,26.885L12.989,26.885z"/>
	<path fill="#FFFFFF" d="M31.653,8.434V1.659H12.892v14.635C18.885,13.024,25.165,10.399,31.653,8.434z"/>
	<path fill="#FFFFFF" d="M16.259,26.815h15.394v-9.938C26.221,19.579,21.069,22.903,16.259,26.815z"/>
	<path fill="#FFFFFF" d="M33.858,18.681v-1.895h8.345v1.895h-3.048v8.305h-2.241v-8.305H33.858z"/>
	<path fill="#FFFFFF" d="M45.51,16.786v3.85h0.044c0.258-0.436,0.582-0.746,0.981-0.937c0.399-0.202,0.791-0.29,1.169-0.29
		c0.543,0,0.984,0.07,1.338,0.219c0.342,0.146,0.622,0.35,0.816,0.613c0.205,0.256,0.347,0.574,0.427,0.949
		c0.082,0.379,0.114,0.797,0.114,1.254v4.539h-2.026v-4.172c0-0.609-0.086-1.063-0.284-1.359c-0.184-0.301-0.523-0.448-1.014-0.448
		c-0.555,0-0.945,0.167-1.197,0.487c-0.252,0.33-0.368,0.871-0.368,1.621v3.871h-2.026V16.786H45.51z"/>
	<path fill="#FFFFFF" d="M59.649,26.2c-0.771,0.677-1.836,1.006-3.191,1.006c-1.38,0-2.453-0.326-3.214-0.998
		c-0.759-0.661-1.134-1.693-1.134-3.084v-6.338h2.24v6.341c0,0.282,0.027,0.547,0.072,0.82c0.043,0.26,0.146,0.495,0.299,0.706
		c0.15,0.201,0.361,0.369,0.639,0.494c0.266,0.125,0.641,0.196,1.098,0.196c0.793,0,1.348-0.181,1.65-0.534
		c0.309-0.36,0.459-0.926,0.459-1.685v-6.341h2.238v6.338C60.808,24.503,60.422,25.531,59.649,26.2z"/>
	<path fill="#FFFFFF" d="M64.974,16.786v8.318h4.971v1.879h-7.211V16.786H64.974z"/>
	<path fill="#FFFFFF" d="M75.991,16.786c0.486,0,0.928,0.051,1.326,0.138c0.4,0.087,0.746,0.226,1.033,0.413
		c0.279,0.202,0.5,0.455,0.657,0.779c0.157,0.326,0.236,0.729,0.236,1.205c0,0.511-0.11,0.936-0.343,1.281
		c-0.235,0.348-0.584,0.623-1.039,0.84c0.627,0.186,1.096,0.505,1.406,0.955c0.31,0.449,0.461,0.996,0.461,1.639
		c0,0.509-0.104,0.951-0.299,1.326c-0.203,0.373-0.471,0.682-0.812,0.919c-0.331,0.241-0.718,0.42-1.155,0.534
		c-0.43,0.115-0.873,0.168-1.33,0.168H71.2V16.786H75.991z M75.712,20.919c0.4,0,0.73-0.1,0.982-0.281
		c0.258-0.197,0.386-0.509,0.386-0.933c0-0.239-0.038-0.44-0.128-0.593c-0.084-0.152-0.193-0.269-0.344-0.354
		c-0.146-0.088-0.31-0.146-0.487-0.183c-0.19-0.027-0.379-0.049-0.586-0.049h-2.091v2.391L75.712,20.919L75.712,20.919z
		 M75.837,25.251c0.223,0,0.43-0.021,0.627-0.063c0.202-0.049,0.377-0.121,0.531-0.226c0.154-0.092,0.271-0.231,0.363-0.399
		c0.091-0.174,0.135-0.392,0.135-0.664c0-0.521-0.146-0.896-0.438-1.119c-0.298-0.225-0.688-0.342-1.174-0.342h-2.438v2.813H75.837z
		"/>
</g>
<g>
	<path fill="#FFFFFF" d="M2.584,37.226H1.751v-0.848h2.591v0.848h-0.84v3.873H2.584V37.226z"/>
	<path fill="#FFFFFF" d="M5.742,36.378v1.892h0.959v-1.892h0.917v4.721H6.701v-1.975H5.742v1.975H4.824v-4.721H5.742z"/>
	<path fill="#FFFFFF" d="M9.319,36.378v3.067c0,0.693,0.203,0.904,0.448,0.904c0.266,0,0.455-0.189,0.455-0.904v-3.067h0.917v2.906
		c0,1.212-0.462,1.87-1.366,1.87c-0.988,0-1.373-0.679-1.373-1.862v-2.914H9.319z M8.709,35.643c0-0.245,0.196-0.441,0.413-0.441
		c0.224,0,0.413,0.196,0.413,0.441c0,0.252-0.189,0.448-0.42,0.448C8.898,36.091,8.709,35.895,8.709,35.643z M9.991,35.643
		c0-0.245,0.196-0.441,0.42-0.441s0.413,0.196,0.413,0.441c0,0.252-0.189,0.448-0.42,0.448C10.18,36.091,9.991,35.895,9.991,35.643z
		"/>
	<path fill="#FFFFFF" d="M11.929,36.448c0.287-0.057,0.651-0.091,1.001-0.091c0.504,0,0.959,0.077,1.261,0.35
		c0.287,0.26,0.378,0.574,0.378,0.98c0,0.505-0.252,0.96-0.729,1.177v0.015c0.322,0.133,0.483,0.427,0.574,0.938
		c0.091,0.524,0.217,1.106,0.301,1.281h-0.959c-0.063-0.133-0.168-0.609-0.238-1.135c-0.084-0.581-0.231-0.749-0.532-0.749h-0.14
		v1.884h-0.917V36.448z M12.847,38.507h0.168c0.399,0,0.624-0.322,0.624-0.735c0-0.406-0.161-0.686-0.567-0.7
		c-0.084,0-0.175,0.007-0.224,0.028V38.507z"/>
	<path fill="#FFFFFF" d="M16.137,36.378v4.721h-0.917v-4.721H16.137z"/>
	<path fill="#FFFFFF" d="M16.955,41.099v-4.721h0.84l0.729,1.85c0.147,0.363,0.371,0.973,0.504,1.379h0.014
		c-0.028-0.497-0.091-1.316-0.091-2.185v-1.044h0.805v4.721h-0.84l-0.721-1.793c-0.161-0.399-0.371-1.002-0.483-1.422h-0.014
		c0.028,0.477,0.063,1.205,0.063,2.157v1.058H16.955z"/>
	<path fill="#FFFFFF" d="M23.187,40.973c-0.203,0.084-0.63,0.168-0.974,0.168c-0.546,0-0.959-0.154-1.268-0.469
		c-0.406-0.393-0.624-1.093-0.609-1.905c0.021-1.716,0.994-2.431,2.01-2.431c0.357,0,0.616,0.07,0.764,0.141l-0.154,0.791
		c-0.14-0.07-0.315-0.105-0.539-0.105c-0.63,0-1.128,0.428-1.128,1.653c0,1.135,0.441,1.548,0.875,1.548
		c0.084,0,0.147-0.007,0.182-0.021V39.2h-0.427v-0.749h1.268V40.973z"/>
	<path fill="#FFFFFF" d="M25.86,39.025h-1.072V40.3H26v0.799h-2.129v-4.721h2.052v0.799h-1.135v1.085h1.072V39.025z"/>
	<path fill="#FFFFFF" d="M26.628,36.448c0.287-0.057,0.651-0.091,1.001-0.091c0.504,0,0.959,0.077,1.261,0.35
		c0.287,0.26,0.378,0.574,0.378,0.98c0,0.505-0.252,0.96-0.729,1.177v0.015c0.322,0.133,0.483,0.427,0.574,0.938
		c0.091,0.524,0.217,1.106,0.301,1.281h-0.959c-0.063-0.133-0.168-0.609-0.238-1.135c-0.084-0.581-0.231-0.749-0.532-0.749h-0.14
		v1.884h-0.917V36.448z M27.546,38.507h0.168c0.399,0,0.624-0.322,0.624-0.735c0-0.406-0.161-0.686-0.567-0.7
		c-0.084,0-0.175,0.007-0.224,0.028V38.507z"/>
	<path fill="#FFFFFF" d="M31.921,36.378v3.067c0,0.693,0.203,0.904,0.448,0.904c0.266,0,0.455-0.189,0.455-0.904v-3.067h0.917v2.906
		c0,1.212-0.462,1.87-1.366,1.87c-0.988,0-1.373-0.679-1.373-1.862v-2.914H31.921z"/>
	<path fill="#FFFFFF" d="M34.531,41.099v-4.721h0.84l0.729,1.85c0.147,0.363,0.371,0.973,0.504,1.379h0.014
		c-0.028-0.497-0.091-1.316-0.091-2.185v-1.044h0.805v4.721h-0.84l-0.721-1.793c-0.161-0.399-0.371-1.002-0.483-1.422h-0.014
		c0.028,0.477,0.063,1.205,0.063,2.157v1.058H34.531z"/>
	<path fill="#FFFFFF" d="M39.061,36.378v4.721h-0.917v-4.721H39.061z"/>
	<path fill="#FFFFFF" d="M40.537,41.099l-1.05-4.721h1.016l0.336,2.038c0.077,0.512,0.175,1.086,0.238,1.639h0.014
		c0.063-0.56,0.14-1.127,0.224-1.659l0.322-2.018h1.009l-1.079,4.721H40.537z"/>
	<path fill="#FFFFFF" d="M45.032,39.025H43.96V40.3h1.211v0.799h-2.129v-4.721h2.052v0.799H43.96v1.085h1.072V39.025z"/>
	<path fill="#FFFFFF" d="M45.801,36.448c0.287-0.057,0.651-0.091,1.001-0.091c0.504,0,0.959,0.077,1.261,0.35
		c0.287,0.26,0.378,0.574,0.378,0.98c0,0.505-0.252,0.96-0.729,1.177v0.015c0.322,0.133,0.483,0.427,0.574,0.938
		c0.091,0.524,0.217,1.106,0.301,1.281h-0.959c-0.063-0.133-0.168-0.609-0.238-1.135c-0.084-0.581-0.231-0.749-0.532-0.749h-0.14
		v1.884h-0.917V36.448z M46.718,38.507h0.168c0.399,0,0.624-0.322,0.624-0.735c0-0.406-0.161-0.686-0.567-0.7
		c-0.084,0-0.175,0.007-0.224,0.028V38.507z"/>
	<path fill="#FFFFFF" d="M48.986,40.16c0.189,0.105,0.518,0.182,0.777,0.182c0.427,0,0.645-0.224,0.645-0.532
		c0-0.343-0.21-0.511-0.609-0.771c-0.645-0.392-0.89-0.889-0.89-1.316c0-0.756,0.504-1.387,1.485-1.387
		c0.315,0,0.609,0.084,0.742,0.168l-0.147,0.792c-0.133-0.084-0.336-0.161-0.595-0.161c-0.392,0-0.582,0.238-0.582,0.49
		c0,0.28,0.14,0.427,0.645,0.735c0.63,0.378,0.854,0.854,0.854,1.352c0,0.861-0.637,1.429-1.555,1.429
		c-0.378,0-0.743-0.098-0.904-0.189L48.986,40.16z"/>
	<path fill="#FFFFFF" d="M52.766,36.378v4.721h-0.917v-4.721H52.766z"/>
	<path fill="#FFFFFF" d="M54.096,37.226h-0.833v-0.848h2.591v0.848h-0.84v3.873h-0.918V37.226z"/>
	<path fill="#FFFFFF" d="M56.846,40.021l-0.21,1.078h-0.89l1.022-4.721h1.1l0.918,4.721h-0.89l-0.203-1.078H56.846z M56.286,35.664
		c0-0.245,0.195-0.441,0.413-0.441c0.224,0,0.413,0.196,0.413,0.441c0,0.252-0.189,0.448-0.42,0.448
		C56.475,36.112,56.286,35.916,56.286,35.664z M57.609,39.306l-0.154-0.987c-0.049-0.287-0.111-0.764-0.153-1.072H57.28
		c-0.049,0.315-0.119,0.799-0.168,1.072l-0.175,0.987H57.609z M57.567,35.664c0-0.245,0.196-0.441,0.42-0.441
		c0.225,0,0.414,0.196,0.414,0.441c0,0.252-0.189,0.448-0.421,0.448C57.757,36.112,57.567,35.916,57.567,35.664z"/>
	<path fill="#FFFFFF" d="M59.465,37.226h-0.834v-0.848h2.592v0.848h-0.841v3.873h-0.917V37.226z"/>
	<path fill="#FFFFFF" d="M61.57,40.16c0.189,0.105,0.519,0.182,0.777,0.182c0.428,0,0.645-0.224,0.645-0.532
		c0-0.343-0.21-0.511-0.609-0.771c-0.644-0.392-0.89-0.889-0.89-1.316c0-0.756,0.505-1.387,1.485-1.387
		c0.315,0,0.609,0.084,0.742,0.168l-0.146,0.792c-0.134-0.084-0.337-0.161-0.596-0.161c-0.393,0-0.581,0.238-0.581,0.49
		c0,0.28,0.14,0.427,0.644,0.735c0.631,0.378,0.854,0.854,0.854,1.352c0,0.861-0.637,1.429-1.555,1.429
		c-0.378,0-0.742-0.098-0.903-0.189L61.57,40.16z"/>
	<path fill="#FFFFFF" d="M65.631,38.312v0.658h-1.394v-0.658H65.631z"/>
	<path fill="#FFFFFF" d="M68.249,36.378v3.067c0,0.693,0.203,0.904,0.448,0.904c0.266,0,0.455-0.189,0.455-0.904v-3.067h0.917v2.906
		c0,1.212-0.462,1.87-1.365,1.87c-0.987,0-1.373-0.679-1.373-1.862v-2.914H68.249z"/>
	<path fill="#FFFFFF" d="M70.859,41.099v-4.721H71.7l0.728,1.85c0.147,0.363,0.372,0.973,0.505,1.379h0.014
		c-0.027-0.497-0.091-1.316-0.091-2.185v-1.044h0.806v4.721H72.82l-0.722-1.793c-0.161-0.399-0.371-1.002-0.482-1.422h-0.015
		c0.028,0.477,0.063,1.205,0.063,2.157v1.058H70.859z"/>
	<path fill="#FFFFFF" d="M74.472,36.448c0.231-0.057,0.567-0.091,0.932-0.091c0.595,0,1.009,0.14,1.31,0.42
		c0.406,0.364,0.616,0.987,0.616,1.905c0,0.952-0.245,1.632-0.658,1.996c-0.322,0.301-0.784,0.455-1.436,0.455
		c-0.295,0-0.582-0.028-0.764-0.057V36.448z M75.389,40.37c0.05,0.014,0.112,0.014,0.161,0.014c0.441,0,0.827-0.434,0.827-1.736
		c0-0.967-0.252-1.555-0.806-1.555c-0.063,0-0.126,0-0.183,0.021V40.37z"/>
	<path fill="#FFFFFF" d="M2.073,44.778h0.917v3.943h1.205v0.777H2.073V44.778z"/>
	<path fill="#FFFFFF" d="M5.539,48.421l-0.21,1.078H4.439l1.022-4.721h1.1l0.917,4.721h-0.89l-0.203-1.078H5.539z M6.302,47.706
		l-0.154-0.987c-0.049-0.287-0.112-0.764-0.154-1.072H5.973c-0.049,0.315-0.119,0.799-0.168,1.072L5.63,47.706H6.302z"/>
	<path fill="#FFFFFF" d="M7.996,49.499v-4.721h0.84l0.729,1.85c0.147,0.363,0.371,0.973,0.504,1.379h0.014
		c-0.028-0.497-0.091-1.316-0.091-2.185v-1.044h0.805v4.721h-0.84l-0.721-1.793c-0.161-0.399-0.371-1.002-0.483-1.422H8.738
		c0.028,0.477,0.063,1.205,0.063,2.157v1.058H7.996z"/>
	<path fill="#FFFFFF" d="M11.607,44.849c0.231-0.057,0.567-0.091,0.932-0.091c0.595,0,1.008,0.14,1.31,0.42
		c0.406,0.364,0.616,0.987,0.616,1.905c0,0.952-0.245,1.632-0.658,1.996c-0.322,0.301-0.785,0.455-1.436,0.455
		c-0.294,0-0.581-0.028-0.763-0.057V44.849z M12.525,48.771c0.049,0.014,0.112,0.014,0.161,0.014c0.441,0,0.826-0.434,0.826-1.736
		c0-0.967-0.252-1.555-0.805-1.555c-0.063,0-0.126,0-0.182,0.021V48.771z"/>
	<path fill="#FFFFFF" d="M17.034,47.426h-1.072V48.7h1.211v0.799h-2.129v-4.721h2.052v0.799h-1.135v1.085h1.072V47.426z"/>
	<path fill="#FFFFFF" d="M17.697,48.561c0.189,0.105,0.518,0.182,0.777,0.182c0.427,0,0.645-0.224,0.645-0.532
		c0-0.343-0.21-0.511-0.609-0.771c-0.645-0.392-0.89-0.889-0.89-1.316c0-0.756,0.504-1.387,1.485-1.387
		c0.315,0,0.609,0.084,0.742,0.168L19.7,45.696c-0.133-0.084-0.336-0.161-0.595-0.161c-0.392,0-0.582,0.238-0.582,0.49
		c0,0.28,0.14,0.427,0.645,0.735c0.63,0.378,0.854,0.854,0.854,1.352c0,0.861-0.637,1.429-1.555,1.429
		c-0.378,0-0.743-0.098-0.904-0.189L17.697,48.561z"/>
	<path fill="#FFFFFF" d="M20.56,44.849c0.28-0.063,0.651-0.091,1.043-0.091c0.441,0,0.869,0.056,1.198,0.336
		c0.252,0.21,0.357,0.525,0.357,0.854c0,0.42-0.217,0.826-0.679,1.029v0.028c0.546,0.154,0.833,0.603,0.833,1.127
		c0,0.386-0.126,0.694-0.35,0.925c-0.28,0.309-0.756,0.477-1.548,0.477c-0.35,0-0.645-0.021-0.854-0.057V44.849z M21.478,46.719
		h0.196c0.329,0,0.581-0.28,0.581-0.666c0-0.343-0.161-0.609-0.532-0.609c-0.105,0-0.189,0.008-0.245,0.028V46.719z M21.478,48.813
		c0.056,0.015,0.126,0.015,0.203,0.015c0.378,0,0.679-0.231,0.679-0.708s-0.322-0.722-0.686-0.722h-0.196V48.813z"/>
	<path fill="#FFFFFF" d="M24.858,44.778v4.721h-0.917v-4.721H24.858z"/>
	<path fill="#FFFFFF" d="M25.677,44.849c0.28-0.063,0.651-0.091,1.043-0.091c0.441,0,0.869,0.056,1.198,0.336
		c0.252,0.21,0.357,0.525,0.357,0.854c0,0.42-0.217,0.826-0.679,1.029v0.028c0.546,0.154,0.833,0.603,0.833,1.127
		c0,0.386-0.126,0.694-0.35,0.925c-0.28,0.309-0.756,0.477-1.548,0.477c-0.35,0-0.645-0.021-0.854-0.057V44.849z M26.594,46.719
		h0.196c0.329,0,0.581-0.28,0.581-0.666c0-0.343-0.161-0.609-0.532-0.609c-0.105,0-0.189,0.008-0.245,0.028V46.719z M26.594,48.813
		c0.056,0.015,0.126,0.015,0.203,0.015c0.378,0,0.679-0.231,0.679-0.708s-0.322-0.722-0.686-0.722h-0.196V48.813z"/>
	<path fill="#FFFFFF" d="M29.058,44.778h0.917v3.943h1.205v0.777h-2.122V44.778z"/>
	<path fill="#FFFFFF" d="M32.635,44.778v4.721h-0.917v-4.721H32.635z"/>
	<path fill="#FFFFFF" d="M36.241,47.055c0,1.779-0.63,2.5-1.527,2.5c-1.072,0-1.492-1.134-1.492-2.43
		c0-1.289,0.511-2.402,1.562-2.402C35.919,44.723,36.241,45.977,36.241,47.055z M34.175,47.139c0,1.071,0.203,1.618,0.575,1.618
		c0.392,0,0.539-0.7,0.539-1.66c0-0.826-0.126-1.576-0.546-1.576C34.378,45.521,34.175,46.123,34.175,47.139z"/>
	<path fill="#FFFFFF" d="M37.282,45.626h-0.833v-0.848h2.591v0.848H38.2v3.873h-0.917V45.626z"/>
	<path fill="#FFFFFF" d="M40.439,44.778v1.892h0.959v-1.892h0.917v4.721h-0.917v-1.975h-0.959v1.975h-0.917v-4.721H40.439z"/>
	<path fill="#FFFFFF" d="M45.116,47.426h-1.072V48.7h1.211v0.799h-2.129v-4.721h2.052v0.799h-1.135v1.085h1.072V47.426z"/>
	<path fill="#FFFFFF" d="M45.885,44.778h0.917V46.9h0.021c0.077-0.196,0.147-0.406,0.224-0.609l0.63-1.513h1.016l-1.064,2.053
		l1.078,2.668h-1.008l-0.687-1.954l-0.21,0.386v1.568h-0.917V44.778z"/>
</g>
<rect x="1.667" y="31.985" fill="#FFFFFF" width="78.063" height="0.348"/>
</svg>
