<?xml version="1.0" encoding="utf-8"?>
<!-- Generator: Adobe Illustrator 23.0.3, SVG Export Plug-In . SVG Version: 6.00 Build 0)  -->
<svg version="1.1" id="Ebene_1" xmlns="http://www.w3.org/2000/svg" xmlns:xlink="http://www.w3.org/1999/xlink" x="0px" y="0px"
	 viewBox="0 0 71.8 71.7" style="enable-background:new 0 0 71.8 71.7;" xml:space="preserve">
<style type="text/css">
	.st0{fill:#020203;}
</style>
<g id="Ebene_10">
	<path class="st0" d="M51.3,45.1h-3.2L46.9,44c9.6-11.1,8.3-28-2.8-37.5C33-3.1,16.1-1.8,6.6,9.3c-9.6,11.1-8.3,28,2.8,37.5
		c9.9,8.6,24.7,8.6,34.7,0l1.1,1.2v3.2l20.4,20.4l6.1-6.1L51.3,45.1z M26.8,48C15,48,5.5,38.5,5.5,26.7S15,5.4,26.8,5.4
		s21.3,9.5,21.3,21.3S38.5,48,26.8,48L26.8,48z"/>
</g>
<path d="M23.6,32.1c0,0.9,0,1.8,0,2.6c-0.9,0-1.7,0-2.6,0c0,0.7,0,1.4,0,2.1c0,0.2-0.1,0.6-0.3,0.8c-0.7,0.7-1.3,1.3-2,2
	c-0.1,0.1-0.3,0.2-0.4,0.2c-1.7,0-3.3,0-5,0c0-1.2,0.1-2.5,0-3.6c-0.1-1.1,0.3-1.9,1.1-2.7c3.2-3.1,6.3-6.2,9.5-9.5
	c0.2-0.2,0.3-0.4,0.2-0.8c-1.7-5.2,1.6-10.7,7-11.7c5.7-1.1,11,3.7,10.6,9.5c-0.3,4.8-4.2,8.5-9,8.5c-0.9,0-1.9-0.2-2.8-0.4
	c-0.3-0.1-0.6,0-0.8,0.2c-0.9,0.9-1.7,1.7-2.6,2.6c-0.2,0.2-0.4,0.3-0.7,0.3C25.2,32.1,24.4,32.1,23.6,32.1z M37.3,24.9
	c1.6-1.7,2.2-3.7,1.7-6c-0.7-2.6-2.3-4.2-4.9-4.8c-2.2-0.4-4.2,0.1-5.8,1.7C31.3,18.9,34.3,21.9,37.3,24.9z"/>
</svg>
