<?xml version="1.0" encoding="utf-8"?>
<!-- Generator: Adobe Illustrator 15.0.0, SVG Export Plug-In . SVG Version: 6.00 Build 0)  -->
<!DOCTYPE svg PUBLIC "-//W3C//DTD SVG 1.1//EN" "http://www.w3.org/Graphics/SVG/1.1/DTD/svg11.dtd">
<svg version="1.1" id="Ebene_1" xmlns="http://www.w3.org/2000/svg" xmlns:xlink="http://www.w3.org/1999/xlink" x="0px" y="0px"
	 width="571px" height="69.047px" viewBox="0 0 571 69.047" enable-background="new 0 0 571 69.047" xml:space="preserve">
<g>
	<defs>
		<rect id="SVGID_1_" x="-26" y="-4" width="81.56" height="93.047"/>
	</defs>
	<clipPath id="SVGID_2_">
		<use xlink:href="#SVGID_1_"  overflow="visible"/>
	</clipPath>
	<path clip-path="url(#SVGID_2_)" fill="#FFFFFF" d="M21.506,12.625c0.04,0.692,0.444,1.241,1.022,1.631
		c1.455,0.979,6.909,0.457,6.909,0.457l-0.262,0.589c0,0-5.249,0.592-6.533,0.456c-0.844-0.09-1.626-0.54-1.836-1.486
		C20.645,13.538,21.022,12.907,21.506,12.625"/>
	<path clip-path="url(#SVGID_2_)" fill="#B1B1B1" d="M23.162,15.883c-0.213,0-0.394-0.007-0.531-0.021
		c-1.029-0.11-1.731-0.682-1.927-1.568c-0.178-0.805,0.264-1.477,0.75-1.76l0.148-0.087l0.011,0.172
		c0.044,0.767,0.555,1.266,0.976,1.549c1.407,0.947,6.785,0.444,6.839,0.439l0.181-0.017l-0.36,0.809l-0.06,0.007
		C28.996,15.427,24.94,15.883,23.162,15.883 M21.419,12.811c-0.361,0.284-0.647,0.813-0.51,1.436
		c0.249,1.126,1.302,1.357,1.744,1.405c1.184,0.126,5.864-0.385,6.45-0.449l0.165-0.37c-0.972,0.083-5.461,0.41-6.798-0.49
		C21.869,13.938,21.509,13.412,21.419,12.811"/>
	<path clip-path="url(#SVGID_2_)" d="M9.784,18.23l-0.833,0.952l-1.442-0.859l0.1-1.159L6.45,17.15l-0.667-1.728l1.351-0.555
		L6.302,13.64l1.722-1.223l1.019,0.959l0.832-0.833l1.861,0.995l-0.311,1.147l0.705,1.105l7.016,4.049l6.784,0.576
		c0.853,0.073,1.275-0.517,1.393-0.976c0.155-0.601-0.127-1.569-2.487-1.339c-0.305,0-0.459-0.026-0.612-0.217
		c-0.147-0.186-0.28-0.842-0.255-1.263c0.056-0.188,0.786-0.672,0.786-0.672s2.902,0.479,3.8-0.083
		c0.429-0.269,0.418-1.066,0.167-1.61c-0.273-0.594-3.261,0.044-4.252-0.193c-1.054-0.252-0.919-1.334-0.86-1.745
		c0.031-0.22,0.297-0.49,0.297-0.49l-0.334-0.559l2.496-1.556l8.633,0v0.427l1.154-0.769l0.967,0.67c0,0,0.209,1.414-1.05,3.075
		c1.878,2.202,1.402,13.682,1.402,13.682l-2.002,3.727c0.022,0.015,0.201,1.29,0.89,2.362c1.786,2.755,4.388,4.796,7.266,4.256
		c3.024-0.567,4.735-2.835,4.512-5.738c-0.299-3.894-4.353-5.789-5.965-7.414c-2.03-2.044-1.828-4.702-1.828-4.702
		c0.408-1.787,1.007-2.631,1.785-3.292c1.71-1.454,3.952-2.347,5.584-3.623c0.856-0.668,0.86-1.26,0.689-1.658
		c-0.995-0.638-0.408-1.479,0.076-1.684c0.915-0.385,2.092-0.485,3.164,0.204c0.884,0.568,1.684,1.99,0.153,3.802
		c-1.028,1.216-3.543,2.107-4.644,2.602c-1.238,0.557-2.304,1.312-3.455,2.624c-1.236,1.407-0.841,3.155,0.476,4.519
		c0,0,5.9,3.858,6.041,9.21c0.071,2.687-0.78,4.475-2.821,6.261c-1.563,1.137-4.298,1.725-6.109,1.189
		c-3.494,4.245,2.714,8.413,2.714,8.413l-1.127,7.576l-1.078,2.006l-0.976,0.162l-0.436,1.627l-2-0.112l0.005-0.764l-0.596,0.708
		l-2.307-0.744l0.446-0.782l-0.467-0.056l-0.062-2.044l2.873-0.755l0.431-0.813l-0.207-4l-6.187-2.501l-1.398-5.66
		c-5.05-0.74-5.013,4.927-3.689,5.33l-6.479,8.006l0.111,1.228l-2.042,0.85l-0.638-0.7l-1.191,1.079l-1.898-0.781l0.085-1.032
		l-0.793,0.399l-1.154-1.786l0.894-0.559l-0.298-0.447l0.894-1.526l2.717,0.41l1.009-0.755c0,0,1.753-4.15,1.533-5.529
		c-0.079-0.496-2.728-4.138-2.728-4.138c0.476-1.447,2.931-7.096,11.591-5.216c-1.191-2.272-5.225-4.203-5.225-4.203l-9.341,3.293
		l-1.92,0.78l0.768,1.434l-1.642,0.71l-0.754-0.654l-0.213,0.878l-2.084,0.26l-0.516-1.139l-1.122,0.691l-1.229-1.749l1.376-1.042
		l-1.004-0.559l0.818-1.934l2.085,0.594l1.451-0.111l7.742-5.545C13.41,24.259,9.784,18.23,9.784,18.23"/>
	<path clip-path="url(#SVGID_2_)" d="M9.784,18.23l-0.833,0.952l-1.442-0.859l0.1-1.159L6.45,17.15l-0.667-1.728l1.351-0.555
		L6.302,13.64l1.722-1.223l1.019,0.959l0.832-0.833l1.861,0.995l-0.311,1.147l0.705,1.105l7.016,4.049l6.784,0.576
		c0.853,0.073,1.275-0.517,1.393-0.976c0.155-0.601-0.127-1.569-2.487-1.339c-0.305,0-0.459-0.026-0.612-0.217
		c-0.147-0.186-0.28-0.842-0.255-1.263c0.056-0.188,0.786-0.672,0.786-0.672s2.902,0.479,3.8-0.083
		c0.429-0.269,0.418-1.066,0.167-1.61c-0.273-0.594-3.261,0.044-4.252-0.193c-1.054-0.252-0.919-1.334-0.86-1.745
		c0.031-0.22,0.297-0.49,0.297-0.49l-0.334-0.559l2.496-1.556l8.633,0v0.427l1.154-0.769l0.967,0.67c0,0,0.209,1.414-1.05,3.075
		c1.878,2.202,1.402,13.682,1.402,13.682l-2.002,3.727c0.022,0.015,0.201,1.29,0.89,2.362c1.786,2.755,4.388,4.796,7.266,4.256
		c3.024-0.567,4.735-2.835,4.512-5.738c-0.299-3.894-4.353-5.789-5.965-7.414c-2.03-2.044-1.828-4.702-1.828-4.702
		c0.408-1.787,1.007-2.631,1.785-3.292c1.71-1.454,3.952-2.347,5.584-3.623c0.856-0.668,0.86-1.26,0.689-1.658
		c-0.995-0.638-0.408-1.479,0.076-1.684c0.915-0.385,2.092-0.485,3.164,0.204c0.884,0.568,1.684,1.99,0.153,3.802
		c-1.028,1.216-3.543,2.107-4.644,2.602c-1.238,0.557-2.304,1.312-3.455,2.624c-1.236,1.407-0.841,3.155,0.476,4.519
		c0,0,5.9,3.858,6.041,9.21c0.071,2.687-0.78,4.475-2.821,6.261c-1.563,1.137-4.298,1.725-6.109,1.189
		c-3.494,4.245,2.714,8.413,2.714,8.413l-1.127,7.576l-1.078,2.006l-0.976,0.162l-0.436,1.627l-2-0.112l0.005-0.764l-0.596,0.708
		l-2.307-0.744l0.446-0.782l-0.467-0.056l-0.062-2.044l2.873-0.755l0.431-0.813l-0.207-4l-6.187-2.501l-1.398-5.66
		c-5.05-0.74-5.013,4.927-3.689,5.33l-6.479,8.006l0.111,1.228l-2.042,0.85l-0.638-0.7l-1.191,1.079l-1.898-0.781l0.085-1.032
		l-0.793,0.399l-1.154-1.786l0.894-0.559l-0.298-0.447l0.894-1.526l2.717,0.41l1.009-0.755c0,0,1.753-4.15,1.533-5.529
		c-0.079-0.496-2.728-4.138-2.728-4.138c0.476-1.447,2.931-7.096,11.591-5.216c-1.191-2.272-5.225-4.203-5.225-4.203l-9.341,3.293
		l-1.92,0.78l0.768,1.434l-1.642,0.71l-0.754-0.654l-0.213,0.878l-2.084,0.26l-0.516-1.139l-1.122,0.691l-1.229-1.749l1.376-1.042
		l-1.004-0.559l0.818-1.934l2.085,0.594l1.451-0.111l7.742-5.545C13.41,24.259,9.784,18.23,9.784,18.23"/>
</g>
<g>
	<defs>
		<path id="SVGID_3_" d="M48.179,9.032c-0.485,0.204-1.072,1.045-0.076,1.683c0.171,0.398,0.166,0.991-0.689,1.659
			c-1.633,1.276-3.874,2.169-5.584,3.623c-0.778,0.661-1.376,1.505-1.784,3.291c0,0-0.203,2.658,1.828,4.704
			c1.612,1.625,5.666,3.52,5.965,7.413c0.223,2.904-1.489,5.171-4.513,5.738c-2.878,0.54-5.479-1.501-7.266-4.257
			c-0.688-1.071-0.867-2.347-0.889-2.361l2.001-3.727c0,0,0.475-11.48-1.402-13.683c1.26-1.66,1.051-3.075,1.051-3.075l-0.968-0.669
			l-1.154,0.769V9.712l-8.633,0l-2.495,1.557l0.334,0.558c0,0-0.266,0.271-0.298,0.491c-0.059,0.411-0.192,1.493,0.86,1.745
			c0.412,0.098,1.169,0.045,1.933-0.006c1.073-0.074,2.161-0.148,2.32,0.199c0.251,0.545,0.262,1.341-0.167,1.61
			c-0.897,0.562-3.8,0.083-3.8,0.083s-0.729,0.484-0.786,0.672c-0.026,0.421,0.107,1.077,0.254,1.262
			c0.154,0.191,0.307,0.217,0.613,0.217c2.36-0.229,2.643,0.739,2.488,1.34c-0.119,0.459-0.541,1.048-1.394,0.976l-6.784-0.576
			l-7.016-4.049l-0.705-1.105l0.311-1.147l-1.86-0.995l-0.833,0.832l-1.019-0.959L6.301,13.64l0.832,1.226l-1.35,0.557l0.667,1.728
			l1.158,0.014l-0.1,1.158l1.442,0.86l0.833-0.952c0,0,3.626,6.028,7.944,10.011l-7.742,5.546l-1.451,0.11l-2.085-0.594
			l-0.818,1.935l1.004,0.558l-1.376,1.042l1.229,1.75l1.122-0.691l0.516,1.138l2.084-0.26l0.213-0.878l0.755,0.654l1.642-0.709
			l-0.768-1.435l1.92-0.78l9.341-3.293c0,0,4.033,1.929,5.225,4.203c-8.661-1.879-11.116,3.769-11.591,5.216
			c0,0,2.647,3.642,2.727,4.138c0.22,1.378-1.532,5.528-1.532,5.528l-1.009,0.755l-2.718-0.409l-0.894,1.527l0.298,0.445
			l-0.894,0.56l1.155,1.785l0.793-0.398l-0.086,1.031l1.899,0.782l1.191-1.079l0.638,0.7l2.042-0.85l-0.112-1.228l6.48-8.005
			c-1.323-0.403-1.361-6.071,3.688-5.332l1.399,5.661l6.187,2.502l0.206,4l-0.431,0.813l-2.873,0.755l0.062,2.044l0.468,0.057
			l-0.447,0.782l2.308,0.742l0.596-0.706l-0.006,0.763l2,0.112l0.436-1.627l0.976-0.162l1.079-2.005l1.126-7.577
			c0,0-6.207-4.168-2.713-8.414c1.811,0.536,4.546-0.051,6.109-1.189c2.041-1.786,2.891-3.574,2.821-6.261
			c-0.142-5.352-6.042-9.21-6.042-9.21c-1.317-1.364-1.711-3.112-0.476-4.519c1.152-1.312,2.216-2.066,3.455-2.625
			c1.1-0.495,3.616-1.386,4.643-2.602c1.531-1.811,0.731-3.233-0.153-3.802c-0.563-0.361-1.153-0.505-1.72-0.505
			C49.108,8.73,48.614,8.849,48.179,9.032"/>
	</defs>
	<clipPath id="SVGID_4_">
		<use xlink:href="#SVGID_3_"  overflow="visible"/>
	</clipPath>
	<path clip-path="url(#SVGID_4_)" fill="#FFFFFF" d="M11.432,47.034h32.352c1.63-1.523,3.198-1.523,4.702,0v6.346
		c-3.92,1.524-5.756,1.524-5.505,0H25.908c-0.87,1.262-1.381,1.262-1.531,0H11.432V47.034z"/>
	<rect x="3.979" y="34.399" clip-path="url(#SVGID_4_)" fill="#FFFFFF" width="46.076" height="6.509"/>
	<rect x="6.854" y="22.036" clip-path="url(#SVGID_4_)" fill="#FFFFFF" width="46.778" height="5.785"/>
	<path clip-path="url(#SVGID_4_)" fill="#FFFFFF" d="M3.682,7.502h49.142v8.381H27.216c-0.952-0.124-1.896-0.212-2.994,0.259
		c-1.228,0.69-2.411,0.432-3.612-0.259H3.682V7.502z"/>
</g>
<g>
	<path fill="#B1B1B1" d="M40.24,59.447l-2.371-0.134l0.002-0.378l-0.31,0.368l-2.69-0.868l0.418-0.731l-0.332-0.039l-0.072-2.393
		l2.945-0.774l0.36-0.681l-0.196-3.806l-6.162-2.492l-1.389-5.625c-2.99-0.374-3.769,1.604-3.966,2.482
		c-0.267,1.194,0.06,2.32,0.509,2.456l0.299,0.092l-6.623,8.182l0.117,1.298l-2.322,0.966l-0.596-0.655l-1.133,1.028l-2.165-0.891
		l0.068-0.812l-0.627,0.315l-1.372-2.125l0.891-0.557l-0.251-0.376l1.032-1.763l2.771,0.417l0.892-0.667
		c0.201-0.481,1.692-4.138,1.498-5.36c-0.054-0.292-1.411-2.287-2.69-4.047l-0.064-0.088l0.034-0.103
		c0.398-1.213,2.796-7.084,11.362-5.453c-1.26-1.845-4.286-3.411-4.81-3.672l-9.257,3.264l-1.693,0.688l0.765,1.431l-1.975,0.854
		l-0.593-0.515l-0.166,0.682l-2.383,0.298l-0.48-1.062l-1.089,0.67l-1.459-2.079l1.281-0.969l-0.887-0.494l0.964-2.281l2.229,0.634
		l1.354-0.104l7.485-5.361c-3.717-3.496-6.919-8.479-7.64-9.636l-0.759,0.869l-1.708-1.017l0.092-1.064l-1.075-0.012l-0.793-2.054
		l1.301-0.535l-0.801-1.183l2.03-1.442l0.995,0.937l0.798-0.798l2.147,1.149l-0.331,1.219l0.627,0.983l6.931,4l6.737,0.572
		c0.894,0.077,1.132-0.668,1.171-0.818c0.038-0.147,0.071-0.431-0.136-0.673c-0.22-0.257-0.769-0.536-2.127-0.404l-0.02,0.001
		c-0.306,0-0.558-0.022-0.777-0.296c-0.199-0.249-0.327-0.974-0.301-1.407l0.008-0.048c0.065-0.215,0.51-0.547,0.87-0.788
		l0.07-0.045l0.082,0.014c0.786,0.129,2.973,0.372,3.654-0.055c0.314-0.197,0.306-0.871,0.087-1.343
		c-0.099-0.216-1.466-0.123-2.123-0.077c-0.795,0.054-1.545,0.106-1.988,0c-0.835-0.2-1.178-0.866-1.02-1.98
		c0.025-0.181,0.15-0.365,0.247-0.484l-0.362-0.603l2.722-1.699h8.905v0.245l0.946-0.63l1.161,0.804l0.013,0.091
		c0.009,0.06,0.197,1.448-0.994,3.102c1.79,2.515,1.367,13.23,1.349,13.694l-0.002,0.048l-1.986,3.697
		c0.002,0.01,0.005,0.022,0.007,0.033c0.069,0.328,0.281,1.326,0.835,2.187c2.015,3.108,4.584,4.626,7.049,4.163
		c2.897-0.543,4.56-2.656,4.34-5.514c-0.218-2.839-2.502-4.583-4.337-5.985c-0.596-0.455-1.159-0.885-1.567-1.296
		c-2.075-2.09-1.898-4.755-1.889-4.868l0.005-0.03c0.456-1.997,1.161-2.817,1.854-3.406c0.941-0.801,2.038-1.432,3.098-2.042
		c0.903-0.52,1.756-1.011,2.493-1.586c0.587-0.458,0.804-0.913,0.647-1.353c-0.519-0.355-0.603-0.753-0.579-1.029
		c0.04-0.459,0.405-0.844,0.744-0.988c0.68-0.287,2.021-0.639,3.359,0.221c0.591,0.38,0.988,0.979,1.087,1.644
		c0.083,0.55-0.004,1.427-0.887,2.472c-0.883,1.044-2.785,1.842-4.042,2.37c-0.258,0.107-0.487,0.204-0.676,0.288
		c-1.306,0.588-2.317,1.357-3.382,2.57c-1.264,1.44-0.598,3.12,0.453,4.218c0.444,0.294,5.977,4.071,6.116,9.367
		c0.07,2.704-0.767,4.565-2.893,6.424l-0.015,0.012c-1.618,1.179-4.343,1.729-6.156,1.259c-0.749,0.956-1.049,1.984-0.892,3.056
		c0.401,2.733,3.614,4.92,3.646,4.942l0.11,0.074l-1.153,7.745L41.63,57.63l-0.943,0.156L40.24,59.447z M38.294,58.915l1.628,0.092
		l0.427-1.593l1.007-0.166l1.012-1.882l1.102-7.411c-0.597-0.426-3.329-2.503-3.717-5.154c-0.181-1.235,0.178-2.41,1.069-3.491
		l0.088-0.108l0.134,0.039c1.698,0.502,4.35-0.015,5.918-1.152c2.015-1.766,2.809-3.53,2.741-6.09
		c-0.136-5.182-5.888-9.001-5.946-9.04l-0.036-0.03c-1.519-1.573-1.704-3.414-0.482-4.806c1.108-1.261,2.162-2.063,3.527-2.677
		c0.19-0.085,0.424-0.183,0.685-0.292c1.22-0.512,3.065-1.286,3.883-2.253c0.626-0.741,0.894-1.46,0.792-2.136
		c-0.081-0.537-0.416-1.042-0.898-1.352c-1.175-0.755-2.364-0.441-2.968-0.187c-0.221,0.092-0.464,0.355-0.488,0.635
		c-0.021,0.247,0.129,0.474,0.444,0.676l0.054,0.036l0.025,0.059c0.195,0.45,0.222,1.147-0.752,1.908
		c-0.759,0.594-1.625,1.092-2.542,1.62c-1.043,0.601-2.123,1.222-3.035,1.998c-0.636,0.541-1.283,1.298-1.712,3.161
		c-0.01,0.21-0.091,2.651,1.768,4.524c0.387,0.39,0.939,0.812,1.524,1.258c1.902,1.453,4.27,3.26,4.502,6.289
		c0.234,3.044-1.604,5.383-4.684,5.961c-2.642,0.495-5.369-1.089-7.481-4.35c-0.596-0.926-0.82-1.981-0.893-2.327
		c-0.001-0.007-0.002-0.013-0.004-0.019l-0.091-0.062l2.068-3.852c0.03-0.811,0.388-11.445-1.354-13.488l-0.111-0.129l0.103-0.135
		c1.012-1.334,1.033-2.509,1.017-2.831l-0.768-0.532l-1.364,0.908V9.924h-8.362l-2.268,1.415l0.313,0.521l-0.115,0.117
		c-0.087,0.089-0.224,0.271-0.239,0.372c-0.129,0.898,0.087,1.363,0.7,1.51c0.379,0.091,1.132,0.04,1.86-0.011
		c1.435-0.099,2.325-0.136,2.535,0.32c0.296,0.644,0.287,1.543-0.247,1.877c-0.88,0.551-3.313,0.212-3.863,0.126
		c-0.287,0.196-0.558,0.416-0.626,0.507c-0.013,0.407,0.118,0.958,0.211,1.075c0.087,0.109,0.149,0.138,0.438,0.138
		c1.23-0.119,2.064,0.066,2.478,0.55c0.242,0.283,0.324,0.667,0.225,1.053c-0.148,0.573-0.662,1.214-1.616,1.133l-6.831-0.58
		l-7.102-4.099l-0.783-1.227l0.292-1.075l-1.575-0.843l-0.866,0.867l-1.042-0.981l-1.412,1.003l0.86,1.271l-1.399,0.576l0.542,1.403
		l1.243,0.014L7.73,18.209l1.179,0.702l0.907-1.037l0.149,0.248c0.036,0.061,3.66,6.049,7.905,9.965l0.191,0.176l-8,5.731
		l-1.548,0.118l-1.942-0.553l-0.672,1.588l1.121,0.625l-1.472,1.114l0.998,1.42l1.157-0.713l0.55,1.215l1.785-0.223l0.26-1.072
		l0.917,0.794l1.31-0.566l-0.771-1.44l2.137-0.868l9.433-3.326l0.079,0.038c0.167,0.081,4.111,1.987,5.32,4.296l0.209,0.4
		l-0.441-0.096c-3.618-0.787-6.542-0.341-8.691,1.32c-1.64,1.269-2.361,2.91-2.62,3.653c0.564,0.777,2.622,3.642,2.701,4.141
		c0.227,1.422-1.474,5.472-1.546,5.644l-0.022,0.052l-1.125,0.842l-2.664-0.401l-0.753,1.289l0.345,0.518l-0.896,0.561l0.935,1.447
		l0.959-0.484l-0.104,1.254l1.632,0.673l1.249-1.132l0.68,0.746l1.761-0.732l-0.105-1.159l6.375-7.876
		c-0.551-0.435-0.801-1.634-0.537-2.813c0.176-0.786,1.029-3.309,4.579-2.789l0.14,0.021l1.407,5.692l6.211,2.512l0.217,4.191
		l-0.502,0.947l-2.799,0.735l0.051,1.694l0.603,0.072l-0.476,0.833l1.926,0.621l0.88-1.046L38.294,58.915z"/>
	<polygon points="26.824,10.791 28,11.455 26.326,11.455 	"/>
	<path d="M6.336,19.941c0,0,1.704,0.091,2.503-1.021c-0.005-0.686-0.419-1.341-1.066-1C7.714,18.563,6.336,19.941,6.336,19.941"/>
	<path fill="none" stroke="#B1B1B1" stroke-width="0.75" stroke-miterlimit="10" d="M6.336,19.941c0,0,1.704,0.091,2.503-1.021
		c-0.005-0.686-0.419-1.341-1.066-1C7.714,18.563,6.336,19.941,6.336,19.941z"/>
	<path d="M4.325,17.765c0,0,0.234-1.769,1.849-2.219c0.935-0.037,0.463,0.167,0.48,1.328C5.533,16.824,4.325,17.765,4.325,17.765"/>
	<path fill="none" stroke="#B1B1B1" stroke-width="0.75" stroke-miterlimit="10" d="M4.325,17.765c0,0,0.234-1.769,1.849-2.219
		c0.935-0.037,0.463,0.167,0.48,1.328C5.533,16.824,4.325,17.765,4.325,17.765z"/>
	<path d="M4.589,12.299c0,0,1.745-0.592,3.295,0.355c0,0-0.534,1.239-1.123,1.024C6.356,13.111,5.632,12.652,4.589,12.299"/>
	<path fill="none" stroke="#B1B1B1" stroke-width="0.75" stroke-miterlimit="10" d="M4.589,12.299c0,0,1.745-0.592,3.295,0.355
		c0,0-0.534,1.239-1.123,1.024C6.356,13.111,5.632,12.652,4.589,12.299z"/>
	<path d="M10.725,10.939c0,0,1.124,1.242,0.367,3.129c-0.522,0.339-1.117,0.453-1.215-0.73
		C10.437,12.929,10.725,10.939,10.725,10.939"/>
	<path fill="none" stroke="#B1B1B1" stroke-width="0.75" stroke-miterlimit="10" d="M10.725,10.939c0,0,1.124,1.242,0.367,3.129
		c-0.522,0.339-1.117,0.453-1.215-0.73C10.437,12.929,10.725,10.939,10.725,10.939z"/>
	<path d="M3.427,34.922c0,0,0.767-1.485,2.959-1.531c1.149,1.104,0.732,1.356-0.373,1.739C5.129,34.584,3.427,34.922,3.427,34.922"
		/>
	<path fill="none" stroke="#B1B1B1" stroke-width="0.75" stroke-miterlimit="10" d="M3.427,34.922c0,0,0.767-1.485,2.959-1.531
		c1.149,1.104,0.732,1.356-0.373,1.739C5.129,34.584,3.427,34.922,3.427,34.922z"/>
	<path d="M4.616,39.932c0,0-0.361-2.327,0.988-2.798c0.614-0.034,0.829,0.249,0.862,1.15C5.481,38.537,4.616,39.932,4.616,39.932"/>
	<path fill="none" stroke="#B1B1B1" stroke-width="0.75" stroke-miterlimit="10" d="M4.616,39.932c0,0-0.361-2.327,0.988-2.798
		c0.614-0.034,0.829,0.249,0.862,1.15C5.481,38.537,4.616,39.932,4.616,39.932z"/>
	<path d="M9.795,40.935c0,0-1.44-0.998-1.661-2.271c0.22-0.394,0.953-0.662,1.549-0.117C9.599,39.584,9.795,40.935,9.795,40.935"/>
	<path fill="none" stroke="#B1B1B1" stroke-width="0.75" stroke-miterlimit="10" d="M9.795,40.935c0,0-1.44-0.998-1.661-2.271
		c0.22-0.394,0.953-0.662,1.549-0.117C9.599,39.584,9.795,40.935,9.795,40.935z"/>
	<path d="M12.029,40.263c0,0,0.832-1.646,0.423-2.594c-0.798-0.455-1.273,0.131-1.247,0.625
		C11.667,38.698,12.029,40.263,12.029,40.263"/>
	<path fill="none" stroke="#B1B1B1" stroke-width="0.75" stroke-miterlimit="10" d="M12.029,40.263c0,0,0.832-1.646,0.423-2.594
		c-0.798-0.455-1.273,0.131-1.247,0.625C11.667,38.698,12.029,40.263,12.029,40.263z"/>
	<path d="M11.735,52.807c0,0,1.512-1.272,3.35-0.596c0.135,0.325,0.397,1.201-0.555,1.319
		C13.612,52.899,11.735,52.807,11.735,52.807"/>
	<path fill="none" stroke="#B1B1B1" stroke-width="0.75" stroke-miterlimit="10" d="M11.735,52.807c0,0,1.512-1.272,3.35-0.596
		c0.135,0.325,0.397,1.201-0.555,1.319C13.612,52.899,11.735,52.807,11.735,52.807z"/>
	<path d="M12.172,57.104c0,0-0.229-1.859,1.352-2.837c0.616,0.138,1.223,0.561,0.765,1.389
		C13.614,55.442,12.172,57.104,12.172,57.104"/>
	<path fill="none" stroke="#B1B1B1" stroke-width="0.75" stroke-miterlimit="10" d="M12.172,57.104c0,0-0.229-1.859,1.352-2.837
		c0.616,0.138,1.223,0.561,0.765,1.389C13.614,55.442,12.172,57.104,12.172,57.104z"/>
	<path d="M15.509,59.299c0,0-0.977-1.475-0.227-3.201c0.488-0.078,1.387-0.098,1.589,0.777
		C15.713,57.445,15.509,59.299,15.509,59.299"/>
	<path fill="none" stroke="#B1B1B1" stroke-width="0.75" stroke-miterlimit="10" d="M15.509,59.299c0,0-0.977-1.475-0.227-3.201
		c0.488-0.078,1.387-0.098,1.589,0.777C15.713,57.445,15.509,59.299,15.509,59.299z"/>
	<path d="M19.405,58.74c0,0,1.08-1.209,0.708-2.978c-0.749-0.342-1.331,0.131-1.585,0.862C19.26,57.492,19.405,58.74,19.405,58.74"
		/>
	<path fill="none" stroke="#B1B1B1" stroke-width="0.75" stroke-miterlimit="10" d="M19.405,58.74c0,0,1.08-1.209,0.708-2.978
		c-0.749-0.342-1.331,0.131-1.585,0.862C19.26,57.492,19.405,58.74,19.405,58.74z"/>
	<path d="M43.446,57.644c0,0-0.178-1.202-1.376-2.121c-1.578-0.102-1.373,0.257-0.894,1.34
		C41.737,56.785,43.446,57.644,43.446,57.644"/>
	<path fill="none" stroke="#B1B1B1" stroke-width="0.75" stroke-miterlimit="10" d="M43.446,57.644c0,0-0.178-1.202-1.376-2.121
		c-1.578-0.102-1.373,0.257-0.894,1.34C41.737,56.785,43.446,57.644,43.446,57.644z"/>
	<path d="M39.149,61.159c0,0-1.068-1.911-0.366-3.293c1.436-0.667,1.448-0.318,1.384,0.866
		C39.646,59.146,39.149,61.159,39.149,61.159"/>
	<path fill="none" stroke="#B1B1B1" stroke-width="0.75" stroke-miterlimit="10" d="M39.149,61.159c0,0-1.068-1.911-0.366-3.293
		c1.436-0.667,1.448-0.318,1.384,0.866C39.646,59.146,39.149,61.159,39.149,61.159z"/>
	<path d="M35.779,60.734c0,0-0.446-2.122,0.353-3.173c0.449-0.142,1.104,0.167,1.201,0.979
		C36.598,59.246,35.779,60.734,35.779,60.734"/>
	<path fill="none" stroke="#B1B1B1" stroke-width="0.75" stroke-miterlimit="10" d="M35.779,60.734c0,0-0.446-2.122,0.353-3.173
		c0.449-0.142,1.104,0.167,1.201,0.979C36.598,59.246,35.779,60.734,35.779,60.734z"/>
	<path d="M33.607,57.523c0,0,0.342-1.517,2.087-1.801c1.449,0.633,1.101,0.663,0.188,1.409
		C34.981,56.956,33.607,57.523,33.607,57.523"/>
	<path fill="none" stroke="#B1B1B1" stroke-width="0.75" stroke-miterlimit="10" d="M33.607,57.523c0,0,0.342-1.517,2.087-1.801
		c1.449,0.633,1.101,0.663,0.188,1.409C34.981,56.956,33.607,57.523,33.607,57.523z"/>
	<path d="M24.621,5.081L27.9,6.854c-1.201,0.452-0.818,1.618,0.283,1.618c1.266,0,1.368-1.318,0.335-1.601L30.35,4.41l1.999,2.478
		C31.1,7.236,31.48,8.454,32.649,8.454c0.999,0,1.499-1.235,0.284-1.583l3.313-1.79L34.48,9.69h-8.263L24.621,5.081z"/>
	<path fill="none" stroke="#B1B1B1" stroke-width="0.75" stroke-miterlimit="10" d="M24.621,5.081L27.9,6.854
		c-1.201,0.452-0.818,1.618,0.283,1.618c1.266,0,1.368-1.318,0.335-1.601L30.35,4.41l1.999,2.478
		C31.1,7.236,31.48,8.454,32.649,8.454c0.999,0,1.499-1.235,0.284-1.583l3.313-1.79L34.48,9.69h-8.263L24.621,5.081z"/>
	<polygon points="45.189,11.321 43.04,11.321 41.965,13.214 40.891,11.321 38.658,11.321 39.816,9.428 38.658,7.535 40.891,7.535 
		41.965,5.641 43.041,7.535 45.189,7.535 44.115,9.428 	"/>
	<polygon fill="none" stroke="#B1B1B1" stroke-width="0.75" stroke-miterlimit="10" points="45.189,11.321 43.04,11.321 
		41.965,13.214 40.891,11.321 38.658,11.321 39.816,9.428 38.658,7.535 40.891,7.535 41.965,5.641 43.041,7.535 45.189,7.535 
		44.115,9.428 	"/>
	<polygon points="52.365,22.437 50.216,22.437 49.143,24.33 48.068,22.437 45.918,22.437 46.993,20.543 45.918,18.65 48.068,18.65 
		49.143,16.756 50.217,18.65 52.365,18.65 51.291,20.543 	"/>
	<polygon fill="none" stroke="#B1B1B1" stroke-width="0.75" stroke-miterlimit="10" points="52.365,22.437 50.216,22.437 
		49.143,24.33 48.068,22.437 45.918,22.437 46.993,20.543 45.918,18.65 48.068,18.65 49.143,16.756 50.217,18.65 52.365,18.65 
		51.291,20.543 	"/>
	<polygon points="44.686,33.19 42.537,33.19 41.462,35.083 40.387,33.19 38.239,33.19 39.313,31.297 38.239,29.404 40.387,29.404 
		41.462,27.51 42.537,29.404 44.686,29.404 43.611,31.297 	"/>
	<polygon fill="none" stroke="#B1B1B1" stroke-width="0.75" stroke-miterlimit="10" points="44.686,33.19 42.537,33.19 
		41.462,35.083 40.387,33.19 38.239,33.19 39.313,31.297 38.239,29.404 40.387,29.404 41.462,27.51 42.537,29.404 44.686,29.404 
		43.611,31.297 	"/>
	<polygon points="52.354,44.585 50.205,44.585 49.13,46.479 48.055,44.585 45.907,44.585 46.98,42.692 45.907,40.799 48.055,40.799 
		49.13,38.905 50.205,40.799 52.354,40.799 51.279,42.692 	"/>
	<polygon fill="none" stroke="#B1B1B1" stroke-width="0.75" stroke-miterlimit="10" points="52.354,44.585 50.205,44.585 
		49.13,46.479 48.055,44.585 45.907,44.585 46.98,42.692 45.907,40.799 48.055,40.799 49.13,38.905 50.205,40.799 52.354,40.799 
		51.279,42.692 	"/>
	<polygon points="31.97,60.556 29.821,60.556 28.747,62.448 27.672,60.556 25.523,60.556 26.598,58.662 25.523,56.77 27.672,56.77 
		28.747,54.876 29.822,56.77 31.97,56.77 30.896,58.662 	"/>
	<polygon fill="none" stroke="#B1B1B1" stroke-width="0.75" stroke-miterlimit="10" points="31.97,60.556 29.821,60.556 
		28.747,62.448 27.672,60.556 25.523,60.556 26.598,58.662 25.523,56.77 27.672,56.77 28.747,54.876 29.822,56.77 31.97,56.77 
		30.896,58.662 	"/>
	<polygon points="16.025,48.511 13.876,48.511 12.802,50.404 11.727,48.511 9.578,48.511 10.652,46.618 9.578,44.725 11.727,44.725 
		12.802,42.831 13.876,44.725 16.025,44.725 14.95,46.618 	"/>
	<polygon fill="none" stroke="#B1B1B1" stroke-width="0.75" stroke-miterlimit="10" points="16.025,48.511 13.876,48.511 
		12.802,50.404 11.727,48.511 9.578,48.511 10.652,46.618 9.578,44.725 11.727,44.725 12.802,42.831 13.876,44.725 16.025,44.725 
		14.95,46.618 	"/>
	<polygon points="11.836,29.533 9.688,29.533 8.613,31.426 7.538,29.533 5.39,29.533 6.463,27.64 5.39,25.747 7.538,25.747 
		8.613,23.853 9.688,25.747 11.836,25.747 10.762,27.64 	"/>
	<polygon fill="none" stroke="#B1B1B1" stroke-width="0.75" stroke-miterlimit="10" points="11.836,29.533 9.688,29.533 
		8.613,31.426 7.538,29.533 5.39,29.533 6.463,27.64 5.39,25.747 7.538,25.747 8.613,23.853 9.688,25.747 11.836,25.747 
		10.762,27.64 	"/>
	<polygon points="19.635,11.321 17.57,11.321 16.496,13.214 15.421,11.321 13.272,11.321 14.347,9.428 13.272,7.535 15.421,7.535 
		16.496,5.641 17.57,7.535 19.635,7.535 18.645,9.428 	"/>
	<polygon fill="none" stroke="#B1B1B1" stroke-width="0.75" stroke-miterlimit="10" points="19.635,11.321 17.57,11.321 
		16.496,13.214 15.421,11.321 13.272,11.321 14.347,9.428 13.272,7.535 15.421,7.535 16.496,5.641 17.57,7.535 19.635,7.535 
		18.645,9.428 	"/>
	<path fill="#FFFFFF" d="M72.704,16.762h8.487v-5.227c0-0.934-0.059-1.549-0.176-1.846c-0.09-0.225-0.278-0.418-0.565-0.58
		c-0.386-0.215-0.794-0.324-1.226-0.324h-0.647V8.288h7.815v0.498h-0.647c-0.431,0-0.84,0.104-1.226,0.311
		c-0.288,0.143-0.483,0.362-0.586,0.653c-0.104,0.292-0.155,0.887-0.155,1.786v11.788c0,0.925,0.058,1.536,0.175,1.832
		c0.09,0.225,0.274,0.417,0.553,0.58c0.396,0.215,0.809,0.324,1.24,0.324h0.647v0.497h-7.815v-0.497h0.647
		c0.746,0,1.289-0.221,1.63-0.661c0.225-0.288,0.337-0.979,0.337-2.075v-5.563h-8.487v5.563c0,0.925,0.058,1.536,0.174,1.832
		c0.09,0.225,0.279,0.417,0.566,0.58c0.386,0.215,0.795,0.324,1.227,0.324h0.66v0.497h-7.828v-0.497h0.647
		c0.754,0,1.302-0.221,1.643-0.661c0.216-0.288,0.324-0.979,0.324-2.075V11.535c0-0.934-0.058-1.549-0.175-1.846
		c-0.09-0.225-0.274-0.418-0.552-0.58c-0.396-0.215-0.808-0.324-1.239-0.324h-0.647V8.288h7.828v0.498h-0.66
		c-0.431,0-0.84,0.104-1.227,0.311c-0.278,0.143-0.471,0.362-0.579,0.653c-0.107,0.292-0.161,0.887-0.161,1.786V16.762z"/>
	<path fill="#FFFFFF" d="M92.723,9.285v7.221h4.016c1.042,0,1.737-0.157,2.087-0.472c0.467-0.413,0.728-1.14,0.782-2.182h0.499
		v6.359h-0.499c-0.125-0.889-0.251-1.459-0.377-1.711c-0.162-0.315-0.427-0.562-0.794-0.742c-0.37-0.179-0.934-0.269-1.698-0.269
		h-4.016v6.022c0,0.808,0.036,1.3,0.108,1.475c0.072,0.175,0.198,0.315,0.377,0.418c0.179,0.103,0.521,0.155,1.024,0.155h3.099
		c1.033,0,1.782-0.072,2.25-0.215c0.466-0.144,0.916-0.427,1.348-0.849c0.557-0.557,1.127-1.396,1.71-2.52h0.539l-1.576,4.581
		H87.522v-0.498h0.647c0.431,0,0.84-0.104,1.226-0.311c0.288-0.143,0.483-0.359,0.586-0.646c0.104-0.288,0.156-0.875,0.156-1.766
		V11.468c0-1.159-0.118-1.873-0.351-2.143c-0.323-0.359-0.863-0.539-1.617-0.539h-0.647V8.288h14.079l0.202,4.001h-0.525
		c-0.189-0.96-0.398-1.621-0.626-1.98c-0.23-0.359-0.569-0.633-1.018-0.821c-0.359-0.135-0.992-0.203-1.9-0.203H92.723z"/>
	<path fill="#FFFFFF" d="M122.457,26.556h-4.878l-6.184-8.541c-0.457,0.017-0.831,0.026-1.117,0.026
		c-0.117,0-0.243-0.002-0.377-0.007c-0.135-0.004-0.274-0.011-0.417-0.02v5.308c0,1.15,0.125,1.864,0.377,2.142
		c0.341,0.396,0.853,0.593,1.535,0.593h0.715v0.498h-7.828v-0.498h0.687c0.772,0,1.326-0.251,1.657-0.754
		c0.189-0.279,0.284-0.939,0.284-1.98V11.521c0-1.149-0.125-1.863-0.377-2.141c-0.351-0.396-0.872-0.593-1.564-0.593h-0.687V8.288
		h6.656c1.939,0,3.37,0.143,4.291,0.424c0.92,0.284,1.701,0.804,2.345,1.563c0.642,0.76,0.962,1.665,0.962,2.715
		c0,1.124-0.366,2.097-1.098,2.923c-0.732,0.827-1.865,1.411-3.402,1.752l3.772,5.24c0.862,1.204,1.603,2.003,2.224,2.398
		c0.619,0.396,1.427,0.647,2.425,0.754V26.556z M109.483,17.166c0.17,0,0.319,0.002,0.444,0.007c0.125,0.005,0.229,0.007,0.31,0.007
		c1.743,0,3.057-0.377,3.94-1.131c0.885-0.756,1.327-1.716,1.327-2.884c0-1.14-0.357-2.067-1.07-2.781
		c-0.714-0.713-1.66-1.071-2.836-1.071c-0.521,0-1.226,0.085-2.115,0.255V17.166z"/>
	<path fill="#FFFFFF" d="M134.837,20.44h-7.072l-1.24,2.882c-0.306,0.709-0.458,1.24-0.458,1.59c0,0.277,0.132,0.523,0.396,0.733
		c0.266,0.212,0.838,0.349,1.718,0.411v0.499h-5.752v-0.499c0.763-0.135,1.258-0.31,1.481-0.525
		c0.458-0.432,0.966-1.308,1.523-2.628L131.86,7.87h0.471l6.359,15.196c0.512,1.222,0.976,2.015,1.395,2.377
		c0.417,0.365,0.999,0.569,1.744,0.614v0.499h-7.208v-0.499c0.728-0.036,1.219-0.157,1.476-0.364
		c0.256-0.207,0.384-0.458,0.384-0.754c0-0.395-0.18-1.02-0.54-1.873L134.837,20.44z M134.46,19.442l-3.099-7.382l-3.18,7.382
		H134.46z"/>
	<path fill="#FFFFFF" d="M155.301,8.786V8.288h6.466v0.499h-0.687c-0.719,0-1.271,0.301-1.658,0.902
		c-0.188,0.279-0.283,0.926-0.283,1.941v7.41c0,1.832-0.181,3.253-0.545,4.264c-0.363,1.01-1.078,1.876-2.142,2.6
		c-1.065,0.723-2.513,1.085-4.345,1.085c-1.994,0-3.507-0.346-4.54-1.037c-1.033-0.692-1.765-1.623-2.196-2.789
		c-0.288-0.799-0.431-2.299-0.431-4.5v-7.141c0-1.122-0.155-1.859-0.465-2.209c-0.31-0.351-0.81-0.525-1.502-0.525h-0.687V8.288
		h7.894v0.499h-0.7c-0.755,0-1.294,0.239-1.617,0.715c-0.224,0.323-0.337,0.996-0.337,2.02v7.962c0,0.709,0.065,1.522,0.195,2.438
		c0.129,0.916,0.366,1.63,0.707,2.142c0.341,0.512,0.833,0.934,1.476,1.266c0.642,0.333,1.43,0.499,2.364,0.499
		c1.195,0,2.264-0.26,3.206-0.781c0.943-0.521,1.588-1.188,1.933-2.001c0.346-0.812,0.519-2.188,0.519-4.129v-7.396
		c0-1.141-0.125-1.854-0.377-2.142c-0.35-0.395-0.872-0.593-1.563-0.593H155.301z"/>
	<path fill="#FFFFFF" d="M174.714,7.87v6.318h-0.498c-0.162-1.212-0.451-2.178-0.869-2.896c-0.417-0.718-1.012-1.29-1.785-1.711
		c-0.772-0.422-1.572-0.633-2.398-0.633c-0.934,0-1.706,0.285-2.316,0.855c-0.611,0.57-0.917,1.219-0.917,1.947
		c0,0.557,0.193,1.064,0.58,1.522c0.557,0.674,1.882,1.572,3.974,2.694c1.707,0.917,2.872,1.62,3.497,2.109
		c0.623,0.489,1.104,1.066,1.441,1.73c0.336,0.664,0.505,1.361,0.505,2.088c0,1.383-0.538,2.576-1.61,3.577
		c-1.073,1.002-2.455,1.502-4.143,1.502c-0.529,0-1.028-0.04-1.495-0.121c-0.279-0.045-0.856-0.208-1.731-0.492
		c-0.877-0.282-1.431-0.424-1.665-0.424c-0.224,0-0.401,0.067-0.532,0.202c-0.13,0.135-0.226,0.413-0.289,0.835h-0.499v-6.264h0.499
		c0.234,1.312,0.548,2.293,0.943,2.944c0.396,0.651,1,1.191,1.813,1.623c0.812,0.431,1.704,0.646,2.673,0.646
		c1.123,0,2.01-0.297,2.661-0.889c0.651-0.593,0.977-1.294,0.977-2.102c0-0.449-0.124-0.903-0.371-1.361
		c-0.247-0.459-0.631-0.885-1.152-1.28c-0.351-0.269-1.307-0.841-2.87-1.718c-1.562-0.875-2.674-1.574-3.334-2.095
		c-0.66-0.521-1.161-1.096-1.502-1.724c-0.341-0.629-0.512-1.32-0.512-2.075c0-1.312,0.503-2.441,1.509-3.389
		c1.005-0.947,2.285-1.421,3.839-1.421c0.97,0,1.999,0.238,3.085,0.714c0.503,0.224,0.858,0.336,1.065,0.336
		c0.233,0,0.424-0.07,0.572-0.208c0.148-0.14,0.267-0.42,0.357-0.842H174.714z"/>
	<path fill="#FFFFFF" d="M196.055,26.556h-4.877l-6.184-8.541c-0.457,0.017-0.831,0.026-1.117,0.026
		c-0.117,0-0.243-0.002-0.377-0.007c-0.135-0.004-0.274-0.011-0.418-0.02v5.308c0,1.15,0.125,1.864,0.377,2.142
		c0.341,0.396,0.853,0.593,1.536,0.593h0.715v0.498h-7.828v-0.498h0.687c0.773,0,1.326-0.251,1.658-0.754
		c0.188-0.279,0.283-0.939,0.283-1.98V11.521c0-1.149-0.125-1.863-0.377-2.141c-0.351-0.396-0.872-0.593-1.563-0.593h-0.687V8.288
		h6.656c1.939,0,3.37,0.143,4.291,0.424c0.919,0.284,1.702,0.804,2.344,1.563c0.642,0.76,0.963,1.665,0.963,2.715
		c0,1.124-0.367,2.097-1.098,2.923c-0.732,0.827-1.866,1.411-3.402,1.752l3.772,5.24c0.863,1.204,1.604,2.003,2.224,2.398
		c0.62,0.396,1.428,0.647,2.425,0.754V26.556z M183.081,17.166c0.17,0,0.319,0.002,0.444,0.007c0.126,0.005,0.229,0.007,0.31,0.007
		c1.742,0,3.056-0.377,3.94-1.131c0.885-0.756,1.328-1.716,1.328-2.884c0-1.14-0.358-2.067-1.071-2.781
		c-0.714-0.713-1.66-1.071-2.836-1.071c-0.521,0-1.226,0.085-2.115,0.255V17.166z"/>
	<path fill="#FFFFFF" d="M208.435,20.44h-7.072l-1.239,2.882c-0.306,0.709-0.458,1.24-0.458,1.59c0,0.277,0.132,0.523,0.396,0.733
		c0.266,0.212,0.838,0.349,1.718,0.411v0.499h-5.752v-0.499c0.764-0.135,1.258-0.31,1.482-0.525
		c0.457-0.432,0.965-1.308,1.522-2.628l6.427-15.035h0.471l6.359,15.196c0.512,1.222,0.976,2.015,1.394,2.377
		c0.417,0.365,0.999,0.569,1.744,0.614v0.499h-7.208v-0.499c0.728-0.036,1.219-0.157,1.476-0.364
		c0.255-0.207,0.384-0.458,0.384-0.754c0-0.395-0.18-1.02-0.54-1.873L208.435,20.44z M208.058,19.442l-3.098-7.382l-3.18,7.382
		H208.058z"/>
	<path fill="#FFFFFF" d="M232.672,7.87l0.472,5.767h-0.472c-0.477-1.438-1.091-2.52-1.846-3.247
		c-1.087-1.051-2.484-1.576-4.189-1.576c-2.328,0-4.098,0.92-5.31,2.761c-1.015,1.554-1.522,3.404-1.522,5.551
		c0,1.742,0.337,3.333,1.011,4.769c0.673,1.437,1.557,2.49,2.647,3.16c1.092,0.669,2.212,1.004,3.362,1.004
		c0.675,0,1.325-0.086,1.953-0.256c0.63-0.171,1.233-0.422,1.819-0.755v-5.281c0-0.916-0.07-1.516-0.209-1.799
		c-0.138-0.283-0.354-0.499-0.647-0.646c-0.291-0.149-0.806-0.223-1.542-0.223v-0.512h7.072v0.512h-0.335
		c-0.701,0-1.182,0.233-1.443,0.701c-0.18,0.333-0.27,0.988-0.27,1.967v5.591c-1.032,0.557-2.052,0.965-3.057,1.226
		c-1.007,0.261-2.124,0.39-3.355,0.39c-3.53,0-6.21-1.131-8.043-3.395c-1.374-1.698-2.061-3.655-2.061-5.874
		c0-1.607,0.386-3.148,1.159-4.621c0.916-1.751,2.174-3.098,3.772-4.042c1.338-0.781,2.919-1.172,4.743-1.172
		c0.664,0,1.269,0.054,1.812,0.162c0.542,0.108,1.313,0.346,2.312,0.714c0.502,0.189,0.837,0.284,1.009,0.284
		c0.169,0,0.318-0.079,0.438-0.236c0.121-0.157,0.195-0.465,0.224-0.923H232.672z"/>
	<path fill="#FFFFFF" d="M241.429,9.285v7.221h4.015c1.041,0,1.737-0.157,2.088-0.472c0.466-0.413,0.727-1.14,0.78-2.182h0.499
		v6.359h-0.499c-0.126-0.889-0.251-1.459-0.377-1.711c-0.161-0.315-0.426-0.562-0.794-0.742c-0.369-0.179-0.934-0.269-1.697-0.269
		h-4.015v6.022c0,0.808,0.036,1.3,0.106,1.475c0.073,0.175,0.199,0.315,0.378,0.418c0.179,0.103,0.52,0.155,1.024,0.155h3.099
		c1.033,0,1.782-0.072,2.25-0.215c0.466-0.144,0.916-0.427,1.347-0.849c0.556-0.557,1.127-1.396,1.71-2.52h0.539l-1.576,4.581
		h-14.078v-0.498h0.647c0.431,0,0.838-0.104,1.226-0.311c0.286-0.143,0.482-0.359,0.586-0.646c0.103-0.288,0.155-0.875,0.155-1.766
		V11.468c0-1.159-0.118-1.873-0.35-2.143c-0.324-0.359-0.863-0.539-1.617-0.539h-0.647V8.288h14.078l0.203,4.001h-0.526
		c-0.188-0.96-0.397-1.621-0.625-1.98c-0.229-0.359-0.569-0.633-1.017-0.821c-0.36-0.135-0.993-0.203-1.9-0.203H241.429z"/>
	<path fill="#FFFFFF" d="M252.152,8.288h4.958l11.167,13.702V11.454c0-1.122-0.125-1.823-0.376-2.101
		c-0.333-0.377-0.859-0.566-1.576-0.566h-0.634V8.288h6.359v0.499h-0.647c-0.772,0-1.32,0.233-1.645,0.7
		c-0.196,0.288-0.297,0.944-0.297,1.967v15.398h-0.483l-12.044-14.71v11.249c0,1.122,0.122,1.823,0.363,2.101
		c0.341,0.378,0.868,0.566,1.577,0.566h0.647v0.498h-6.359v-0.498h0.633c0.782,0,1.334-0.233,1.657-0.7
		c0.198-0.288,0.297-0.943,0.297-1.967V10.687c-0.53-0.62-0.933-1.029-1.206-1.227c-0.275-0.197-0.676-0.383-1.206-0.553
		c-0.262-0.08-0.656-0.12-1.186-0.12V8.288z"/>
	<path fill="#FFFFFF" d="M272.911,26.556v-0.498h0.688c0.773,0,1.32-0.248,1.645-0.741c0.198-0.297,0.296-0.961,0.296-1.994V11.521
		c0-1.14-0.126-1.854-0.377-2.141c-0.35-0.396-0.871-0.593-1.563-0.593h-0.688V8.288h7.437c2.731,0,4.808,0.31,6.23,0.93
		c1.424,0.619,2.57,1.652,3.437,3.099c0.865,1.445,1.299,3.116,1.299,5.011c0,2.542-0.773,4.666-2.316,6.372
		c-1.735,1.904-4.376,2.856-7.921,2.856H272.911z M278.126,25.236c1.139,0.251,2.096,0.377,2.869,0.377
		c2.083,0,3.813-0.731,5.187-2.196c1.374-1.463,2.061-3.449,2.061-5.955c0-2.523-0.687-4.513-2.061-5.967
		c-1.374-1.455-3.14-2.183-5.294-2.183c-0.809,0-1.729,0.13-2.761,0.391V25.236z"/>
	<path fill="#FFFFFF" d="M298.132,9.285v7.221h4.014c1.041,0,1.738-0.157,2.089-0.472c0.466-0.413,0.727-1.14,0.779-2.182h0.501
		v6.359h-0.501c-0.125-0.889-0.251-1.459-0.376-1.711c-0.161-0.315-0.426-0.562-0.793-0.742c-0.369-0.179-0.934-0.269-1.698-0.269
		h-4.014v6.022c0,0.808,0.035,1.3,0.107,1.475c0.072,0.175,0.199,0.315,0.377,0.418c0.179,0.103,0.52,0.155,1.024,0.155h3.099
		c1.033,0,1.783-0.072,2.25-0.215c0.466-0.144,0.915-0.427,1.347-0.849c0.555-0.557,1.128-1.396,1.711-2.52h0.537l-1.574,4.581
		h-14.078v-0.498h0.646c0.431,0,0.838-0.104,1.226-0.311c0.286-0.143,0.483-0.359,0.585-0.646c0.104-0.288,0.156-0.875,0.156-1.766
		V11.468c0-1.159-0.117-1.873-0.351-2.143c-0.323-0.359-0.863-0.539-1.616-0.539h-0.646V8.288h14.078l0.201,4.001h-0.524
		c-0.188-0.96-0.399-1.621-0.626-1.98c-0.23-0.359-0.569-0.633-1.018-0.821c-0.36-0.135-0.992-0.203-1.9-0.203H298.132z"/>
	<path fill="#FFFFFF" d="M327.217,20.44h-7.073l-1.239,2.882c-0.305,0.709-0.458,1.24-0.458,1.59c0,0.277,0.133,0.523,0.397,0.733
		c0.265,0.212,0.838,0.349,1.717,0.411v0.499h-5.752v-0.499c0.765-0.135,1.258-0.31,1.482-0.525
		c0.458-0.432,0.965-1.308,1.522-2.628l6.426-15.035h0.472l6.358,15.196c0.513,1.222,0.978,2.015,1.396,2.377
		c0.417,0.365,0.998,0.569,1.744,0.614v0.499h-7.208v-0.499c0.728-0.036,1.22-0.157,1.476-0.364s0.384-0.458,0.384-0.754
		c0-0.395-0.181-1.02-0.54-1.873L327.217,20.44z M326.841,19.442l-3.1-7.382l-3.181,7.382H326.841z"/>
	<path fill="#FFFFFF" d="M353.162,26.556h-4.876l-6.184-8.541c-0.457,0.017-0.83,0.026-1.118,0.026
		c-0.116,0-0.241-0.002-0.378-0.007c-0.135-0.004-0.273-0.011-0.416-0.02v5.308c0,1.15,0.125,1.864,0.376,2.142
		c0.342,0.396,0.853,0.593,1.536,0.593h0.713v0.498h-7.827v-0.498h0.688c0.772,0,1.324-0.251,1.657-0.754
		c0.188-0.279,0.281-0.939,0.281-1.98V11.521c0-1.149-0.125-1.863-0.376-2.141c-0.351-0.396-0.871-0.593-1.563-0.593h-0.688V8.288
		h6.657c1.938,0,3.37,0.143,4.29,0.424c0.92,0.284,1.703,0.804,2.344,1.563c0.643,0.76,0.964,1.665,0.964,2.715
		c0,1.124-0.365,2.097-1.1,2.923c-0.73,0.827-1.864,1.411-3.4,1.752l3.771,5.24c0.861,1.204,1.604,2.003,2.224,2.398
		c0.62,0.396,1.429,0.647,2.424,0.754V26.556z M340.19,17.166c0.169,0,0.318,0.002,0.444,0.007c0.126,0.005,0.228,0.007,0.31,0.007
		c1.741,0,3.057-0.377,3.94-1.131c0.886-0.756,1.327-1.716,1.327-2.884c0-1.14-0.357-2.067-1.07-2.781
		c-0.715-0.713-1.66-1.071-2.838-1.071c-0.52,0-1.227,0.085-2.113,0.255V17.166z"/>
	<path fill="#FFFFFF" d="M369.534,7.87l0.416,6.211h-0.416c-0.559-1.859-1.353-3.197-2.386-4.015
		c-1.033-0.817-2.273-1.227-3.719-1.227c-1.212,0-2.308,0.308-3.286,0.923c-0.979,0.616-1.75,1.597-2.311,2.944
		c-0.562,1.347-0.843,3.022-0.843,5.025c0,1.653,0.264,3.085,0.795,4.298c0.528,1.212,1.327,2.142,2.393,2.789
		c1.063,0.647,2.276,0.97,3.645,0.97c1.184,0,2.231-0.254,3.137-0.76c0.908-0.508,1.905-1.517,2.991-3.025l0.416,0.269
		c-0.914,1.625-1.983,2.816-3.203,3.57c-1.224,0.754-2.674,1.131-4.353,1.131c-3.026,0-5.37-1.122-7.032-3.368
		c-1.239-1.67-1.859-3.636-1.859-5.9c0-1.823,0.408-3.498,1.227-5.024c0.816-1.527,1.941-2.71,3.374-3.55
		c1.434-0.84,2.997-1.26,4.694-1.26c1.32,0,2.623,0.323,3.908,0.97c0.376,0.198,0.646,0.297,0.809,0.297
		c0.242,0,0.452-0.085,0.633-0.256c0.231-0.243,0.398-0.579,0.499-1.011H369.534z"/>
	<path fill="#FFFFFF" d="M376.996,16.762h8.486v-5.227c0-0.934-0.058-1.549-0.174-1.846c-0.091-0.225-0.28-0.418-0.566-0.58
		c-0.386-0.215-0.795-0.324-1.226-0.324h-0.646V8.288h7.813v0.498h-0.646c-0.431,0-0.842,0.104-1.226,0.311
		c-0.289,0.143-0.484,0.362-0.587,0.653c-0.104,0.292-0.155,0.887-0.155,1.786v11.788c0,0.925,0.059,1.536,0.176,1.832
		c0.09,0.225,0.272,0.417,0.553,0.58c0.395,0.215,0.809,0.324,1.239,0.324h0.646v0.497h-7.813v-0.497h0.646
		c0.743,0,1.288-0.221,1.63-0.661c0.223-0.288,0.336-0.979,0.336-2.075v-5.563h-8.486v5.563c0,0.925,0.058,1.536,0.175,1.832
		c0.09,0.225,0.277,0.417,0.565,0.58c0.387,0.215,0.795,0.324,1.226,0.324h0.66v0.497h-7.828v-0.497h0.647
		c0.754,0,1.302-0.221,1.644-0.661c0.216-0.288,0.324-0.979,0.324-2.075V11.535c0-0.934-0.059-1.549-0.176-1.846
		c-0.09-0.225-0.274-0.418-0.553-0.58c-0.395-0.215-0.808-0.324-1.239-0.324h-0.647V8.288h7.828v0.498h-0.66
		c-0.431,0-0.839,0.104-1.226,0.311c-0.278,0.143-0.471,0.362-0.579,0.653c-0.107,0.292-0.161,0.887-0.161,1.786V16.762z"/>
	<path fill="#FFFFFF" d="M403.873,20.44h-7.074l-1.239,2.883c-0.306,0.71-0.458,1.239-0.458,1.59c0,0.278,0.133,0.523,0.396,0.735
		c0.267,0.209,0.838,0.347,1.719,0.411v0.499h-5.752v-0.499c0.763-0.135,1.257-0.31,1.48-0.525c0.459-0.432,0.966-1.307,1.522-2.627
		l6.428-15.035h0.471l6.357,15.196c0.513,1.222,0.978,2.015,1.396,2.378c0.417,0.364,0.998,0.568,1.744,0.613v0.499h-7.207v-0.499
		c0.727-0.036,1.218-0.158,1.475-0.364c0.256-0.207,0.384-0.458,0.384-0.755c0-0.395-0.181-1.02-0.54-1.873L403.873,20.44z
		 M403.495,19.443l-3.101-7.383l-3.178,7.383H403.495z M398.767,3.545c0.413,0,0.761,0.145,1.043,0.432
		c0.284,0.287,0.425,0.633,0.425,1.037c0,0.405-0.145,0.748-0.433,1.031c-0.286,0.284-0.628,0.425-1.023,0.425
		c-0.402,0-0.749-0.141-1.036-0.425c-0.288-0.283-0.431-0.626-0.431-1.031c0-0.403,0.142-0.75,0.424-1.037
		C398.019,3.69,398.362,3.545,398.767,3.545 M403.521,3.545c0.404,0,0.747,0.145,1.03,0.432s0.424,0.633,0.424,1.037
		c0,0.405-0.141,0.748-0.424,1.031c-0.283,0.284-0.626,0.425-1.03,0.425s-0.749-0.141-1.038-0.425
		c-0.286-0.283-0.431-0.626-0.431-1.031c0-0.403,0.145-0.75,0.431-1.037C402.772,3.69,403.117,3.545,403.521,3.545"/>
	<path fill="#FFFFFF" d="M421.265,7.871c2.37,0,4.425,0.9,6.162,2.701c1.737,1.801,2.607,4.049,2.607,6.743
		c0,2.775-0.876,5.08-2.626,6.911c-1.753,1.833-3.872,2.749-6.359,2.749c-2.516,0-4.628-0.894-6.339-2.681s-2.566-4.099-2.566-6.937
		c0-2.902,0.988-5.268,2.964-7.101C416.821,8.665,418.875,7.871,421.265,7.871 M421.008,8.854c-1.635,0-2.946,0.606-3.935,1.819
		c-1.23,1.509-1.844,3.718-1.844,6.628c0,2.981,0.637,5.277,1.912,6.884c0.979,1.221,2.271,1.833,3.879,1.833
		c1.715,0,3.133-0.67,4.252-2.008c1.117-1.338,1.675-3.448,1.675-6.332c0-3.125-0.613-5.456-1.844-6.992
		C424.116,9.465,422.751,8.854,421.008,8.854"/>
	<path fill="#FFFFFF" d="M446.915,21.504l0.444,0.094l-1.564,4.958H431.65v-0.499h0.686c0.773,0,1.324-0.251,1.657-0.754
		c0.19-0.287,0.284-0.952,0.284-1.994V11.521c0-1.14-0.125-1.854-0.377-2.141c-0.351-0.396-0.871-0.593-1.564-0.593h-0.686V8.288
		h8.271v0.499c-0.969-0.009-1.648,0.081-2.04,0.269c-0.391,0.188-0.658,0.427-0.801,0.714c-0.145,0.287-0.216,0.975-0.216,2.062
		V23.31c0,0.745,0.071,1.257,0.216,1.536c0.106,0.188,0.273,0.327,0.497,0.417c0.225,0.09,0.926,0.135,2.104,0.135h1.333
		c1.4,0,2.385-0.104,2.949-0.31c0.567-0.207,1.084-0.572,1.55-1.099C445.98,23.464,446.447,22.635,446.915,21.504"/>
	<path fill="#FFFFFF" d="M458.042,7.871c2.371,0,4.425,0.9,6.162,2.701c1.738,1.801,2.608,4.049,2.608,6.743
		c0,2.775-0.876,5.08-2.627,6.911c-1.752,1.833-3.872,2.749-6.358,2.749c-2.516,0-4.629-0.894-6.339-2.681
		c-1.712-1.787-2.567-4.099-2.567-6.937c0-2.902,0.988-5.268,2.964-7.101C453.6,8.665,455.652,7.871,458.042,7.871 M457.786,8.854
		c-1.636,0-2.945,0.606-3.935,1.819c-1.231,1.509-1.845,3.718-1.845,6.628c0,2.981,0.637,5.277,1.912,6.884
		c0.979,1.221,2.271,1.833,3.88,1.833c1.715,0,3.133-0.67,4.251-2.008s1.676-3.448,1.676-6.332c0-3.125-0.614-5.456-1.844-6.992
		C460.894,9.465,459.528,8.854,457.786,8.854"/>
	<path fill="#FFFFFF" d="M484.811,7.87l0.471,5.767h-0.471c-0.478-1.438-1.092-2.52-1.847-3.247
		c-1.085-1.051-2.482-1.576-4.188-1.576c-2.328,0-4.096,0.92-5.31,2.761c-1.016,1.554-1.521,3.404-1.521,5.551
		c0,1.742,0.335,3.333,1.01,4.769c0.675,1.437,1.557,2.49,2.646,3.16c1.093,0.669,2.212,1.004,3.361,1.004
		c0.676,0,1.325-0.086,1.954-0.256c0.629-0.171,1.235-0.422,1.819-0.755v-5.281c0-0.916-0.069-1.516-0.209-1.799
		c-0.139-0.283-0.354-0.499-0.646-0.646c-0.291-0.149-0.807-0.223-1.542-0.223v-0.512h7.073v0.512h-0.337
		c-0.702,0-1.182,0.233-1.441,0.701c-0.18,0.333-0.271,0.988-0.271,1.967v5.591c-1.033,0.557-2.053,0.965-3.059,1.226
		c-1.007,0.261-2.123,0.39-3.354,0.39c-3.53,0-6.211-1.131-8.043-3.395c-1.375-1.698-2.062-3.655-2.062-5.874
		c0-1.607,0.387-3.148,1.159-4.621c0.916-1.751,2.173-3.098,3.771-4.042c1.338-0.781,2.92-1.172,4.742-1.172
		c0.665,0,1.27,0.054,1.813,0.162c0.542,0.108,1.313,0.346,2.311,0.714c0.503,0.189,0.839,0.284,1.009,0.284
		c0.172,0,0.318-0.079,0.439-0.236c0.121-0.157,0.194-0.465,0.222-0.923H484.811z"/>
	<path fill="#FFFFFF" d="M496.315,26.058v0.499h-7.828v-0.499h0.646c0.755,0,1.303-0.22,1.645-0.66
		c0.216-0.287,0.322-0.979,0.322-2.075V11.521c0-0.925-0.058-1.536-0.175-1.832c-0.09-0.225-0.273-0.418-0.553-0.58
		c-0.395-0.215-0.808-0.323-1.239-0.323h-0.646V8.288h7.828v0.499h-0.661c-0.745,0-1.288,0.22-1.63,0.66
		c-0.224,0.287-0.336,0.979-0.336,2.075v11.801c0,0.925,0.057,1.536,0.175,1.833c0.089,0.224,0.278,0.417,0.564,0.58
		c0.388,0.215,0.796,0.323,1.227,0.323H496.315z"/>
	<path fill="#FFFFFF" d="M509.64,7.87v6.318h-0.498c-0.163-1.212-0.452-2.178-0.869-2.896s-1.013-1.29-1.784-1.711
		c-0.773-0.422-1.573-0.633-2.4-0.633c-0.935,0-1.706,0.285-2.316,0.855s-0.917,1.219-0.917,1.947c0,0.557,0.195,1.064,0.581,1.522
		c0.557,0.674,1.881,1.572,3.974,2.694c1.706,0.917,2.872,1.62,3.497,2.109c0.624,0.489,1.104,1.066,1.44,1.73
		c0.337,0.664,0.506,1.361,0.506,2.088c0,1.383-0.536,2.576-1.611,3.577c-1.072,1.002-2.453,1.502-4.142,1.502
		c-0.529,0-1.029-0.04-1.495-0.121c-0.28-0.045-0.856-0.208-1.732-0.492c-0.874-0.282-1.43-0.424-1.664-0.424
		c-0.224,0-0.399,0.067-0.53,0.202c-0.131,0.135-0.229,0.413-0.29,0.835h-0.499v-6.264h0.499c0.232,1.312,0.548,2.293,0.943,2.944
		c0.395,0.651,0.999,1.191,1.812,1.623c0.813,0.431,1.705,0.646,2.675,0.646c1.121,0,2.009-0.297,2.661-0.889
		c0.649-0.593,0.976-1.294,0.976-2.102c0-0.449-0.123-0.903-0.37-1.361c-0.248-0.459-0.632-0.885-1.151-1.28
		c-0.351-0.269-1.308-0.841-2.87-1.718c-1.563-0.875-2.674-1.574-3.335-2.095c-0.659-0.521-1.16-1.096-1.502-1.724
		c-0.341-0.629-0.512-1.32-0.512-2.075c0-1.312,0.503-2.441,1.51-3.389c1.006-0.947,2.283-1.421,3.839-1.421
		c0.97,0,1.998,0.238,3.086,0.714c0.502,0.224,0.855,0.336,1.063,0.336c0.233,0,0.425-0.07,0.573-0.208
		c0.148-0.14,0.267-0.42,0.356-0.842H509.64z"/>
	<path fill="#FFFFFF" d="M528.946,7.87l0.415,6.211h-0.415c-0.559-1.859-1.353-3.197-2.386-4.015
		c-1.034-0.817-2.273-1.227-3.72-1.227c-1.211,0-2.307,0.308-3.285,0.923c-0.979,0.616-1.75,1.597-2.311,2.944
		c-0.563,1.347-0.843,3.022-0.843,5.025c0,1.653,0.264,3.085,0.795,4.298c0.528,1.212,1.327,2.142,2.392,2.789
		c1.063,0.647,2.278,0.97,3.645,0.97c1.185,0,2.23-0.254,3.138-0.76c0.908-0.508,1.905-1.517,2.99-3.025l0.417,0.269
		c-0.914,1.625-1.983,2.816-3.204,3.57c-1.223,0.754-2.674,1.131-4.352,1.131c-3.027,0-5.371-1.122-7.032-3.368
		c-1.239-1.67-1.859-3.636-1.859-5.9c0-1.823,0.408-3.498,1.227-5.024c0.816-1.527,1.94-2.71,3.374-3.55
		c1.434-0.84,2.997-1.26,4.694-1.26c1.32,0,2.623,0.323,3.908,0.97c0.376,0.198,0.646,0.297,0.808,0.297
		c0.242,0,0.453-0.085,0.634-0.256c0.231-0.243,0.397-0.579,0.498-1.011H528.946z"/>
	<path fill="#FFFFFF" d="M536.41,16.762h8.486v-5.227c0-0.934-0.059-1.549-0.175-1.846c-0.09-0.225-0.279-0.418-0.565-0.58
		c-0.387-0.215-0.794-0.324-1.227-0.324h-0.646V8.288h7.813v0.498h-0.646c-0.432,0-0.841,0.104-1.227,0.311
		c-0.287,0.143-0.483,0.362-0.587,0.653c-0.104,0.292-0.154,0.887-0.154,1.786v11.788c0,0.925,0.059,1.536,0.175,1.832
		c0.09,0.225,0.272,0.417,0.553,0.58c0.395,0.215,0.809,0.324,1.24,0.324h0.646v0.497h-7.813v-0.497h0.646
		c0.744,0,1.289-0.221,1.631-0.661c0.224-0.288,0.336-0.979,0.336-2.075v-5.563h-8.486v5.563c0,0.925,0.059,1.536,0.175,1.832
		c0.09,0.225,0.277,0.417,0.565,0.58c0.387,0.215,0.794,0.324,1.226,0.324h0.659v0.497h-7.826v-0.497h0.646
		c0.754,0,1.302-0.221,1.645-0.661c0.215-0.288,0.324-0.979,0.324-2.075V11.535c0-0.934-0.06-1.549-0.177-1.846
		c-0.089-0.225-0.275-0.418-0.552-0.58c-0.396-0.215-0.809-0.324-1.24-0.324h-0.646V8.288h7.826v0.498h-0.659
		c-0.432,0-0.839,0.104-1.226,0.311c-0.277,0.143-0.471,0.362-0.579,0.653c-0.107,0.292-0.161,0.887-0.161,1.786V16.762z"/>
	<path fill="#FFFFFF" d="M556.429,9.285v7.221h4.015c1.042,0,1.737-0.157,2.089-0.472c0.466-0.413,0.727-1.14,0.779-2.182h0.5v6.359
		h-0.5c-0.126-0.889-0.251-1.459-0.378-1.711c-0.16-0.315-0.425-0.562-0.793-0.742c-0.369-0.179-0.935-0.269-1.697-0.269h-4.015
		v6.022c0,0.808,0.036,1.3,0.106,1.475c0.073,0.175,0.198,0.315,0.379,0.418c0.179,0.103,0.52,0.155,1.023,0.155h3.099
		c1.033,0,1.782-0.072,2.25-0.215c0.466-0.144,0.916-0.427,1.347-0.849c0.557-0.557,1.127-1.396,1.711-2.52h0.538l-1.576,4.581
		h-14.077v-0.498h0.646c0.432,0,0.838-0.104,1.227-0.311c0.285-0.143,0.481-0.359,0.585-0.646s0.156-0.875,0.156-1.766V11.468
		c0-1.159-0.119-1.873-0.352-2.143c-0.323-0.359-0.861-0.539-1.616-0.539h-0.646V8.288h14.077l0.203,4.001h-0.526
		c-0.187-0.96-0.397-1.621-0.625-1.98c-0.229-0.359-0.568-0.633-1.017-0.821c-0.36-0.135-0.994-0.203-1.901-0.203H556.429z"/>
	<path fill="#FFFFFF" d="M72.676,42.394v7.18h3.328c0.764,0,1.322-0.168,1.678-0.505c0.354-0.335,0.59-1.003,0.707-1.999h0.499
		v6.183h-0.499c-0.009-0.708-0.101-1.23-0.276-1.563c-0.176-0.333-0.418-0.582-0.728-0.748c-0.311-0.165-0.771-0.248-1.382-0.248
		h-3.328v5.737c0,0.927,0.059,1.536,0.176,1.833c0.089,0.226,0.278,0.418,0.565,0.58c0.396,0.215,0.808,0.323,1.24,0.323h0.66v0.497
		h-7.841v-0.497h0.647c0.754,0,1.302-0.222,1.643-0.66c0.215-0.289,0.324-0.979,0.324-2.076V44.629c0-0.924-0.059-1.535-0.176-1.831
		c-0.09-0.225-0.273-0.418-0.552-0.58c-0.386-0.215-0.799-0.324-1.239-0.324h-0.647v-0.499H81.07l0.175,4.015h-0.472
		c-0.232-0.853-0.505-1.479-0.815-1.879c-0.309-0.4-0.69-0.69-1.144-0.869c-0.454-0.18-1.156-0.27-2.108-0.27H72.676z"/>
	<path fill="#FFFFFF" d="M95.539,41.895v-0.499h6.467v0.499h-0.687c-0.719,0-1.271,0.3-1.658,0.903
		c-0.188,0.279-0.283,0.925-0.283,1.94v7.41c0,1.831-0.181,3.252-0.546,4.264c-0.363,1.01-1.078,1.877-2.143,2.6
		c-1.064,0.722-2.513,1.084-4.345,1.084c-1.993,0-3.506-0.344-4.539-1.037c-1.033-0.691-1.765-1.621-2.196-2.789
		c-0.289-0.798-0.431-2.299-0.431-4.499V44.63c0-1.122-0.156-1.859-0.465-2.209c-0.31-0.35-0.811-0.525-1.503-0.525h-0.687v-0.499
		h7.895v0.499h-0.7c-0.755,0-1.293,0.238-1.616,0.715c-0.226,0.323-0.338,0.997-0.338,2.02v7.962c0,0.709,0.065,1.523,0.195,2.438
		c0.13,0.916,0.366,1.631,0.708,2.143c0.341,0.511,0.833,0.935,1.475,1.267c0.642,0.333,1.431,0.497,2.365,0.497
		c1.194,0,2.264-0.261,3.206-0.779c0.943-0.521,1.587-1.189,1.933-2.001c0.345-0.813,0.519-2.188,0.519-4.13V44.63
		c0-1.141-0.125-1.854-0.377-2.142c-0.351-0.395-0.872-0.593-1.563-0.593H95.539z"/>
	<path fill="#FFFFFF" d="M101.938,41.396h4.958l11.168,13.702V44.563c0-1.122-0.126-1.823-0.377-2.101
		c-0.333-0.378-0.858-0.566-1.577-0.566h-0.632v-0.499h6.358v0.499h-0.646c-0.773,0-1.32,0.233-1.644,0.7
		c-0.197,0.288-0.296,0.943-0.296,1.967v15.399h-0.485L106.72,45.25v11.249c0,1.123,0.122,1.823,0.364,2.102
		c0.342,0.378,0.867,0.566,1.577,0.566h0.646v0.498h-6.357v-0.498h0.632c0.781,0,1.334-0.232,1.657-0.7
		c0.197-0.289,0.296-0.944,0.296-1.968V43.795c-0.53-0.62-0.931-1.028-1.205-1.226c-0.274-0.197-0.676-0.382-1.206-0.553
		c-0.26-0.081-0.655-0.121-1.186-0.121V41.396z"/>
	<path fill="#FFFFFF" d="M122.699,59.665v-0.498h0.687c0.772,0,1.321-0.248,1.645-0.741c0.197-0.297,0.296-0.961,0.296-1.994V44.63
		c0-1.14-0.126-1.854-0.377-2.142c-0.351-0.396-0.872-0.593-1.564-0.593h-0.687v-0.499h7.436c2.73,0,4.807,0.31,6.23,0.93
		c1.424,0.619,2.569,1.653,3.437,3.099c0.866,1.446,1.3,3.116,1.3,5.011c0,2.542-0.772,4.666-2.318,6.373
		c-1.733,1.903-4.374,2.855-7.922,2.855H122.699z M127.912,58.345c1.141,0.252,2.097,0.378,2.87,0.378
		c2.083,0,3.813-0.733,5.187-2.197c1.374-1.463,2.062-3.448,2.062-5.954c0-2.523-0.688-4.513-2.062-5.968
		c-1.375-1.455-3.14-2.183-5.294-2.183c-0.809,0-1.729,0.13-2.762,0.391V58.345z"/>
	<path fill="#FFFFFF" d="M154.803,40.979v6.318h-0.499c-0.161-1.211-0.45-2.177-0.868-2.896s-1.013-1.29-1.786-1.711
		c-0.772-0.422-1.571-0.633-2.398-0.633c-0.934,0-1.707,0.285-2.317,0.855c-0.611,0.57-0.917,1.219-0.917,1.947
		c0,0.557,0.193,1.064,0.58,1.522c0.557,0.673,1.882,1.571,3.974,2.693c1.707,0.917,2.872,1.62,3.497,2.109
		c0.624,0.489,1.105,1.066,1.441,1.731c0.337,0.664,0.505,1.359,0.505,2.088c0,1.384-0.537,2.576-1.61,3.577
		c-1.073,1.001-2.454,1.502-4.143,1.502c-0.529,0-1.027-0.04-1.495-0.121c-0.279-0.045-0.856-0.209-1.731-0.493
		c-0.877-0.281-1.431-0.424-1.665-0.424c-0.224,0-0.402,0.067-0.533,0.203c-0.129,0.134-0.226,0.413-0.289,0.835h-0.5v-6.265h0.5
		c0.234,1.311,0.548,2.293,0.943,2.944c0.396,0.65,1,1.191,1.813,1.622c0.811,0.431,1.703,0.646,2.673,0.646
		c1.124,0,2.01-0.296,2.661-0.889c0.651-0.593,0.977-1.294,0.977-2.102c0-0.449-0.124-0.902-0.371-1.36
		c-0.247-0.459-0.63-0.885-1.151-1.28c-0.351-0.269-1.307-0.842-2.87-1.718c-1.563-0.875-2.674-1.574-3.334-2.095
		c-0.66-0.52-1.161-1.095-1.502-1.724c-0.342-0.628-0.512-1.32-0.512-2.074c0-1.312,0.503-2.441,1.509-3.389
		c1.006-0.947,2.285-1.421,3.839-1.421c0.97,0,1.999,0.238,3.085,0.714c0.503,0.224,0.858,0.336,1.065,0.336
		c0.233,0,0.424-0.07,0.572-0.208c0.148-0.139,0.267-0.42,0.356-0.842H154.803z"/>
	<path fill="#FFFFFF" d="M173.461,41.396l0.202,4.285h-0.512c-0.099-0.755-0.234-1.293-0.405-1.617
		c-0.278-0.521-0.649-0.905-1.111-1.152c-0.462-0.247-1.07-0.371-1.825-0.371h-2.573v13.957c0,1.123,0.122,1.823,0.363,2.102
		c0.342,0.378,0.867,0.566,1.577,0.566h0.633v0.498h-7.746v-0.498h0.646c0.773,0,1.32-0.232,1.645-0.7
		c0.197-0.289,0.296-0.944,0.296-1.968V42.542h-2.196c-0.853,0-1.459,0.063-1.819,0.188c-0.467,0.17-0.867,0.498-1.198,0.984
		c-0.333,0.484-0.53,1.141-0.593,1.967h-0.512l0.216-4.285H173.461z"/>
	<path fill="#FFFFFF" d="M180.116,42.394v7.22h4.016c1.041,0,1.737-0.156,2.087-0.471c0.467-0.413,0.728-1.14,0.782-2.183h0.499
		v6.359h-0.499c-0.125-0.889-0.251-1.459-0.377-1.71c-0.163-0.315-0.427-0.562-0.795-0.742c-0.369-0.18-0.934-0.27-1.697-0.27
		h-4.016v6.023c0,0.809,0.036,1.299,0.107,1.474c0.073,0.176,0.199,0.315,0.378,0.418c0.179,0.104,0.521,0.156,1.024,0.156h3.098
		c1.033,0,1.782-0.073,2.25-0.217c0.466-0.144,0.916-0.426,1.348-0.849c0.557-0.557,1.127-1.396,1.71-2.519h0.538l-1.576,4.579
		h-14.079v-0.497h0.647c0.432,0,0.84-0.104,1.226-0.312c0.288-0.143,0.483-0.357,0.586-0.646s0.155-0.875,0.155-1.765V44.577
		c0-1.159-0.118-1.874-0.351-2.142c-0.323-0.36-0.862-0.54-1.617-0.54h-0.647v-0.499h14.079l0.203,4.001h-0.526
		c-0.188-0.96-0.398-1.621-0.626-1.98c-0.23-0.359-0.568-0.633-1.018-0.821c-0.359-0.135-0.992-0.203-1.9-0.203H180.116z"/>
	<path fill="#FFFFFF" d="M207.021,54.613l0.444,0.093l-1.563,4.959h-14.146v-0.498h0.687c0.772,0,1.326-0.252,1.658-0.755
		c0.189-0.286,0.283-0.952,0.283-1.993V44.63c0-1.14-0.125-1.854-0.377-2.142c-0.351-0.396-0.872-0.593-1.563-0.593h-0.687v-0.499
		h8.272v0.499c-0.971-0.009-1.65,0.081-2.042,0.269c-0.39,0.189-0.657,0.427-0.801,0.714c-0.144,0.287-0.215,0.975-0.215,2.061
		v11.479c0,0.744,0.072,1.256,0.215,1.536c0.108,0.188,0.274,0.326,0.499,0.416c0.224,0.091,0.925,0.136,2.102,0.136h1.334
		c1.401,0,2.384-0.104,2.95-0.311c0.566-0.207,1.083-0.572,1.549-1.098C206.087,56.572,206.554,55.744,207.021,54.613"/>
	<path fill="#FFFFFF" d="M223.875,54.613l0.444,0.093l-1.563,4.959h-14.146v-0.498h0.688c0.772,0,1.324-0.252,1.656-0.755
		c0.189-0.286,0.283-0.952,0.283-1.993V44.63c0-1.14-0.125-1.854-0.377-2.142c-0.35-0.396-0.871-0.593-1.562-0.593h-0.688v-0.499
		h8.272v0.499c-0.97-0.009-1.65,0.081-2.041,0.269c-0.39,0.189-0.658,0.427-0.802,0.714c-0.143,0.287-0.214,0.975-0.214,2.061
		v11.479c0,0.744,0.072,1.256,0.214,1.536c0.108,0.188,0.275,0.326,0.5,0.416c0.224,0.091,0.925,0.136,2.101,0.136h1.334
		c1.401,0,2.385-0.104,2.951-0.311c0.565-0.207,1.082-0.572,1.549-1.098C222.939,56.572,223.407,55.744,223.875,54.613"/>
	<path fill="#FFFFFF" d="M230.678,42.394v7.22h4.015c1.042,0,1.738-0.156,2.089-0.471c0.466-0.413,0.727-1.14,0.78-2.183h0.5v6.359
		h-0.5c-0.125-0.889-0.251-1.459-0.377-1.71c-0.161-0.315-0.426-0.562-0.793-0.742c-0.369-0.18-0.934-0.27-1.698-0.27h-4.015v6.023
		c0,0.809,0.036,1.299,0.107,1.474c0.073,0.176,0.199,0.315,0.378,0.418c0.18,0.104,0.521,0.156,1.024,0.156h3.099
		c1.033,0,1.782-0.073,2.25-0.217c0.466-0.144,0.916-0.426,1.347-0.849c0.556-0.557,1.127-1.396,1.71-2.519h0.538l-1.575,4.579
		h-14.079v-0.497h0.647c0.432,0,0.839-0.104,1.226-0.312c0.287-0.143,0.483-0.357,0.586-0.646c0.104-0.288,0.155-0.875,0.155-1.765
		V44.577c0-1.159-0.118-1.874-0.351-2.142c-0.323-0.36-0.862-0.54-1.617-0.54h-0.647v-0.499h14.079l0.202,4.001h-0.526
		c-0.188-0.96-0.397-1.621-0.625-1.98c-0.23-0.359-0.569-0.633-1.017-0.821c-0.36-0.135-0.993-0.203-1.9-0.203H230.678z"/>
	<path fill="#FFFFFF" d="M241.403,41.396h4.958l11.167,13.702V44.563c0-1.122-0.125-1.823-0.377-2.101
		c-0.332-0.378-0.858-0.566-1.576-0.566h-0.634v-0.499h6.359v0.499h-0.646c-0.773,0-1.32,0.233-1.645,0.7
		c-0.197,0.288-0.296,0.943-0.296,1.967v15.399h-0.484L246.185,45.25v11.249c0,1.123,0.122,1.823,0.363,2.102
		c0.341,0.378,0.868,0.566,1.577,0.566h0.647v0.498h-6.359v-0.498h0.632c0.782,0,1.334-0.232,1.657-0.7
		c0.199-0.289,0.297-0.944,0.297-1.968V43.795c-0.53-0.62-0.933-1.028-1.206-1.226c-0.275-0.197-0.676-0.382-1.206-0.553
		c-0.262-0.081-0.656-0.121-1.185-0.121V41.396z"/>
	<path fill="#FFFFFF" d="M277.104,59.167v0.498h-7.828v-0.498h0.646c0.754,0,1.303-0.221,1.645-0.66
		c0.216-0.288,0.323-0.979,0.323-2.075V44.631c0-0.925-0.058-1.537-0.175-1.833c-0.09-0.225-0.274-0.418-0.553-0.58
		c-0.396-0.215-0.809-0.323-1.24-0.323h-0.646v-0.499h7.828v0.499h-0.661c-0.746,0-1.289,0.22-1.63,0.661
		c-0.224,0.287-0.336,0.979-0.336,2.075v11.801c0,0.926,0.057,1.536,0.174,1.833c0.089,0.224,0.279,0.417,0.565,0.579
		c0.386,0.216,0.796,0.323,1.227,0.323H277.104z"/>
	<path fill="#FFFFFF" d="M277.413,41.396h4.958l11.167,13.702V44.563c0-1.122-0.125-1.823-0.376-2.101
		c-0.333-0.378-0.859-0.566-1.576-0.566h-0.634v-0.499h6.359v0.499h-0.646c-0.772,0-1.32,0.233-1.645,0.7
		c-0.196,0.288-0.297,0.943-0.297,1.967v15.399h-0.483L282.196,45.25v11.249c0,1.123,0.122,1.823,0.363,2.102
		c0.341,0.378,0.867,0.566,1.577,0.566h0.646v0.498h-6.36v-0.498h0.633c0.784,0,1.335-0.232,1.657-0.7
		c0.198-0.289,0.297-0.944,0.297-1.968V43.795c-0.53-0.62-0.932-1.028-1.205-1.226c-0.276-0.197-0.676-0.382-1.206-0.553
		c-0.263-0.081-0.657-0.121-1.186-0.121V41.396z"/>
	<path fill="#FFFFFF" d="M320.066,41.396l0.201,4.285h-0.513c-0.098-0.755-0.233-1.293-0.403-1.617
		c-0.279-0.521-0.648-0.905-1.112-1.152c-0.462-0.247-1.07-0.371-1.824-0.371h-2.575v13.957c0,1.123,0.122,1.823,0.365,2.102
		c0.342,0.378,0.865,0.566,1.576,0.566h0.634v0.498h-7.747v-0.498h0.646c0.771,0,1.32-0.232,1.645-0.7
		c0.195-0.289,0.295-0.944,0.295-1.968V42.542h-2.195c-0.854,0-1.459,0.063-1.818,0.188c-0.468,0.17-0.867,0.498-1.2,0.984
		c-0.331,0.484-0.529,1.141-0.593,1.967h-0.512l0.216-4.285H320.066z"/>
	<path fill="#FFFFFF" d="M326.627,49.871h8.486v-5.227c0-0.934-0.058-1.549-0.176-1.846c-0.089-0.225-0.278-0.418-0.564-0.58
		c-0.387-0.215-0.795-0.324-1.226-0.324H332.5v-0.498h7.814v0.498h-0.646c-0.432,0-0.842,0.104-1.227,0.311
		c-0.289,0.143-0.483,0.361-0.587,0.653c-0.103,0.292-0.155,0.887-0.155,1.785v11.787c0,0.927,0.06,1.536,0.177,1.833
		c0.09,0.226,0.272,0.418,0.553,0.58c0.394,0.215,0.808,0.323,1.239,0.323h0.646v0.497H332.5v-0.497h0.647
		c0.743,0,1.288-0.222,1.629-0.66c0.224-0.289,0.337-0.979,0.337-2.076v-5.562h-8.486v5.562c0,0.927,0.058,1.536,0.174,1.833
		c0.091,0.226,0.278,0.418,0.566,0.58c0.386,0.215,0.795,0.323,1.226,0.323h0.66v0.497h-7.827v-0.497h0.646
		c0.753,0,1.301-0.222,1.644-0.66c0.216-0.289,0.324-0.979,0.324-2.076V44.644c0-0.934-0.059-1.549-0.176-1.846
		c-0.09-0.225-0.275-0.418-0.553-0.58c-0.396-0.215-0.809-0.324-1.239-0.324h-0.646v-0.498h7.827v0.498h-0.66
		c-0.431,0-0.84,0.104-1.226,0.311c-0.278,0.143-0.472,0.361-0.58,0.653c-0.107,0.292-0.16,0.887-0.16,1.785V49.871z"/>
	<path fill="#FFFFFF" d="M354.041,41.895v-0.498h6.468v0.498h-0.688c-0.719,0-1.271,0.302-1.658,0.903
		c-0.188,0.278-0.283,0.924-0.283,1.939v7.411c0,1.831-0.181,3.253-0.546,4.264c-0.362,1.009-1.077,1.877-2.141,2.6
		c-1.064,0.722-2.513,1.084-4.345,1.084c-1.995,0-3.508-0.346-4.542-1.037c-1.031-0.69-1.764-1.62-2.194-2.789
		c-0.288-0.798-0.431-2.3-0.431-4.499v-7.14c0-1.124-0.155-1.86-0.465-2.21c-0.311-0.35-0.811-0.526-1.503-0.526h-0.688v-0.498
		h7.896v0.498h-0.701c-0.754,0-1.292,0.238-1.616,0.714c-0.225,0.324-0.338,0.998-0.338,2.022v7.961c0,0.71,0.066,1.523,0.197,2.438
		c0.129,0.917,0.365,1.633,0.706,2.145s0.832,0.934,1.476,1.266c0.641,0.332,1.431,0.498,2.365,0.498c1.193,0,2.263-0.26,3.206-0.78
		c0.942-0.523,1.587-1.188,1.933-2.001c0.346-0.813,0.519-2.189,0.519-4.13v-7.396c0-1.142-0.125-1.855-0.377-2.144
		c-0.351-0.394-0.872-0.592-1.564-0.592H354.041z M349.056,36.655c0.413,0,0.762,0.144,1.046,0.431
		c0.282,0.287,0.423,0.633,0.423,1.037c0,0.405-0.143,0.748-0.432,1.03c-0.286,0.284-0.627,0.425-1.023,0.425
		c-0.403,0-0.75-0.141-1.037-0.425c-0.287-0.282-0.432-0.625-0.432-1.03c0-0.404,0.142-0.75,0.426-1.037
		C348.308,36.799,348.651,36.655,349.056,36.655 M353.813,36.655c0.404,0,0.746,0.144,1.03,0.431
		c0.281,0.287,0.425,0.633,0.425,1.037c0,0.405-0.144,0.748-0.425,1.03c-0.284,0.284-0.626,0.425-1.03,0.425
		c-0.405,0-0.751-0.141-1.039-0.425c-0.287-0.282-0.43-0.625-0.43-1.03c0-0.404,0.143-0.75,0.43-1.037
		C353.062,36.799,353.407,36.655,353.813,36.655"/>
	<path fill="#FFFFFF" d="M379.448,59.665h-4.876l-6.185-8.541c-0.456,0.018-0.829,0.027-1.118,0.027
		c-0.115,0-0.242-0.002-0.377-0.007c-0.135-0.004-0.273-0.011-0.416-0.02v5.308c0,1.15,0.124,1.864,0.376,2.142
		c0.342,0.396,0.853,0.594,1.535,0.594h0.714v0.498h-7.826v-0.498h0.688c0.771,0,1.324-0.252,1.657-0.755
		c0.188-0.278,0.281-0.939,0.281-1.98V44.63c0-1.15-0.126-1.863-0.377-2.142c-0.35-0.396-0.871-0.593-1.562-0.593h-0.688v-0.499
		h6.656c1.938,0,3.369,0.143,4.29,0.424c0.92,0.283,1.702,0.804,2.344,1.563c0.643,0.76,0.963,1.665,0.963,2.715
		c0,1.123-0.365,2.097-1.098,2.924c-0.733,0.826-1.865,1.409-3.402,1.75l3.771,5.24c0.862,1.204,1.604,2.003,2.224,2.398
		c0.621,0.396,1.43,0.646,2.425,0.755V59.665z M366.477,50.275c0.169,0,0.317,0.001,0.443,0.006s0.228,0.007,0.31,0.007
		c1.742,0,3.057-0.377,3.941-1.131c0.885-0.755,1.326-1.716,1.326-2.884c0-1.14-0.356-2.067-1.07-2.781
		c-0.715-0.713-1.659-1.071-2.838-1.071c-0.519,0-1.225,0.085-2.112,0.256V50.275z"/>
	<path fill="#FFFFFF" d="M387.722,59.167v0.498h-7.827v-0.498h0.646c0.755,0,1.303-0.221,1.645-0.66
		c0.215-0.288,0.322-0.979,0.322-2.075V44.631c0-0.925-0.058-1.537-0.175-1.833c-0.09-0.225-0.274-0.418-0.553-0.58
		c-0.396-0.215-0.809-0.323-1.239-0.323h-0.646v-0.499h7.827v0.499h-0.66c-0.745,0-1.289,0.22-1.63,0.661
		c-0.225,0.287-0.336,0.979-0.336,2.075v11.801c0,0.926,0.057,1.536,0.174,1.833c0.089,0.224,0.279,0.417,0.565,0.579
		c0.386,0.216,0.796,0.323,1.227,0.323H387.722z"/>
	<path fill="#FFFFFF" d="M388.031,41.396h4.958l11.167,13.702V44.563c0-1.122-0.125-1.823-0.376-2.101
		c-0.333-0.378-0.859-0.566-1.576-0.566h-0.634v-0.499h6.359v0.499h-0.647c-0.772,0-1.319,0.233-1.645,0.7
		c-0.196,0.288-0.297,0.943-0.297,1.967v15.399h-0.483L392.813,45.25v11.249c0,1.123,0.122,1.823,0.363,2.102
		c0.341,0.378,0.867,0.566,1.577,0.566h0.646v0.498h-6.36v-0.498h0.633c0.784,0,1.336-0.232,1.658-0.7
		c0.198-0.289,0.298-0.944,0.298-1.968V43.795c-0.531-0.62-0.934-1.028-1.206-1.226c-0.276-0.197-0.677-0.382-1.206-0.553
		c-0.263-0.081-0.657-0.121-1.186-0.121V41.396z"/>
	<path fill="#FFFFFF" d="M425.254,40.979l0.471,5.767h-0.471c-0.478-1.438-1.092-2.52-1.847-3.247
		c-1.086-1.051-2.482-1.576-4.188-1.576c-2.328,0-4.096,0.921-5.31,2.761c-1.016,1.554-1.521,3.406-1.521,5.551
		c0,1.742,0.336,3.332,1.01,4.77c0.675,1.437,1.557,2.489,2.646,3.159c1.094,0.669,2.212,1.004,3.361,1.004
		c0.676,0,1.325-0.087,1.954-0.257c0.629-0.171,1.234-0.422,1.819-0.753v-5.281c0-0.917-0.07-1.517-0.209-1.8
		c-0.139-0.282-0.354-0.498-0.646-0.646c-0.291-0.149-0.807-0.223-1.542-0.223v-0.512h7.072v0.512h-0.336
		c-0.702,0-1.182,0.232-1.441,0.7c-0.181,0.333-0.271,0.988-0.271,1.968v5.59c-1.033,0.557-2.053,0.966-3.059,1.227
		c-1.007,0.261-2.123,0.391-3.354,0.391c-3.529,0-6.21-1.132-8.041-3.396c-1.376-1.697-2.063-3.655-2.063-5.874
		c0-1.607,0.387-3.148,1.158-4.621c0.916-1.751,2.174-3.098,3.773-4.042c1.337-0.781,2.919-1.172,4.741-1.172
		c0.665,0,1.269,0.054,1.812,0.162c0.543,0.108,1.313,0.346,2.312,0.714c0.503,0.189,0.838,0.284,1.009,0.284
		s0.318-0.079,0.438-0.236c0.122-0.156,0.195-0.465,0.223-0.923H425.254z"/>
	<path fill="#FFFFFF" d="M434.011,42.394v7.22h4.014c1.041,0,1.738-0.156,2.089-0.471c0.466-0.413,0.727-1.14,0.779-2.183h0.5v6.359
		h-0.5c-0.126-0.889-0.251-1.459-0.377-1.71c-0.161-0.315-0.426-0.562-0.793-0.742c-0.369-0.18-0.935-0.27-1.698-0.27h-4.014v6.023
		c0,0.809,0.035,1.299,0.106,1.474c0.072,0.176,0.198,0.315,0.378,0.418c0.179,0.104,0.52,0.156,1.023,0.156h3.099
		c1.033,0,1.783-0.073,2.25-0.217s0.916-0.426,1.347-0.849c0.556-0.557,1.128-1.396,1.712-2.519h0.537l-1.575,4.579h-14.077v-0.497
		h0.646c0.431,0,0.838-0.104,1.226-0.312c0.286-0.143,0.482-0.357,0.585-0.646c0.104-0.288,0.156-0.875,0.156-1.765V44.577
		c0-1.159-0.117-1.874-0.351-2.142c-0.323-0.36-0.863-0.54-1.616-0.54h-0.646v-0.499h14.077l0.202,4.001h-0.525
		c-0.188-0.96-0.398-1.621-0.626-1.98c-0.229-0.359-0.568-0.633-1.017-0.821c-0.36-0.135-0.993-0.203-1.901-0.203H434.011z"/>
	<path fill="#FFFFFF" d="M444.734,41.396h4.957l11.167,13.702V44.563c0-1.122-0.125-1.823-0.376-2.101
		c-0.332-0.378-0.859-0.566-1.575-0.566h-0.634v-0.499h6.358v0.499h-0.646c-0.773,0-1.32,0.233-1.645,0.7
		c-0.197,0.288-0.297,0.943-0.297,1.967v15.399h-0.483L449.517,45.25v11.249c0,1.123,0.121,1.823,0.361,2.102
		c0.343,0.378,0.868,0.566,1.578,0.566h0.646v0.498h-6.359v-0.498h0.633c0.782,0,1.335-0.232,1.657-0.7
		c0.198-0.289,0.297-0.944,0.297-1.968V43.795c-0.529-0.62-0.933-1.028-1.205-1.226c-0.275-0.197-0.677-0.382-1.207-0.553
		c-0.261-0.081-0.655-0.121-1.184-0.121V41.396z"/>
</g>
</svg>
