<?xml version="1.0" encoding="utf-8"?>
<!-- Generator: Adobe Illustrator 23.0.3, SVG Export Plug-In . SVG Version: 6.00 Build 0)  -->
<svg version="1.1" id="Ebene_1" xmlns="http://www.w3.org/2000/svg" xmlns:xlink="http://www.w3.org/1999/xlink" x="0px" y="0px"
	 viewBox="0 0 90.6 90.5" style="enable-background:new 0 0 90.6 90.5;" xml:space="preserve">
<style type="text/css">
	.st0{fill:#FFFFFF;}
</style>
<path class="st0" d="M42.9,45.6c-0.1-3.7,0.5-6.7,3-8.9c0.7-0.6,0.5-1.3,0.5-2c-0.1-8.3,3-15.9,5.8-23.5c0.2-0.7,0.5-1.5,1.5-1.4
	c0.6,0.1,0.9,0.6,1,1.2c0.5,7.1,1.6,14.2-2.1,20.9c-1.4,2.5-3,4.6-5,6.6c-1.3,1.3-2.2,2.8-2.2,4.6c-0.1,5.6,0,11.2,0,17
	c1.9-0.5,2.6-1.7,3.1-3.3c0.8-2.5,1.5-5,2.4-7.3c3.1-7.6,10.7-11.2,18.6-9c3.1,0.9,6.1,2,9.2,3.1c0.9,0.3,2.3,0.4,2.1,1.8
	c-0.2,1.3-1.5,1.2-2.5,1.3c-9.4,1.1-17.7,4.7-25.1,10.6c-2.3,1.9-4.5,3.8-6.9,5.6c-1,0.8-0.9,1.7-0.9,2.7c0,4.4,0,8.9,0,13.3
	c0,0.7,0.5,1.7-0.9,1.9c-1.4,0.1-1.5-0.6-1.4-1.7c0.1-0.9-0.4-1.4-1.1-1.7c-4.4-1.8-7.6-5.1-11.2-8c-5.7-4.6-11.9-8.3-18.8-10.7
	c-0.9-0.3-1.9-0.4-1.9-1.6c0-1.3,1.2-1.3,2-1.6c5.1-1.7,10.1-3.2,15.7-1.4c6.8,2.1,12.2,8.4,12.8,15.5c0.1,1.3,0.2,2.6,0.3,3.9
	c0.1,1,0.9,1.4,1.8,1.4c0.9-0.1,0.5-1,0.5-1.6c0-7.5,0-15,0-22.5c0-2.1-2.2-4.2-4.4-4.4c-9.7-0.7-17-6.9-19.2-16.6
	c-0.5-2.1-2.2-4.9-0.8-6.3c1.7-1.6,4.2,0.6,6.4,1.2c8.5,2.3,14.2,7.5,16.4,16.3C41.5,42.3,41,44,42.9,45.6z"/>
</svg>
