<?xml version="1.0" encoding="utf-8"?>
<!-- Generator: Adobe Illustrator 23.0.3, SVG Export Plug-In . SVG Version: 6.00 Build 0)  -->
<svg version="1.1" id="Ebene_1" xmlns="http://www.w3.org/2000/svg" xmlns:xlink="http://www.w3.org/1999/xlink" x="0px" y="0px"
	 viewBox="0 0 1480 841" style="enable-background:new 0 0 1480 841;" xml:space="preserve">
<style type="text/css">
	.st0{display:none;}
	.st1{display:inline;fill:#707070;}
	.st2{fill:#FFFFFF;}
	.st3{fill:#D6D6D6;}
	.st4{fill:#666666;}
	.st5{clip-path:url(#SVGID_2_);}
	.st6{clip-path:url(#SVGID_4_);}
	.st7{fill:none;stroke:#009EE2;stroke-width:1.5;stroke-miterlimit:10;}
	.st8{fill:#009EE2;}
	.st9{fill:none;stroke:#000000;stroke-width:1.5;stroke-miterlimit:10;}
	.st10{clip-path:url(#SVGID_6_);}
	.st11{clip-path:url(#SVGID_8_);}
</style>
<g id="Ebene_2_1_" class="st0">
	<rect x="-623.1" y="-993" class="st1" width="2095.6" height="1564.1"/>
</g>
<g id="Ebene_1_1_">
	<g>
		<g>
			<g>
				<path d="M307.3,82c-22.1,0-40.2-18-40.2-40.2s18-40.2,40.2-40.2s40.2,18,40.2,40.2C347.5,64,329.5,82,307.3,82z M307.3,4.3
					c-20.7,0-37.5,16.9-37.5,37.5c0,20.7,16.9,37.5,37.5,37.5c20.7,0,37.5-16.9,37.5-37.5C344.8,21.1,328.1,4.3,307.3,4.3z"/>
			</g>
		</g>
		<g>
			<g>
				<polygon points="307.4,44.7 283.6,18.9 285.5,17.2 307.5,41 318.1,29.6 319.9,31.3 				"/>
			</g>
		</g>
	</g>
	<g>
		<g>
			<path d="M462.5,17.8l-7.9-8l2.4-2.4l0,0l15.9,16l-53,53l-16-16l4.7-4.7l-2.4,2.5l13.3,13.3l2.5-2.6l-13.2-13.4l2.1-2.1l8,8
				l2.5-2.5l-8-8l-2.4,2.4l4.4-4.4l8,8l2.6-2.6l-8-8l-0.9,1l3-3l13.3,13.3l2.5-2.5l-13.3-13.4l-0.8,0.8l2.9-2.9l8,8l2.5-2.5l-8-8
				l-0.7,0.7l2.7-2.7l8,8l2.5-2.5l-8-8l17.2-17.2l-1.5,1.5l13.3,13.3l2.5-2.6l-13.2-13.3l3.4-3.4l-1.4,1.4l8,8L462.5,17.8z
				 M401.4,57.8l-2.5,2.6l21,21l58.1-58.1L457,2.2L401.4,57.8z"/>
		</g>
		<g>
			<polygon points="449.6,41.3 436.3,28.1 433.7,30.5 447.1,43.8 			"/>
		</g>
		<g>
			<polygon points="438.4,26 446.3,34 448.9,31.4 440.9,23.4 			"/>
		</g>
		<g>
			<polygon points="443,21.4 451,29.4 453.4,26.9 445.4,18.8 			"/>
		</g>
	</g>
	<g>
		<g>
			<path d="M569.3,83.3l-1.1-2c-0.9-1.6-23.1-40.5-24-42.5c-1.7-3.4-2.6-7.3-2.6-11.3c0-14.9,12.4-27.1,27.7-27.1
				c15.3,0,27.7,12.1,27.7,27.1c0,3.8-0.9,7.8-2.6,11.8l-0.1,0.1L569.3,83.3z M569.4,3.1c-13.8,0-25.1,11-25.1,24.5
				c0,3.6,0.8,7.1,2.4,10.1c0.6,1.5,14.6,26,22.8,40.3l22.8-39.7c1.5-3.6,2.4-7.3,2.4-10.8C594.5,14.1,583.2,3.1,569.4,3.1z
				 M569.5,45.1c-9.9,0-17.9-7.9-17.9-17.7c0-9.8,7.9-17.6,17.9-17.6c9.9,0,17.9,7.9,17.9,17.7C587.2,37.4,579.3,45.1,569.5,45.1z
				 M569.5,12.5c-8.7,0-15.4,6.6-15.4,14.9c0,8.3,6.9,15,15.4,15s15.2-6.6,15.4-15C584.8,19.3,578,12.5,569.5,12.5z"/>
		</g>
	</g>
	<g>
		<g>
			<g>
				<path d="M215.4,81.9h-77.5v-1.3c0-16.2,10.1-30.9,25.2-36.5l1.1-0.4l-0.9-0.6c-3.9-2.8-6.7-6.7-8.3-11c-0.8-2.6-1.3-5.1-1.3-7.6
					c0-2.7,0.6-5.7,1.7-8.7l0.1-0.2c0.2-0.4,0.4-0.6,0.5-0.8c0.2-0.3,0.3-0.5,0.5-0.8l1.3-2.2c0.2-0.3,0.4-0.5,0.5-0.8
					c0.2-0.2,0.3-0.4,0.4-0.5l0.3-0.4c0.4-0.5,0.8-1,1.3-1.5l0.3-0.3l1.2-1.1l1-0.5c0.4-0.3,0.8-0.6,1.3-0.9
					c0.2-0.1,0.5-0.3,0.6-0.5c0.3-0.2,0.5-0.4,0.8-0.5l0.2-0.1l2.2-0.9c1.2-0.5,2.5-0.9,3.7-1.3l0.8-0.3h0.2c0.1,0,0.2,0,0.4-0.1
					c0.3-0.1,0.6-0.1,1-0.1h0.4c0.8-0.2,1.5-0.2,2.3-0.2h2.6l0.8,0.3c0.1,0,0.3,0,0.5,0.1c0.5,0.1,0.9,0.1,1.5,0.3l0.6,0.3
					c0.2,0.1,0.4,0.1,0.5,0.2c0.4,0.1,0.7,0.2,1.2,0.4l0.6,0.2c0.5,0.2,1,0.4,1.4,0.6c0.2,0.1,0.3,0.2,0.5,0.3h0.2l0.3,0.1
					c1.6,0.7,3,1.8,4.4,2.9l0.3,0.3l1.8,1.8c0.3,0.4,0.5,0.5,0.7,0.9c0.3,0.4,0.5,0.6,0.8,1c2.7,4.1,4.2,8.7,4.2,13.2
					c0,7.4-3.5,14.2-9.6,18.6l-0.9,0.6l1.1,0.4c15.3,5.6,25.5,20.2,25.5,36.5L215.4,81.9L215.4,81.9z M140.5,79.3h72.3
					c-0.5-14.7-9.9-27.8-23.8-32.8l-5.6-2l4.8-3.6c5.4-3.9,8.5-9.9,8.5-16.5c0-4.1-1.3-8.1-3.7-11.8c-0.2-0.3-0.5-0.5-0.6-0.8
					c-0.3-0.3-0.5-0.5-0.7-0.9l-1.7-1.7c-1.1-0.9-2.3-1.8-3.5-2.5h-0.2L186,6.7c-0.4-0.2-0.6-0.3-0.9-0.5c-0.4-0.2-0.5-0.3-0.8-0.4
					l-0.8-0.3c-0.3-0.1-0.5-0.2-0.9-0.3c-0.2-0.1-0.4-0.1-0.6-0.2l-0.2-0.1L181,4.8c-0.1-0.1-0.5-0.1-0.7-0.1s-0.5-0.1-0.7-0.1
					l-0.6-0.2h-2.2c-0.6,0-1.2,0-1.7,0.2l-0.2,0.1h-0.6c-0.1,0-0.4,0-0.5,0.1c-0.2,0-0.5,0.1-0.6,0.1l-0.5,0.2
					c-1.2,0.3-2.3,0.6-3.5,1.2l-2.1,0.8c-0.2,0.1-0.4,0.3-0.5,0.4c-0.3,0.2-0.5,0.4-0.8,0.5c-0.4,0.2-0.7,0.5-1,0.7L164.1,9
					l-0.6,0.3l-1.1,1c-0.5,0.5-0.8,0.8-1,1.2l-0.3,0.4c-0.2,0.3-0.4,0.5-0.5,0.6c-0.2,0.2-0.3,0.4-0.4,0.5l-1.3,2.2
					c-0.1,0.2-0.3,0.5-0.4,0.6c-0.1,0.3-0.3,0.5-0.5,0.9c-1,2.7-1.5,5.4-1.5,7.7c0,2.2,0.4,4.4,1.1,6.7c1.4,3.8,3.9,7.3,7.4,9.7
					l4.8,3.6l-5.6,2C150.4,51.7,141.1,64.7,140.5,79.3z"/>
			</g>
		</g>
	</g>
	<g>
		<g>
			<circle cx="57.4" cy="44.5" r="9.3"/>
			<path d="M57.4,55.1c-5.8,0-10.6-4.7-10.6-10.6c0-5.8,4.7-10.6,10.6-10.6c5.8,0,10.6,4.7,10.6,10.6C68,50.4,63.2,55.1,57.4,55.1z
				 M57.4,36.4c-4.5,0-8,3.6-8,8s3.6,8,8,8c4.4,0,8-3.6,8-8S61.8,36.4,57.4,36.4z"/>
		</g>
		<g>
			<path d="M78.4,26.5c-6.7,0-12-5.4-12-12c0-6.7,5.4-12,12-12s12,5.4,12,12C90.4,21.1,85.1,26.5,78.4,26.5z M78.4,5.1
				c-5.2,0-9.4,4.2-9.4,9.4s4.2,9.5,9.4,9.5s9.4-4.2,9.4-9.4S83.6,5.1,78.4,5.1z"/>
		</g>
		<g>
			<path d="M84.7,81.2c-7.4,0-13.4-6-13.4-13.4s6-13.4,13.4-13.4c7.4,0,13.4,6,13.4,13.4S92.1,81.2,84.7,81.2z M84.7,57
				c-5.9,0-10.8,4.8-10.8,10.8s4.8,10.8,10.8,10.8c5.9,0,10.8-4.8,10.8-10.8S90.6,57,84.7,57z"/>
		</g>
		<g>
			<path d="M14.6,64c-8,0-14.5-6.5-14.5-14.5c0-8,6.5-14.5,14.5-14.5s14.5,6.5,14.5,14.5C29.1,57.5,22.6,64,14.6,64z M14.6,37.5
				c-6.6,0-11.9,5.4-11.9,11.9s5.4,11.8,11.9,11.8c6.6,0,11.9-5.3,11.9-11.8S21.2,37.5,14.6,37.5z"/>
		</g>
		<g>
			<rect x="27.1" y="44.9" transform="matrix(0.9942 -0.1078 0.1078 0.9942 -4.7299 4.8257)" width="30.3" height="2.6"/>
		</g>
		<g>
			<rect x="52.1" y="32.8" transform="matrix(0.5896 -0.8077 0.8077 0.5896 -0.864 66.5158)" width="25.9" height="2.6"/>
		</g>
		<g>
			<rect x="65.2" y="40.2" transform="matrix(0.6486 -0.7611 0.7611 0.6486 -16.3747 68.8948)" width="2.6" height="23.9"/>
		</g>
	</g>
	<g>
		<g>
			<g>
				<path class="st2" d="M307.3,216.9c-22.1,0-40.2-18-40.2-40.2s18-40.2,40.2-40.2s40.2,18,40.2,40.2
					C347.5,199,329.5,216.9,307.3,216.9z M307.3,139.2c-20.7,0-37.5,16.9-37.5,37.5c0,20.7,16.9,37.5,37.5,37.5
					c20.7,0,37.5-16.9,37.5-37.5C344.8,156.1,328.1,139.2,307.3,139.2z"/>
			</g>
		</g>
		<g>
			<g>
				<polygon class="st2" points="307.4,179.7 283.6,153.9 285.5,152.1 307.5,175.9 318.1,164.5 319.9,166.3 				"/>
			</g>
		</g>
	</g>
	<g>
		<g>
			<path class="st2" d="M462.5,152.7l-7.9-8l2.4-2.4l0,0l15.9,16l-53,53l-16-16l4.7-4.7l-2.4,2.5l13.3,13.3l2.5-2.6l-13.2-13.4
				l2.1-2.1l8,8l2.5-2.5l-8-8l-2.4,2.4l4.4-4.4l8,8l2.6-2.6l-8-8l-0.9,1l3-3l13.3,13.3l2.5-2.5l-13.3-13.4l-0.8,0.8l2.9-2.9l8,8
				l2.5-2.5l-8-8l-0.7,0.7l2.7-2.7l8,8l2.5-2.5l-8-8l17.2-17.2l-1.5,1.5l13.3,13.3l2.5-2.6l-13.2-13.3l3.4-3.4l-1.4,1.4l8,8
				L462.5,152.7z M401.4,192.8l-2.5,2.6l21,21l58.1-58.1L457,137.1L401.4,192.8z"/>
		</g>
		<g>
			<polygon class="st2" points="449.6,176.1 436.3,163 433.7,165.5 447.1,178.8 			"/>
		</g>
		<g>
			<polygon class="st2" points="438.4,160.9 446.3,168.9 448.9,166.4 440.9,158.3 			"/>
		</g>
		<g>
			<polygon class="st2" points="443,156.3 451,164.4 453.4,161.8 445.4,153.8 			"/>
		</g>
	</g>
	<g>
		<g>
			<path class="st2" d="M569.3,218.2l-1.1-2c-0.9-1.6-23.1-40.5-24-42.5c-1.7-3.4-2.6-7.3-2.6-11.3c0-14.9,12.4-27.1,27.7-27.1
				c15.3,0,27.7,12.1,27.7,27.1c0,3.8-0.9,7.8-2.6,11.8l-0.1,0.1L569.3,218.2z M569.4,138c-13.8,0-25.1,11-25.1,24.5
				c0,3.6,0.8,7.1,2.4,10.1c0.6,1.5,14.6,26,22.8,40.3l22.8-39.7c1.5-3.6,2.4-7.3,2.4-10.8C594.5,149,583.2,138,569.4,138z
				 M569.5,180c-9.9,0-17.9-7.9-17.9-17.7c0-9.8,7.9-17.6,17.9-17.6c9.9,0,17.9,7.9,17.9,17.7C587.2,172.4,579.3,180,569.5,180z
				 M569.5,147.4c-8.7,0-15.4,6.6-15.4,14.9c0,8.3,6.9,15,15.4,15s15.2-6.6,15.4-15C584.8,154.2,578,147.4,569.5,147.4z"/>
		</g>
	</g>
	<g>
		<g>
			<g>
				<path class="st2" d="M215.4,216.8h-77.5v-1.3c0-16.2,10.1-30.9,25.2-36.5l1.1-0.4l-0.9-0.6c-3.9-2.8-6.7-6.7-8.3-11
					c-0.8-2.6-1.3-5.1-1.3-7.6c0-2.7,0.6-5.7,1.7-8.7l0.1-0.2c0.2-0.4,0.4-0.6,0.5-0.8c0.2-0.3,0.3-0.5,0.5-0.8l1.3-2.2
					c0.2-0.3,0.4-0.5,0.5-0.8c0.2-0.2,0.3-0.4,0.4-0.5l0.3-0.4c0.4-0.5,0.8-1,1.3-1.5l0.3-0.3l1.2-1.1l1-0.5
					c0.4-0.3,0.8-0.6,1.3-0.9c0.2-0.1,0.5-0.3,0.6-0.5c0.3-0.2,0.5-0.4,0.8-0.5l0.2-0.1l2.2-0.9c1.2-0.5,2.5-0.9,3.7-1.3l0.8-0.3
					h0.2c0.1,0,0.2,0,0.4-0.1c0.3-0.1,0.6-0.1,1-0.1h0.4c0.8-0.2,1.5-0.2,2.3-0.2h2.6l0.8,0.3c0.1,0,0.3,0,0.5,0.1
					c0.5,0.1,0.9,0.1,1.5,0.3l0.6,0.3c0.2,0.1,0.4,0.1,0.5,0.2c0.4,0.1,0.7,0.2,1.2,0.4l0.6,0.2c0.5,0.2,1,0.4,1.4,0.6
					c0.2,0.1,0.3,0.2,0.5,0.3h0.2l0.3,0.1c1.6,0.7,3,1.8,4.4,2.9l0.3,0.3l1.8,1.8c0.3,0.4,0.5,0.5,0.7,0.8c0.3,0.4,0.5,0.6,0.8,1
					c2.7,4.1,4.2,8.7,4.2,13.2c0,7.4-3.5,14.2-9.6,18.6l-0.9,0.6l1.1,0.4c15.3,5.6,25.5,20.2,25.5,36.5L215.4,216.8L215.4,216.8z
					 M140.5,214.3h72.3c-0.5-14.7-9.9-27.8-23.8-32.8l-5.6-2l4.8-3.6c5.4-3.9,8.5-9.9,8.5-16.5c0-4.1-1.3-8.1-3.7-11.8
					c-0.2-0.3-0.5-0.5-0.6-0.8c-0.3-0.3-0.5-0.5-0.7-0.9l-1.7-1.7c-1.1-0.9-2.3-1.8-3.5-2.5h-0.2l-0.3-0.1c-0.4-0.2-0.6-0.3-0.9-0.5
					c-0.4-0.2-0.5-0.3-0.8-0.4l-0.8-0.3c-0.3-0.1-0.5-0.2-0.9-0.3c-0.2-0.1-0.4-0.1-0.6-0.2l-0.2-0.1l-0.7-0.3
					c-0.1-0.1-0.5-0.1-0.7-0.1s-0.5-0.1-0.7-0.1l-0.6-0.2h-2.2c-0.6,0-1.2,0-1.7,0.2l-0.2,0.1h-0.6c-0.1,0-0.4,0-0.5,0.1
					c-0.2,0-0.5,0.1-0.6,0.1l-0.5,0.2c-1.2,0.3-2.3,0.6-3.5,1.2l-2.1,0.8c-0.2,0.1-0.4,0.3-0.5,0.4c-0.3,0.2-0.5,0.4-0.8,0.5
					c-0.4,0.2-0.7,0.5-1,0.7l-0.5,0.3l-0.6,0.4l-1.1,1c-0.5,0.5-0.8,0.8-1,1.2l-0.3,0.4c-0.2,0.3-0.4,0.5-0.5,0.6
					c-0.2,0.2-0.3,0.4-0.4,0.5l-1.3,2.2c-0.1,0.2-0.3,0.5-0.4,0.6c-0.1,0.3-0.3,0.5-0.5,0.9c-1,2.7-1.5,5.4-1.5,7.7
					c0,2.2,0.4,4.4,1.1,6.7c1.4,3.9,3.9,7.3,7.4,9.8l4.8,3.6l-5.6,2C150.4,186.6,141.1,199.6,140.5,214.3z"/>
			</g>
		</g>
	</g>
	<g>
		<g>
			<circle class="st2" cx="57.4" cy="179.4" r="9.3"/>
			<path class="st2" d="M57.4,190.1c-5.8,0-10.6-4.7-10.6-10.6c0-5.8,4.7-10.6,10.6-10.6c5.8,0,10.6,4.7,10.6,10.6
				C67.9,185.3,63.2,190.1,57.4,190.1z M57.4,171.4c-4.5,0-8,3.6-8,8s3.6,8,8,8c4.4,0,8-3.6,8-8S61.8,171.4,57.4,171.4z"/>
		</g>
		<g>
			<path class="st2" d="M78.4,161.4c-6.7,0-12-5.4-12-12s5.4-12,12-12s12,5.4,12,12S85.1,161.4,78.4,161.4z M78.4,140
				c-5.2,0-9.4,4.2-9.4,9.4s4.2,9.4,9.4,9.4s9.4-4.2,9.4-9.4S83.6,140,78.4,140z"/>
		</g>
		<g>
			<path class="st2" d="M84.7,216.1c-7.4,0-13.4-6-13.4-13.4s6-13.4,13.4-13.4c7.4,0,13.4,6,13.4,13.4S92.1,216.1,84.7,216.1z
				 M84.7,192c-5.9,0-10.8,4.8-10.8,10.8s4.8,10.8,10.8,10.8c5.9,0,10.8-4.8,10.8-10.8S90.6,192,84.7,192z"/>
		</g>
		<g>
			<path class="st2" d="M14.6,198.9c-8,0-14.5-6.5-14.5-14.5c0-8,6.5-14.5,14.5-14.5s14.5,6.5,14.5,14.5
				C29.1,192.4,22.6,198.9,14.6,198.9z M14.6,172.5c-6.6,0-11.9,5.4-11.9,11.9c0,6.6,5.4,11.9,11.9,11.9c6.6,0,11.9-5.4,11.9-11.9
				C26.6,177.8,21.2,172.5,14.6,172.5z"/>
		</g>
		<g>
			
				<rect x="27.1" y="179.8" transform="matrix(0.9942 -0.1078 0.1078 0.9942 -19.2767 5.6084)" class="st2" width="30.3" height="2.6"/>
		</g>
		<g>
			
				<rect x="52.1" y="167.8" transform="matrix(0.5896 -0.8077 0.8077 0.5896 -109.8564 121.8954)" class="st2" width="25.9" height="2.6"/>
		</g>
		<g>
			
				<rect x="65.1" y="175.2" transform="matrix(0.6488 -0.761 0.761 0.6488 -119.1094 116.2137)" class="st2" width="2.6" height="23.9"/>
		</g>
	</g>
	<g id="Ebene_14">
		<path d="M751.9,13.5l-7.1-7.1l-28.3,28.3L688.1,6.4l-7.1,7.1l28.3,28.3L681,70.1l7.1,7.1l28.3-28.3l28.3,28.3l7.1-7.1l-28.3-28.3
			L751.9,13.5z"/>
	</g>
	<g id="Ebene_10">
		<path d="M886.3,51.1h-3.2l-1.2-1.1c9.6-11.1,8.3-28-2.8-37.5c-11.1-9.6-28-8.3-37.5,2.8c-9.6,11.1-8.3,28,2.8,37.5
			c9.9,8.6,24.7,8.6,34.7,0l1.1,1.2v3.2l20.4,20.4l6.1-6.1L886.3,51.1z M861.8,51.1c-10.2,0-18.4-8.2-18.4-18.4s8.2-18.4,18.4-18.4
			c10.2,0,18.4,8.2,18.4,18.4S871.9,51.1,861.8,51.1L861.8,51.1z"/>
	</g>
	<g id="Ebene_14_1_">
		<path class="st2" d="M751.9,148.4l-7.1-7.1l-28.3,28.3l-28.3-28.3l-7.1,7.1l28.3,28.3L681,205.1l7.1,7.1l28.3-28.3l28.3,28.3
			l7.1-7.1l-28.3-28.3L751.9,148.4z"/>
	</g>
	<g id="Ebene_10_1_">
		<path class="st2" d="M886.3,186h-3.2l-1.2-1.1c9.6-11.1,8.3-28-2.8-37.5c-11.1-9.6-28-8.3-37.5,2.8c-9.6,11.1-8.3,28,2.8,37.5
			c9.9,8.6,24.7,8.6,34.7,0l1.1,1.2v3.2l20.4,20.4l6.1-6.1L886.3,186z M861.8,186c-10.2,0-18.4-8.2-18.4-18.4s8.2-18.4,18.4-18.4
			c10.2,0,18.4,8.2,18.4,18.4S871.9,186,861.8,186L861.8,186z"/>
	</g>
	<path d="M1425.8,1.6c-22.1,0-40.2,17.9-40.2,40.2c0,22.2,17.9,40.2,40.2,40.2C1448,82,1466,64,1466,41.8
		C1466,19.6,1447.9,1.6,1425.8,1.6z M1418.5,23.6c0-2,0.7-3.9,2.2-5.3c1.4-1.5,3.4-2.3,5.4-2.2c2,0,3.9,0.7,5.4,2.2
		c1.5,1.4,2.4,3.4,2.3,5.4c0,4.2-3.4,7.6-7.6,7.6c-2,0-3.9-0.8-5.4-2.3C1419.2,27.6,1418.5,25.7,1418.5,23.6L1418.5,23.6z
		 M1435.9,67.4h-19.8V64h0.6c0.9-0.5,1.5-1.5,1.7-2.5V43.3c0.1-0.9-0.1-1.8-0.5-2.6c-0.4-0.6-1-1.2-1.6-1.5L1416,39l-0.4-0.1v-3.2
		h17.9V60l0.1,0.7c0.1,0.7,0.3,1.4,0.6,2c0.3,0.5,0.7,0.9,1.2,1.3h0.5L1435.9,67.4L1435.9,67.4z"/>
	<path d="M1263.3,70.3c-2.8,1.5-5.4,2.7-7.9,3.9c-0.7,0.4-1.8,0.5-2.6,0.2c-3-0.9-5.9-2-8.9-2.9c-1.3-0.4-1.8-1.1-1.8-2.5
		c0-18.3,0-36.5,0-54.9c0-1.3,0.5-1.9,1.6-2.4c8.9-3.3,17.9-6.7,26.8-9.9c0.7-0.3,1.7-0.2,2.6,0c2.9,0.9,5.7,1.9,8.6,2.8
		c1.5,0.5,2,1.3,2,2.8c-0.1,11.7,0,23.2,0,34.9c0,0.6,0,1.3,0,2.4c2.7-1.4,5.1-2.6,7.5-3.8c0.3-0.2,0.4-0.9,0.5-1.5
		c0-2.5,0.1-5,0-7.5c0-1.3,0.5-2,1.5-2.6c4.3-2.1,8.5-4.3,12.8-6.3c0.6-0.4,1.6-0.5,2.4-0.2c3.1,0.9,6.2,2.1,9.3,3
		c1.2,0.4,1.5,1.1,1.5,2.2c0,10.1,0,20.1,0,30.3c0,1.3-0.5,1.9-1.5,2.5c-12.1,6.1-24.1,12.3-36.3,18.5c-6.5,3.3-4.1,3.3-11.4,0.7
		c-1.6-0.5-3.2-1.2-4.8-1.7c-1.2-0.4-1.5-1.1-1.5-2.3C1263.4,74.4,1263.3,72.5,1263.3,70.3z M1274.3,11c-1.5,0.1-2.6,0.5-2.5,2.4
		c0,1.7-0.2,3.6-0.3,5.3c-0.1,2.1-0.1,4.3-0.3,6.4c-0.3,3.1-0.9,6.2-1.1,9.3c-0.4,4.9-0.5,9.9-0.8,14.9c-0.1,2.1-0.2,4.1-0.4,6.2
		c0,0.4-0.5,0.7-0.8,1.1c-0.3-0.4-0.6-0.6-0.7-1c-0.2-0.5,0-0.9-0.1-1.5c-0.1-4.6-0.1-9.1-0.5-13.7c-0.5-7.2-1.1-14.4-1.7-21.5
		c-0.1-1.4-0.5-2.7-0.7-4c-0.3,0-0.5,0.1-0.9,0.1c2,16.6,0.9,33.2,0.8,50.1c2.4-1.2,4.3-2.3,6.4-3.2c1.2-0.5,1.6-1.3,1.8-2.4
		c0.2-1.5,0.3-3.1,0.5-4.6c0.3-2.8,0.4-5.6,0.6-8.5c0.4-3.5,1-6.9,1-10.4c0.1-8-0.2-16.1-0.3-24.1
		C1274.4,11.6,1274.3,11.3,1274.3,11z M1290,61.7c8.7-4.4,17-8.5,25.3-12.7c0.4-0.2,0.9-0.6,0.9-0.9c0.1-2.6,0-5.4,0-8.3
		c-8.7,4.4-17.1,8.6-25.5,12.8c-0.4,0.2-0.8,0.8-0.8,1.2C1290,56.2,1290,58.8,1290,61.7z M1276.1,78.7c0.5-0.1,0.6-0.1,0.8-0.2
		c7.1-3.6,14.1-7.2,21.2-10.8c0.4-0.2,0.8-0.5,0.8-0.8c0.1-2.6,0-5,0-7.6c-0.4,0-0.5,0-0.6,0c-7.1,3.6-14.2,7-21.3,10.7
		c-0.5,0.2-0.8,0.9-0.8,1.4C1276.1,73.8,1276.1,76.2,1276.1,78.7z M1255.5,71.2c1.1-0.5,2-0.9,2.8-1.4c0.4-0.3,0.7-0.8,0.7-1.3
		c0.1-1.3,0-2.6,0-3.9c-0.1-6.5-0.5-12.9-0.2-19.3c0.3-6.6,1-13.1,0.2-19.7c-0.4-2.7-1.3-5.5-1.9-8.1c-2,0.1-1.7,1.3-1.7,2.2
		c0,16.6,0,33.1,0,49.7C1255.4,69.9,1255.5,70.4,1255.5,71.2z M1245.3,15.5c0.2,3.5,0.5,6.7,0.5,9.7c0,8.3,0.6,16.5,1.4,24.8
		c0.5,5.9,0.4,11.8,0.5,17.8c0,2.4,0.2,2.6,2.7,2.8c0.1-0.2,0.2-0.4,0.2-0.5c-0.3-8.4-0.4-16.8-0.7-25.1c-0.5-8.8-0.9-17.6,0.1-26.3
		c0.1-1-0.1-1.7-1.2-2C1247.7,16.3,1246.8,15.9,1245.3,15.5z M1260.6,68.3c0.2,0.1,0.4,0.2,0.6,0.3c0.5-0.6,1.4-1.3,1.4-1.9
		c0.3-2.8,0.4-5.7,0.4-8.5c0.1-5.6,0.1-11,0-16.6c-0.1-6.2-0.2-12.5-0.4-18.7c-0.1-2.5-0.5-4.8-0.7-7.5c-0.7,0.3-1.3,0.5-1.7,0.6
		c-0.5,0.2-1.1,0.5-1.7,0.6c2.6,6.3,2.9,12.8,2.6,19.3c-0.1,3.5-0.5,6.8-0.6,10.3c-0.1,6.7,0,13.6,0,20.3
		C1260.5,67.1,1260.6,67.8,1260.6,68.3z M1300.7,66.5c5.3-2.7,10.1-5.2,15-7.7c0.3-0.2,0.6-0.5,0.6-0.8c0.1-2.5,0-4.9,0-7.7
		c-5.2,2.6-10.1,5-14.9,7.5c-0.4,0.2-0.7,0.8-0.7,1.3C1300.7,61.4,1300.7,63.7,1300.7,66.5z M1274,60.2c1-0.5,1.6-0.9,2.3-1.1
		c1-0.4,1.3-1,1.3-2c0.1-8.1,0.3-16.2,0.4-24.3c0.1-6.8,0-13.6,0-20.4c0-0.8,0-1.7,0-2.6c-1.5-0.1-1.8,0.6-1.8,1.7
		c0,3.9,0,7.8,0,11.8c0.1,4.3,0.5,8.7,0.3,12.9C1275.8,44.1,1274.8,51.9,1274,60.2z M1304.2,43.9c4-2,7.7-3.8,11.4-5.7
		c0.4-0.2,0.7-0.7,0.7-1.1c0.1-2.4,0-4.7,0-7.4c-4.1,2-7.8,3.9-11.6,5.9c-0.3,0.2-0.5,0.8-0.5,1.2
		C1304.2,39,1304.2,41.3,1304.2,43.9z M1267.5,66.5c1.5,0.5,2.6,0.7,3.5,1.2c2.8,1.5,5.4,1.2,8.1-0.5c2.5-1.5,5.2-2.6,8.1-4.1
		c-2.6-0.8-4.6-1.6-6.8-2.3c-0.5-0.1-1-0.2-1.4,0C1275.3,62.6,1271.5,64.4,1267.5,66.5z M1281.7,48.8c1.2,0.5,2.2,0.7,3.1,1.2
		c3,1.5,5.7,1.3,8.6-0.5c2.4-1.5,5-2.6,7.8-4c-2.6-0.8-4.7-1.5-6.9-2.3c-0.4-0.1-1-0.1-1.4,0.1C1289.3,45,1285.7,46.8,1281.7,48.8z
		 M1288.7,61.8c0-2.8,0-5.4,0-7.9c0-0.4-0.3-0.9-0.5-1c-2.6-0.9-5.2-1.8-8-2.7c0,2.9,0,5.4,0,7.9c0,0.5,0.5,1,0.8,1.2
		C1283.4,60,1285.8,60.8,1288.7,61.8z M1252.4,71.2c0.1,0,0.2,0,0.4,0c0-0.6,0-1.3,0-1.8c0-15.2,0-30.4,0-45.7c0-1.5,0.1-3.1,0-4.6
		c0-0.5-0.5-1-0.7-1.5c-0.2,0.1-0.4,0.2-0.5,0.2c-0.1,0.3-0.2,0.5-0.2,0.8c-0.1,4.4-0.5,8.7-0.4,13.1c0.2,7.8,0.7,15.6,1,23.3
		c0.2,5.1,0.3,10.3,0.4,15.4C1252.2,70.7,1252.3,71,1252.4,71.2z M1274.4,79c0-2.8,0-5.2,0-7.7c0-0.4-0.5-0.9-0.7-1
		c-2.5-0.9-5-1.7-7.5-2.5c0,2.6,0,5.1,0,7.6c0,0.4,0.5,0.8,0.8,1C1269.4,77.3,1271.6,78,1274.4,79z M1294.3,33c0,2.6,0,5,0,7.4
		c0,0.4,0.4,1,0.6,1.1c2.5,0.9,4.8,1.6,7.6,2.6c0-2.6,0-5,0-7.4c0-0.4-0.4-1-0.7-1.1C1299.4,34.6,1297,33.9,1294.3,33z M1314,27.9
		c-0.6-0.3-0.8-0.3-1-0.4c-3.8-2-7.5-2-11,0.5c-1.5,1.1-3.5,1.8-5.6,2.8c2.2,0.7,4,1.4,5.7,1.9c0.5,0.2,1.1,0.3,1.5,0.1
		C1307.1,31.3,1310.4,29.6,1314,27.9z M1280.8,8.7c-0.4,0-0.7-0.1-1.2-0.1c-1,12.7,0.6,25.3-0.5,38c1.9-0.2,1.7-1.3,1.7-2.2
		c0-11.5,0-23.1,0-34.5C1280.8,9.6,1280.8,9.1,1280.8,8.7z M1268.5,37.2c0.5-7.7,1.2-16.1,1.8-24.9c-1.5,0.5-2.5,0.8-3.4,1.3
		c-0.4,0.2-0.8,0.8-0.8,1.2c0.2,3.3,0.4,6.5,0.7,9.7C1267.4,28.9,1268,33.3,1268.5,37.2z M1252.9,11.2c0,0.2,0,0.4-0.1,0.5
		c1.6,0.3,3.3,0.6,4.9,0.9c2.4,0.4,4.6-0.3,6.7-1.4c2.4-1.2,4.8-2.4,7-3.8c0.5-0.4,0.5-1.7,0.8-2.6c-0.6,0-1.5-0.2-2,0
		c-0.7,0.3-1.3,0.9-1.8,1.5c-1,1-1.7,2.4-2.9,3c-3.1,1.8-6.5,2.4-10,1.9C1254.6,11.1,1253.7,11.2,1252.9,11.2z M1244.8,41.5
		c0,8.6,0,17.1,0,25.7c0,0.6,0.2,1.3,0.3,1.9c0.3,0,0.5-0.1,0.7-0.1C1246.7,59.9,1245.6,50.6,1244.8,41.5z M1256.8,14.1
		c-3,0.4-5.7-2.6-8.8-0.7C1250.9,14,1253.6,16.7,1256.8,14.1z M1266.1,6.9c-0.1-0.2-0.1-0.3-0.2-0.5c-2.7,1-5.6,2.1-8.3,3.1
		C1260.6,9.5,1263.7,9.1,1266.1,6.9z M1278.3,6.4c-1.6-0.5-2.9-0.9-4-1.3c-0.3,1.2-0.5,2.1-0.7,3C1274.9,7.6,1276.4,7.1,1278.3,6.4z
		"/>
	<path d="M1091.8,58.3c4.9-2.7,9.7-5.5,14.6-8.3c-4.9-2.8-9.7-5.6-14.6-8.4c4.9-2.8,9.7-5.5,14.6-8.3c-4.9-2.8-9.7-5.6-14.6-8.3
		c0.5-0.3,0.7-0.5,1-0.6c13.3-7.6,26.5-15,39.8-22.5c0.4-0.2,1.1-0.3,1.4-0.1c13.5,7.7,27,15.3,40.5,23c0.1,0.1,0.3,0.2,0.5,0.4
		c-4.8,2.7-9.6,5.5-14.6,8.3c4.9,2.8,9.7,5.6,14.7,8.3c-4.9,2.8-9.7,5.6-14.6,8.4c4.9,2.8,9.7,5.5,14.6,8.3
		c-1.4,0.8-2.6,1.5-3.7,2.2c-12.4,7-24.7,14.1-37.1,21.1c-0.6,0.4-1,0.4-1.6,0c-13.3-7.6-26.6-15.2-39.8-22.8
		C1092.4,58.8,1092.1,58.6,1091.8,58.3z M1168.9,25c-0.4-0.2-0.5-0.4-0.7-0.5c-11.3-6.4-22.6-12.8-33.9-19.2c-0.7-0.4-1.2-0.4-1.8,0
		c-9.7,5.6-19.6,11.1-29.3,16.7c-1.7,1-3.4,1.9-5.2,2.9c0.3,0.2,0.5,0.4,0.5,0.5c11.4,6.5,22.8,13,34.3,19.5c0.4,0.2,1,0.1,1.4-0.1
		c10.1-5.7,20.1-11.5,30.3-17.2C1165.8,26.8,1167.2,26,1168.9,25z M1097.9,41.6c0.4,0.3,0.6,0.5,0.9,0.6
		c11.3,6.5,22.5,12.8,33.8,19.3c0.4,0.2,1,0.2,1.4,0c11.3-6.4,22.6-12.8,33.8-19.3c0.3-0.2,0.5-0.4,0.9-0.6
		c-0.5-0.3-0.7-0.5-1.1-0.6c-3.2-1.8-6.3-3.6-9.5-5.4c-0.6-0.4-1.2-0.4-1.8,0c-7.4,4.2-14.8,8.4-22.1,12.7c-0.7,0.5-1.2,0.4-1.9,0
		c-7.3-4.2-14.7-8.4-22.1-12.6c-0.4-0.2-1.1-0.5-1.4-0.3C1105.3,37.4,1101.7,39.4,1097.9,41.6z M1097.9,58.3
		c0.5,0.3,0.6,0.5,0.9,0.5c11.3,6.5,22.6,12.8,33.8,19.3c0.6,0.4,1.1,0.3,1.6-0.1c10.7-6.1,21.4-12.2,32.1-18.3
		c0.8-0.5,1.6-0.9,2.6-1.5c-0.4-0.3-0.6-0.5-0.9-0.5c-3.3-1.8-6.5-3.6-9.8-5.6c-0.6-0.4-1.1-0.4-1.7,0c-7.4,4.2-14.8,8.4-22.1,12.7
		c-0.7,0.4-1.2,0.5-1.9,0c-7.3-4.2-14.6-8.3-21.8-12.5c-0.9-0.5-1.5-0.5-2.5,0c-1,0.7-2.2,1.3-3.3,1.8
		C1102.6,55.6,1100.3,56.9,1097.9,58.3z"/>
	<path class="st2" d="M1425.8,136.6c-22.1,0-40.2,18-40.2,40.2c0,22.2,17.9,40.2,40.2,40.2c22.2,0,40.2-17.9,40.2-40.2
		C1466,154.5,1447.9,136.6,1425.8,136.6z M1418.5,158.5c0-2,0.7-3.9,2.2-5.3c1.4-1.5,3.4-2.3,5.4-2.2c2,0,3.9,0.7,5.4,2.2
		c1.5,1.4,2.4,3.4,2.3,5.4c0,4.2-3.4,7.6-7.6,7.6c-2,0-3.9-0.8-5.4-2.3C1419.2,162.5,1418.5,160.6,1418.5,158.5L1418.5,158.5z
		 M1435.9,202.4h-19.8V199h0.6c0.9-0.5,1.5-1.5,1.7-2.5v-18.3c0.1-0.9-0.1-1.8-0.5-2.6c-0.4-0.6-1-1.2-1.6-1.5l-0.5-0.2l-0.4-0.1
		v-3.3h17.9v24.3l0.1,0.7c0.1,0.7,0.3,1.4,0.6,2c0.3,0.5,0.7,0.9,1.2,1.3h0.5L1435.9,202.4L1435.9,202.4z"/>
	<path class="st2" d="M1263.3,205.3c-2.8,1.5-5.4,2.7-7.9,3.9c-0.7,0.4-1.8,0.5-2.6,0.2c-3-0.9-5.9-2-8.9-2.9
		c-1.3-0.4-1.8-1.1-1.8-2.5c0-18.3,0-36.5,0-54.9c0-1.3,0.5-1.9,1.6-2.4c8.9-3.3,17.9-6.7,26.8-9.9c0.7-0.3,1.7-0.2,2.6,0
		c2.9,0.9,5.7,1.9,8.6,2.8c1.5,0.5,2,1.3,2,2.8c-0.1,11.7,0,23.2,0,34.9c0,0.6,0,1.3,0,2.4c2.7-1.4,5.1-2.6,7.5-3.8
		c0.3-0.2,0.4-0.9,0.5-1.5c0-2.5,0.1-5,0-7.5c0-1.3,0.5-2,1.5-2.6c4.3-2.1,8.5-4.3,12.8-6.3c0.6-0.4,1.6-0.5,2.4-0.2
		c3.1,0.9,6.2,2.1,9.3,3c1.2,0.4,1.5,1.1,1.5,2.2c0,10.1,0,20.1,0,30.3c0,1.3-0.5,1.9-1.5,2.5c-12.1,6.1-24.1,12.3-36.3,18.5
		c-6.5,3.3-4.1,3.3-11.4,0.7c-1.6-0.5-3.2-1.2-4.8-1.7c-1.2-0.4-1.5-1.1-1.5-2.3C1263.4,209.3,1263.3,207.5,1263.3,205.3z
		 M1274.3,146c-1.5,0.1-2.6,0.5-2.5,2.4c0,1.7-0.2,3.6-0.3,5.3c-0.1,2.1-0.1,4.3-0.3,6.4c-0.3,3.1-0.9,6.2-1.1,9.3
		c-0.4,4.9-0.5,9.9-0.8,14.9c-0.1,2.1-0.2,4.1-0.4,6.2c0,0.4-0.5,0.7-0.8,1.1c-0.3-0.4-0.6-0.6-0.7-1c-0.2-0.5,0-0.9-0.1-1.5
		c-0.1-4.6-0.1-9.1-0.5-13.7c-0.5-7.2-1.1-14.4-1.7-21.5c-0.1-1.4-0.5-2.7-0.7-4c-0.3,0-0.5,0.1-0.9,0.1c2,16.6,0.9,33.2,0.8,50.1
		c2.4-1.2,4.3-2.3,6.4-3.2c1.2-0.5,1.6-1.3,1.8-2.4c0.2-1.5,0.3-3.1,0.5-4.6c0.3-2.8,0.4-5.6,0.6-8.5c0.4-3.5,1-6.9,1-10.4
		c0.1-8-0.2-16.1-0.3-24.1C1274.4,146.5,1274.3,146.2,1274.3,146z M1290,196.6c8.7-4.4,17-8.5,25.3-12.7c0.4-0.2,0.9-0.6,0.9-0.9
		c0.1-2.6,0-5.4,0-8.3c-8.7,4.4-17.1,8.6-25.5,12.8c-0.4,0.2-0.8,0.8-0.8,1.2C1290,191.1,1290,193.7,1290,196.6z M1276.1,213.7
		c0.5-0.1,0.6-0.1,0.8-0.2c7.1-3.6,14.1-7.2,21.2-10.8c0.4-0.2,0.8-0.5,0.8-0.8c0.1-2.6,0-5,0-7.6c-0.4,0-0.5,0-0.6,0
		c-7.1,3.6-14.2,7-21.3,10.7c-0.5,0.2-0.8,0.9-0.8,1.4C1276.1,208.7,1276.1,211.1,1276.1,213.7z M1255.5,206.2
		c1.1-0.5,2-0.9,2.8-1.4c0.4-0.3,0.7-0.8,0.7-1.3c0.1-1.3,0-2.6,0-3.9c-0.1-6.5-0.5-12.9-0.2-19.3c0.3-6.6,1-13.1,0.2-19.7
		c-0.4-2.7-1.3-5.5-1.9-8.1c-2,0.1-1.7,1.3-1.7,2.2c0,16.6,0,33.1,0,49.7C1255.4,204.8,1255.5,205.4,1255.5,206.2z M1245.3,150.4
		c0.2,3.5,0.5,6.7,0.5,9.8c0,8.3,0.6,16.5,1.4,24.8c0.5,5.9,0.4,11.8,0.5,17.8c0,2.4,0.2,2.6,2.7,2.8c0.1-0.2,0.2-0.4,0.2-0.5
		c-0.3-8.4-0.4-16.8-0.7-25.1c-0.5-8.8-0.9-17.6,0.1-26.3c0.1-1-0.1-1.7-1.2-2C1247.7,151.1,1246.8,150.9,1245.3,150.4z
		 M1260.6,203.3c0.2,0.1,0.4,0.2,0.6,0.3c0.5-0.6,1.4-1.3,1.4-1.9c0.3-2.8,0.4-5.7,0.4-8.5c0.1-5.6,0.1-11,0-16.6
		c-0.1-6.2-0.2-12.5-0.4-18.7c-0.1-2.5-0.5-4.8-0.7-7.5c-0.7,0.3-1.3,0.5-1.7,0.6c-0.5,0.2-1.1,0.5-1.7,0.6
		c2.6,6.3,2.9,12.8,2.6,19.3c-0.1,3.5-0.5,6.8-0.6,10.3c-0.1,6.7,0,13.6,0,20.3C1260.5,202.1,1260.6,202.7,1260.6,203.3z
		 M1300.7,201.4c5.3-2.7,10.1-5.2,15-7.7c0.3-0.2,0.6-0.5,0.6-0.8c0.1-2.5,0-4.9,0-7.7c-5.2,2.6-10.1,5-14.9,7.5
		c-0.4,0.2-0.7,0.8-0.7,1.3C1300.7,196.3,1300.7,198.6,1300.7,201.4z M1274,195.2c1-0.5,1.6-0.9,2.3-1.1c1-0.4,1.3-1,1.3-2
		c0.1-8.1,0.3-16.2,0.4-24.3c0.1-6.8,0-13.6,0-20.4c0-0.8,0-1.7,0-2.6c-1.5-0.1-1.8,0.6-1.8,1.7c0,3.9,0,7.8,0,11.8
		c0.1,4.3,0.5,8.7,0.3,12.9C1275.8,179,1274.8,186.9,1274,195.2z M1304.2,178.8c4-2,7.7-3.8,11.4-5.7c0.4-0.2,0.7-0.7,0.7-1.1
		c0.1-2.4,0-4.7,0-7.4c-4.1,2-7.8,3.9-11.6,5.9c-0.3,0.2-0.5,0.8-0.5,1.2C1304.2,173.9,1304.2,176.2,1304.2,178.8z M1267.5,201.4
		c1.5,0.5,2.6,0.7,3.5,1.2c2.8,1.5,5.4,1.2,8.1-0.5c2.5-1.5,5.2-2.6,8.1-4.1c-2.6-0.8-4.6-1.6-6.8-2.3c-0.5-0.1-1-0.2-1.4,0
		C1275.3,197.5,1271.5,199.3,1267.5,201.4z M1281.7,183.8c1.2,0.5,2.2,0.7,3.1,1.2c3,1.5,5.7,1.3,8.6-0.5c2.4-1.5,5-2.6,7.8-4
		c-2.6-0.8-4.7-1.5-6.9-2.3c-0.4-0.1-1-0.1-1.4,0.1C1289.3,179.9,1285.7,181.8,1281.7,183.8z M1288.7,196.7c0-2.8,0-5.4,0-7.9
		c0-0.4-0.3-0.9-0.5-1c-2.6-0.9-5.2-1.8-8-2.7c0,2.9,0,5.4,0,7.9c0,0.5,0.5,1,0.8,1.2C1283.4,195,1285.8,195.7,1288.7,196.7z
		 M1252.4,206.2c0.1,0,0.2,0,0.4,0c0-0.6,0-1.3,0-1.8c0-15.2,0-30.4,0-45.7c0-1.5,0.1-3.1,0-4.6c0-0.5-0.5-1-0.7-1.5
		c-0.2,0.1-0.4,0.2-0.5,0.2c-0.1,0.3-0.2,0.5-0.2,0.8c-0.1,4.4-0.5,8.7-0.4,13.1c0.2,7.8,0.7,15.6,1,23.3c0.2,5.1,0.3,10.3,0.4,15.4
		C1252.2,205.6,1252.3,205.9,1252.4,206.2z M1274.4,213.9c0-2.8,0-5.2,0-7.7c0-0.4-0.5-0.9-0.7-1c-2.5-0.9-5-1.7-7.5-2.5
		c0,2.6,0,5.1,0,7.6c0,0.4,0.5,0.8,0.8,1C1269.4,212.2,1271.6,212.9,1274.4,213.9z M1294.3,167.9c0,2.6,0,5,0,7.4
		c0,0.4,0.4,1,0.6,1.1c2.5,0.9,4.8,1.6,7.6,2.6c0-2.6,0-5,0-7.4c0-0.4-0.4-1-0.7-1.1C1299.4,169.6,1297,168.8,1294.3,167.9z
		 M1314,162.8c-0.6-0.3-0.8-0.3-1-0.4c-3.8-2-7.5-2-11,0.5c-1.5,1.1-3.5,1.8-5.6,2.8c2.2,0.7,4,1.4,5.7,1.9c0.5,0.2,1.1,0.3,1.5,0.1
		C1307.1,166.3,1310.4,164.5,1314,162.8z M1280.8,143.7c-0.4,0-0.7-0.1-1.2-0.1c-1,12.7,0.6,25.3-0.5,38c1.9-0.2,1.7-1.3,1.7-2.2
		c0-11.5,0-23.1,0-34.5C1280.8,144.5,1280.8,144,1280.8,143.7z M1268.5,172.1c0.5-7.7,1.2-16.1,1.8-24.9c-1.5,0.5-2.5,0.8-3.4,1.3
		c-0.4,0.2-0.8,0.8-0.8,1.2c0.2,3.3,0.4,6.5,0.7,9.7C1267.4,163.8,1268,168.3,1268.5,172.1z M1252.9,146.1c0,0.2,0,0.4-0.1,0.5
		c1.6,0.3,3.3,0.6,4.9,0.9c2.4,0.4,4.6-0.3,6.7-1.4c2.4-1.2,4.8-2.4,7-3.8c0.5-0.4,0.5-1.7,0.8-2.6c-0.6,0-1.5-0.2-2,0
		c-0.7,0.3-1.3,0.9-1.8,1.5c-1,1-1.7,2.4-2.9,3c-3.1,1.8-6.5,2.4-10,1.9C1254.6,146,1253.7,146.1,1252.9,146.1z M1244.8,176.5
		c0,8.6,0,17.1,0,25.7c0,0.6,0.2,1.3,0.3,1.9c0.3,0,0.5-0.1,0.7-0.1C1246.7,194.8,1245.6,185.6,1244.8,176.5z M1256.8,149.1
		c-3,0.4-5.7-2.6-8.8-0.7C1250.9,149,1253.6,151.6,1256.8,149.1z M1266.1,141.9c-0.1-0.2-0.1-0.3-0.2-0.5c-2.7,1-5.6,2.1-8.3,3.1
		C1260.6,144.4,1263.7,144,1266.1,141.9z M1278.3,141.3c-1.6-0.5-2.9-0.9-4-1.3c-0.3,1.2-0.5,2.1-0.7,3
		C1274.9,142.6,1276.4,142,1278.3,141.3z"/>
	<path class="st2" d="M1091.8,193.2c4.9-2.7,9.7-5.5,14.6-8.3c-4.9-2.8-9.7-5.6-14.6-8.4c4.9-2.8,9.7-5.5,14.6-8.3
		c-4.9-2.8-9.7-5.6-14.6-8.3c0.5-0.3,0.7-0.5,1-0.6c13.3-7.6,26.5-15,39.8-22.5c0.4-0.2,1.1-0.3,1.4-0.1c13.5,7.7,27,15.3,40.5,23
		c0.1,0.1,0.3,0.2,0.5,0.4c-4.8,2.7-9.6,5.5-14.6,8.3c4.9,2.8,9.7,5.6,14.7,8.3c-4.9,2.8-9.7,5.6-14.6,8.4c4.9,2.8,9.7,5.5,14.6,8.3
		c-1.4,0.8-2.6,1.5-3.7,2.2c-12.4,7-24.7,14.1-37.1,21.1c-0.6,0.4-1,0.4-1.6,0c-13.3-7.6-26.6-15.2-39.8-22.8
		C1092.4,193.7,1092.1,193.5,1091.8,193.2z M1168.9,160c-0.4-0.2-0.5-0.4-0.7-0.5c-11.3-6.4-22.6-12.8-33.9-19.2
		c-0.7-0.4-1.2-0.4-1.8,0c-9.7,5.6-19.6,11.1-29.3,16.7c-1.7,1-3.4,1.9-5.2,2.9c0.3,0.2,0.5,0.4,0.5,0.5c11.4,6.5,22.8,13,34.3,19.5
		c0.4,0.2,1,0.1,1.4-0.1c10.1-5.7,20.1-11.5,30.3-17.2C1165.8,161.7,1167.2,160.9,1168.9,160z M1097.9,176.6
		c0.4,0.3,0.6,0.5,0.9,0.6c11.3,6.5,22.5,12.8,33.8,19.3c0.4,0.2,1,0.2,1.4,0c11.3-6.4,22.6-12.8,33.8-19.3c0.3-0.2,0.5-0.4,0.9-0.6
		c-0.5-0.3-0.7-0.5-1.1-0.6c-3.2-1.8-6.3-3.6-9.5-5.4c-0.6-0.4-1.2-0.4-1.8,0c-7.4,4.2-14.8,8.4-22.1,12.7c-0.7,0.5-1.2,0.4-1.9,0
		c-7.3-4.2-14.7-8.4-22.1-12.6c-0.4-0.2-1.1-0.5-1.4-0.3C1105.3,172.4,1101.7,174.4,1097.9,176.6z M1097.9,193.2
		c0.5,0.3,0.6,0.5,0.9,0.5c11.3,6.5,22.6,12.8,33.8,19.3c0.6,0.4,1.1,0.3,1.6-0.1c10.7-6.1,21.4-12.2,32.1-18.3
		c0.8-0.5,1.6-0.9,2.6-1.5c-0.4-0.3-0.6-0.5-0.9-0.5c-3.3-1.8-6.5-3.6-9.8-5.6c-0.6-0.4-1.1-0.4-1.7,0c-7.4,4.2-14.8,8.4-22.1,12.7
		c-0.7,0.4-1.2,0.5-1.9,0c-7.3-4.2-14.6-8.3-21.8-12.5c-0.9-0.5-1.5-0.5-2.5,0c-1,0.7-2.2,1.3-3.3,1.8
		C1102.6,190.5,1100.3,191.9,1097.9,193.2z"/>
	<path class="st2" d="M1033.8,136.7H960c-5.6,0-10.1,4.6-10.1,10.1v58.7c0,6.3,5.2,11.5,11.5,11.5h71.2c6.3,0,11.5-5.2,11.5-11.5
		v-58.7C1044,141.2,1039.5,136.7,1033.8,136.7z M1039.4,212.4h-84v-71.1h84V212.4z M963.3,180.8l9.3-5.6l9.3,5.6v-29.7h-18.5
		L963.3,180.8L963.3,180.8z"/>
	<path d="M1036.1,1.7h-73.8c-5.6,0-10.1,4.6-10.1,10.1v58.7c0,6.3,5.2,11.5,11.5,11.5h71.2c6.3,0,11.5-5.2,11.5-11.5V11.8
		C1046.3,6.3,1041.8,1.7,1036.1,1.7z M1041.7,77.4h-84.9V6.4h84.9V77.4z M965.6,45.9l9.3-5.6l9.3,5.6V16.2h-18.5L965.6,45.9
		L965.6,45.9z"/>
	<path d="M343.7,288.8c-26.8,0-49.7,16.7-59,40.2c9.3,23.5,32.2,40.2,59,40.2c26.8,0,49.7-16.7,59-40.2
		C393.4,305.5,370.5,288.8,343.7,288.8z M343.7,363.1c-24.7,0-45.7-14.1-54.4-34.1c8.6-20,29.6-34.1,54.4-34.1
		c24.7,0,45.7,14.1,54.3,34.1C389.5,349,368.4,363.1,343.7,363.1z M343.7,302c-14.8,0-26.8,12-26.8,26.8c0,14.8,12,26.8,26.8,26.8
		c14.8,0,26.8-11.9,26.8-26.8C370.5,314.1,358.5,302,343.7,302z M343.7,350.7c-12,0-21.9-9.8-21.9-21.9c0-12,9.8-21.9,21.9-21.9
		c12.2,0,22,9.8,21.9,21.9C365.6,340.8,355.8,350.7,343.7,350.7z"/>
	<path class="st2" d="M59.1,288.8c-26.8,0-49.7,16.7-59,40.2c9.3,23.5,32.2,40.2,59,40.2s49.7-16.7,59-40.2
		C108.7,305.5,85.9,288.8,59.1,288.8z M59.1,363.1c-24.7,0-45.7-14.1-54.4-34.1c8.6-20,29.6-34.1,54.4-34.1
		c24.7,0,45.7,14.1,54.3,34.1C104.8,349,83.8,363.1,59.1,363.1z M59.1,302c-14.8,0-26.8,12-26.8,26.8c0,14.8,12,26.8,26.8,26.8
		s26.8-11.9,26.8-26.8C85.9,314.1,73.9,302,59.1,302z M59.1,350.7c-12,0-21.9-9.8-21.9-21.9c0-12,9.8-21.9,21.9-21.9
		c12.2,0,22,9.8,21.9,21.9C81,340.8,71.1,350.7,59.1,350.7z"/>
	<polygon class="st2" points="615,288.6 594.7,323.8 635.3,323.8 	"/>
	<polygon class="st3" points="615,368.8 635.3,333.6 594.7,333.6 	"/>
	<polygon points="826.4,288.9 806.1,324.1 846.7,324.1 	"/>
	<polygon class="st4" points="826.4,369.1 846.7,333.9 806.1,333.9 	"/>
	<polygon class="st4" points="928.9,288.9 908.6,324.1 949.2,324.1 	"/>
	<polygon points="928.9,369.1 949.2,333.9 908.6,333.9 	"/>
	<polygon class="st3" points="724.9,288.6 704.5,323.8 745.1,323.8 	"/>
	<polygon class="st2" points="724.9,368.8 745.1,333.6 704.5,333.6 	"/>
	<polygon points="1201.1,329.4 1138.4,293.1 1138.4,365.4 	"/>
	<polygon class="st2" points="1462.6,329.3 1399.9,293.2 1399.9,365.5 	"/>
	<g>
		<path d="M193.5,516.7c-21.9,0-43.7,0-65.6,0c0-0.2,0-0.4,0-0.5c0-19,0-38.2,0-57.2c0-0.4,0.1-0.6,0.4-0.9
			c6.6-6.6,13.1-13.1,19.8-19.7c0.5-0.5,1.1-1,1.5-1.5c0.3-0.3,0.5-0.4,0.9-0.4c12,0,24,0,36,0c2.2,0,4.4,0,6.5,0c0.2,0,0.4,0,0.5,0
			C193.5,463.2,193.5,489.9,193.5,516.7z M190.9,514.1c0-25.1,0-50.2,0-75.3c-0.2,0-0.3,0-0.4,0c-13,0-26.1,0-39.2,0
			c-0.3,0-0.5,0.2-0.7,0.4c-6.6,6.6-13.2,13.2-19.8,19.8c-0.3,0.3-0.4,0.5-0.4,0.9c0,17.9,0,35.8,0,53.7c0,0.2,0,0.4,0,0.5
			C150.7,514.1,170.8,514.1,190.9,514.1z"/>
		<path d="M137.2,477.1c0-1.7,0-3.4,0-5c15.8,0,31.4,0,47.2,0c0,1.6,0,3.4,0,5C168.6,477.1,152.9,477.1,137.2,477.1z"/>
		<path d="M184.4,486.6c0,1.7,0,3.4,0,5c-15.7,0-31.4,0-47.1,0c0-1.6,0-3.3,0-5C152.9,486.6,168.6,486.6,184.4,486.6z"/>
		<path d="M137.2,506.3c0-1.7,0-3.4,0-5c15.7,0,31.4,0,47.1,0c0,1.6,0,3.3,0,5C168.6,506.3,152.9,506.3,137.2,506.3z"/>
	</g>
	<g>
		<path d="M460.3,369.2c0-26.8,0-53.6,0-80.4c0.2,0,0.4,0,0.5,0c14.1,0,28.3,0,42.5,0c0.4,0,0.6,0.1,0.9,0.4
			c7.1,7.1,14.1,14.2,21.2,21.3c0.3,0.3,0.4,0.5,0.4,0.9c0,19,0,38.1,0,57.2c0,0.2,0,0.4,0,0.5C504,369.2,482.2,369.2,460.3,369.2z
			 M523.4,366.6c0-0.2,0-0.3,0-0.4c0-17.9,0-36,0-53.9c0-0.3-0.2-0.5-0.4-0.7c-6.6-6.7-13.2-13.2-19.8-19.8
			c-0.3-0.3-0.5-0.4-0.9-0.4c-13,0-26,0-39,0c-0.2,0-0.4,0-0.5,0c0,25.1,0,50.2,0,75.3C483,366.6,503.2,366.6,523.4,366.6z"/>
		<path d="M477,334.3c10.8,0,21.4,0,32.2,0c0,3,0,6,0,9.1c-10.8,0-21.4,0-32.2,0C477,340.4,477,337.4,477,334.3z"/>
		<path d="M477,358.1c0-3,0-6,0-9.1c10.8,0,21.5,0,32.2,0c0,3,0,6,0,9.1C498.4,358.1,487.8,358.1,477,358.1z"/>
		<path d="M501.1,294.7c6.4,6.4,12.8,12.8,19.1,19.1c-6.4,0-12.8,0-19.1,0C501.1,307.5,501.1,301.1,501.1,294.7z"/>
	</g>
	<polygon points="1006,329.2 1068.8,365.4 1068.8,293.1 	"/>
	<polygon class="st2" points="1268,329.5 1330.7,365.5 1330.7,293.2 	"/>
	<g>
		<path class="st2" d="M162.1,369.2c0-26.8,0-53.6,0-80.4c0.2,0,0.4,0,0.5,0c14.1,0,28.3,0,42.5,0c0.4,0,0.6,0.1,0.9,0.4
			c7.1,7.1,14.1,14.2,21.2,21.3c0.3,0.3,0.4,0.5,0.4,0.9c0,19,0,38.1,0,57.2c0,0.2,0,0.4,0,0.5C205.9,369.2,184.1,369.2,162.1,369.2
			z M225.3,366.6c0-0.2,0-0.3,0-0.4c0-17.9,0-36,0-53.9c0-0.3-0.2-0.5-0.4-0.7c-6.6-6.7-13.2-13.2-19.8-19.8
			c-0.3-0.3-0.5-0.4-0.9-0.4c-13,0-26,0-39,0c-0.2,0-0.4,0-0.5,0c0,25.1,0,50.2,0,75.3C184.9,366.6,205.1,366.6,225.3,366.6z"/>
		<path class="st2" d="M178.9,334.3c10.8,0,21.4,0,32.2,0c0,3,0,6,0,9.1c-10.8,0-21.4,0-32.2,0C178.9,340.4,178.9,337.4,178.9,334.3
			z"/>
		<path class="st2" d="M178.9,358.1c0-3,0-6,0-9.1c10.8,0,21.5,0,32.2,0c0,3,0,6,0,9.1C200.3,358.1,189.7,358.1,178.9,358.1z"/>
		<path class="st2" d="M203,294.7c6.4,6.4,12.8,12.8,19.1,19.1c-6.4,0-12.8,0-19.1,0C203,307.5,203,301.1,203,294.7z"/>
	</g>
	<g>
		<path class="st2" d="M69.9,516.7c-21.9,0-43.7,0-65.6,0c0-0.2,0-0.4,0-0.5c0-19,0-38.2,0-57.2c0-0.4,0.1-0.6,0.4-0.9
			c6.6-6.6,13.1-13.1,19.8-19.7c0.5-0.5,1.1-1,1.5-1.5c0.3-0.3,0.5-0.4,0.9-0.4c12,0,24,0,36,0c2.2,0,4.4,0,6.5,0c0.2,0,0.4,0,0.5,0
			C69.9,463.2,69.9,489.9,69.9,516.7z M67.4,514.1c0-25.1,0-50.2,0-75.3c-0.2,0-0.3,0-0.4,0c-13,0-26.1,0-39.2,0
			c-0.3,0-0.5,0.2-0.7,0.4c-6.6,6.6-13.2,13.2-19.8,19.8c-0.3,0.3-0.4,0.5-0.4,0.9c0,17.9,0,35.8,0,53.7c0,0.2,0,0.4,0,0.5
			C27.1,514.1,47.2,514.1,67.4,514.1z"/>
		<path class="st2" d="M13.6,477.1c0-1.7,0-3.4,0-5c15.8,0,31.4,0,47.2,0c0,1.6,0,3.4,0,5C45.1,477.1,29.4,477.1,13.6,477.1z"/>
		<path class="st2" d="M60.7,486.6c0,1.7,0,3.4,0,5c-15.7,0-31.4,0-47.1,0c0-1.6,0-3.3,0-5C29.3,486.6,45.1,486.6,60.7,486.6z"/>
		<path class="st2" d="M13.6,506.3c0-1.7,0-3.4,0-5c15.7,0,31.4,0,47.1,0c0,1.6,0,3.3,0,5C45.1,506.3,29.4,506.3,13.6,506.3z"/>
	</g>
	<path class="st2" d="M322.6,486.8H319l-1.3-1.2c10.6-12.3,9.2-31-3.1-41.5c-12.3-10.6-31-9.2-41.5,3.1c-2.6,3-4.5,6.4-5.6,9.8
		c-1.5-0.9-2.9-1.8-4.5-2.7c-0.3-0.2-0.5-0.2-0.7,0.1c-3.2,3.2-6.3,6.4-9.5,9.5c-0.1,0.1-0.1,0.2-0.2,0.3c0.8,1.2,1.7,2.5,2.6,3.6
		c0.5,0.8,1.1,1.6,1.6,2.5c0.1,0.2,0.1,0.4,0.1,0.5c-0.3,0.6-0.5,1.3-0.9,1.8c-0.1,0.2-0.3,0.4-0.5,0.5c-2.4,0.5-4.7,1-7.1,1.5
		c-0.1,0-0.2,0-0.3,0c0,4.9,0,9.8,0,14.7c0.5,0.1,1.2,0.3,1.7,0.4c1.8,0.4,3.7,0.7,5.6,1.1c0.3,0.1,0.5,0.3,0.5,0.5
		c0.3,0.5,0.5,1.2,0.5,1.8c0,0.2-0.1,0.5-0.2,0.6c-1.4,2-2.6,4-4,5.9c3.5,3.5,6.9,6.9,10.5,10.5c0.6-0.5,1.5-1,2.2-1.5
		c1.3-0.8,2.5-1.7,3.7-2.6c0.2-0.1,0.5-0.2,0.7-0.1c0.5,0.1,1.2,0.3,1.6,0.5c0.2,0.1,0.4,0.4,0.5,0.5c0.5,2.3,1,4.6,1.5,6.9
		c0,0.1,0,0.2,0,0.3c4.9,0,9.7,0,14.7,0c0.1-0.5,0.3-1.2,0.4-1.7c0.4-1.8,0.7-3.7,1.1-5.6c0.1-0.3,0.3-0.5,0.5-0.5
		c0.5-0.3,1.2-0.5,1.8-0.5c0.2,0,0.5,0.1,0.6,0.2c2,1.4,4,2.6,5.8,4c3.5-3.5,6.9-6.9,10.5-10.5c-0.3-0.5-0.7-1-1.1-1.5
		c-0.8-1.2-1.6-2.4-2.5-3.6c3.5-1.2,6.7-3,9.7-5.6l1.2,1.3v3.6l22.6,22.6l6.7-6.7L322.6,486.8z M299.5,470.9
		c0.9,1.6,1.6,3.4,2.1,5.3c0.1,0.2,0.4,0.5,0.5,0.5c1.9,0.4,3.9,0.7,5.8,1c0.2,0,0.3,0.1,0.5,0.2c0,1.4,0,2.8,0,4.2
		c-3.6,3-8.1,4.8-13.1,4.8c-0.6,0-1.3,0-1.9-0.1c0.6-1.6,0.9-3.2,0.9-4.9c0-7.7-6.5-14-14.1-14.1c-1.8,0-3.6,0.4-5.2,1
		c-0.1-0.7-0.2-1.5-0.2-2.3c0-4.9,1.7-9.4,4.6-12.9c1.4,0,2.8,0,4.2,0c0.5,0,0.6,0.1,0.7,0.5c0.4,1.9,0.6,3.9,1,5.8
		c0,0.2,0.3,0.5,0.5,0.5c1.8,0.5,3.6,1.1,5.1,2.1c0.4,0.2,0.5,0.2,0.9,0c1.5-1,3.1-2,4.6-3c0.2-0.1,0.4-0.3,0.5-0.4
		c1.9,1.9,3.7,3.7,5.7,5.7c-0.5,0.7-1,1.6-1.5,2.5c-0.5,0.9-1.2,1.8-1.7,2.7C299.4,470.3,299.4,470.7,299.5,470.9z M270.2,481.7
		c1.5,2.6,3.6,4.9,5.9,7c1.5,1.2,2.9,2.3,4.5,3.2c-0.1,0-0.3,0-0.4,0C274.6,491.9,270.2,487.4,270.2,481.7
		C270.2,481.8,270.2,481.7,270.2,481.7z M289.5,486c-6.5-1.9-11.6-6.9-13.6-13.3c1.3-0.6,2.7-0.9,4.4-0.9c5.6,0,10.1,4.5,10.1,10.1
		C290.4,483.3,290.1,484.7,289.5,486z M302.8,498.7c-1.9,1.9-3.8,3.8-5.7,5.7c-1.3-0.8-2.6-1.6-3.9-2.6c-1.1-0.8-1.9-0.9-3.1-0.2
		s-2.6,1.1-4,1.5c-0.4,0.1-0.5,0.3-0.6,0.6c-0.3,1.9-0.6,3.9-1,5.8c0,0.2-0.1,0.3-0.1,0.5c-2.6,0-5.4,0-8.1,0
		c-0.3-1.4-0.5-2.7-0.7-4.1c-0.1-0.7-0.3-1.5-0.5-2.3c-0.1-0.2-0.3-0.5-0.5-0.5c-1.8-0.5-3.5-1.1-5-2.1c-0.4-0.3-0.6-0.2-1,0.1
		c-1.7,1.1-3.4,2.2-5,3.3c-1.9-1.9-3.8-3.8-5.7-5.7c1-1.5,2.1-3.3,3.2-4.9c0.3-0.5,0.3-0.8,0-1.3c-0.9-1.5-1.5-3.1-1.9-4.8
		c-0.1-0.5-0.3-0.6-0.7-0.6c-1.9-0.3-3.8-0.6-5.7-1c-0.3-0.1-0.5-0.1-0.5-0.5c0-2.6,0-5.1,0-7.7c1.6-0.3,3.3-0.6,4.9-0.8
		c1.3-0.2,2.1-0.5,2.4-2c0.3-1.4,1-2.6,1.6-3.8c0.2-0.5,0.2-0.7-0.1-1.1c-1.2-1.6-2.5-3.4-3.6-5c1.9-1.9,3.8-3.8,5.7-5.7
		c1,0.6,2.2,1.4,3.3,2.1c-0.8,4.9-0.5,9.9,1.2,14.7c-0.8,1.8-1.4,3.7-1.3,5.8c0,7.7,6.5,14,14.1,14.1c2.2,0,4.3-0.5,6.1-1.5
		c4.6,1.5,9.6,1.7,14.3,0.9C301.5,496.5,302.2,497.6,302.8,498.7z M312.6,477.3c0-0.9,0-1.9,0-2.8c-0.5-0.1-1.2-0.3-1.7-0.4
		c-1.8-0.4-3.7-0.7-5.6-1.1c-0.3-0.1-0.5-0.3-0.5-0.5c-0.3-0.5-0.5-1.2-0.5-1.8c0-0.2,0.1-0.5,0.2-0.6c1.4-2,2.6-4,4-5.9
		c-3.5-3.5-6.9-6.9-10.5-10.5c-0.6,0.5-1.5,1-2.2,1.5c-1.3,0.8-2.5,1.7-3.7,2.6c-0.2,0.1-0.5,0.2-0.7,0.1c-0.5-0.1-1.2-0.3-1.6-0.5
		c-0.2-0.1-0.4-0.4-0.5-0.5c-0.5-2.3-1-4.6-1.5-6.9c0-0.1,0-0.2,0-0.3c-1.2,0-2.5,0-3.6,0c3.3-2.2,7.2-3.5,11.4-3.5
		c11.3,0,20.4,9.1,20.4,20.4C315.8,470.5,314.6,474.2,312.6,477.3z"/>
	<path d="M461.8,486.8h-3.6l-1.3-1.2c10.6-12.3,9.2-31-3.1-41.5c-12.3-10.6-31-9.2-41.5,3.1c-2.6,3-4.5,6.4-5.6,9.8
		c-1.5-0.9-2.9-1.8-4.5-2.7c-0.3-0.2-0.5-0.2-0.7,0.1c-3.2,3.2-6.3,6.4-9.5,9.5c-0.1,0.1-0.1,0.2-0.2,0.3c0.8,1.2,1.7,2.5,2.6,3.6
		c0.5,0.8,1.1,1.6,1.6,2.5c0.1,0.2,0.1,0.4,0.1,0.5c-0.3,0.6-0.5,1.3-0.9,1.8c-0.1,0.2-0.3,0.4-0.5,0.5c-2.4,0.5-4.7,1-7.1,1.5
		c-0.1,0-0.2,0-0.3,0c0,4.9,0,9.8,0,14.7c0.5,0.1,1.2,0.3,1.7,0.4c1.8,0.4,3.7,0.7,5.6,1.1c0.3,0.1,0.5,0.3,0.5,0.5
		c0.3,0.5,0.5,1.2,0.5,1.8c0,0.2-0.1,0.5-0.2,0.6c-1.4,2-2.6,4-4,5.9c3.5,3.5,6.9,6.9,10.5,10.5c0.6-0.5,1.5-1,2.2-1.5
		c1.3-0.8,2.5-1.7,3.7-2.6c0.2-0.1,0.5-0.2,0.7-0.1c0.5,0.1,1.2,0.3,1.6,0.5c0.2,0.1,0.4,0.4,0.5,0.5c0.5,2.3,1,4.6,1.5,6.9
		c0,0.1,0,0.2,0,0.3c4.9,0,9.7,0,14.7,0c0.1-0.5,0.3-1.2,0.4-1.7c0.4-1.8,0.7-3.7,1.1-5.6c0.1-0.3,0.3-0.5,0.5-0.5
		c0.5-0.3,1.2-0.5,1.8-0.5c0.2,0,0.5,0.1,0.6,0.2c2,1.4,4,2.6,5.8,4c3.5-3.5,6.9-6.9,10.5-10.5c-0.3-0.5-0.7-1-1.1-1.5
		c-0.8-1.2-1.6-2.4-2.5-3.6c3.5-1.2,6.7-3,9.7-5.6l1.2,1.3v3.6l22.6,22.6l6.7-6.7L461.8,486.8z M438.8,470.9
		c0.9,1.6,1.6,3.4,2.1,5.3c0.1,0.2,0.4,0.5,0.5,0.5c1.9,0.4,3.9,0.7,5.8,1c0.2,0,0.3,0.1,0.5,0.2c0,1.4,0,2.8,0,4.2
		c-3.6,3-8.1,4.8-13.1,4.8c-0.6,0-1.3,0-1.9-0.1c0.6-1.6,0.9-3.2,0.9-4.9c0-7.7-6.5-14-14.1-14.1c-1.8,0-3.6,0.4-5.2,1
		c-0.1-0.7-0.2-1.5-0.2-2.3c0-4.9,1.7-9.4,4.6-12.9c1.4,0,2.8,0,4.2,0c0.5,0,0.6,0.1,0.7,0.5c0.4,1.9,0.6,3.9,1,5.8
		c0,0.2,0.3,0.5,0.5,0.5c1.8,0.5,3.6,1.1,5.1,2.1c0.4,0.2,0.5,0.2,0.9,0c1.5-1,3.1-2,4.6-3c0.2-0.1,0.4-0.3,0.5-0.4
		c1.9,1.9,3.7,3.7,5.7,5.7c-0.5,0.7-1,1.6-1.5,2.5c-0.5,0.9-1.2,1.8-1.7,2.7C438.7,470.3,438.7,470.7,438.8,470.9z M409.4,481.7
		c1.5,2.6,3.6,4.9,5.9,7c1.5,1.2,2.9,2.3,4.5,3.2c-0.1,0-0.3,0-0.4,0C413.8,491.9,409.4,487.4,409.4,481.7
		C409.4,481.8,409.4,481.7,409.4,481.7z M428.7,486c-6.5-1.9-11.6-6.9-13.6-13.3c1.3-0.6,2.7-0.9,4.4-0.9c5.6,0,10.1,4.5,10.1,10.1
		C429.6,483.3,429.3,484.7,428.7,486z M442,498.7c-1.9,1.9-3.8,3.8-5.7,5.7c-1.3-0.8-2.6-1.6-3.9-2.6c-1.1-0.8-1.9-0.9-3.1-0.2
		s-2.6,1.1-4,1.5c-0.4,0.1-0.5,0.3-0.6,0.6c-0.3,1.9-0.6,3.9-1,5.8c0,0.2-0.1,0.3-0.1,0.5c-2.6,0-5.4,0-8.1,0
		c-0.3-1.4-0.5-2.7-0.7-4.1c-0.1-0.7-0.3-1.5-0.5-2.3c-0.1-0.2-0.3-0.5-0.5-0.5c-1.8-0.5-3.5-1.1-5-2.1c-0.4-0.3-0.6-0.2-1,0.1
		c-1.7,1.1-3.4,2.2-5,3.3c-1.9-1.9-3.8-3.8-5.7-5.7c1-1.5,2.1-3.3,3.2-4.9c0.3-0.5,0.3-0.8,0-1.3c-0.9-1.5-1.5-3.1-1.9-4.8
		c-0.1-0.5-0.3-0.6-0.7-0.6c-1.9-0.3-3.8-0.6-5.7-1c-0.3-0.1-0.5-0.1-0.5-0.5c0-2.6,0-5.1,0-7.7c1.6-0.3,3.3-0.6,4.9-0.8
		c1.3-0.2,2.1-0.5,2.4-2c0.3-1.4,1-2.6,1.6-3.8c0.2-0.5,0.2-0.7-0.1-1.1c-1.2-1.6-2.5-3.4-3.6-5c1.9-1.9,3.8-3.8,5.7-5.7
		c1,0.6,2.2,1.4,3.3,2.1c-0.8,4.9-0.5,9.9,1.2,14.7c-0.8,1.8-1.4,3.7-1.3,5.8c0,7.7,6.5,14,14.1,14.1c2.2,0,4.3-0.5,6.1-1.5
		c4.6,1.5,9.6,1.7,14.3,0.9C440.7,496.5,441.4,497.6,442,498.7z M451.8,477.3c0-0.9,0-1.9,0-2.8c-0.5-0.1-1.2-0.3-1.7-0.4
		c-1.8-0.4-3.7-0.7-5.6-1.1c-0.3-0.1-0.5-0.3-0.5-0.5c-0.3-0.5-0.5-1.2-0.5-1.8c0-0.2,0.1-0.5,0.2-0.6c1.4-2,2.6-4,4-5.9
		c-3.5-3.5-6.9-6.9-10.5-10.5c-0.6,0.5-1.5,1-2.2,1.5c-1.3,0.8-2.5,1.7-3.7,2.6c-0.2,0.1-0.5,0.2-0.7,0.1c-0.5-0.1-1.2-0.3-1.6-0.5
		c-0.2-0.1-0.4-0.4-0.5-0.5c-0.5-2.3-1-4.6-1.5-6.9c0-0.1,0-0.2,0-0.3c-1.2,0-2.5,0-3.6,0c3.3-2.2,7.2-3.5,11.4-3.5
		c11.3,0,20.4,9.1,20.4,20.4C455,470.5,453.8,474.2,451.8,477.3z"/>
	<g>
		<path class="st2" d="M538.3,454.7c0-4.3,0-8.1,0-12.6c34.3,0,68.2,0,102.7,0c0,4.1,0,7.9,0,12.6
			C607.3,454.7,573.4,454.7,538.3,454.7z"/>
		<path class="st2" d="M538.3,480.6c0-4.3,0-8,0-12.6c34.3,0,68.2,0,102.7,0c0,4.1,0,7.8,0,12.6
			C607.3,480.6,573.4,480.6,538.3,480.6z"/>
		<path class="st2" d="M641,494.1c0,4.6,0,8.4,0,12.8c-34.4,0-68.2,0-102.7,0c0-4.4,0-8.2,0-12.8C572.3,494.1,606.2,494.1,641,494.1
			z"/>
	</g>
	<g>
		<path d="M707.3,454.6c0-4.3,0-8.1,0-12.6c34.3,0,68.2,0,102.7,0c0,4.1,0,7.9,0,12.6C776.3,454.6,742.4,454.6,707.3,454.6z"/>
		<path d="M707.3,480.5c0-4.3,0-8,0-12.6c34.3,0,68.2,0,102.7,0c0,4.1,0,7.8,0,12.6C776.3,480.5,742.4,480.5,707.3,480.5z"/>
		<path d="M810,493.9c0,4.6,0,8.4,0,12.8c-34.4,0-68.2,0-102.7,0c0-4.4,0-8.2,0-12.8C741.3,493.9,775.2,493.9,810,493.9z"/>
	</g>
	<g>
		<path d="M886.9,441.9l-7.6,7.6l24.7,24.7l-24.7,24.7l7.6,7.6l32.3-32.3L886.9,441.9z"/>
		<path d="M926.8,441.9l-7.6,7.6l24.7,24.7l-24.7,24.7l7.6,7.6l32.3-32.3L926.8,441.9z"/>
	</g>
	<g>
		<path class="st2" d="M1018.1,441.9l-7.6,7.6l24.7,24.7l-24.7,24.7l7.6,7.6l32.3-32.3L1018.1,441.9z"/>
		<path class="st2" d="M1058,441.9l-7.6,7.6l24.7,24.7l-24.7,24.7l7.6,7.6l32.3-32.3L1058,441.9z"/>
	</g>
	<path d="M1148,441.9v10.7h42.4l-46.2,46.2l7.6,7.6l46.2-46.2v42.4h10.8v-60.7L1148,441.9L1148,441.9z"/>
	<path class="st2" d="M1271.4,441.9v10.7h42.4l-46.2,46.2l7.6,7.6l46.2-46.2v42.4h10.8v-60.7L1271.4,441.9L1271.4,441.9z"/>
	<g>
		<g>
			<g>
				<g>
					<g>
						<defs>
							<rect id="SVGID_1_" x="802.3" y="568.4" width="78.4" height="82.8"/>
						</defs>
						<clipPath id="SVGID_2_">
							<use xlink:href="#SVGID_1_"  style="overflow:visible;"/>
						</clipPath>
						<g class="st5">
							<path d="M840.8,619.3l-16.7-22.1h8.4v-0.6c0.1-10.8,0.1-16.3-9.7-22.1l1.2-3.6c15.3,1.7,24.4,11.3,25.1,26.3h8.4L840.8,619.3
								z M832,601.3l8.7,11.6l8.7-11.6h-4.4v-2c0-8.2-2.6-18-13.3-22.3c4.6,5.5,4.6,11.5,4.5,19.7v4.6L832,601.3L832,601.3
								L832,601.3z"/>
						</g>
					</g>
				</g>
			</g>
		</g>
		<g>
			<g>
				<g>
					<g>
						<defs>
							<rect id="SVGID_3_" x="802.3" y="568.4" width="78.4" height="82.8"/>
						</defs>
						<clipPath id="SVGID_4_">
							<use xlink:href="#SVGID_3_"  style="overflow:visible;"/>
						</clipPath>
						<g class="st6">
							<path d="M878,648.5h-73.2v-32.3l8.8-11.8h13.7v3.9h-11.6l-6.9,9.1v0.8h17.8l4.6,5.2h20.2l4.6-5.2h17.8v-0.8l-6.9-9.1h-11.6
								v-3.9h13.5l8.8,11.8v32.3H878z M808.8,644.5H874v-22.3h-15.9l-4.6,5.2h-23.8l-4.6-5.2H809v22.3H808.8z"/>
						</g>
					</g>
				</g>
			</g>
		</g>
	</g>
	<path class="st7" d="M301.3,599.6l19.6,13.6l21.1-25.2 M361,609.7c0,22.2-18,40.2-40.2,40.2s-40.2-17.9-40.2-40.2
		c0-22.2,17.9-40.2,40.2-40.2S361,587.6,361,609.7z"/>
	<g>
		<rect x="34.5" y="705.3" class="st8" width="72.2" height="14.1"/>
		<path class="st8" d="M25.3,702.4h-21v21h21C25.3,723.3,25.3,702.4,25.3,702.4z M19.7,717.7H9.8v-9.8h9.9V717.7z"/>
		<rect x="34.5" y="736.3" class="st8" width="72.2" height="14.1"/>
		<path class="st8" d="M25.3,733h-21v21h21C25.3,754,25.3,733,25.3,733z M19.7,748.3H9.8v-9.9h9.9V748.3z"/>
		<rect x="34.5" y="767.6" class="st8" width="72.2" height="14.1"/>
		<path class="st8" d="M25.3,764.3h-21v21h21C25.3,785.2,25.3,764.3,25.3,764.3z M19.7,779.7H9.8v-9.8h9.9V779.7z"/>
	</g>
	<g>
		<path class="st8" d="M1028,568.4h-81.4v82.8h81.4V568.4z M1015.1,637.9h-55.5v-56.2h55.5V637.9z"/>
		<rect x="1039.7" y="604.6" class="st8" width="64.1" height="13.7"/>
		<rect x="1039.7" y="637.5" class="st8" width="64.1" height="13.7"/>
	</g>
	<g>
		<path class="st8" d="M8.7,600.3H30v14.1h14.1v32.3H8.8L8.7,600.3L8.7,600.3L8.7,600.3z M33,596H4.3v55.2h44v-39.6L33,596z"/>
		<rect x="14.7" y="636.1" class="st8" width="23.4" height="4.6"/>
		<rect x="14.7" y="627.1" class="st8" width="23.4" height="4.6"/>
		<rect x="14.7" y="618.2" class="st8" width="23.4" height="4.6"/>
		<rect x="14.7" y="609.2" class="st8" width="10.7" height="4.6"/>
		<path class="st8" d="M79,572.5V595l-12-14.4l-13.8,13.5l5.1,6.4c0.3,0.4,0.3,0.9-0.1,1.2c-0.1,0.1-0.4,0.3-0.5,0.3
			c-0.1,0-0.1,0-0.3-0.1c0,0-0.1,0-0.1-0.1c-0.1,0-0.1-0.1-0.3-0.3l-4.8-6.2l0,0l-4.5-5.7l-13.8,12v-29.1L79,572.5L79,572.5
			L79,572.5z M29.8,613.4h53.3v-45.1H29.8V613.4z"/>
		<path class="st8" d="M41.8,585.5c2.5,0,4.6-2,4.6-4.6c0-2.5-2-4.6-4.6-4.6c-2.5,0-4.6,2-4.6,4.6S39.1,585.5,41.8,585.5"/>
	</g>
	<path class="st9" d="M445.3,599.6l19.6,13.6l21.1-25.2 M505.1,609.7c0,22.2-18,40.2-40.2,40.2s-40.2-17.9-40.2-40.2
		c0-22.2,17.9-40.2,40.2-40.2S505.1,587.6,505.1,609.7z"/>
	<g>
		<path d="M143.5,600.3h21.3v14.1h14.1v32.3h-35.3v-46.4L143.5,600.3L143.5,600.3z M167.7,596h-28.6v55.2h44v-39.6L167.7,596z"/>
		<rect x="149.5" y="636.1" width="23.4" height="4.6"/>
		<rect x="149.5" y="627.1" width="23.4" height="4.6"/>
		<rect x="149.5" y="618.2" width="23.4" height="4.6"/>
		<rect x="149.5" y="609.2" width="10.7" height="4.6"/>
		<path d="M213.8,572.5V595l-12-14.4l-13.9,13.5l5.1,6.4c0.3,0.4,0.3,0.9-0.1,1.2c-0.1,0.1-0.4,0.3-0.5,0.3s-0.1,0-0.3-0.1
			c0,0-0.1,0-0.1-0.1c-0.1,0-0.1-0.1-0.3-0.3l-4.8-6.2l0,0l-4.5-5.7l-13.8,12.1v-29.1L213.8,572.5L213.8,572.5L213.8,572.5z
			 M164.7,613.4H218v-45.1h-53.3V613.4L164.7,613.4z"/>
		<path d="M176.5,585.5c2.5,0,4.6-2,4.6-4.6c0-2.5-2-4.6-4.6-4.6c-2.5,0-4.6,2-4.6,4.6S174,585.5,176.5,585.5"/>
	</g>
	<g>
		<g>
			<path class="st8" d="M593.1,651.2l-1.1-2c-0.9-1.6-23.1-40.5-24-42.5c-1.7-3.4-2.6-7.3-2.6-11.3c0-14.9,12.4-27.1,27.7-27.1
				c15.3,0,27.7,12.1,27.7,27.1c0,3.8-0.9,7.8-2.6,11.8l-0.1,0.1L593.1,651.2z M593.2,571c-13.8,0-25.1,11-25.1,24.5
				c0,3.6,0.8,7.1,2.4,10.1c0.6,1.5,14.6,26,22.8,40.3l22.8-39.7c1.5-3.6,2.4-7.3,2.4-10.8C618.3,582,607,571,593.2,571z M593.3,613
				c-9.9,0-17.9-7.9-17.9-17.7c0-9.8,7.9-17.6,17.9-17.6c9.9,0,17.9,7.9,17.9,17.7C611,605.3,603.1,613,593.3,613z M593.3,580.4
				c-8.7,0-15.4,6.6-15.4,14.9c0,8.3,6.9,15,15.4,15s15.2-6.6,15.4-15C608.6,587.2,601.8,580.4,593.3,580.4z"/>
		</g>
	</g>
	<g>
		<g>
			<path d="M705,651.2l-1.1-2c-0.9-1.6-23.1-40.5-24-42.5c-1.7-3.4-2.6-7.3-2.6-11.3c0-14.9,12.4-27.1,27.7-27.1
				c15.3,0,27.7,12.1,27.7,27.1c0,3.8-0.9,7.8-2.6,11.8l-0.1,0.1L705,651.2z M705.1,571c-13.8,0-25.1,11-25.1,24.5
				c0,3.6,0.8,7.1,2.4,10.1c0.6,1.5,14.6,26,22.8,40.3l22.8-39.7c1.5-3.6,2.4-7.3,2.4-10.8C730.1,582,718.8,571,705.1,571z
				 M705.2,613c-9.9,0-17.9-7.9-17.9-17.7c0-9.8,7.9-17.6,17.9-17.6c9.9,0,17.9,7.9,17.9,17.7C722.9,605.3,715,613,705.2,613z
				 M705.2,580.4c-8.7,0-15.4,6.6-15.4,14.9c0,8.3,6.9,15,15.4,15s15.2-6.6,15.4-15C720.5,587.2,713.7,580.4,705.2,580.4z"/>
		</g>
	</g>
	<g>
		<rect x="196.5" y="705.3" width="72.2" height="14.1"/>
		<path d="M187.3,702.4h-21v21h21V702.4z M181.7,717.7h-9.9v-9.8h9.9V717.7z"/>
		<rect x="196.5" y="736.3" width="72.2" height="14.1"/>
		<path d="M187.3,733h-21v21h21V733z M181.7,748.3h-9.9v-9.9h9.9V748.3z"/>
		<rect x="196.5" y="767.6" width="72.2" height="14.1"/>
		<path d="M187.3,764.3h-21v21h21V764.3z M181.7,779.7h-9.9v-9.8h9.9V779.7z"/>
	</g>
	<g>
		<path d="M1250.1,568.4h-81.4v82.8h81.4V568.4z M1237.3,637.9h-55.5v-56.2h55.5V637.9z"/>
		<rect x="1261.9" y="604.6" width="64.1" height="13.7"/>
		<rect x="1261.9" y="637.5" width="64.1" height="13.7"/>
	</g>
	<g>
		<g>
			<g>
				<path class="st8" d="M1466.4,649.8h-77.5v-1.3c0-16.2,10.1-30.9,25.2-36.5l1.1-0.4l-0.9-0.6c-3.9-2.8-6.7-6.7-8.3-11
					c-0.8-2.6-1.3-5.1-1.3-7.6c0-2.7,0.6-5.7,1.7-8.7l0.1-0.2c0.2-0.4,0.4-0.6,0.5-0.8c0.2-0.3,0.3-0.5,0.5-0.8l1.3-2.2
					c0.2-0.3,0.4-0.5,0.5-0.8c0.2-0.2,0.3-0.4,0.4-0.5l0.3-0.4c0.4-0.5,0.8-1,1.3-1.5l0.3-0.3l1.2-1.1l1-0.5
					c0.4-0.3,0.8-0.6,1.3-0.9c0.2-0.1,0.5-0.3,0.6-0.5c0.3-0.2,0.5-0.4,0.8-0.5l0.2-0.1l2.2-0.9c1.2-0.5,2.5-0.9,3.7-1.3l0.8-0.3
					h0.2c0.1,0,0.2,0,0.4-0.1c0.3-0.1,0.6-0.1,1-0.1h0.4c0.8-0.2,1.5-0.2,2.3-0.2h2.6l0.8,0.3c0.1,0,0.3,0,0.5,0.1
					c0.5,0.1,0.9,0.1,1.5,0.3l0.6,0.3c0.2,0.1,0.4,0.1,0.5,0.2c0.4,0.1,0.7,0.2,1.2,0.4l0.6,0.2c0.5,0.2,1,0.4,1.4,0.6
					c0.2,0.1,0.3,0.2,0.5,0.3h0.2l0.3,0.1c1.6,0.7,3,1.8,4.4,2.9l0.3,0.3l1.8,1.8c0.3,0.4,0.5,0.5,0.7,0.9s0.5,0.6,0.8,1
					c2.7,4.1,4.2,8.7,4.2,13.2c0,7.4-3.5,14.2-9.6,18.6l-0.9,0.6l1.1,0.4c15.3,5.6,25.5,20.2,25.5,36.5L1466.4,649.8L1466.4,649.8z
					 M1391.5,647.3h72.3c-0.5-14.7-9.9-27.8-23.8-32.8l-5.6-2l4.8-3.6c5.4-3.9,8.5-9.9,8.5-16.5c0-4.1-1.3-8.1-3.7-11.8
					c-0.2-0.3-0.5-0.5-0.6-0.8c-0.3-0.3-0.5-0.5-0.7-0.9l-1.7-1.7c-1.1-0.9-2.3-1.8-3.5-2.5h-0.2l-0.3-0.1c-0.4-0.2-0.6-0.3-0.9-0.5
					c-0.4-0.2-0.5-0.3-0.8-0.4l-0.8-0.3c-0.3-0.1-0.5-0.2-0.9-0.3c-0.2-0.1-0.4-0.1-0.6-0.2l-0.2-0.1l-0.7-0.3
					c-0.1-0.1-0.5-0.1-0.7-0.1s-0.5-0.1-0.7-0.1l-0.6-0.2h-2.2c-0.6,0-1.2,0-1.7,0.2l-0.2,0.1h-0.6c-0.1,0-0.4,0-0.5,0.1
					c-0.2,0-0.5,0.1-0.6,0.1l-0.5,0.2c-1.2,0.3-2.3,0.6-3.5,1.2l-2.1,0.8c-0.2,0.1-0.4,0.3-0.5,0.4c-0.3,0.2-0.5,0.4-0.8,0.5
					c-0.4,0.2-0.7,0.5-1,0.7l-0.5,0.3l-0.6,0.3l-1.1,1c-0.5,0.5-0.8,0.8-1,1.2l-0.3,0.4c-0.2,0.3-0.4,0.5-0.5,0.6
					c-0.2,0.2-0.3,0.4-0.4,0.5l-1.3,2.2c-0.1,0.2-0.3,0.5-0.4,0.6c-0.1,0.3-0.3,0.5-0.5,0.9c-1,2.7-1.5,5.4-1.5,7.7
					c0,2.2,0.4,4.4,1.1,6.7c1.4,3.8,3.9,7.3,7.4,9.7l4.8,3.6l-5.6,2C1401.4,619.6,1392.1,632.6,1391.5,647.3z"/>
			</g>
		</g>
	</g>
	<path class="st8" d="M1456.2,431.9h-73.8c-5.6,0-10.1,4.6-10.1,10.1v58.7c0,6.3,5.2,11.5,11.5,11.5h71.2c6.3,0,11.5-5.2,11.5-11.5
		V442C1466.5,436.4,1462,431.9,1456.2,431.9z M1461.9,507.6H1377v-71.1h84.9V507.6z M1385.8,476.1l9.3-5.6l9.3,5.6v-29.7h-18.6
		L1385.8,476.1L1385.8,476.1z"/>
	<g>
		<g>
			<g>
				<g>
					<g>
						<defs>
							<rect id="SVGID_5_" x="354" y="702.4" width="78.4" height="82.8"/>
						</defs>
						<clipPath id="SVGID_6_">
							<use xlink:href="#SVGID_5_"  style="overflow:visible;"/>
						</clipPath>
						<g class="st10">
							<path class="st2" d="M392.5,753.3l-16.7-22h8.4v-0.6c0.1-10.8,0.1-16.3-9.7-22l1.2-3.6c15.3,1.7,24.4,11.3,25.1,26.3h8.4
								L392.5,753.3z M383.7,735.3l8.7,11.6l8.7-11.6h-4.4v-2c0-8.2-2.6-17.9-13.3-22.3c4.6,5.5,4.6,11.5,4.5,19.7v4.6L383.7,735.3
								L383.7,735.3L383.7,735.3z"/>
						</g>
					</g>
				</g>
			</g>
		</g>
		<g>
			<g>
				<g>
					<g>
						<defs>
							<rect id="SVGID_7_" x="354" y="702.4" width="78.4" height="82.8"/>
						</defs>
						<clipPath id="SVGID_8_">
							<use xlink:href="#SVGID_7_"  style="overflow:visible;"/>
						</clipPath>
						<g class="st11">
							<path class="st2" d="M429.7,782.6h-73.2v-32.3l8.8-11.8h13.7v3.9h-11.6l-6.9,9.1v0.8h17.8l4.6,5.2h20.2l4.6-5.2h17.8v-0.8
								l-6.9-9.1h-11.6v-3.9h13.5l8.8,11.8v32.3H429.7z M360.5,778.6h65.2v-22.3h-15.9l-4.6,5.2h-23.8l-4.6-5.2h-15.9v22.3H360.5z"
								/>
						</g>
					</g>
				</g>
			</g>
		</g>
	</g>
	<path d="M531.3,743.8c0.6,0,1.2,0.1,1.6,0.5c0.4,0.4,0.5,1.1,0.5,1.6c0,4.8,0,9.6,0,14.3v5.3l-0.9,0.4c-0.3,0.1-0.6,0.3-0.9,0.4
		c-2.7,1.3-4.5,3.5-5.1,6.1c-0.6,2.5,0,5,1.7,7.2c2.6,3.4,6.9,4.4,10.5,2.6c3.8-1.9,5.9-6.2,4.9-9.9c-0.9-3.1-3-5.3-6.4-6.6
		l-0.5-0.2v-5.3c0-4.8,0-9.7,0-14.5c0-0.5,0-1.1,0.5-1.5c0.4-0.4,1-0.5,1.5-0.5c11,0,21.1,0,30.9,0c0.5,0,1.1,0.1,1.5,0.5
		s0.5,1,0.5,1.6c0,4.8,0,9.5,0,14.3v5.3l-0.8,0.4c-0.4,0.2-0.7,0.3-1.1,0.5c-2.5,1.2-4.4,3.4-5,5.9s0,5.1,1.6,7.2
		c1.5,2,3.6,3.3,5.9,3.5c2.3,0.3,4.5-0.5,6.4-2c2-1.7,3.2-3.8,3.3-6.1s-0.7-4.6-2.5-6.5c-1-1.1-2.3-1.7-3.7-2.4l-1-0.5v-5.2
		c0-4.7,0-9.6,0-14.4c0-0.5,0.1-1.2,0.5-1.6c0.4-0.4,1-0.5,1.6-0.4c1.8,0.1,3.6,0,5.4,0c0.7,0,1.4,0,2.1,0h5.9c6.5,0,13.1,0,19.6,0
		c0.6,0,1.2,0.1,1.6,0.5c0.4,0.5,0.4,1.1,0.4,1.6c-0.1,0.7,0,1.5,0,2.3c0,0,0,0,0,0.1l12-5.7l-12-6.3c0,0.8,0,1.4,0,2.1
		c0,0.6,0,1.3-0.4,1.7c-0.5,0.5-1.2,0.5-1.7,0.5c-4.1-0.1-8.5-0.1-13.8,0c-0.6,0-1.2,0-1.7-0.5s-0.5-1.1-0.5-1.7c0-4.6,0-9.3,0-13.9
		v-5.3l0.4-0.2c0.2-0.1,0.4-0.1,0.5-0.2c0.4-0.1,0.7-0.3,1.1-0.5c4-2,6-6.5,4.7-10.3c-1.5-4.2-5.7-7-9.7-6.2c-4.4,0.8-7.8,5-7.5,9
		c0.3,3.9,2.5,6.6,6.7,8.2l0.5,0.2v5.3c0,4.6,0,9.3,0,13.9c0,0.6,0,1.2-0.5,1.7c-0.4,0.4-1.1,0.5-1.7,0.5c-9.6,0-19.5,0-29.4,0l0,0
		c-0.6,0-1.1-0.1-1.5-0.5s-0.5-1-0.5-1.5c0-4.7,0-9.4,0-14.2v-5.2l0.4-0.2c0.2-0.1,0.4-0.1,0.5-0.2c0.4-0.1,0.7-0.3,1.1-0.5
		c4-2,6-6.5,4.7-10.3c-1.4-4.2-5.7-7-9.8-6.2c-4.2,0.8-7.6,5-7.4,9c0.3,3.9,2.5,6.6,6.7,8.2l0.5,0.2v5.3c0,4.7,0,9.4,0,14.1
		c0,0.5,0,1.1-0.5,1.5c-0.4,0.4-1,0.5-1.6,0.5c-10.2,0-20.6,0-30.7,0c-0.6,0-1.1-0.1-1.6-0.5c-0.4-0.4-0.5-1-0.5-1.5
		c0-4.7,0-9.5,0-14.2v-5.2l0.5-0.2c1.2-0.4,2.3-1,3.2-1.7c3.3-2.6,4.4-6.8,2.7-10.3c-1.9-3.9-6.1-6.1-9.9-5.1c-4,1-7.1,5.1-6.8,8.9
		c0.3,3.9,2.5,6.6,6.7,8.2l0.5,0.2v5c0,4.8,0,9.6,0,14.5c0,0.5,0,1.1-0.4,1.4c-0.4,0.4-0.9,0.4-1.4,0.4c-2.5,0-5,0-7.4,0h-2.8
		c-1.2,0-2.1,0-2.3,0.2c-0.2,0.2-0.2,1.1-0.2,2.3v0.1c0,0.5,0.1,0.7,0.1,0.7s0.1,0.1,0.6,0.1c5.2,0,10.4,0,15.6,0
		C521.9,743.8,526.6,743.8,531.3,743.8L531.3,743.8z M573,779.7L573,779.7c-3.4,0-5.5-2.2-5.4-5.5c0-1.6,0.5-3,1.5-3.9
		c1-1,2.4-1.5,4.1-1.5c3.3,0,5.4,2.2,5.3,5.5l0,0c0,1.6-0.5,3-1.5,3.9C576.1,779.2,574.7,779.7,573,779.7z M535,779.7L535,779.7
		c-1.6,0-3-0.5-4-1.5s-1.5-2.4-1.5-4.1c0-3.2,2.2-5.3,5.5-5.3c0,0,0,0,0.1,0c3.3,0,5.4,2.2,5.4,5.5
		C540.5,777.5,538.3,779.7,535,779.7z M555.3,715.8C555.3,715.8,555.2,715.8,555.3,715.8c-3.4,0-5.5-2.1-5.5-5.4l0,0
		c0-3.3,2.2-5.5,5.4-5.5c1.6,0,3,0.5,4,1.5s1.5,2.4,1.5,4.1c0,1.6-0.5,2.9-1.5,3.9C558.3,715.3,556.9,715.8,555.3,715.8z
		 M592.1,715.8L592.1,715.8c-3.4,0-5.4-2.2-5.4-5.5c0-1.6,0.5-2.9,1.6-3.9c1-1,2.4-1.5,4-1.5s3,0.6,4,1.6s1.5,2.4,1.4,4.1
		C597.5,713.8,595.4,715.8,592.1,715.8z M517.1,715.8L517.1,715.8c-1.7,0-3-0.5-4-1.5s-1.5-2.4-1.4-4c0-3.2,2.3-5.4,5.5-5.4
		c0,0,0,0,0.1,0c3.3,0,5.4,2.2,5.4,5.5c0,1.7-0.5,3-1.5,4C520.2,715.3,518.8,715.8,517.1,715.8z"/>
	<path class="st2" d="M706.3,743.7c0.6,0,1.2,0.1,1.6,0.5c0.4,0.4,0.5,1.1,0.5,1.6c0,4.8,0,9.6,0,14.3v5.3l-0.9,0.4
		c-0.3,0.1-0.6,0.3-0.9,0.4c-2.7,1.3-4.5,3.5-5.1,6.1c-0.6,2.5,0,5,1.7,7.2c2.6,3.4,6.9,4.4,10.5,2.6c3.8-1.9,5.9-6.2,4.9-9.9
		c-0.9-3.1-3-5.3-6.4-6.6l-0.5-0.2v-5.3c0-4.8,0-9.7,0-14.5c0-0.5,0-1.1,0.5-1.5c0.4-0.4,1-0.5,1.5-0.5c11,0,21.1,0,30.9,0
		c0.5,0,1.1,0.1,1.5,0.5s0.5,1,0.5,1.6c0,4.8,0,9.5,0,14.3v5.3l-0.8,0.4c-0.4,0.2-0.7,0.3-1.1,0.5c-2.5,1.2-4.4,3.4-5,5.9
		s0,5.1,1.6,7.2c1.5,2,3.6,3.3,5.9,3.5c2.3,0.3,4.5-0.5,6.4-2c2-1.7,3.2-3.8,3.3-6.1s-0.7-4.6-2.5-6.5c-1-1.1-2.3-1.7-3.7-2.4
		l-1-0.5v-5.2c0-4.7,0-9.6,0-14.4c0-0.5,0.1-1.2,0.5-1.6c0.4-0.4,1-0.5,1.6-0.4c1.8,0.1,3.6,0,5.4,0c0.7,0,1.4,0,2.1,0h5.9
		c6.5,0,13.1,0,19.6,0c0.6,0,1.2,0.1,1.6,0.5c0.4,0.5,0.4,1.1,0.4,1.6c-0.1,0.7,0,1.5,0,2.3c0,0,0,0,0,0.1l12-5.7l-12-6.3
		c0,0.8,0,1.4,0,2.1c0,0.6,0,1.3-0.4,1.7c-0.5,0.5-1.2,0.5-1.7,0.5c-4.1-0.1-8.5-0.1-13.8,0c-0.6,0-1.2,0-1.7-0.5s-0.5-1.1-0.5-1.7
		c0-4.6,0-9.3,0-13.9v-5.3l0.4-0.2c0.2-0.1,0.4-0.1,0.5-0.2c0.4-0.1,0.7-0.3,1.1-0.5c4-2,6-6.5,4.7-10.3c-1.5-4.2-5.7-7-9.7-6.2
		c-4.4,0.8-7.8,5-7.5,9c0.3,3.9,2.5,6.6,6.7,8.2l0.5,0.2v5.3c0,4.6,0,9.3,0,13.9c0,0.6,0,1.2-0.5,1.7c-0.4,0.4-1.1,0.5-1.7,0.5
		c-9.6,0-19.5,0-29.4,0l0,0c-0.6,0-1.1-0.1-1.5-0.5s-0.5-1-0.5-1.5c0-4.7,0-9.4,0-14.2v-5.2l0.4-0.2c0.2-0.1,0.4-0.1,0.5-0.2
		c0.4-0.1,0.7-0.3,1.1-0.5c4-2,6-6.5,4.7-10.3c-1.4-4.2-5.7-7-9.8-6.2c-4.2,0.8-7.6,5-7.4,9c0.3,3.9,2.5,6.6,6.7,8.2l0.5,0.2v5.3
		c0,4.7,0,9.4,0,14.1c0,0.5,0,1.1-0.5,1.5c-0.4,0.4-1,0.5-1.6,0.5c-10.2,0-20.6,0-30.7,0c-0.6,0-1.1-0.1-1.6-0.5
		c-0.4-0.4-0.5-1-0.5-1.5c0-4.7,0-9.5,0-14.2v-5.2l0.5-0.2c1.2-0.4,2.3-1,3.2-1.7c3.3-2.6,4.4-6.8,2.7-10.3
		c-1.9-3.9-6.1-6.1-9.9-5.1c-4,1-7.1,5.1-6.8,8.9c0.3,3.9,2.5,6.6,6.7,8.2l0.5,0.2v5c0,4.8,0,9.6,0,14.5c0,0.5,0,1.1-0.4,1.4
		c-0.4,0.4-0.9,0.4-1.4,0.4c-2.5,0-5,0-7.4,0h-2.8c-1.2,0-2.1,0-2.3,0.2s-0.2,1.1-0.2,2.3v0.1c0,0.5,0.1,0.7,0.1,0.7
		s0.1,0.1,0.6,0.1c5.2,0,10.4,0,15.6,0C696.9,743.7,701.6,743.7,706.3,743.7L706.3,743.7z M748,779.6L748,779.6
		c-3.4,0-5.5-2.2-5.4-5.5c0-1.6,0.5-3,1.5-3.9c1-1,2.4-1.5,4.1-1.5c3.3,0,5.4,2.2,5.3,5.5l0,0c0,1.6-0.5,3-1.5,3.9
		C751.1,779.1,749.7,779.6,748,779.6z M710,779.6L710,779.6c-1.6,0-3-0.5-4-1.5s-1.5-2.4-1.5-4.1c0-3.2,2.2-5.3,5.5-5.3
		c0,0,0,0,0.1,0c3.3,0,5.4,2.2,5.4,5.5C715.5,777.4,713.3,779.6,710,779.6z M730.3,715.7C730.3,715.7,730.2,715.7,730.3,715.7
		c-3.4,0-5.5-2.1-5.5-5.4l0,0c0-3.3,2.2-5.5,5.4-5.5c1.6,0,3,0.5,4,1.5s1.5,2.4,1.5,4.1c0,1.6-0.5,2.9-1.5,3.9
		C733.3,715.2,731.9,715.7,730.3,715.7z M767.1,715.7L767.1,715.7c-3.4,0-5.4-2.2-5.4-5.5c0-1.6,0.5-2.9,1.6-3.9c1-1,2.4-1.5,4-1.5
		s3,0.6,4,1.6s1.5,2.4,1.4,4.1C772.5,713.7,770.4,715.7,767.1,715.7z M692.1,715.7L692.1,715.7c-1.7,0-3-0.5-4-1.5s-1.5-2.4-1.4-4
		c0-3.2,2.3-5.4,5.5-5.4c0,0,0,0,0.1,0c3.3,0,5.4,2.2,5.4,5.5c0,1.7-0.5,3-1.5,4C695.2,715.2,693.8,715.7,692.1,715.7z"/>
</g>
</svg>
