<?xml version="1.0" encoding="utf-8"?>
<!-- Generator: Adobe Illustrator 23.0.3, SVG Export Plug-In . SVG Version: 6.00 Build 0)  -->
<svg version="1.1" id="Ebene_1" xmlns="http://www.w3.org/2000/svg" xmlns:xlink="http://www.w3.org/1999/xlink" x="0px" y="0px"
	 viewBox="0 0 88.6 83.4" style="enable-background:new 0 0 88.6 83.4;" xml:space="preserve">
<g>
	<g>
		<path d="M44.5,71.5l-0.9-1.7C42.7,68.4,23.7,35,22.9,33.3c-1.5-2.9-2.2-6.3-2.2-9.7c0-12.8,10.6-23.3,23.8-23.3
			s23.8,10.4,23.8,23.3c0,3.3-0.8,6.7-2.2,10.1l-0.1,0.1L44.5,71.5z M44.5,2.7c-11.9,0-21.6,9.4-21.6,21c0,3.1,0.7,6.1,2.1,8.7
			c0.5,1.3,12.5,22.3,19.6,34.6l19.6-34.1c1.3-3.1,2.1-6.3,2.1-9.3C66,12.1,56.3,2.7,44.5,2.7z M44.6,38.7
			c-8.5,0-15.4-6.8-15.4-15.2S36,8.4,44.6,8.4c8.5,0,15.4,6.8,15.4,15.2C59.8,32.1,53,38.7,44.6,38.7z M44.6,10.7
			c-7.5,0-13.2,5.7-13.2,12.8c0,7.1,5.9,12.9,13.2,12.9s13.1-5.7,13.2-12.9C57.8,16.6,51.9,10.7,44.6,10.7z"/>
	</g>
</g>
<path d="M0.3,83.2C5,77,9.4,71,14,65.1c0.6-0.8,2.1-1.2,3.1-1.2c5.5-0.1,11.1-0.1,16.6-0.1c3.4,0,3.4,0,5.5,3.7
	c-6.9,0-13.6,0.1-20.3,0c-2,0-3.4,0.6-4.6,2.2c-2.4,3.3-5,6.4-7.8,9.9c25.4,0,50.4,0,75.9,0c-3.2-4-6-7.7-9.1-11.2
	c-0.6-0.7-2-0.8-3-0.9c-6.8-0.1-13.7,0-20.7,0c1-3,2.8-3.9,5.6-3.8c5.5,0.2,11.1,0,16.6,0.1c1.1,0,2.5,0.6,3.1,1.3
	c4.5,5.8,8.9,11.8,13.6,18C59,83.2,29.9,83.2,0.3,83.2z"/>
<path d="M27.3,73.4c0.1-0.2,0.2-0.5,0.4-0.6c0.2-0.1,0.6-0.1,0.8,0.1c0.8,0.5,1.5,1,2.2,1.5c0.2,0.2,0.4,0.6,0.3,0.8
	c0,0.2-0.5,0.5-0.6,0.5c-1.2-0.3-2.2-1-3-2C27.3,73.7,27.3,73.6,27.3,73.4z"/>
<path d="M46.7,78.3c-1.2-0.2-2.2-0.4-3.2-0.7c-0.2-0.1-0.5-0.5-0.5-0.7c0-0.2,0.5-0.6,0.7-0.5c1.1,0.2,2.1,0.4,3.2,0.7
	c0.2,0.1,0.4,0.5,0.4,0.8C47.2,78.1,46.8,78.2,46.7,78.3z"/>
<path d="M34.8,76.8c-0.6-0.1-1.3-0.1-2.1-0.3c-0.3-0.1-0.5-0.5-0.7-0.8c0.3-0.2,0.6-0.5,1-0.5c0.8,0,1.6,0.1,2.4,0.2
	c0.5,0,1,0.1,1,0.7c0,0.6-0.5,0.7-1,0.7C35.2,76.8,35.1,76.8,34.8,76.8z"/>
<path d="M39.5,77.2c-0.5-0.1-1,0-1.5-0.2c-0.3-0.1-0.6-0.5-0.5-0.7c0-0.2,0.5-0.6,0.7-0.6c1,0,2,0.1,3,0.3c0.2,0,0.4,0.5,0.6,0.7
	c-0.3,0.2-0.5,0.5-0.8,0.6C40.5,77.4,40,77.3,39.5,77.2C39.5,77.2,39.5,77.2,39.5,77.2z"/>
<path d="M24.2,69.5c0.1-0.3,0.2-0.7,0.5-0.9c0.2-0.1,0.7,0.2,0.9,0.4c0.5,0.7,0.9,1.5,1.3,2.2c0.2,0.4,0.4,0.8-0.1,1.1
	c-0.5,0.3-0.8,0.1-1.1-0.3C25.3,71.2,24.8,70.4,24.2,69.5z"/>
<path d="M49.7,78.5c0.5,0.3,1.1,0.7,1.7,1.3c0.2,0.2,0.2,0.7,0.3,1.1c-0.4,0-0.8,0.2-1.1,0c-0.7-0.4-1.3-0.9-2-1.3
	c-0.4-0.3-0.8-0.6-0.5-1.1c0.3-0.6,0.8-0.3,1.2-0.1C49.4,78.3,49.5,78.3,49.7,78.5z"/>
<path d="M22,64.6c0.2-0.1,0.4-0.3,0.6-0.3c0.2,0,0.5,0.2,0.7,0.5c0.4,0.8,0.9,1.6,1.2,2.4c0.1,0.2,0.1,0.7-0.1,0.9
	c-0.1,0.2-0.7,0.2-0.8,0.1c-0.9-0.8-1.4-1.9-1.7-3.2C21.9,64.9,22,64.8,22,64.6z"/>
</svg>
