<?xml version="1.0" encoding="utf-8"?>
<!-- Generator: Adobe Illustrator 15.0.0, SVG Export Plug-In . SVG Version: 6.00 Build 0)  -->
<!DOCTYPE svg PUBLIC "-//W3C//DTD SVG 1.1//EN" "http://www.w3.org/Graphics/SVG/1.1/DTD/svg11.dtd">
<svg version="1.1" id="Fahne" xmlns="http://www.w3.org/2000/svg" xmlns:xlink="http://www.w3.org/1999/xlink" x="0px" y="0px"
	 width="237.634px" height="61.382px" viewBox="0 0 237.634 61.382" enable-background="new 0 0 237.634 61.382"
	 xml:space="preserve">
<rect y="0.001" fill="#FFFFFF" width="237.635" height="61.381"/>
<g>
	<polygon points="14.221,24.251 24.607,24.251 24.607,26.331 20.523,26.331 20.523,40.775 18.304,40.775 18.304,26.331 
		14.221,26.331 	"/>
	<path d="M25.242,40.775V24.251h2.078v6.184c0.637-0.707,1.699-1.226,2.903-1.226c2.62,0,4.697,1.133,4.697,4.956v6.61h-2.077v-6.61
		c0-2.314-1.274-2.973-2.762-2.973c-1.51,0-2.761,1.227-2.761,2.973v6.61H25.242z"/>
	<path d="M46.248,29.445v6.61c0,2.972-2.077,4.956-4.839,4.956s-4.84-1.984-4.84-4.956v-6.61h2.078v6.61
		c0,1.746,1.274,2.972,2.762,2.972s2.762-1.226,2.762-2.972v-6.61H46.248z M39.521,25.289c0.778,0,1.322,0.568,1.322,1.322
		c0,0.779-0.544,1.323-1.322,1.323c-0.779,0-1.322-0.544-1.322-1.323C38.198,25.857,38.741,25.289,39.521,25.289 M43.297,25.289
		c0.779,0,1.322,0.568,1.322,1.322c0,0.779-0.543,1.323-1.322,1.323c-0.778,0-1.321-0.544-1.321-1.323
		C41.976,25.857,42.519,25.289,43.297,25.289"/>
	<path d="M47.874,29.445h1.982v1.298h0.048c0.708-1.11,1.676-1.533,3.068-1.533h0.473v1.982h-0.308
		c-2.006,0-3.187,1.227-3.187,4.296v5.287h-2.077V29.445z"/>
	<path d="M56.205,25.668c0.803,0,1.251,0.612,1.251,1.25s-0.448,1.251-1.251,1.251s-1.251-0.613-1.251-1.251
		S55.402,25.668,56.205,25.668 M55.167,29.445h2.077v11.331h-2.077V29.445z"/>
	<path d="M59.603,40.775v-6.61c0-2.973,2.078-4.956,4.84-4.956s4.839,1.982,4.839,4.956v6.61h-2.077v-6.61
		c0-1.746-1.274-2.973-2.762-2.973s-2.762,1.227-2.762,2.973v6.61H59.603z"/>
	<path d="M79.146,40.255c-0.779,0.425-1.888,0.756-2.667,0.756c-3.305,0-5.854-2.455-5.854-5.76c0-3.4,2.313-6.042,5.854-6.042
		c3.446,0,5.57,2.784,5.57,5.617v5.05c0,4.25-2.597,6.279-5.925,6.279c-1.274,0-2.525-0.258-3.729-0.659l0.496-1.887
		c1.038,0.28,2.077,0.563,3.139,0.563c1.865,0,3.942-0.826,3.942-3.588v-5.287c0-2.548-1.652-4.106-3.588-4.106
		c-2.479,0-3.683,1.958-3.683,4.176c0,2.22,1.652,3.658,3.8,3.658c0.944,0,1.842-0.446,2.645-0.917V40.255z"/>
	<path d="M86.933,37.044l-0.85-1.65l5.595-3.117c-0.708-0.709-1.299-1.084-2.573-1.084c-2.148,0-3.706,1.605-3.706,3.917
		c0,2.313,1.558,3.917,3.706,3.917c2.455,0,3.375-1.46,3.8-3.538l2.102,0.258c-0.236,2.997-2.645,5.265-5.901,5.265
		c-3.14,0-5.878-2.408-5.878-5.901c0-3.495,2.738-5.9,5.878-5.9c2.643,0,4.414,1.392,5.476,3.587L86.933,37.044z"/>
	<path d="M96.229,40.775v-6.61c0-2.973,2.078-4.956,4.84-4.956s4.839,1.982,4.839,4.956v6.61h-2.077v-6.61
		c0-1.746-1.274-2.973-2.762-2.973s-2.762,1.227-2.762,2.973v6.61H96.229z"/>
	<polygon points="68.441,15.107 65.13,15.107 65.13,17.919 67.879,17.919 67.879,18.756 65.13,18.756 65.13,22.831 64.093,22.831 
		64.093,14.257 68.604,14.257 	"/>
	<path d="M71.88,17.544c-0.063-0.025-0.175-0.051-0.275-0.051c-0.375,0-0.749,0.162-1.037,0.45
		c-0.287,0.287-0.361,0.476-0.361,0.987v3.899H69.23v-4.8c0-0.912-0.213-1.323-0.213-1.323l0.976-0.264c0,0,0.237,0.488,0.199,1.014
		c0.45-0.639,1.112-1.038,1.75-1.038c0.162,0,0.338,0.062,0.338,0.062L71.88,17.544z"/>
	<path d="M73.655,19.881v0.149c0,0.588,0.075,1.038,0.288,1.362c0.349,0.537,0.924,0.763,1.549,0.763c0.6,0,1.087-0.188,1.525-0.587
		l0.375,0.625c-0.551,0.499-1.301,0.773-2.101,0.773c-1.724,0-2.762-1.25-2.762-3.312c0-1.049,0.225-1.725,0.75-2.35
		c0.5-0.587,1.112-0.861,1.862-0.861c0.675,0,1.263,0.236,1.687,0.675c0.537,0.55,0.713,1.137,0.713,2.624v0.138H73.655z
		 M76.217,17.756c-0.212-0.337-0.649-0.55-1.125-0.55c-0.887,0-1.387,0.65-1.437,1.937h2.849
		C76.492,18.468,76.405,18.056,76.217,17.756"/>
	<path d="M79.442,15.444c-0.425,0-0.762-0.337-0.762-0.75c0-0.425,0.337-0.773,0.762-0.773s0.763,0.337,0.763,0.762
		S79.867,15.444,79.442,15.444 M78.917,22.831v-6.199l1.014-0.162v6.361H78.917z"/>
	<path d="M83.592,23.018c-0.787,0-1.649-0.237-2.287-0.625l0.375-0.726c0.638,0.389,1.287,0.588,1.975,0.588
		c0.763,0,1.263-0.413,1.263-1.074c0-0.563-0.313-0.875-1.025-1.025l-0.775-0.162c-1.024-0.213-1.573-0.85-1.573-1.712
		c0-1.125,0.912-1.912,2.212-1.912c0.649,0,1.374,0.2,1.898,0.5l-0.361,0.724c-0.551-0.262-1.013-0.449-1.563-0.449
		c-0.713,0-1.175,0.413-1.175,1.024c0,0.476,0.237,0.764,0.9,0.9l0.824,0.175c1.124,0.237,1.662,0.813,1.662,1.737
		C85.941,22.193,84.991,23.018,83.592,23.018"/>
	<path d="M89.704,17.344h-1.3v4.012c0,0.687,0.188,0.925,0.8,0.925c0.275,0,0.437-0.038,0.612-0.125l0.138,0.625
		c-0.313,0.162-0.663,0.249-1.1,0.249c-0.325,0-0.575-0.062-0.813-0.175c-0.438-0.212-0.6-0.612-0.6-1.237v-4.273H86.63v-0.737
		h0.813c0-0.6,0.1-1.575,0.1-1.575l1.025-0.225c0,0-0.125,0.975-0.125,1.8h1.562L89.704,17.344z"/>
	<path d="M95.279,23.068c-0.426-0.137-0.738-0.476-0.851-0.912c-0.6,0.599-1.087,0.837-1.8,0.837c-1.537,0-1.999-0.937-1.999-1.775
		c0-1.411,1.212-2.236,3.299-2.236c0.262,0,0.438,0.013,0.438,0.013v-0.437c0-0.551-0.025-0.775-0.199-0.976
		c-0.201-0.225-0.451-0.337-0.838-0.337c-0.7,0-1.587,0.374-1.987,0.737l-0.488-0.7c0.826-0.55,1.714-0.837,2.612-0.837
		c0.863,0,1.463,0.337,1.725,0.974c0.139,0.338,0.15,0.813,0.139,1.375l-0.05,2.05c-0.026,1.013,0.036,1.274,0.499,1.524
		L95.279,23.068z M93.854,19.644c-1.574,0-2.137,0.537-2.137,1.486c0,0.737,0.363,1.138,1.074,1.138
		c0.638,0,1.226-0.388,1.513-0.976l0.037-1.624C94.179,19.656,94.029,19.644,93.854,19.644"/>
	<path d="M101.517,23.068c-0.426-0.137-0.738-0.476-0.851-0.912c-0.6,0.599-1.087,0.837-1.8,0.837c-1.537,0-1.999-0.937-1.999-1.775
		c0-1.411,1.212-2.236,3.299-2.236c0.262,0,0.438,0.013,0.438,0.013v-0.437c0-0.551-0.025-0.775-0.199-0.976
		c-0.201-0.225-0.451-0.337-0.838-0.337c-0.7,0-1.587,0.374-1.987,0.737l-0.488-0.7c0.826-0.55,1.713-0.837,2.612-0.837
		c0.863,0,1.463,0.337,1.725,0.974c0.139,0.338,0.15,0.813,0.139,1.375l-0.05,2.05c-0.026,1.013,0.036,1.274,0.499,1.524
		L101.517,23.068z M100.091,19.644c-1.574,0-2.137,0.537-2.137,1.486c0,0.737,0.363,1.138,1.074,1.138
		c0.638,0,1.226-0.388,1.513-0.976l0.037-1.624C100.416,19.656,100.267,19.644,100.091,19.644"/>
	<path d="M105.804,17.344h-1.3v4.012c0,0.687,0.188,0.925,0.8,0.925c0.275,0,0.437-0.038,0.612-0.125l0.138,0.625
		c-0.313,0.162-0.663,0.249-1.1,0.249c-0.325,0-0.575-0.062-0.813-0.175c-0.438-0.212-0.6-0.612-0.6-1.237v-4.273h-0.813v-0.737
		h0.813c0-0.6,0.1-1.575,0.1-1.575l1.025-0.225c0,0-0.125,0.975-0.125,1.8h1.562L105.804,17.344z"/>
</g>
<g>
	<g>
		<path d="M158.863,20.72h-3.078v-6.174h0.738v5.553h2.439L158.863,20.72z"/>
		<path d="M163.027,20.891c-0.156-0.048-0.285-0.131-0.391-0.247c-0.105-0.117-0.178-0.254-0.221-0.41
			c-0.217,0.217-0.422,0.371-0.617,0.464c-0.193,0.093-0.42,0.14-0.678,0.14c-0.277,0-0.508-0.039-0.693-0.117
			c-0.188-0.078-0.336-0.177-0.445-0.297c-0.111-0.12-0.189-0.257-0.234-0.409c-0.045-0.153-0.068-0.305-0.068-0.455
			c0-0.51,0.207-0.906,0.621-1.188c0.414-0.282,1-0.424,1.756-0.424h0.135c0.047,0,0.107,0.004,0.18,0.01v-0.315
			c0-0.198-0.008-0.347-0.021-0.445c-0.016-0.099-0.057-0.185-0.123-0.257c-0.072-0.084-0.156-0.146-0.252-0.185
			s-0.213-0.059-0.35-0.059c-0.127,0-0.26,0.016-0.396,0.046c-0.139,0.029-0.271,0.07-0.4,0.121s-0.25,0.108-0.361,0.171
			c-0.109,0.063-0.201,0.128-0.273,0.193l-0.352-0.504c0.6-0.401,1.227-0.603,1.881-0.603c0.637,0,1.051,0.233,1.242,0.701
			c0.049,0.12,0.078,0.265,0.09,0.433s0.016,0.354,0.01,0.558l-0.037,1.477c-0.006,0.18-0.006,0.33,0,0.449
			c0.006,0.12,0.023,0.221,0.051,0.302s0.064,0.148,0.111,0.203c0.049,0.054,0.115,0.102,0.199,0.144L163.027,20.891z
			 M162.354,18.442c-0.049-0.006-0.107-0.01-0.176-0.013s-0.127-0.005-0.176-0.005c-0.281,0-0.521,0.024-0.721,0.072
			c-0.197,0.048-0.355,0.116-0.477,0.207c-0.119,0.09-0.207,0.202-0.26,0.337c-0.055,0.135-0.082,0.287-0.082,0.455
			c0,0.546,0.258,0.818,0.773,0.818c0.229,0,0.441-0.064,0.641-0.193c0.197-0.129,0.348-0.298,0.449-0.509L162.354,18.442z"/>
		<path d="M167.09,20.72v-3.033c0-0.12-0.004-0.219-0.01-0.297s-0.016-0.144-0.027-0.198c-0.012-0.054-0.029-0.1-0.049-0.14
			c-0.021-0.038-0.047-0.076-0.076-0.112c-0.109-0.126-0.273-0.188-0.496-0.188c-0.09,0-0.189,0.017-0.301,0.049
			c-0.111,0.033-0.223,0.078-0.334,0.136c-0.111,0.057-0.221,0.124-0.328,0.202s-0.201,0.159-0.279,0.243v3.339h-0.684v-3.456
			c0-0.288-0.023-0.51-0.072-0.666c-0.047-0.156-0.08-0.249-0.1-0.279l0.686-0.188c0.018,0.03,0.049,0.114,0.094,0.252
			s0.068,0.288,0.068,0.45c0.461-0.462,0.932-0.693,1.412-0.693c0.246,0,0.469,0.061,0.666,0.18c0.197,0.12,0.342,0.279,0.432,0.478
			c0.072,0.162,0.109,0.336,0.109,0.521v3.402H167.09z"/>
		<path d="M172.119,20.72c-0.014-0.023-0.031-0.081-0.055-0.171s-0.039-0.186-0.045-0.288c-0.162,0.186-0.334,0.319-0.518,0.4
			s-0.406,0.122-0.67,0.122c-0.582,0-1.033-0.198-1.352-0.595c-0.316-0.396-0.477-0.954-0.477-1.674c0-0.96,0.309-1.652,0.928-2.079
			c0.145-0.102,0.283-0.174,0.418-0.216s0.283-0.063,0.445-0.063c0.252,0,0.484,0.05,0.693,0.149
			c0.211,0.099,0.385,0.238,0.521,0.418c0-0.036,0-0.124-0.004-0.266c-0.004-0.141-0.004-0.283-0.004-0.428v-1.881l0.701,0.117
			v5.004c0,0.391,0.01,0.696,0.031,0.918c0.021,0.223,0.057,0.399,0.104,0.531H172.119z M171.992,17.201
			c-0.113-0.156-0.256-0.273-0.428-0.352c-0.17-0.078-0.391-0.117-0.66-0.117c-0.367,0-0.646,0.156-0.838,0.469
			c-0.107,0.174-0.184,0.354-0.225,0.54c-0.043,0.186-0.063,0.438-0.063,0.756c0,0.264,0.012,0.492,0.035,0.684
			c0.023,0.192,0.072,0.354,0.145,0.486c0.102,0.186,0.225,0.319,0.369,0.4c0.143,0.081,0.32,0.121,0.531,0.121
			c0.186,0,0.34-0.022,0.463-0.067s0.256-0.118,0.4-0.221c0.072-0.048,0.131-0.106,0.18-0.175c0.049-0.069,0.078-0.119,0.09-0.148
			V17.201z"/>
		<path d="M174.707,18.596v0.108c0,0.21,0.016,0.396,0.047,0.558c0.029,0.162,0.084,0.303,0.16,0.423
			c0.127,0.192,0.287,0.332,0.482,0.419s0.406,0.13,0.635,0.13c0.426,0,0.791-0.141,1.098-0.423l0.27,0.45
			c-0.197,0.18-0.428,0.318-0.688,0.414c-0.262,0.096-0.535,0.144-0.824,0.144c-0.623,0-1.111-0.211-1.463-0.634
			c-0.35-0.424-0.525-1.007-0.525-1.751c0-0.378,0.041-0.697,0.125-0.958c0.084-0.262,0.223-0.506,0.414-0.733
			c0.354-0.414,0.801-0.621,1.342-0.621c0.498,0,0.902,0.162,1.215,0.485c0.096,0.103,0.176,0.207,0.242,0.315
			c0.066,0.107,0.119,0.233,0.158,0.378c0.039,0.144,0.068,0.312,0.086,0.504s0.027,0.423,0.027,0.693v0.099H174.707z
			 M176.76,18.064c-0.006-0.246-0.025-0.446-0.059-0.603s-0.082-0.288-0.148-0.396c-0.078-0.12-0.189-0.216-0.332-0.288
			c-0.145-0.071-0.305-0.107-0.479-0.107c-0.652,0-0.998,0.465-1.035,1.395H176.76z"/>
		<path d="M181.68,19.388c0,0.216-0.039,0.414-0.121,0.594c-0.08,0.181-0.197,0.335-0.346,0.464c-0.15,0.129-0.33,0.229-0.537,0.302
			c-0.207,0.071-0.436,0.107-0.688,0.107c-0.289,0-0.578-0.04-0.869-0.121s-0.551-0.19-0.777-0.329l0.27-0.521
			c0.461,0.282,0.936,0.423,1.422,0.423c0.275,0,0.496-0.068,0.662-0.207c0.164-0.138,0.246-0.327,0.246-0.567
			c0-0.203-0.059-0.364-0.174-0.481c-0.117-0.116-0.305-0.202-0.563-0.256l-0.559-0.117c-0.373-0.078-0.654-0.225-0.846-0.441
			c-0.193-0.216-0.289-0.479-0.289-0.792c0-0.203,0.039-0.39,0.117-0.558s0.188-0.312,0.328-0.432s0.311-0.215,0.504-0.284
			c0.195-0.068,0.41-0.104,0.645-0.104s0.473,0.033,0.715,0.1c0.244,0.065,0.461,0.152,0.652,0.261l-0.26,0.521
			c-0.199-0.096-0.387-0.174-0.563-0.233c-0.178-0.06-0.365-0.09-0.563-0.09c-0.258,0-0.465,0.067-0.617,0.202
			s-0.23,0.313-0.23,0.535c0,0.175,0.049,0.314,0.145,0.419c0.096,0.105,0.264,0.182,0.504,0.229l0.594,0.126
			C181.281,18.305,181.68,18.722,181.68,19.388z"/>
		<path d="M185.947,20.891c-0.156-0.048-0.287-0.131-0.393-0.247c-0.104-0.117-0.178-0.254-0.219-0.41
			c-0.217,0.217-0.422,0.371-0.617,0.464s-0.422,0.14-0.68,0.14c-0.275,0-0.508-0.039-0.693-0.117s-0.334-0.177-0.445-0.297
			s-0.189-0.257-0.234-0.409c-0.045-0.153-0.066-0.305-0.066-0.455c0-0.51,0.207-0.906,0.621-1.188
			c0.414-0.282,0.998-0.424,1.754-0.424h0.135c0.049,0,0.109,0.004,0.182,0.01v-0.315c0-0.198-0.008-0.347-0.023-0.445
			s-0.055-0.185-0.121-0.257c-0.072-0.084-0.156-0.146-0.252-0.185s-0.213-0.059-0.352-0.059c-0.125,0-0.258,0.016-0.396,0.046
			c-0.137,0.029-0.271,0.07-0.4,0.121s-0.248,0.108-0.359,0.171c-0.111,0.063-0.203,0.128-0.275,0.193l-0.35-0.504
			c0.6-0.401,1.227-0.603,1.881-0.603c0.635,0,1.049,0.233,1.242,0.701c0.047,0.12,0.078,0.265,0.09,0.433s0.014,0.354,0.008,0.558
			l-0.035,1.477c-0.006,0.18-0.006,0.33,0,0.449c0.006,0.12,0.021,0.221,0.049,0.302s0.064,0.148,0.113,0.203
			c0.047,0.054,0.113,0.102,0.197,0.144L185.947,20.891z M185.271,18.442c-0.047-0.006-0.105-0.01-0.176-0.013
			c-0.068-0.003-0.127-0.005-0.174-0.005c-0.283,0-0.523,0.024-0.721,0.072s-0.357,0.116-0.477,0.207
			c-0.121,0.09-0.207,0.202-0.262,0.337s-0.08,0.287-0.08,0.455c0,0.546,0.258,0.818,0.773,0.818c0.229,0,0.441-0.064,0.639-0.193
			s0.348-0.298,0.449-0.509L185.271,18.442z"/>
		<path d="M192.299,20.72v-3.312c0-0.438-0.193-0.657-0.576-0.657c-0.205,0-0.395,0.062-0.572,0.185s-0.383,0.292-0.617,0.508v3.276
			h-0.711v-3.186c0-0.139-0.008-0.253-0.025-0.343c-0.02-0.09-0.053-0.168-0.1-0.233c-0.102-0.12-0.256-0.181-0.459-0.181
			c-0.174,0-0.35,0.047-0.527,0.14c-0.176,0.094-0.383,0.245-0.615,0.455v3.348h-0.676v-3.474c0-0.288-0.023-0.512-0.068-0.671
			s-0.076-0.253-0.094-0.283l0.684-0.162c0.018,0.036,0.051,0.121,0.096,0.256c0.045,0.136,0.066,0.272,0.066,0.41
			c0.072-0.084,0.16-0.167,0.262-0.248s0.211-0.152,0.328-0.216c0.117-0.063,0.236-0.113,0.359-0.152s0.242-0.059,0.355-0.059
			c0.223,0,0.432,0.064,0.627,0.193c0.193,0.129,0.334,0.313,0.418,0.554c0.215-0.229,0.453-0.41,0.711-0.545s0.5-0.202,0.729-0.202
			c0.336,0,0.607,0.112,0.814,0.337c0.207,0.226,0.311,0.518,0.311,0.878v3.384H192.299z"/>
		<path d="M196.17,16.769h-0.936v2.89c0,0.252,0.041,0.426,0.121,0.521c0.082,0.096,0.232,0.144,0.455,0.144
			c0.102,0,0.184-0.007,0.246-0.022c0.064-0.015,0.129-0.037,0.195-0.067l0.098,0.45c-0.229,0.12-0.492,0.18-0.791,0.18
			c-0.121,0-0.227-0.01-0.32-0.031c-0.094-0.021-0.182-0.053-0.266-0.095c-0.156-0.077-0.268-0.188-0.332-0.333
			c-0.066-0.144-0.1-0.329-0.1-0.558v-3.078h-0.586v-0.531h0.586c0-0.096,0.004-0.202,0.01-0.319s0.014-0.229,0.021-0.337
			c0.01-0.108,0.018-0.206,0.023-0.293s0.012-0.148,0.018-0.185l0.738-0.162c-0.006,0.036-0.014,0.1-0.023,0.189
			c-0.008,0.09-0.018,0.195-0.027,0.314c-0.008,0.12-0.018,0.249-0.025,0.388c-0.01,0.138-0.014,0.272-0.014,0.404h1.125
			L196.17,16.769z"/>
		<path d="M157.801,24.96c-0.084-0.048-0.186-0.095-0.305-0.14c-0.121-0.045-0.24-0.067-0.361-0.067
			c-0.408,0-0.611,0.264-0.611,0.792v0.692h1.242l-0.217,0.531h-1.025v3.951h-0.738v-3.951h-0.432v-0.531h0.432v-0.701
			c0-0.168,0.016-0.313,0.049-0.433s0.076-0.224,0.127-0.311s0.105-0.158,0.162-0.216c0.057-0.057,0.109-0.104,0.156-0.14
			c0.211-0.155,0.475-0.233,0.793-0.233c0.396,0,0.727,0.087,0.99,0.261L157.801,24.96z"/>
		<path d="M161.711,30.909c-0.15-0.12-0.262-0.232-0.334-0.338c-0.07-0.104-0.123-0.232-0.152-0.383
			c-0.342,0.456-0.816,0.685-1.422,0.685c-0.287,0-0.533-0.058-0.734-0.171c-0.199-0.114-0.35-0.271-0.445-0.469
			c-0.041-0.084-0.07-0.183-0.09-0.297c-0.018-0.113-0.027-0.236-0.027-0.369v-3.294l0.693-0.135v3.222
			c0,0.211,0.02,0.371,0.059,0.481c0.039,0.111,0.109,0.203,0.213,0.275c0.07,0.048,0.154,0.085,0.252,0.112
			c0.096,0.026,0.193,0.04,0.297,0.04c0.221,0,0.438-0.073,0.646-0.221c0.211-0.146,0.375-0.343,0.496-0.589v-3.177l0.693-0.117
			v3.267c0,0.282,0.021,0.494,0.066,0.635s0.125,0.263,0.238,0.364L161.711,30.909z M159.703,25.131
			c0,0.132-0.043,0.244-0.129,0.337c-0.088,0.094-0.197,0.14-0.33,0.14c-0.131,0-0.242-0.046-0.332-0.14
			c-0.09-0.093-0.135-0.205-0.135-0.337c0-0.126,0.045-0.234,0.135-0.324s0.197-0.135,0.324-0.135c0.131,0,0.242,0.045,0.332,0.135
			S159.703,25.005,159.703,25.131z M161.566,25.131c0,0.132-0.043,0.244-0.131,0.337c-0.086,0.094-0.195,0.14-0.328,0.14
			c-0.131,0-0.242-0.046-0.332-0.14c-0.09-0.093-0.135-0.205-0.135-0.337c0-0.126,0.045-0.234,0.135-0.324s0.197-0.135,0.324-0.135
			c0.131,0,0.242,0.045,0.332,0.135S161.566,25.005,161.566,25.131z"/>
		<path d="M165.234,26.913c-0.059-0.024-0.125-0.036-0.197-0.036c-0.281,0-0.531,0.107-0.746,0.324
			c-0.104,0.102-0.172,0.199-0.207,0.292c-0.037,0.093-0.055,0.232-0.055,0.419v2.808h-0.701v-3.456
			c0-0.294-0.023-0.519-0.068-0.675s-0.074-0.249-0.086-0.279l0.703-0.188c0.018,0.035,0.049,0.124,0.094,0.265
			c0.045,0.142,0.061,0.296,0.049,0.464c0.162-0.228,0.355-0.409,0.582-0.544c0.225-0.136,0.451-0.203,0.678-0.203
			c0.055,0,0.105,0.006,0.154,0.019c0.047,0.012,0.078,0.021,0.09,0.026L165.234,26.913z"/>
		<path d="M172.031,27.642c0,0.546-0.064,1.01-0.193,1.391c-0.131,0.381-0.299,0.686-0.51,0.913
			c-0.139,0.15-0.275,0.275-0.414,0.374s-0.283,0.179-0.436,0.238c-0.154,0.061-0.32,0.103-0.5,0.126
			c-0.18,0.024-0.379,0.036-0.594,0.036h-1.611v-6.174h1.232c0.234,0,0.441,0.004,0.621,0.014c0.18,0.009,0.346,0.029,0.496,0.063
			c0.148,0.033,0.293,0.081,0.432,0.145c0.139,0.063,0.281,0.148,0.432,0.256c0.354,0.252,0.617,0.601,0.787,1.044
			C171.945,26.511,172.031,27.036,172.031,27.642z M171.229,27.731c0-0.462-0.037-0.852-0.111-1.17
			c-0.076-0.317-0.215-0.6-0.418-0.846c-0.104-0.12-0.205-0.218-0.307-0.293c-0.102-0.074-0.211-0.132-0.328-0.171
			s-0.242-0.065-0.373-0.081c-0.133-0.015-0.279-0.022-0.441-0.022h-0.738v4.959h0.738c0.162,0,0.318-0.006,0.467-0.018
			c0.15-0.012,0.293-0.041,0.428-0.086s0.26-0.11,0.373-0.197c0.115-0.087,0.213-0.203,0.299-0.347
			c0.137-0.24,0.24-0.507,0.309-0.801C171.195,28.365,171.229,28.056,171.229,27.731z"/>
		<path d="M173.869,28.596v0.108c0,0.21,0.016,0.396,0.045,0.558s0.084,0.303,0.162,0.423c0.125,0.192,0.287,0.332,0.482,0.419
			c0.193,0.087,0.406,0.13,0.633,0.13c0.426,0,0.793-0.141,1.1-0.423l0.27,0.45c-0.199,0.18-0.428,0.318-0.689,0.414
			c-0.26,0.096-0.535,0.144-0.822,0.144c-0.625,0-1.111-0.211-1.463-0.634c-0.352-0.424-0.527-1.007-0.527-1.751
			c0-0.378,0.043-0.697,0.127-0.958c0.084-0.262,0.221-0.506,0.414-0.733c0.354-0.414,0.801-0.621,1.34-0.621
			c0.498,0,0.904,0.162,1.215,0.485c0.098,0.103,0.178,0.207,0.244,0.315c0.066,0.107,0.117,0.233,0.156,0.378
			c0.039,0.144,0.068,0.312,0.086,0.504s0.027,0.423,0.027,0.693v0.099H173.869z M175.922,28.064
			c-0.006-0.246-0.025-0.446-0.059-0.603s-0.084-0.288-0.148-0.396c-0.078-0.12-0.189-0.216-0.334-0.288
			c-0.145-0.071-0.303-0.107-0.477-0.107c-0.654,0-1,0.465-1.035,1.395H175.922z"/>
		<path d="M180.396,30.72v-3.033c0-0.12-0.004-0.219-0.01-0.297s-0.014-0.144-0.025-0.198c-0.014-0.054-0.029-0.1-0.051-0.14
			c-0.021-0.038-0.047-0.076-0.076-0.112c-0.107-0.126-0.273-0.188-0.494-0.188c-0.09,0-0.191,0.017-0.303,0.049
			c-0.111,0.033-0.221,0.078-0.332,0.136c-0.111,0.057-0.221,0.124-0.328,0.202c-0.109,0.078-0.201,0.159-0.279,0.243v3.339h-0.684
			v-3.456c0-0.288-0.025-0.51-0.072-0.666c-0.049-0.156-0.082-0.249-0.1-0.279l0.684-0.188c0.018,0.03,0.051,0.114,0.096,0.252
			s0.066,0.288,0.066,0.45c0.463-0.462,0.934-0.693,1.414-0.693c0.244,0,0.467,0.061,0.666,0.18c0.197,0.12,0.342,0.279,0.432,0.478
			c0.072,0.162,0.107,0.336,0.107,0.521v3.402H180.396z"/>
		<path d="M182.549,30.72v-5.526c0-0.264-0.018-0.475-0.051-0.634s-0.055-0.254-0.066-0.284l0.701-0.135
			c0.012,0.036,0.035,0.146,0.068,0.328c0.031,0.184,0.049,0.428,0.049,0.734v5.517H182.549z M185.338,30.72l-2.061-2.538
			l1.709-1.944h0.883l-1.764,1.944l2.168,2.538H185.338z"/>
		<path d="M191.996,30.72v-3.312c0-0.438-0.193-0.657-0.576-0.657c-0.205,0-0.395,0.062-0.572,0.185s-0.383,0.292-0.617,0.508v3.276
			h-0.711v-3.186c0-0.139-0.008-0.253-0.025-0.343c-0.02-0.09-0.053-0.168-0.1-0.233c-0.102-0.12-0.256-0.181-0.459-0.181
			c-0.174,0-0.35,0.047-0.527,0.14c-0.176,0.094-0.383,0.245-0.615,0.455v3.348h-0.676v-3.474c0-0.288-0.023-0.512-0.068-0.671
			s-0.076-0.253-0.094-0.283l0.684-0.162c0.018,0.036,0.051,0.121,0.096,0.256c0.045,0.136,0.066,0.272,0.066,0.41
			c0.072-0.084,0.16-0.167,0.262-0.248s0.211-0.152,0.328-0.216c0.117-0.063,0.236-0.113,0.359-0.152s0.242-0.059,0.355-0.059
			c0.223,0,0.432,0.064,0.627,0.193c0.193,0.129,0.334,0.313,0.418,0.554c0.215-0.229,0.453-0.41,0.711-0.545s0.5-0.202,0.729-0.202
			c0.336,0,0.607,0.112,0.814,0.337c0.207,0.226,0.311,0.518,0.311,0.878v3.384H191.996z"/>
		<path d="M197.197,30.891c-0.156-0.048-0.287-0.131-0.393-0.247c-0.104-0.117-0.178-0.254-0.219-0.41
			c-0.217,0.217-0.422,0.371-0.617,0.464s-0.422,0.14-0.68,0.14c-0.275,0-0.508-0.039-0.693-0.117s-0.334-0.177-0.445-0.297
			s-0.189-0.257-0.234-0.409c-0.045-0.153-0.066-0.305-0.066-0.455c0-0.51,0.207-0.906,0.621-1.188
			c0.414-0.282,0.998-0.424,1.754-0.424h0.135c0.049,0,0.109,0.004,0.182,0.01v-0.315c0-0.198-0.008-0.347-0.023-0.445
			s-0.055-0.185-0.121-0.257c-0.072-0.084-0.156-0.146-0.252-0.185s-0.213-0.059-0.352-0.059c-0.125,0-0.258,0.016-0.396,0.046
			c-0.137,0.029-0.271,0.07-0.4,0.121s-0.248,0.108-0.359,0.171c-0.111,0.063-0.203,0.128-0.275,0.193l-0.35-0.504
			c0.6-0.401,1.227-0.603,1.881-0.603c0.635,0,1.049,0.233,1.242,0.701c0.047,0.12,0.078,0.265,0.09,0.433s0.014,0.354,0.008,0.558
			l-0.035,1.477c-0.006,0.18-0.006,0.33,0,0.449c0.006,0.12,0.021,0.221,0.049,0.302s0.064,0.148,0.113,0.203
			c0.047,0.054,0.113,0.102,0.197,0.144L197.197,30.891z M196.521,28.442c-0.047-0.006-0.105-0.01-0.176-0.013
			c-0.068-0.003-0.127-0.005-0.174-0.005c-0.283,0-0.523,0.024-0.721,0.072s-0.357,0.116-0.477,0.207
			c-0.121,0.09-0.207,0.202-0.262,0.337s-0.08,0.287-0.08,0.455c0,0.546,0.258,0.818,0.773,0.818c0.229,0,0.441-0.064,0.639-0.193
			s0.348-0.298,0.449-0.509L196.521,28.442z"/>
		<path d="M199.861,30.711c-0.09,0.042-0.162,0.068-0.221,0.081c-0.057,0.012-0.133,0.018-0.229,0.018
			c-0.223,0-0.398-0.063-0.531-0.188c-0.072-0.066-0.125-0.148-0.162-0.248c-0.035-0.099-0.053-0.229-0.053-0.392v-4.752
			c0-0.264-0.016-0.476-0.047-0.634c-0.029-0.159-0.051-0.254-0.063-0.284l0.703-0.135c0.012,0.036,0.033,0.146,0.066,0.328
			c0.033,0.184,0.051,0.428,0.051,0.733v4.581c0,0.175,0.016,0.293,0.049,0.355c0.033,0.063,0.1,0.095,0.203,0.095
			c0.012,0,0.041-0.006,0.09-0.018L199.861,30.711z"/>
		<path d="M204.561,28.47c0,0.36-0.029,0.657-0.086,0.891c-0.057,0.234-0.148,0.453-0.275,0.657
			c-0.162,0.265-0.359,0.467-0.594,0.607c-0.234,0.142-0.498,0.212-0.791,0.212c-0.229,0-0.451-0.047-0.672-0.14
			c-0.219-0.093-0.406-0.221-0.563-0.383v2.143l-0.701,0.135V27.21c0-0.307-0.014-0.536-0.041-0.688
			c-0.027-0.153-0.047-0.245-0.059-0.274l0.721-0.126c0.006,0.018,0.016,0.081,0.027,0.188c0.012,0.108,0.018,0.273,0.018,0.495
			c0.371-0.438,0.813-0.657,1.322-0.657c0.229,0,0.449,0.049,0.662,0.145s0.393,0.233,0.535,0.414
			c0.168,0.21,0.293,0.456,0.373,0.737C204.52,27.726,204.561,28.067,204.561,28.47z M203.813,28.56c0-0.27-0.018-0.518-0.053-0.742
			c-0.037-0.226-0.088-0.406-0.154-0.545c-0.072-0.155-0.184-0.277-0.332-0.364c-0.15-0.087-0.316-0.131-0.496-0.131
			c-0.449,0-0.848,0.211-1.197,0.631v2.259c0.344,0.39,0.709,0.585,1.1,0.585c0.209,0,0.4-0.051,0.57-0.153
			c0.172-0.102,0.295-0.237,0.373-0.405c0.066-0.144,0.115-0.306,0.145-0.485C203.799,29.027,203.813,28.812,203.813,28.56z"/>
		<path d="M207.789,24.96c-0.084-0.048-0.188-0.095-0.307-0.14s-0.24-0.067-0.359-0.067c-0.408,0-0.613,0.264-0.613,0.792v0.692
			h1.242l-0.215,0.531h-1.027v3.951h-0.736v-3.951h-0.434v-0.531h0.434v-0.701c0-0.168,0.016-0.313,0.049-0.433
			s0.074-0.224,0.125-0.311s0.105-0.158,0.162-0.216c0.057-0.057,0.109-0.104,0.158-0.14c0.209-0.155,0.475-0.233,0.791-0.233
			c0.396,0,0.727,0.087,0.99,0.261L207.789,24.96z"/>
		<path d="M209.908,30.711c-0.09,0.042-0.164,0.068-0.221,0.081c-0.057,0.012-0.133,0.018-0.23,0.018
			c-0.221,0-0.398-0.063-0.529-0.188c-0.072-0.066-0.127-0.148-0.162-0.248c-0.037-0.099-0.055-0.229-0.055-0.392v-4.752
			c0-0.264-0.016-0.476-0.045-0.634c-0.029-0.159-0.051-0.254-0.063-0.284l0.701-0.135c0.012,0.036,0.035,0.146,0.068,0.328
			c0.033,0.184,0.049,0.428,0.049,0.733v4.581c0,0.175,0.016,0.293,0.049,0.355c0.033,0.063,0.102,0.095,0.203,0.095
			c0.012,0,0.043-0.006,0.09-0.018L209.908,30.711z"/>
		<path d="M211.451,28.596v0.108c0,0.21,0.016,0.396,0.045,0.558s0.084,0.303,0.162,0.423c0.125,0.192,0.287,0.332,0.482,0.419
			c0.193,0.087,0.406,0.13,0.633,0.13c0.426,0,0.793-0.141,1.1-0.423l0.27,0.45c-0.199,0.18-0.428,0.318-0.689,0.414
			c-0.26,0.096-0.535,0.144-0.822,0.144c-0.625,0-1.111-0.211-1.463-0.634c-0.352-0.424-0.527-1.007-0.527-1.751
			c0-0.378,0.043-0.697,0.127-0.958c0.084-0.262,0.221-0.506,0.414-0.733c0.354-0.414,0.801-0.621,1.34-0.621
			c0.498,0,0.904,0.162,1.215,0.485c0.098,0.103,0.178,0.207,0.244,0.315c0.066,0.107,0.117,0.233,0.156,0.378
			c0.039,0.144,0.068,0.312,0.086,0.504s0.027,0.423,0.027,0.693v0.099H211.451z M213.504,28.064
			c-0.006-0.246-0.025-0.446-0.059-0.603s-0.084-0.288-0.148-0.396c-0.078-0.12-0.189-0.216-0.334-0.288
			c-0.145-0.071-0.303-0.107-0.477-0.107c-0.654,0-1,0.465-1.035,1.395H213.504z"/>
		<path d="M219.24,26.634c-0.139,0.102-0.264,0.173-0.379,0.212c-0.113,0.039-0.24,0.058-0.377,0.058
			c-0.127,0-0.229-0.018-0.307-0.054c0.18,0.229,0.27,0.483,0.27,0.765c0,0.253-0.059,0.488-0.176,0.707s-0.279,0.395-0.49,0.526
			c-0.113,0.072-0.24,0.123-0.383,0.153c-0.141,0.03-0.291,0.045-0.453,0.045c-0.307,0.107-0.518,0.202-0.635,0.283
			s-0.176,0.161-0.176,0.238c0,0.145,0.119,0.217,0.359,0.217h0.721c0.264,0,0.475,0.018,0.635,0.054
			c0.158,0.036,0.307,0.102,0.445,0.198c0.174,0.12,0.299,0.259,0.377,0.418s0.117,0.335,0.117,0.526c0,0.486-0.16,0.843-0.48,1.071
			c-0.322,0.228-0.756,0.342-1.301,0.342c-0.354,0-0.654-0.03-0.9-0.09s-0.445-0.141-0.598-0.243
			c-0.154-0.102-0.266-0.222-0.338-0.359c-0.072-0.139-0.107-0.288-0.107-0.45c0-0.084,0.006-0.162,0.021-0.234
			s0.037-0.153,0.068-0.243l0.738-0.063c-0.031,0.048-0.059,0.109-0.086,0.185c-0.027,0.074-0.041,0.148-0.041,0.221
			c0,0.239,0.088,0.413,0.262,0.521c0.107,0.066,0.24,0.117,0.4,0.153c0.158,0.036,0.328,0.054,0.508,0.054
			c0.348,0,0.617-0.06,0.807-0.18c0.188-0.12,0.283-0.321,0.283-0.604c0-0.252-0.082-0.432-0.244-0.54
			c-0.084-0.06-0.195-0.102-0.338-0.126c-0.141-0.023-0.322-0.036-0.543-0.036h-0.172c-0.061,0-0.123,0.002-0.189,0.005
			c-0.064,0.003-0.129,0.005-0.188,0.005h-0.145c-0.27,0-0.479-0.058-0.625-0.172c-0.148-0.113-0.221-0.272-0.221-0.477
			c0-0.18,0.059-0.328,0.176-0.445c0.115-0.117,0.328-0.224,0.633-0.319c-0.305-0.097-0.549-0.262-0.732-0.495
			c-0.184-0.234-0.275-0.501-0.275-0.801c0-0.223,0.041-0.427,0.123-0.612c0.08-0.186,0.193-0.347,0.336-0.481
			c0.145-0.135,0.318-0.238,0.523-0.311c0.203-0.072,0.428-0.108,0.674-0.108c0.168,0,0.309,0.014,0.424,0.041
			c0.113,0.026,0.217,0.056,0.311,0.085c0.092,0.03,0.188,0.059,0.283,0.086c0.096,0.026,0.213,0.04,0.352,0.04
			c0.119,0,0.227-0.015,0.318-0.045c0.094-0.029,0.193-0.081,0.303-0.152L219.24,26.634z M217.629,27.624
			c0-0.307-0.063-0.532-0.189-0.68c-0.125-0.147-0.338-0.221-0.639-0.221c-0.564,0-0.846,0.31-0.846,0.927
			c0,0.288,0.072,0.509,0.215,0.662c0.145,0.152,0.361,0.229,0.648,0.229C217.359,28.542,217.629,28.235,217.629,27.624z"/>
		<path d="M220.492,28.596v0.108c0,0.21,0.016,0.396,0.045,0.558s0.084,0.303,0.162,0.423c0.125,0.192,0.287,0.332,0.482,0.419
			c0.193,0.087,0.406,0.13,0.633,0.13c0.426,0,0.793-0.141,1.1-0.423l0.27,0.45c-0.199,0.18-0.428,0.318-0.689,0.414
			c-0.26,0.096-0.535,0.144-0.822,0.144c-0.625,0-1.111-0.211-1.463-0.634c-0.352-0.424-0.527-1.007-0.527-1.751
			c0-0.378,0.043-0.697,0.127-0.958c0.084-0.262,0.221-0.506,0.414-0.733c0.354-0.414,0.801-0.621,1.34-0.621
			c0.498,0,0.904,0.162,1.215,0.485c0.098,0.103,0.178,0.207,0.244,0.315c0.066,0.107,0.117,0.233,0.156,0.378
			c0.039,0.144,0.068,0.312,0.086,0.504s0.027,0.423,0.027,0.693v0.099H220.492z M222.545,28.064
			c-0.006-0.246-0.025-0.446-0.059-0.603s-0.084-0.288-0.148-0.396c-0.078-0.12-0.189-0.216-0.334-0.288
			c-0.145-0.071-0.303-0.107-0.477-0.107c-0.654,0-1,0.465-1.035,1.395H222.545z"/>
		<path d="M158.943,40.909c-0.148-0.12-0.26-0.232-0.332-0.338c-0.072-0.104-0.123-0.232-0.152-0.383
			c-0.344,0.456-0.816,0.685-1.422,0.685c-0.289,0-0.533-0.058-0.734-0.171c-0.201-0.114-0.35-0.271-0.445-0.469
			c-0.043-0.084-0.072-0.183-0.09-0.297c-0.018-0.113-0.027-0.236-0.027-0.369v-3.294l0.693-0.135v3.222
			c0,0.211,0.02,0.371,0.059,0.481c0.039,0.111,0.109,0.203,0.211,0.275c0.072,0.048,0.156,0.085,0.252,0.112
			c0.096,0.026,0.195,0.04,0.297,0.04c0.223,0,0.438-0.073,0.648-0.221c0.209-0.146,0.375-0.343,0.494-0.589v-3.177l0.693-0.117
			v3.267c0,0.282,0.023,0.494,0.068,0.635s0.123,0.263,0.238,0.364L158.943,40.909z"/>
		<path d="M163.152,40.72v-3.033c0-0.12-0.004-0.219-0.01-0.297s-0.016-0.144-0.027-0.198c-0.012-0.054-0.029-0.1-0.049-0.14
			c-0.021-0.038-0.047-0.076-0.076-0.112c-0.109-0.126-0.273-0.188-0.496-0.188c-0.09,0-0.189,0.017-0.301,0.049
			c-0.111,0.033-0.223,0.078-0.334,0.136c-0.111,0.057-0.221,0.124-0.328,0.202s-0.201,0.159-0.279,0.243v3.339h-0.684v-3.456
			c0-0.288-0.023-0.51-0.072-0.666c-0.047-0.156-0.08-0.249-0.1-0.279l0.686-0.188c0.018,0.03,0.049,0.114,0.094,0.252
			s0.068,0.288,0.068,0.45c0.461-0.462,0.932-0.693,1.412-0.693c0.246,0,0.469,0.061,0.666,0.18c0.197,0.12,0.342,0.279,0.432,0.478
			c0.072,0.162,0.109,0.336,0.109,0.521v3.402H163.152z"/>
		<path d="M168.182,40.72c-0.014-0.023-0.031-0.081-0.055-0.171s-0.039-0.186-0.045-0.288c-0.162,0.186-0.334,0.319-0.518,0.4
			s-0.406,0.122-0.67,0.122c-0.582,0-1.033-0.198-1.352-0.595c-0.316-0.396-0.477-0.954-0.477-1.674c0-0.96,0.309-1.652,0.928-2.079
			c0.145-0.102,0.283-0.174,0.418-0.216s0.283-0.063,0.445-0.063c0.252,0,0.484,0.05,0.693,0.149
			c0.211,0.099,0.385,0.238,0.521,0.418c0-0.036,0-0.124-0.004-0.266c-0.004-0.141-0.004-0.283-0.004-0.428v-1.881l0.701,0.117
			v5.004c0,0.391,0.01,0.696,0.031,0.918c0.021,0.223,0.057,0.399,0.104,0.531H168.182z M168.055,37.201
			c-0.113-0.156-0.256-0.273-0.428-0.352c-0.17-0.078-0.391-0.117-0.66-0.117c-0.367,0-0.646,0.156-0.838,0.469
			c-0.107,0.174-0.184,0.354-0.225,0.54c-0.043,0.186-0.063,0.438-0.063,0.756c0,0.264,0.012,0.492,0.035,0.684
			c0.023,0.192,0.072,0.354,0.145,0.486c0.102,0.186,0.225,0.319,0.369,0.4c0.143,0.081,0.32,0.121,0.531,0.121
			c0.186,0,0.34-0.022,0.463-0.067s0.256-0.118,0.4-0.221c0.072-0.048,0.131-0.106,0.18-0.175c0.049-0.069,0.078-0.119,0.09-0.148
			V37.201z"/>
		<path d="M175.471,40.72l-0.584-1.899h-2.305l-0.594,1.899h-0.748l2.063-6.174h0.963l2.043,6.174H175.471z M173.752,35.193
			l-0.973,3.024h1.918L173.752,35.193z"/>
		<path d="M179.105,36.913c-0.061-0.024-0.127-0.036-0.197-0.036c-0.283,0-0.531,0.107-0.748,0.324
			c-0.102,0.102-0.17,0.199-0.207,0.292c-0.035,0.093-0.055,0.232-0.055,0.419v2.808h-0.701v-3.456c0-0.294-0.023-0.519-0.068-0.675
			s-0.072-0.249-0.084-0.279l0.701-0.188c0.018,0.035,0.049,0.124,0.094,0.265c0.047,0.142,0.063,0.296,0.051,0.464
			c0.162-0.228,0.355-0.409,0.58-0.544c0.225-0.136,0.451-0.203,0.68-0.203c0.055,0,0.105,0.006,0.152,0.019
			c0.049,0.012,0.078,0.021,0.09,0.026L179.105,36.913z"/>
		<path d="M182.932,40.225c-0.211,0.21-0.42,0.361-0.631,0.455c-0.209,0.093-0.455,0.139-0.736,0.139
			c-0.643,0-1.119-0.225-1.432-0.675c-0.15-0.216-0.26-0.451-0.328-0.706c-0.07-0.255-0.104-0.551-0.104-0.887
			c0-0.492,0.064-0.885,0.193-1.179s0.289-0.537,0.48-0.729c0.348-0.348,0.754-0.521,1.215-0.521c0.283,0,0.518,0.048,0.703,0.144
			s0.359,0.21,0.521,0.342l-0.387,0.486c-0.156-0.132-0.295-0.225-0.414-0.279c-0.119-0.054-0.268-0.081-0.441-0.081
			s-0.338,0.045-0.49,0.136c-0.152,0.09-0.271,0.213-0.355,0.368c-0.168,0.313-0.252,0.802-0.252,1.468
			c0,0.51,0.094,0.896,0.283,1.16c0.189,0.265,0.465,0.396,0.824,0.396c0.371,0,0.693-0.162,0.963-0.486L182.932,40.225z"/>
		<path d="M186.666,40.72v-3.096c0-0.168-0.012-0.305-0.035-0.41c-0.023-0.104-0.068-0.19-0.135-0.256
			c-0.055-0.055-0.127-0.098-0.217-0.131s-0.191-0.05-0.305-0.05c-0.217,0-0.439,0.066-0.672,0.198
			c-0.23,0.132-0.441,0.318-0.635,0.559v3.186h-0.701v-5.526c0-0.264-0.016-0.475-0.049-0.634s-0.057-0.254-0.068-0.284l0.703-0.135
			c0.012,0.036,0.033,0.146,0.066,0.328c0.033,0.184,0.049,0.428,0.049,0.734v1.044c0,0.126-0.002,0.252-0.008,0.378
			s-0.012,0.204-0.018,0.233c0.203-0.191,0.432-0.358,0.684-0.499s0.521-0.212,0.811-0.212c0.27,0,0.512,0.066,0.729,0.198
			c0.215,0.132,0.357,0.303,0.422,0.513c0.031,0.09,0.051,0.181,0.059,0.271c0.01,0.09,0.014,0.216,0.014,0.378v3.213H186.666z"/>
		<path d="M191.848,40.891c-0.156-0.048-0.287-0.131-0.393-0.247c-0.104-0.117-0.178-0.254-0.219-0.41
			c-0.217,0.217-0.422,0.371-0.617,0.464s-0.422,0.14-0.68,0.14c-0.275,0-0.508-0.039-0.693-0.117s-0.334-0.177-0.445-0.297
			s-0.189-0.257-0.234-0.409c-0.045-0.153-0.066-0.305-0.066-0.455c0-0.51,0.207-0.906,0.621-1.188
			c0.414-0.282,0.998-0.424,1.754-0.424h0.135c0.049,0,0.109,0.004,0.182,0.01v-0.315c0-0.198-0.008-0.347-0.023-0.445
			s-0.055-0.185-0.121-0.257c-0.072-0.084-0.156-0.146-0.252-0.185s-0.213-0.059-0.352-0.059c-0.125,0-0.258,0.016-0.396,0.046
			c-0.137,0.029-0.271,0.07-0.4,0.121s-0.248,0.108-0.359,0.171c-0.111,0.063-0.203,0.128-0.275,0.193l-0.35-0.504
			c0.6-0.401,1.227-0.603,1.881-0.603c0.635,0,1.049,0.233,1.242,0.701c0.047,0.12,0.078,0.265,0.09,0.433s0.014,0.354,0.008,0.558
			l-0.035,1.477c-0.006,0.18-0.006,0.33,0,0.449c0.006,0.12,0.021,0.221,0.049,0.302s0.064,0.148,0.113,0.203
			c0.047,0.054,0.113,0.102,0.197,0.144L191.848,40.891z M189.949,35.131c0,0.132-0.045,0.244-0.131,0.337
			c-0.088,0.094-0.197,0.14-0.328,0.14c-0.133,0-0.244-0.046-0.334-0.14c-0.09-0.093-0.135-0.205-0.135-0.337
			c0-0.126,0.045-0.234,0.135-0.324s0.197-0.135,0.324-0.135c0.133,0,0.242,0.045,0.332,0.135
			C189.904,34.896,189.949,35.005,189.949,35.131z M191.172,38.442c-0.047-0.006-0.105-0.01-0.176-0.013
			c-0.068-0.003-0.127-0.005-0.174-0.005c-0.283,0-0.523,0.024-0.721,0.072s-0.357,0.116-0.477,0.207
			c-0.121,0.09-0.207,0.202-0.262,0.337s-0.08,0.287-0.08,0.455c0,0.546,0.258,0.818,0.773,0.818c0.229,0,0.441-0.064,0.639-0.193
			s0.348-0.298,0.449-0.509L191.172,38.442z M191.811,35.131c0,0.132-0.043,0.244-0.129,0.337c-0.088,0.094-0.197,0.14-0.33,0.14
			c-0.131,0-0.242-0.046-0.332-0.14c-0.09-0.093-0.135-0.205-0.135-0.337c0-0.126,0.045-0.234,0.135-0.324s0.197-0.135,0.324-0.135
			c0.131,0,0.242,0.045,0.332,0.135S191.811,35.005,191.811,35.131z"/>
		<path d="M196.898,38.551c0,0.372-0.049,0.7-0.145,0.985s-0.229,0.523-0.4,0.716c-0.17,0.191-0.373,0.337-0.607,0.437
			c-0.234,0.099-0.492,0.148-0.773,0.148c-0.617,0-1.096-0.213-1.432-0.64c-0.336-0.426-0.504-1.008-0.504-1.745
			c0-0.732,0.17-1.307,0.51-1.724c0.338-0.417,0.805-0.626,1.398-0.626c0.379,0,0.689,0.075,0.936,0.226
			c0.246,0.149,0.447,0.336,0.604,0.558c0.139,0.204,0.242,0.441,0.311,0.711C196.863,37.867,196.898,38.185,196.898,38.551z
			 M196.098,38.604c0-0.617-0.068-1.067-0.207-1.35c-0.096-0.198-0.232-0.344-0.41-0.437c-0.176-0.093-0.357-0.14-0.543-0.14
			c-0.199,0-0.383,0.044-0.551,0.131s-0.291,0.205-0.367,0.355c-0.072,0.138-0.127,0.3-0.162,0.485
			c-0.037,0.187-0.055,0.414-0.055,0.685c0,0.317,0.025,0.607,0.076,0.868s0.119,0.461,0.203,0.599s0.207,0.247,0.373,0.328
			c0.164,0.081,0.344,0.122,0.535,0.122c0.234,0,0.436-0.059,0.604-0.176s0.291-0.283,0.369-0.499
			c0.047-0.139,0.082-0.279,0.104-0.424C196.088,39.01,196.098,38.827,196.098,38.604z"/>
		<path d="M199.268,40.711c-0.09,0.042-0.162,0.068-0.221,0.081c-0.057,0.012-0.133,0.018-0.229,0.018
			c-0.223,0-0.398-0.063-0.531-0.188c-0.072-0.066-0.125-0.148-0.162-0.248c-0.035-0.099-0.053-0.229-0.053-0.392v-4.752
			c0-0.264-0.016-0.476-0.047-0.634c-0.029-0.159-0.051-0.254-0.063-0.284l0.703-0.135c0.012,0.036,0.033,0.146,0.066,0.328
			c0.033,0.184,0.051,0.428,0.051,0.733v4.581c0,0.175,0.016,0.293,0.049,0.355c0.033,0.063,0.1,0.095,0.203,0.095
			c0.012,0,0.041-0.006,0.09-0.018L199.268,40.711z"/>
		<path d="M203.84,38.551c0,0.372-0.049,0.7-0.145,0.985s-0.229,0.523-0.4,0.716c-0.17,0.191-0.373,0.337-0.607,0.437
			c-0.234,0.099-0.492,0.148-0.773,0.148c-0.617,0-1.096-0.213-1.432-0.64c-0.336-0.426-0.504-1.008-0.504-1.745
			c0-0.732,0.17-1.307,0.51-1.724c0.338-0.417,0.805-0.626,1.398-0.626c0.379,0,0.689,0.075,0.936,0.226
			c0.246,0.149,0.447,0.336,0.604,0.558c0.139,0.204,0.242,0.441,0.311,0.711C203.805,37.867,203.84,38.185,203.84,38.551z
			 M203.039,38.604c0-0.617-0.068-1.067-0.207-1.35c-0.096-0.198-0.232-0.344-0.41-0.437c-0.176-0.093-0.357-0.14-0.543-0.14
			c-0.199,0-0.383,0.044-0.551,0.131s-0.291,0.205-0.367,0.355c-0.072,0.138-0.127,0.3-0.162,0.485
			c-0.037,0.187-0.055,0.414-0.055,0.685c0,0.317,0.025,0.607,0.076,0.868s0.119,0.461,0.203,0.599s0.207,0.247,0.373,0.328
			c0.164,0.081,0.344,0.122,0.535,0.122c0.234,0,0.436-0.059,0.604-0.176s0.291-0.283,0.369-0.499
			c0.047-0.139,0.082-0.279,0.104-0.424C203.029,39.01,203.039,38.827,203.039,38.604z"/>
		<path d="M208.842,36.634c-0.139,0.102-0.264,0.173-0.379,0.212c-0.113,0.039-0.24,0.058-0.377,0.058
			c-0.127,0-0.229-0.018-0.307-0.054c0.18,0.229,0.27,0.483,0.27,0.765c0,0.253-0.059,0.488-0.176,0.707s-0.279,0.395-0.49,0.526
			c-0.113,0.072-0.24,0.123-0.383,0.153c-0.141,0.03-0.291,0.045-0.453,0.045c-0.307,0.107-0.518,0.202-0.635,0.283
			s-0.176,0.161-0.176,0.238c0,0.145,0.119,0.217,0.359,0.217h0.721c0.264,0,0.475,0.018,0.635,0.054
			c0.158,0.036,0.307,0.102,0.445,0.198c0.174,0.12,0.299,0.259,0.377,0.418s0.117,0.335,0.117,0.526c0,0.486-0.16,0.843-0.48,1.071
			c-0.322,0.228-0.756,0.342-1.301,0.342c-0.354,0-0.654-0.03-0.9-0.09s-0.445-0.141-0.598-0.243
			c-0.154-0.102-0.266-0.222-0.338-0.359c-0.072-0.139-0.107-0.288-0.107-0.45c0-0.084,0.006-0.162,0.021-0.234
			s0.037-0.153,0.068-0.243l0.738-0.063c-0.031,0.048-0.059,0.109-0.086,0.185c-0.027,0.074-0.041,0.148-0.041,0.221
			c0,0.239,0.088,0.413,0.262,0.521c0.107,0.066,0.24,0.117,0.4,0.153c0.158,0.036,0.328,0.054,0.508,0.054
			c0.348,0,0.617-0.06,0.807-0.18c0.188-0.12,0.283-0.321,0.283-0.604c0-0.252-0.082-0.432-0.244-0.54
			c-0.084-0.06-0.195-0.102-0.338-0.126c-0.141-0.023-0.322-0.036-0.543-0.036h-0.172c-0.061,0-0.123,0.002-0.189,0.005
			c-0.064,0.003-0.129,0.005-0.188,0.005h-0.145c-0.27,0-0.479-0.058-0.625-0.172c-0.148-0.113-0.221-0.272-0.221-0.477
			c0-0.18,0.059-0.328,0.176-0.445c0.115-0.117,0.328-0.224,0.633-0.319c-0.305-0.097-0.549-0.262-0.732-0.495
			c-0.184-0.234-0.275-0.501-0.275-0.801c0-0.223,0.041-0.427,0.123-0.612c0.08-0.186,0.193-0.347,0.336-0.481
			c0.145-0.135,0.318-0.238,0.523-0.311c0.203-0.072,0.428-0.108,0.674-0.108c0.168,0,0.309,0.014,0.424,0.041
			c0.113,0.026,0.217,0.056,0.311,0.085c0.092,0.03,0.188,0.059,0.283,0.086c0.096,0.026,0.213,0.04,0.352,0.04
			c0.119,0,0.227-0.015,0.318-0.045c0.094-0.029,0.193-0.081,0.303-0.152L208.842,36.634z M207.23,37.624
			c0-0.307-0.063-0.532-0.189-0.68c-0.125-0.147-0.338-0.221-0.639-0.221c-0.564,0-0.846,0.31-0.846,0.927
			c0,0.288,0.072,0.509,0.215,0.662c0.145,0.152,0.361,0.229,0.648,0.229C206.961,38.542,207.23,38.235,207.23,37.624z"/>
		<path d="M210.588,34.852c0,0.156-0.053,0.287-0.158,0.392c-0.105,0.105-0.236,0.157-0.391,0.157c-0.156,0-0.287-0.052-0.393-0.157
			c-0.105-0.104-0.158-0.232-0.158-0.383c0-0.155,0.053-0.288,0.158-0.396c0.105-0.108,0.236-0.162,0.393-0.162
			c0.154,0,0.285,0.053,0.391,0.157C210.535,34.565,210.588,34.695,210.588,34.852z M209.66,40.72v-4.464l0.729-0.117v4.581H209.66z
			"/>
		<path d="M212.387,38.596v0.108c0,0.21,0.016,0.396,0.047,0.558c0.029,0.162,0.084,0.303,0.16,0.423
			c0.127,0.192,0.287,0.332,0.482,0.419s0.406,0.13,0.635,0.13c0.426,0,0.791-0.141,1.098-0.423l0.27,0.45
			c-0.197,0.18-0.428,0.318-0.688,0.414c-0.262,0.096-0.535,0.144-0.824,0.144c-0.623,0-1.111-0.211-1.463-0.634
			c-0.35-0.424-0.525-1.007-0.525-1.751c0-0.378,0.041-0.697,0.125-0.958c0.084-0.262,0.223-0.506,0.414-0.733
			c0.354-0.414,0.801-0.621,1.342-0.621c0.498,0,0.902,0.162,1.215,0.485c0.096,0.103,0.176,0.207,0.242,0.315
			c0.066,0.107,0.119,0.233,0.158,0.378c0.039,0.144,0.068,0.312,0.086,0.504s0.027,0.423,0.027,0.693v0.099H212.387z
			 M214.439,38.064c-0.006-0.246-0.025-0.446-0.059-0.603s-0.082-0.288-0.148-0.396c-0.078-0.12-0.189-0.216-0.332-0.288
			c-0.145-0.071-0.305-0.107-0.479-0.107c-0.652,0-0.998,0.465-1.035,1.395H214.439z"/>
	</g>
</g>
<g>
	<path fill="#0089C1" d="M139.909,38.733c0.806-1.829,0.886-3.482,0.952-5.424V14.571h-27.555v18.743
		c0.063,1.938,0.146,3.592,0.95,5.42c2.38,5.4,7.13,8.132,12.819,8.059C132.765,46.865,137.529,44.133,139.909,38.733
		L139.909,38.733z"/>
	<path d="M139.909,38.733c0.806-1.829,0.886-3.482,0.952-5.424V14.571h-27.555v18.743c0.063,1.938,0.146,3.592,0.95,5.42
		c2.38,5.4,7.13,8.132,12.819,8.059C132.765,46.865,137.529,44.133,139.909,38.733L139.909,38.733z M140.27,38.892
		c-2.446,5.558-7.358,8.371-13.19,8.297c-5.838,0.074-10.736-2.738-13.185-8.297c-0.829-1.88-0.919-3.574-0.984-5.57V14.174h28.346
		v19.147C141.189,35.317,141.102,37.012,140.27,38.892L140.27,38.892z"/>
	<path d="M135.831,18.421l-0.576-1.017l0.576-1.017h-1.151l-0.577-1.016l-0.577,1.016h-1.153l0.576,1.017l-0.576,1.017h1.153
		l0.577,1.017l0.577-1.017H135.831L135.831,18.421z M136.044,18.546h-1.294l-0.647,1.141l-0.65-1.141h-1.293l0.646-1.142
		l-0.646-1.141h1.293l0.65-1.142l0.647,1.142h1.294l-0.647,1.141L136.044,18.546L136.044,18.546z"/>
	<polygon fill="#EDEDED" points="135.831,18.421 134.68,18.421 134.103,19.438 133.525,18.421 132.372,18.421 132.948,17.405 
		132.372,16.388 133.525,16.388 134.103,15.373 134.68,16.388 135.831,16.388 135.255,17.405 135.831,18.421 	"/>
	<path d="M139.752,24.288l-0.578-1.018l0.578-1.016h-1.155l-0.575-1.017l-0.576,1.017h-1.155l0.578,1.016l-0.578,1.018h1.155
		l0.576,1.016l0.575-1.016H139.752L139.752,24.288z M139.964,24.41h-1.296l-0.646,1.141l-0.646-1.141h-1.295l0.647-1.14
		l-0.647-1.141h1.295l0.646-1.141l0.646,1.141h1.296l-0.647,1.141L139.964,24.41L139.964,24.41z"/>
	<polygon fill="#EDEDED" points="139.752,24.288 138.597,24.288 138.021,25.303 137.445,24.288 136.29,24.288 136.868,23.27 
		136.29,22.254 137.445,22.254 138.021,21.238 138.597,22.254 139.752,22.254 139.174,23.27 139.752,24.288 	"/>
	<path d="M135.56,30.059l-0.575-1.018l0.575-1.016h-1.151l-0.577-1.013l-0.576,1.013h-1.152l0.574,1.016l-0.574,1.018h1.152
		l0.576,1.016l0.577-1.016H135.56L135.56,30.059z M135.772,30.184h-1.295l-0.646,1.141l-0.647-1.141h-1.295l0.647-1.143l-0.647-1.14
		h1.295l0.647-1.139l0.646,1.139h1.295l-0.646,1.14L135.772,30.184L135.772,30.184z"/>
	<polygon fill="#EDEDED" points="135.56,30.059 134.408,30.059 133.831,31.074 133.255,30.059 132.103,30.059 132.677,29.041 
		132.103,28.025 133.255,28.025 133.831,27.012 134.408,28.025 135.56,28.025 134.984,29.041 135.56,30.059 	"/>
	<path d="M139.61,36.175l-0.577-1.016l0.577-1.018h-1.155l-0.575-1.016l-0.578,1.016h-1.154l0.576,1.018l-0.576,1.016h1.154
		l0.578,1.017l0.575-1.017H139.61L139.61,36.175z M139.821,36.3h-1.295l-0.648,1.139l-0.646-1.139h-1.294l0.647-1.141l-0.647-1.143
		h1.294l0.646-1.141l0.648,1.141h1.295l-0.647,1.143L139.821,36.3L139.821,36.3z"/>
	<polygon fill="#EDEDED" points="139.61,36.175 138.455,36.175 137.88,37.191 137.302,36.175 136.147,36.175 136.724,35.159 
		136.147,34.142 137.302,34.142 137.88,33.126 138.455,34.142 139.61,34.142 139.033,35.159 139.61,36.175 	"/>
	<path d="M128.487,44.747l-0.577-1.018l0.577-1.016h-1.153l-0.576-1.018l-0.578,1.018h-1.151l0.576,1.016l-0.576,1.018h1.151
		l0.578,1.016l0.576-1.016H128.487L128.487,44.747z M128.7,44.872h-1.296l-0.646,1.14l-0.649-1.14h-1.293l0.646-1.143l-0.646-1.138
		h1.293l0.649-1.142l0.646,1.142h1.296l-0.649,1.138L128.7,44.872L128.7,44.872z"/>
	<polygon fill="#EDEDED" points="128.487,44.747 127.334,44.747 126.758,45.763 126.18,44.747 125.028,44.747 125.604,43.729 
		125.028,42.714 126.18,42.714 126.758,41.696 127.334,42.714 128.487,42.714 127.91,43.729 128.487,44.747 	"/>
	<path d="M118.819,38.167l-0.577-1.016l0.577-1.015h-1.152l-0.579-1.016l-0.576,1.016h-1.154l0.578,1.015l-0.578,1.016h1.154
		l0.576,1.017l0.579-1.017H118.819L118.819,38.167z M119.032,38.292h-1.298l-0.646,1.142l-0.645-1.142h-1.298l0.649-1.141
		l-0.649-1.14h1.298l0.645-1.141l0.646,1.141h1.298l-0.649,1.14L119.032,38.292L119.032,38.292z"/>
	<polygon fill="#EDEDED" points="118.819,38.167 117.667,38.167 117.087,39.184 116.511,38.167 115.357,38.167 115.935,37.151 
		115.357,36.137 116.511,36.137 117.087,35.121 117.667,36.137 118.819,36.137 118.242,37.151 118.819,38.167 	"/>
	<path d="M117.612,28.321l-0.576-1.015l0.576-1.015h-1.154l-0.576-1.018l-0.575,1.018h-1.154l0.576,1.015l-0.576,1.015h1.154
		l0.575,1.017l0.576-1.017H117.612L117.612,28.321z M117.825,28.445h-1.297l-0.646,1.143l-0.648-1.143h-1.294l0.647-1.139
		l-0.647-1.14h1.294l0.648-1.141l0.646,1.141h1.297l-0.646,1.14L117.825,28.445L117.825,28.445z"/>
	<polygon fill="#EDEDED" points="117.612,28.321 116.458,28.321 115.881,29.338 115.306,28.321 114.152,28.321 114.728,27.306 
		114.152,26.292 115.306,26.292 115.881,25.274 116.458,26.292 117.612,26.292 117.036,27.306 117.612,28.321 	"/>
	<path d="M122.16,18.322l-0.577-1.018l0.577-1.017h-1.155l-0.576-1.017l-0.575,1.017h-1.153l0.577,1.017l-0.577,1.018h1.153
		l0.575,1.016l0.576-1.016H122.16L122.16,18.322z M122.373,18.446h-1.295l-0.649,1.141l-0.646-1.141h-1.294l0.646-1.142
		l-0.646-1.141h1.294l0.646-1.141l0.649,1.141h1.295l-0.649,1.141L122.373,18.446L122.373,18.446z"/>
	<polygon fill="#EDEDED" points="122.16,18.322 121.005,18.322 120.429,19.337 119.854,18.322 118.701,18.322 119.278,17.304 
		118.701,16.288 119.854,16.288 120.429,15.271 121.005,16.288 122.16,16.288 121.583,17.304 122.16,18.322 	"/>
	<path fill="#E53517" d="M131.146,20.772h-4.341c0.016-0.029,0.029-0.063,0.044-0.097c0.077-0.19,0.089-0.37,0.055-0.608
		c-0.049-0.347-0.188-0.54-0.65-0.563c-0.582-0.025-1.007,0.418-1.54,0.292c-0.564-0.137-0.492-0.717-0.46-0.938
		c0.018-0.117,0.066-0.208,0.126-0.293c0,0-0.041-0.023-0.057-0.032c-0.085-0.05-0.076-0.157-0.044-0.283
		c0.08-0.204,0.275-0.246,0.485-0.359c0.166-0.091,0.485-0.145,0.807-0.433h4.517c0,0,1.038-0.228,1.191,0.06
		c0.08,0.262,0.177,0.878-0.499,1.77C131.109,19.612,131.164,20.053,131.146,20.772L131.146,20.772z"/>
	<path fill="#EDEDED" d="M120.031,24.075c-0.065-0.287-0.04-0.563,0.047-0.874c1.313,0.454,1.847-0.126,2.258-0.313
		c0.541-0.246,1.31-0.146,1.779,0.041c1.427,0.567,2.02,0.176,2.13-0.246c0.084-0.323-0.069-0.842-1.334-0.72
		c-0.165,0-0.247-0.013-0.328-0.117c-0.08-0.1-0.15-0.45-0.138-0.678c0.029-0.102,0.068-0.105,0.116-0.164
		c0.658-0.212,1.025-0.139,1.54,0.083c0.344,0.146,0.541,0.024,0.703-0.315h4.341l-0.004,0.103c-0.092,0.88,0.354,1.397,0.354,1.397
		c-0.218,0.012-0.424-0.026-0.615-0.221c0.165,0.795,0.191,1.329,0.041,1.958l-0.008,0.065H120.031L120.031,24.075z"/>
	<path fill-rule="evenodd" clip-rule="evenodd" fill="#EDEDED" d="M130.899,27.18c-0.003,0.045-0.011,0.087-0.019,0.133
		c-0.089,0.515,0,1.107,0.302,1.75c-0.507-0.191-1.074-0.2-1.356-0.162c-0.658,0.082-1.15-0.043-1.588-0.551
		c-0.074,0.563-0.476,0.813-1.218,0.934c-0.507,0.079-0.863,0.204-1.208,0.601c-0.093-0.726-0.626-0.63-0.766-1.188
		c-0.339,0.242-0.887,0.459-2.136,0.066c-0.74-0.232-1.3-0.179-1.847,0.096c0.284-0.933,0.724-1.082,0.875-1.669l-0.033,0.008
		l0.033-0.016H130.899L130.899,27.18z"/>
	<path fill="#E53517" d="M125.988,30.791h5.624c0.891,0.993,2.01,1.618,3.223,1.393c0.82-0.154,1.511-0.701,1.916-1.393h1.329
		c-0.292,0.759-0.782,1.339-1.503,1.968c-0.838,0.612-2.025,0.945-2.997,0.658c0.042,0.341-0.003,0.625-0.095,0.867h-13.752
		c-0.014-0.088-0.025-0.172-0.033-0.264c1.371,0.5,2.015-0.453,3.004-1.38c0.926-0.865,1.828-1.174,2.747-1.153
		c0.624,0.014,1.637,0.226,1.912,0.425C127.01,31.517,126.504,31.121,125.988,30.791L125.988,30.791z"/>
	<path fill="#EDEDED" d="M133.485,34.284c-0.081,0.206-0.195,0.379-0.316,0.529c-0.768,1.287,0.191,2.357,1.19,2.604
		c0.175,0.025,0.388,0.055,0.612,0.075h-6.73c0.118-0.4,0.037-0.851-0.346-1.458c-0.316-0.504-0.274-1.221-0.274-1.221
		c-0.371-0.109-0.979-0.23-1.588,0.111c-1.324,0.738-1.06,2.23-0.424,2.567h-3.505c0.044-0.241,0.062-0.458,0.036-0.616
		c-0.043-0.264-0.521-0.521-0.724-1.121c-0.787,0.162-1.497-0.384-1.684-1.471H133.485L133.485,34.284z"/>
	<path fill="#E53517" d="M128.241,37.492h6.73c0.616,0.054,1.326,0.038,1.646-0.296c0.029,0.438-0.016,0.82-0.617,1.166
		c0.562,0.555,0.617,0.944,0.55,1.45c-0.452-0.383-0.85-0.346-1.37-0.108c0.337,0.536,0.396,0.754,0.342,1.411
		c-0.35-0.319-0.688-0.356-0.887-0.218h-2.768c0.024-0.135,0.029-0.286,0.012-0.455c0.025-1-0.28-1.53-0.575-1.684
		c-0.287-0.15-1.096-0.342-1.232-0.988c-0.136,0.892-1.314,1.222-2.066,0.18C128.112,37.8,128.191,37.65,128.241,37.492
		L128.241,37.492z"/>
	<path fill="#EDEDED" d="M134.636,40.897c-0.051,0.037-0.092,0.082-0.122,0.137c-0.183,0.327,0.147,0.423-0.224,0.805
		c-0.368,0.086-0.706,0.578-0.492,0.919c0.191,0.301,0.028,0.533-0.383,0.275c0.137,0.396,0.027,0.916-0.412,1.203
		c-0.683,0.342-0.451-0.11-0.669-0.397c-0.221-0.356-0.521-0.231-0.521-0.231c-0.062,0.048-0.148,0.394-0.171,0.493
		c-0.213,0.609-0.745,0.713-0.925,0.245c-0.055-0.253-0.313-0.462-0.465-0.492c-0.326-0.287,0.115-0.592,0.273-0.738
		c-0.17-0.049-0.138-0.248-0.111-0.481c-0.04-0.202-0.234-0.383-0.205-0.467c0.076-0.404,0.309-0.427,0.809-0.232
		c0.234-0.04,0.357-0.067,0.547-0.313c0.064-0.08,0.244-0.337,0.304-0.724H134.636L134.636,40.897z"/>
	<path fill="#EDEDED" d="M124.47,40.897c0.004,0.244-0.066,0.464-0.183,0.581c-0.149-0.183-0.28-0.299-0.705-0.299
		c-0.312,0-0.717,0.208-0.741,0.28c0.121,0.045,0.172,0.155,0.166,0.283c-0.127,0.887-0.722,0.494-0.921,0.611
		c-0.191,0.113-0.249,0.403-0.569,0.55c-0.372,0.082-0.492-0.075-0.492-0.075c-0.325,0.334-1.004,0.575-1.104-0.154
		c-0.188,0.046-0.419-0.163-0.593-0.375c-0.091,0.092-0.238,0.213-0.391-0.054c-0.013-0.212,0.124-0.543-0.057-0.657
		c-0.264-0.165-0.389-0.334-0.253-0.621c0.011-0.026,0.026-0.051,0.044-0.07H124.47L124.47,40.897z"/>
	<path fill="#E53517" d="M122.104,37.492h3.505c0.036,0.017,0.07,0.033,0.107,0.045c0.633,0.192,1.228,0.301,1.479,0.171
		c0.029,0.476-0.5,0.922-0.837,1.021c0.291,0.084,0.483,0.1,0.647,0.621c-0.302-0.092-0.618,0.074-0.805,0.209
		c-0.246,0.187-0.556,0.32-0.901,0.137c0.162,0.404,0.247,0.733-0.092,1.262c-0.157-0.638-0.672-0.688-0.987-0.75
		c0.172,0.201,0.245,0.455,0.249,0.689h-5.798c0.153-0.168,0.453-0.039,0.5-0.349c0.12-0.77,0.502-0.878,0.949-0.457
		c0.612,0.342,0.979,0.137,1.198-0.245C121.432,39.642,121.946,38.383,122.104,37.492L122.104,37.492z"/>
	<path fill="#E53517" d="M115.028,30.791h8.253c-0.261,0.271-0.595,0.743-0.614,1.092c-0.206-0.162-0.185-0.39-0.301-0.867
		c-0.181,0.64-0.563,1.073-1.038,1.38c0.071-0.384,0.042-0.74-0.065-1.005c-0.201,0.885-0.728,1.331-1.151,1.626
		c0.166-0.351,0.247-1.06,0.083-1.516c-0.126,0.611-0.715,1.183-0.903,1.249c0.013-0.217,0.174-0.738-0.3-1.158
		c-0.688-0.466-0.979,0.083-0.621,0.34c0.383,0.271,0.346,0.535-0.046,0.51c-0.128-0.065-0.278-0.055-0.358,0.071
		c-0.204,0.358-0.541,0.426-0.526-0.338c-0.095-0.392-0.729-0.167-0.621,0.193l0.126,0.137c0.311,0.253,0.175,0.616-0.199,0.529
		c-0.143-0.088-0.479-0.076-0.594,0.063c-0.357,0.092-0.341-0.209-0.202-0.574c0.037-0.202-0.602-0.419-0.484,0.19
		c0.092,0.5-0.574,0.745-0.482,0.083c0.062-0.122-0.139-0.493-0.419-0.593c-0.195-0.158-0.066-0.512,0.192-0.474
		c0.248,0.037,0.455,0.046,0.692-0.029c0.288-0.088,0.229-0.642-0.13-0.454c-0.384,0.199-0.711-0.084-0.457-0.313
		C114.913,30.9,114.973,30.85,115.028,30.791L115.028,30.791z"/>
	<path fill="#EDEDED" d="M117.003,24.075c0.146-0.217,0.176-0.512,0.116-0.791c-0.096-0.438,0.195-1.034,0.192-1.217
		c-0.016-0.658-0.83-0.666-0.729-0.111c0.233,0.617-0.047,1.104-0.354,0.699l-0.124-0.328c-0.447-0.287-0.555-0.54-0.235-0.739
		c0.438-0.338,0.063-0.62-0.312-0.412c-0.266,0.43-0.555,0.464-0.641,0.275c-0.048-0.109,0.077-0.238-0.007-0.504
		c-0.022-0.068-0.092-0.175-0.092-0.175h3.444c1.178,0.472,2.882,1.337,3.866,2.229c-0.392,0.232-0.946,0.582-2.05,0.2
		c-0.087,0.312-0.112,0.587-0.047,0.874H117.003L117.003,24.075z"/>
	<path fill="#E53517" d="M117.003,24.075h3.028c0.069,0.309,0.246,0.629,0.566,1.018c-0.52,0.232-0.878,0.766-1.082,1.122
		c-0.021,0.04-0.05,0.077-0.079,0.114c-0.442-0.253,0.161-0.85-0.112-1.346c-0.219,0.371-0.433,0.621-0.645,0.751
		c0.117-0.365,0.028-0.662-0.109-0.997c-0.171,0.164-0.354,0.519-0.328,0.93c-0.45-0.396-0.545-0.611-0.479-1.37
		c-0.385,0.274-0.671,0.304-1.125,0.055C116.8,24.292,116.921,24.196,117.003,24.075L117.003,24.075z"/>
	<path fill="#E53517" d="M122.833,19.194c0.055,0.369,0.295,0.644,0.625,0.824c0.824,0.457,1.512-0.097,2.313-0.077
		c0.304,0.006,0.741,0.106,1.149,0.397c-0.003,0.104-0.021,0.201-0.058,0.3c-0.556-0.324-0.972-0.26-1.617-0.19
		c-0.325,0.036-0.964,0.382-1.659,0.369c-0.455-0.009-0.894-0.212-1.049-0.711C122.416,19.724,122.59,19.368,122.833,19.194
		L122.833,19.194z"/>
	<path fill="#FABB00" d="M124.591,15.201c0.438-0.24,0.798-0.026,1.073,0.438c0.277-0.293,0.753-0.106,0.823,0.286
		c-0.643,0.242-0.438,0.867,0.151,0.867c0.681,0,0.735-0.707,0.181-0.857c-0.02-0.251,0.155-0.514,0.562-0.51
		c0.011-0.332,0.24-0.626,0.423-0.699c0.247,0.1,0.392,0.367,0.454,0.662c0.418-0.01,0.608,0.359,0.617,0.556
		c-0.67,0.187-0.465,0.84,0.162,0.84c0.535,0,0.804-0.662,0.15-0.849c0.01-0.422,0.521-0.606,0.779-0.376
		c0.33-0.528,0.733-0.509,1.091-0.293c-0.827,0.805-1.025,1.636-1.037,2.181h-4.434C125.532,16.534,125.191,15.784,124.591,15.201
		L124.591,15.201z"/>
	<path fill="#EDEDED" d="M136.751,30.791c0.399-0.679,0.529-1.491,0.252-2.208c-0.272-0.704-0.606-1.012-1.11-1.403h1.662
		c0.096,0.133,0.191,0.27,0.283,0.419c0.218-0.216,0.497-0.362,0.792-0.419h0.614c0.315,0.066,0.607,0.236,0.812,0.528
		c0.4,0.567,0.371,1.587-0.657,1.888c0.657-1.254-0.902-1.559-1.027-0.176c-0.045,0.525-0.141,0.972-0.291,1.371H136.751
		L136.751,30.791z"/>
	<path fill="#E53517" d="M132.94,24.075h1.548c0.092,0.139,0.2,0.272,0.324,0.4c1.026,1.066,1.944,1.617,2.742,2.705h-1.662
		c-0.507-0.389-1.18-0.855-2.136-1.87C133.509,25.046,133.222,24.458,132.94,24.075L132.94,24.075z"/>
	<path fill="#EDEDED" d="M132.94,24.075c-0.123-0.166-0.244-0.295-0.36-0.342c-0.301-0.12-0.604-0.158-1.084,0.235
		c0.028-0.944,0.364-1.384,1.261-1.368c0.221-0.958,0.544-1.412,0.96-1.767c0.022-0.021,0.048-0.041,0.073-0.062h2.65
		c-0.619,0.287-1.352,0.671-1.882,1.278c-0.55,0.622-0.5,1.37-0.07,2.024H132.94L132.94,24.075z"/>
	<path fill="#E53517" d="M136.44,20.772h-2.65c0.923-0.743,2.387-1.217,3.24-1.883c0.459-0.359,0.462-0.676,0.367-0.89
		c-0.533-0.344-0.217-0.795,0.043-0.903c0.49-0.208,1.123-0.263,1.698,0.108c0.476,0.305,0.905,1.067,0.082,2.041
		c-0.552,0.651-1.903,1.13-2.49,1.396C136.636,20.683,136.538,20.726,136.44,20.772L136.44,20.772z"/>
	<path d="M125.842,17.902c0.138,0.111,0.197,0.378,0.533,0.569c-0.273,0-0.541-0.295-0.8-0.054
		C125.517,18.23,125.834,18.151,125.842,17.902L125.842,17.902z"/>
	<path d="M129.787,18.188c-0.101,0.183,0.029,0.229,0.134,0.096c0.074-0.096,0.191-0.31,0.592-0.541
		C130.117,17.795,129.829,18.118,129.787,18.188L129.787,18.188z"/>
	<path d="M128.208,32.567c0.056,0.054,0.233,0.246,0.313,0.246c0.31,0,0.481-0.567,0.496-0.622c0.013-0.074,0.129-0.065,0.125,0.016
		c-0.015,0.214-0.113,0.405-0.257,0.593c-0.085,0.12-0.189,0.238-0.298,0.351c-0.39,0.425-0.85,0.899-0.903,1.667
		c-0.005,0.084-0.13,0.074-0.125-0.008c0.051-0.722,0.418-1.168,0.85-1.646c0.037-0.125-0.425-0.574-0.486-0.638
		c-0.18-0.188-0.372-0.422-0.593-0.563c-0.075-0.047-0.007-0.154,0.07-0.104C127.676,32.045,128.039,32.396,128.208,32.567
		L128.208,32.567z"/>
	<path fill="#E53517" d="M121.939,27.18c-1.063,0.212-2.427,0.212-3.273-0.363c0.303-0.121,0.687-0.324,0.849-0.603
		c0.204-0.356,0.563-0.89,1.082-1.122c-0.32-0.389-0.497-0.709-0.566-1.018h10.883c-0.056,0.497-0.004,0.96,0.391,1.867
		c-0.218-0.069-0.441-0.161-0.67-0.425c0.136,0.388,0.356,0.937,0.265,1.663H121.939L121.939,27.18z"/>
	<path fill="#EDEDED" d="M124.091,29.601c-0.045,0.569-0.457,0.854-0.691,1.069l-0.041,0.038c-0.025,0.025-0.051,0.054-0.077,0.083
		h-8.253c0.021-0.025,0.041-0.054,0.059-0.083c0.029-0.042,0.051-0.091,0.062-0.138c-0.036-0.492,0.217-0.816,0.758-0.495
		c0,0,0.154,0.282,0.519,0.292c0.493-0.067,0.904-0.329,1.6-0.838c1.067-0.738,1.801-1.555,2.238-1.996
		c0.092-0.092,0.171-0.168,0.237-0.225c0.48,0.016,0.971-0.033,1.407-0.113l0.033-0.008c-0.151,0.587-0.591,0.737-0.875,1.669
		c0.547-0.274,1.106-0.328,1.847-0.096c1.249,0.393,1.797,0.176,2.136-0.066c0.14,0.559,0.673,0.463,0.766,1.188
		c0.345-0.396,0.701-0.521,1.208-0.601c0.742-0.121,1.144-0.371,1.218-0.934c0.438,0.508,0.93,0.633,1.588,0.551
		c0.161-0.021,0.416-0.029,0.699,0.008l0.003,0.012l0.007,0.022l0.004,0.021l0.004,0.016L130.55,29l0.005,0.025l0.007,0.02
		l0.015,0.044c0.057,0.19,0.141,0.423,0.265,0.647c0.029,0.055,0.06,0.109,0.096,0.164c0.185,0.287,0.39,0.558,0.606,0.808
		l0.069,0.083h-5.624l-0.126-0.083c-0.653-0.399-1.297-0.691-1.642-0.725C124.313,29.758,124.091,29.601,124.091,29.601
		L124.091,29.601z"/>
	<path fill="#E53517" d="M114.818,20.772c0,0-0.065-0.074-0.078-0.12c-0.073-0.272,0.133-0.447,0.463-0.315
		c0.338-0.036,0.537-0.33,0.292-0.494c-0.146-0.055-0.497-0.124-0.533-0.274c-0.018-0.289,0.264-0.183,0.479-0.309
		c0.237-0.138,0.146-0.312,0.447-0.347c0.254-0.027,0.266,0.259,0.228,0.529c-0.024,0.441,0.372,0.301,0.468,0.117
		c0.069-0.457-0.239-0.664,0.144-0.764c0.158-0.042,0.299,0.38,0.549,0.501c0.282,0.137,0.458-0.072,0.603,0.126
		c0.169,0.266,0,0.365-0.291,0.604c-0.008,0.086-0.124,0.315,0.504,0.698c0.059,0.021,0.173,0.048,0.173,0.048H114.818
		L114.818,20.772z"/>
	<path d="M118.266,42.405c0.029,0.11,0.074,0.217,0.125,0.328c0.03-0.134,0.079-0.241,0.145-0.328h0.165
		c-0.14,0.124-0.23,0.328-0.25,0.566c-0.151-0.195-0.256-0.38-0.306-0.566H118.266L118.266,42.405z M119.505,42.405
		c0.145,0.144,0.294,0.235,0.402,0.21c0,0,0.066-0.012,0.076,0.052c0.078,0.569,0.595,0.5,0.971,0.154
		c-0.043-0.125-0.025-0.275,0.024-0.416h0.134c-0.06,0.141-0.077,0.29-0.034,0.39c0.096,0.096,0.313,0.072,0.42,0.051
		c0.201-0.095,0.309-0.3,0.435-0.44h0.204c-0.102,0.029-0.135,0.114-0.237,0.25l-0.022,0.029c0.217,0.299,0.235,0.479,0.136,0.853
		c0.398-0.241,0.658-0.515,0.604-1.132h0.128c0.066,0.725-0.271,1.022-0.938,1.395c0.159-0.529,0.222-0.678-0.016-1.016
		c-0.063,0.065-0.143,0.128-0.246,0.176c-0.175,0.04-0.375,0.052-0.518-0.047c-0.241,0.221-0.683,0.422-0.952,0.217
		c-0.284,0.199-0.25,0.521-0.18,0.853c-0.667-0.213-0.809-0.948-0.654-1.54c-0.074,0.04-0.167,0.048-0.259-0.037H119.505
		L119.505,42.405z M129.995,42.405c-0.21,0.165-0.337,0.379-0.391,0.694c-0.01,0.063-0.018,0.129-0.025,0.192
		c0.218-0.199,0.467-0.259,0.771-0.275c-0.037-0.119-0.009-0.273,0.002-0.379c-0.014-0.059-0.066-0.146-0.114-0.232h0.144
		c0.041,0.066,0.078,0.141,0.096,0.217v0.02c-0.01,0.092-0.064,0.342,0.041,0.403c0.107-0.063,0.231-0.117,0.337-0.117v0.125
		c-0.079,0-0.187,0.044-0.293,0.11c-0.153,0.146-0.524,0.4-0.279,0.633c0.177,0.046,0.435,0.267,0.493,0.532
		c0.143,0.363,0.596,0.356,0.808-0.243c0.013-0.065,0.063-0.278,0.122-0.418c-0.305-0.07-0.051-0.747,0.36-0.887l0.04,0.117
		c-0.168,0.06-0.319,0.247-0.382,0.42c-0.032,0.084-0.074,0.25,0.073,0.229c0.012-0.004,0.029-0.009,0.054-0.016
		c0.227-0.04,0.414,0.082,0.533,0.274c0.234,0.308-0.017,0.679,0.588,0.377c0.41-0.27,0.514-0.758,0.384-1.129
		c-0.01-0.03,0.034-0.081,0.093-0.073c0.165,0.103,0.269,0.124,0.324,0.092c0.011-0.063-0.067-0.144-0.059-0.299
		c0.01-0.151-0.008-0.265-0.004-0.367h0.129c-0.009,0.128,0.008,0.258,0.028,0.379c0.272,0.045,0.608,0.228,0.784,0.486
		c0.062-0.291,0.051-0.586-0.075-0.865h0.141c0.147,0.36,0.129,0.754-0.04,1.154c-0.213-0.423-0.486-0.58-0.791-0.64
		c0.037,0.254,0.023,0.408-0.375,0.234c0.078,0.396-0.059,0.862-0.473,1.134c-0.192,0.099-0.408,0.195-0.541,0.083
		c-0.225,0.241-0.354,0.629-0.25,1.074c-0.354-0.261-0.604-0.724-0.642-1.117c-0.221,0.375-0.602,0.5-0.834,0.235
		c-0.299,0.245-0.299,0.581-0.357,1.037c-0.394-0.6-0.643-1.118-0.254-1.75c-0.234-0.266,0.037-0.533,0.243-0.713
		c-0.374,0.014-0.628,0.087-0.857,0.371l-0.124,0.137l0.015-0.183c0.014-0.128,0.025-0.256,0.044-0.385
		c0.052-0.291,0.158-0.504,0.327-0.673H129.995L129.995,42.405z M119.37,42.445c-0.155,0.547-0.001,1.143,0.362,1.343
		c-0.033-0.254-0.004-0.563,0.251-0.751c-0.051-0.073-0.092-0.169-0.114-0.294C119.696,42.743,119.513,42.597,119.37,42.445
		L119.37,42.445z M131.851,43.659c-0.26,0.545-0.087,1.077,0.245,1.47c-0.003-0.383,0.14-0.666,0.33-0.863
		c-0.011-0.022-0.018-0.044-0.024-0.069c-0.029-0.111-0.046-0.229-0.121-0.321C132.188,43.721,132.033,43.608,131.851,43.659
		L131.851,43.659z M130.267,43.921c-0.305,0.509-0.158,0.946,0.067,1.326c0.049-0.327,0.116-0.592,0.366-0.789
		c-0.017-0.028-0.029-0.058-0.042-0.09C130.612,44.147,130.4,43.964,130.267,43.921L130.267,43.921z"/>
	<path d="M121.656,39.208c-0.125,0.33-0.236,0.584-0.286,0.668c-0.229,0.412-0.638,0.629-1.279,0.27
		c-0.413-0.387-0.746-0.32-0.857,0.411c-0.06,0.397-0.442,0.201-0.552,0.437c-0.113,0.247-0.021,0.386,0.231,0.544
		c0.217,0.137,0.081,0.483,0.085,0.691c0.105,0.173,0.185,0.126,0.264,0.048c-0.021-0.309,0.199-0.709,0.784-0.813l0.023,0.121
		c-0.537,0.097-0.704,0.452-0.683,0.69c0.038,0.046,0.079,0.092,0.118,0.13h-0.522c-0.028-0.025-0.058-0.059-0.084-0.103
		c-0.074,0.019-0.14,0.055-0.198,0.103h-0.165c0.089-0.121,0.206-0.198,0.343-0.231c0.014-0.173,0.079-0.461-0.03-0.532
		c-0.118-0.074-0.218-0.151-0.276-0.246c-0.352,0.359-0.396,0.687-0.306,1.01h-0.121c-0.106-0.371,0.008-0.731,0.375-1.133
		c-0.024-0.093-0.011-0.201,0.049-0.33c0.035-0.075,0.084-0.121,0.136-0.147c-0.309-0.15-0.734-0.115-1.047,0.205
		c0.095-0.675,0.796-1.333,1.708-1.092c0.202-0.2,0.484-0.153,0.791,0.13c0.576,0.32,0.907,0.129,1.105-0.225
		c0.044-0.071,0.144-0.301,0.261-0.605H121.656L121.656,39.208z M127.024,39.208c0.015,0.039,0.026,0.08,0.041,0.124
		c0,0,0.011,0.077-0.077,0.077c-0.597-0.18-0.916,0.613-1.577,0.403c0.128,0.357,0.164,0.688-0.151,1.181
		c-0.052,0.062-0.11,0.02-0.113-0.019c-0.107-0.445-0.387-0.599-0.783-0.676c0.199,0.33,0.258,0.93-0.033,1.224
		c-0.051,0.056-0.093-0.003-0.093-0.003c-0.137-0.17-0.251-0.277-0.655-0.277c-0.25,0-0.533,0.137-0.639,0.203
		c0.093,0.071,0.131,0.185,0.126,0.302c-0.05,0.349-0.156,0.523-0.332,0.603c0.004,0.019,0.007,0.038,0.007,0.056h-0.128
		c0-0.004,0-0.011,0-0.019c-0.093,0.019-0.203,0.019-0.325,0.011c-0.065-0.006-0.113-0.003-0.154,0.008h-0.204
		c0.069-0.073,0.146-0.13,0.241-0.136c0.13-0.008,0.259,0.025,0.392,0.006c0.153-0.021,0.318-0.116,0.381-0.538
		c0.003-0.107-0.039-0.185-0.127-0.218c-0.028,0-0.045-0.045-0.037-0.078c0.037-0.116,0.488-0.324,0.8-0.324
		c0.4,0,0.56,0.104,0.704,0.266c0.217-0.319,0.125-0.854-0.11-1.136c-0.026-0.021-0.012-0.102,0.059-0.102
		c0.441,0.088,0.809,0.168,0.99,0.661c0.241-0.438,0.163-0.725,0.017-1.085c-0.028-0.067,0.026-0.117,0.085-0.08
		c0.629,0.334,0.919-0.457,1.586-0.375c-0.009-0.021-0.016-0.038-0.023-0.059H127.024L127.024,39.208z M131.75,39.208
		c0.126,0.293,0.206,0.701,0.195,1.233c0.043,0.424-0.065,0.876-0.332,1.218c-0.203,0.262-0.343,0.295-0.585,0.338l-0.033-0.004
		c-0.499-0.194-0.661-0.15-0.725,0.199c0.012,0.055,0.063,0.129,0.11,0.213h-0.144c-0.021-0.04-0.046-0.08-0.062-0.118
		c-0.066,0.037-0.126,0.075-0.181,0.118h-0.188c0.093-0.096,0.205-0.172,0.339-0.242c0.092-0.476,0.387-0.481,0.878-0.292
		c0.213-0.038,0.317-0.064,0.492-0.288c0.247-0.316,0.344-0.74,0.304-1.133c0.014-0.566-0.078-0.971-0.208-1.242H131.75
		L131.75,39.208z M136.605,39.208c0.042,0.197,0.037,0.396,0.008,0.613c-0.007,0.037-0.054,0.083-0.104,0.04
		c-0.408-0.349-0.763-0.332-1.236-0.132c0.309,0.508,0.367,0.745,0.315,1.392c0,0-0.032,0.078-0.106,0.041
		c-0.21-0.194-0.706-0.47-0.916-0.096c-0.161,0.295,0.156,0.408-0.22,0.81c0.169,0.165,0.294,0.342,0.371,0.529h-0.141
		c-0.075-0.165-0.192-0.326-0.362-0.48c-0.273,0.092-0.357,0.279-0.375,0.48h-0.129c0.003-0.085,0.016-0.165,0.074-0.255
		c0.116-0.179,0.293-0.318,0.475-0.366c0.321-0.342,0.013-0.441,0.2-0.779c0.221-0.397,0.718-0.243,1.012-0.018
		c0.036-0.549-0.036-0.759-0.343-1.25c0,0-0.025-0.058,0.027-0.092c0.499-0.225,0.904-0.278,1.346,0.047
		c0.017-0.167,0.014-0.325-0.025-0.484H136.605L136.605,39.208z M120.979,42.405c0.021-0.063,0.053-0.121,0.086-0.173l0.105,0.066
		c-0.024,0.033-0.042,0.069-0.058,0.106H120.979L120.979,42.405z M119.283,40.017c-0.717-0.162-1.182,0.226-1.404,0.69
		c0.338-0.185,0.624-0.178,0.988,0.03c0.117-0.027,0.224-0.049,0.245-0.199C119.145,40.313,119.205,40.138,119.283,40.017
		L119.283,40.017z"/>
	<path d="M115.677,31.537c-0.025,0.1-0.095,0.188-0.212,0.225c-0.25,0.076-0.464,0.067-0.717,0.03
		c-0.181-0.026-0.296,0.229-0.154,0.355c0.283,0.107,0.521,0.489,0.45,0.666c-0.072,0.558,0.434,0.308,0.362-0.089
		c-0.138-0.694,0.661-0.507,0.605-0.191c-0.056,0.154-0.23,0.584,0.104,0.509c0.149-0.154,0.492-0.158,0.654-0.066
		c0.269,0.058,0.417-0.192,0.134-0.426l-0.13-0.138l-0.017-0.025c-0.134-0.441,0.63-0.702,0.742-0.225v0.013
		c-0.009,0.712,0.245,0.598,0.414,0.308c0.1-0.161,0.283-0.17,0.427-0.103c0.254,0.012,0.38-0.125-0.007-0.397
		c-0.173-0.124-0.214-0.308-0.151-0.445h0.15c-0.091,0.088-0.07,0.239,0.074,0.342c0.279,0.199,0.385,0.468,0.205,0.578
		c0.112,0.598-0.242,0.96-0.892,1.131c0.19-0.366,0.26-0.55,0.083-0.801c-0.213,0.134-0.437-0.008-0.429-0.604
		c-0.075-0.296-0.563-0.117-0.5,0.154l0.113,0.12c0.253,0.212,0.242,0.534,0.018,0.627c-0.029,0.508,0.019,0.807,0.377,1.253
		c-0.716-0.083-1.212-0.487-1.396-1.163c-0.283-0.033-0.18-0.446-0.096-0.667c0-0.092-0.466-0.324-0.362,0.195
		c0.095,0.504-0.479,0.755-0.596,0.368c-0.338,0.199-0.438,0.521-0.509,0.987l-0.087-0.087c-0.357-0.351-0.397-1.367,0.12-1.798
		c-0.129-0.211,0.016-0.549,0.31-0.504c0.17,0.022,0.669,0.08,0.782-0.133H115.677L115.677,31.537z M119.024,31.537
		c0,0.001,0.001,0.004,0.004,0.004c0.359,0.317,0.396,0.672,0.338,1.096c0.221-0.161,0.633-0.611,0.754-1.1h0.153
		c0.121,0.395,0.081,0.935-0.029,1.306c0.35-0.268,0.726-0.654,0.917-1.306h0.216c0.056,0.213,0.067,0.463,0.033,0.726
		c0.268-0.188,0.497-0.428,0.669-0.725l0.146-0.001c-0.201,0.384-0.478,0.659-0.827,0.884c-0.08,0.051-0.142,0.021-0.132-0.037
		c0.053-0.283,0.052-0.549,0-0.769c-0.235,0.769-0.681,1.144-1.073,1.418c-0.056,0.03-0.151,0.03-0.137-0.041
		c0.137-0.292,0.213-0.833,0.134-1.26c-0.2,0.543-0.691,1.01-0.879,1.076c-0.106,0-0.082-0.063-0.082-0.063
		c0.009-0.167,0.049-0.325,0.033-0.495c-0.017-0.194-0.088-0.413-0.309-0.61c-0.065-0.041-0.125-0.077-0.183-0.103L119.024,31.537
		L119.024,31.537z M122.538,31.537c0.023,0.088,0.053,0.162,0.086,0.213c0.017-0.068,0.042-0.139,0.07-0.213h0.138
		c-0.058,0.122-0.096,0.243-0.1,0.35c-0.024,0.076-0.103,0.045-0.103,0.045c-0.128-0.1-0.184-0.243-0.22-0.394L122.538,31.537
		L122.538,31.537z M126.399,31.537c0.251,0.051,0.496,0.11,0.688,0.177c-0.062-0.06-0.128-0.118-0.194-0.176l0.187-0.001
		c0.121,0.108,0.229,0.221,0.329,0.331l-0.082,0.092c-0.257-0.185-1.254-0.396-1.876-0.41c-0.9-0.02-1.789,0.282-2.702,1.138
		c-0.86,0.805-1.603,1.871-2.975,1.425c0.096,0.821,0.614,1.792,1.633,1.58c0,0,0.056-0.013,0.072,0.041
		c0.133,0.403,0.37,0.592,0.608,0.904c0.191,0.253,0.132,0.57,0.08,0.866c-0.096,0.538-0.319,1.209-0.511,1.704h-0.133
		c0.191-0.491,0.423-1.179,0.519-1.729c0.045-0.237,0.059-0.445,0.036-0.592c-0.021-0.125-0.205-0.313-0.287-0.404
		c-0.143-0.166-0.309-0.371-0.414-0.658c-1.114,0.188-1.661-0.9-1.736-1.8c-0.011-0.104,0.083-0.063,0.083-0.063
		c0.987,0.358,1.579-0.054,2.242-0.688c0.221-0.216,0.447-0.447,0.695-0.68c0.608-0.566,1.208-0.9,1.81-1.058L126.399,31.537
		L126.399,31.537z M132.533,31.537c0.662,0.472,1.44,0.746,2.293,0.584c0.453-0.084,0.866-0.293,1.212-0.583l0.189-0.001
		c-0.381,0.351-0.853,0.608-1.381,0.706c-0.946,0.178-1.804-0.154-2.523-0.706H132.533L132.533,31.537z M137.769,31.537
		c-0.283,0.438-0.659,0.842-1.151,1.271c-0.823,0.601-1.989,0.942-2.966,0.692c0.044,0.516-0.111,0.953-0.434,1.35
		c-0.729,1.232,0.179,2.262,1.154,2.504c0.591,0.091,1.779,0.241,2.201-0.2c0.033-0.032,0.107-0.032,0.107,0.038
		c0.028,0.438-0.016,0.83-0.578,1.18c0.299,0.312,0.444,0.574,0.503,0.836h-0.13c-0.061-0.245-0.211-0.495-0.517-0.804
		c0,0-0.051-0.054,0.013-0.096c0.514-0.297,0.599-0.612,0.591-0.979c-0.516,0.375-1.589,0.242-2.216,0.146
		c-1.021-0.25-2.029-1.354-1.232-2.692c0.331-0.407,0.471-0.841,0.403-1.358c0,0-0.003-0.078,0.079-0.066
		c0.947,0.279,2.116-0.045,2.941-0.648c0.455-0.397,0.811-0.771,1.08-1.172L137.769,31.537L137.769,31.537z M126.889,39.208
		c-0.125-0.303-0.246-0.332-0.548-0.416c-0.044,0.007-0.059-0.092,0-0.121c0.302-0.092,0.754-0.471,0.792-0.875
		c-0.346,0.095-1.262-0.096-1.553-0.25c-1.269-0.67-0.313-3.487,2.059-2.791l0.045,0.063c0,0-0.009,0.175,0.018,0.411
		c0.029,0.238,0.096,0.53,0.246,0.772c0.423,0.67,0.588,1.279,0.133,1.949c0.732,0.967,1.805,0.621,1.933-0.188
		c0-0.037,0.096-0.074,0.12-0.004c0.064,0.296,0.281,0.492,0.529,0.637c0.256,0.146,0.529,0.23,0.675,0.309
		c0.15,0.08,0.298,0.246,0.413,0.504h-0.138c-0.1-0.207-0.224-0.337-0.334-0.395c-0.146-0.076-0.42-0.163-0.677-0.309
		c-0.206-0.118-0.406-0.283-0.519-0.513c-0.286,0.792-1.412,0.983-2.129-0.005c0,0-0.029-0.045,0-0.074
		c0.449-0.634,0.298-1.196-0.112-1.846c-0.211-0.338-0.291-0.813-0.283-1.205c-2.295-0.641-3.082,2.23-1.824,2.613
		c0.641,0.195,1.207,0.291,1.437,0.179c0,0,0.083-0.021,0.087,0.05c0.025,0.438-0.375,0.841-0.711,1.014l0.033,0.012
		c0.245,0.084,0.36,0.254,0.444,0.479H126.889L126.889,39.208z M117.903,32.707c0.126,0.172,0.18,0.376,0.055,0.681
		c0.46-0.166,0.592-0.516,0.53-0.891c-0.047,0.008-0.104,0.011-0.168,0.007l-0.024-0.008c-0.109-0.055-0.22-0.039-0.274,0.05
		C117.984,32.608,117.944,32.662,117.903,32.707L117.903,32.707z M116.115,33.17c0.154,0.505,0.519,0.889,0.983,1.001
		c-0.199-0.313-0.239-0.65-0.22-1.059c-0.042,0-0.092-0.004-0.146-0.017l-0.021-0.008c-0.123-0.079-0.425-0.059-0.514,0.05
		l-0.033,0.021C116.149,33.163,116.131,33.167,116.115,33.17L116.115,33.17z M114.545,32.262c-0.416,0.342-0.442,1.139-0.201,1.522
		c0.084-0.396,0.254-0.68,0.568-0.851c-0.002-0.043,0.003-0.092,0.008-0.146l0.008-0.018
		C114.961,32.699,114.814,32.358,114.545,32.262L114.545,32.262z"/>
	<path d="M119.325,27.063c0.791,0.255,1.786,0.222,2.6,0.063c0.091-0.021,0.074,0.078,0.074,0.078
		c-0.075,0.297-0.222,0.484-0.396,0.726c-0.146,0.203-0.304,0.438-0.438,0.811c0.523-0.228,1.07-0.258,1.763-0.037
		c1.235,0.389,1.763,0.168,2.084-0.062c0.06-0.038,0.092,0,0.096,0.038c0.121,0.495,0.604,0.457,0.746,1.07
		c0.329-0.338,0.683-0.454,1.155-0.529c0.735-0.121,1.099-0.362,1.166-0.879c0,0,0.029-0.08,0.109-0.032
		c0.42,0.486,0.894,0.607,1.534,0.528c0.261-0.033,0.768-0.029,1.247,0.12c-0.258-0.601-0.333-1.163-0.246-1.658
		c0.013-0.082,0.024-0.159,0.029-0.237h0.125c-0.008,0.083-0.017,0.17-0.033,0.258c-0.087,0.5,0,1.081,0.297,1.716
		c0,0,0.016,0.096-0.078,0.084c-0.181-0.066-0.371-0.113-0.551-0.139c0.066,0.246,0.184,0.58,0.379,0.883
		c0.393,0.609,0.92,1.227,1.545,1.672h-0.21c-0.576-0.441-1.063-1.025-1.44-1.604c-0.216-0.338-0.341-0.713-0.408-0.971
		c-0.259-0.028-0.491-0.021-0.641-0.005c-0.63,0.083-1.122-0.024-1.559-0.475c-0.121,0.517-0.553,0.749-1.246,0.859
		c-0.5,0.082-0.838,0.202-1.167,0.582c-0.08,0.05-0.109-0.033-0.109-0.033c-0.089-0.659-0.566-0.601-0.74-1.097
		c-0.363,0.231-0.938,0.397-2.121,0.025c-0.725-0.229-1.269-0.175-1.802,0.092c-0.099,0.021-0.087-0.074-0.087-0.074
		c0.146-0.471,0.333-0.75,0.499-0.98c0.136-0.191,0.272-0.365,0.347-0.59c-0.412,0.075-0.873,0.116-1.328,0.104
		c-0.089,0.078-0.201,0.191-0.342,0.335c-0.663,0.68-1.333,1.33-2.118,1.872c-0.694,0.509-1.117,0.782-1.626,0.851
		c-0.236-0.009-0.456-0.121-0.574-0.309c-0.47-0.271-0.684-0.018-0.65,0.442l-0.004,0.016c-0.032,0.167-0.171,0.313-0.305,0.403
		c-0.203,0.188,0.096,0.36,0.389,0.209c0.303-0.158,0.45,0.121,0.387,0.347l-0.129-0.001c0.021-0.041,0.029-0.092,0.017-0.154
		c-0.059-0.309-0.42,0.167-0.75-0.083c-0.104-0.079-0.137-0.204-0.067-0.321c-0.294-0.063-0.665,0.005-0.897,0.205
		c0-0.559,0.294-1.029,1.319-1.088c0.125-0.225,0.38-0.305,0.767-0.075l0.024,0.024c0,0,0.008,0.015,0.025,0.037
		c0.104,0.139,0.263,0.218,0.438,0.223c0.472-0.063,0.872-0.317,1.564-0.826c0.778-0.541,1.445-1.184,2.102-1.857
		c0.096-0.1,0.18-0.183,0.254-0.253c-0.482-0.029-0.957-0.121-1.361-0.305H119.325L119.325,27.063z M135.842,27.063
		c0.03,0.025,0.06,0.045,0.089,0.067c0.508,0.391,0.853,0.711,1.132,1.432c0.283,0.732,0.15,1.563-0.25,2.246
		c-0.157,0.27-0.354,0.516-0.585,0.729h-0.189c0.268-0.221,0.492-0.492,0.667-0.791c0.387-0.658,0.508-1.447,0.24-2.139
		c-0.266-0.69-0.593-0.995-1.093-1.378c-0.068-0.054-0.14-0.107-0.217-0.166H135.842L135.842,27.063z M137.543,27.063
		c0.107,0.141,0.208,0.283,0.308,0.438c0.217-0.195,0.487-0.325,0.768-0.383h0.626c1.309,0.27,1.587,2.125,0.172,2.541
		c-0.084,0.017-0.098-0.046-0.069-0.091c0.626-1.2-0.803-1.384-0.913-0.143c-0.073,0.866-0.282,1.521-0.665,2.112h-0.15
		c0.4-0.592,0.616-1.246,0.691-2.124c0.131-1.472,1.713-1.121,1.209,0.079c1.129-0.45,0.842-2.013-0.282-2.25h-0.601
		c-0.28,0.058-0.547,0.195-0.754,0.399c-0.059,0.038-0.098-0.009-0.098-0.009c-0.125-0.203-0.259-0.392-0.4-0.57H137.543
		L137.543,27.063z M118.182,31.537c0.088-0.195,0.394-0.3,0.842,0h-0.253c-0.214-0.096-0.364-0.073-0.438,0H118.182L118.182,31.537z
		 M120.12,31.537c0.007-0.017,0.008-0.032,0.014-0.05c0.004-0.029,0.085-0.063,0.119-0.008c0.006,0.018,0.013,0.037,0.021,0.058
		H120.12L120.12,31.537z M121.161,31.537c0.014-0.051,0.029-0.105,0.042-0.161c0-0.043,0.093-0.071,0.118-0.009
		c0.022,0.053,0.04,0.111,0.056,0.17H121.161L121.161,31.537z M122.079,31.537c0.096-0.161,0.17-0.338,0.228-0.537
		c0.009-0.036,0.104-0.07,0.122,0c0.028,0.125,0.059,0.354,0.109,0.538l-0.128-0.001c-0.023-0.095-0.037-0.191-0.056-0.286
		c-0.039,0.103-0.081,0.198-0.129,0.286H122.079L122.079,31.537z M122.694,31.537c0.142-0.333,0.429-0.699,0.664-0.912
		c0.331-0.301,0.632-0.525,0.673-1.029c0.001-0.037,0.063-0.088,0.137-0.013c0.092,0.095,0.157,0.216,0.136,0.351
		c0.388,0.066,1.055,0.38,1.7,0.791c0.381,0.243,0.759,0.522,1.075,0.813h-0.187c-0.287-0.25-0.618-0.492-0.956-0.708
		c-0.688-0.438-1.375-0.75-1.72-0.783c-0.067-0.016-0.053-0.083-0.053-0.083c0.037-0.092,0.01-0.168-0.027-0.226
		c-0.104,0.558-0.462,0.726-0.801,1.083c-0.176,0.188-0.383,0.459-0.504,0.717H122.694L122.694,31.537z M124.471,31.537
		c0.326-0.084,0.653-0.12,0.98-0.112c0.272,0.007,0.618,0.05,0.948,0.112H124.471L124.471,31.537z M115.116,30.222
		c-0.82,0.062-1.013,0.323-1.158,0.771c0.271-0.15,0.574-0.205,0.89-0.121c0.105-0.076,0.21-0.188,0.238-0.309
		C115.078,30.441,115.086,30.321,115.116,30.222L115.116,30.222z"/>
	<path d="M115.458,22.588c-0.081,0.059-0.173,0.109-0.28,0.153c0.313,0.226,0.563,0.246,1.03-0.012
		c-0.009-0.013-0.019-0.024-0.029-0.038l-0.009-0.016l-0.033-0.088h0.134l0.015,0.036c0.132,0.172,0.218,0.129,0.269,0.034
		c0.012-0.02,0.021-0.042,0.029-0.07h0.13c-0.012,0.05-0.026,0.095-0.05,0.132c-0.081,0.151-0.219,0.188-0.356,0.097
		c-0.554,0.32-0.846,0.313-1.391-0.123c0.104-0.031,0.199-0.065,0.28-0.105H115.458L115.458,22.588z M117.245,22.588
		c-0.003,0.003-0.004,0.004-0.004,0.007c-0.062,0.227-0.104,0.473-0.062,0.675c0.091,0.414-0.008,0.871-0.396,1.085
		c0.366,0.171,0.612,0.128,0.943-0.108c0.029-0.024,0.106-0.01,0.099,0.057c-0.059,0.677,0.009,0.897,0.354,1.223
		c0.017-0.367,0.185-0.679,0.35-0.834c0.033-0.025,0.084-0.029,0.101,0.021c0.116,0.287,0.205,0.557,0.153,0.87
		c0.158-0.138,0.319-0.347,0.488-0.634c0.025-0.024,0.07-0.063,0.108,0.004c0.268,0.485-0.244,1.055,0.046,1.289
		c0.013-0.018,0.025-0.038,0.038-0.059c0.195-0.338,0.536-0.858,1.037-1.113c-0.579-0.729-0.662-1.237-0.482-1.886
		c0,0,0.012-0.072,0.081-0.043c0.694,0.241,1.246,0.238,1.867-0.118l0.056-0.033c-0.154-0.136-0.324-0.27-0.508-0.402h0.21
		c0.146,0.109,0.286,0.224,0.414,0.337c0.582-0.341,1.392-0.297,2.001-0.055c1.421,0.567,1.954,0.156,2.049-0.203
		c0.005-0.024,0.009-0.051,0.014-0.079h0.126c-0.006,0.037-0.01,0.074-0.019,0.109c-0.125,0.486-0.786,0.858-2.217,0.289
		c-0.459-0.183-1.211-0.278-1.729-0.044c-0.287,0.132-0.47,0.295-0.797,0.4c-0.353,0.114-0.81,0.145-1.444-0.06
		c-0.15,0.589-0.059,1.059,0.524,1.77c0,0,0.038,0.063-0.021,0.096c-0.503,0.224-0.849,0.743-1.054,1.098
		c-0.152,0.262-0.487,0.457-0.77,0.583c0.159,0.096,0.339,0.175,0.526,0.233h-0.342c-0.125-0.055-0.242-0.121-0.353-0.194
		c-0.044-0.03-0.044-0.085,0.012-0.106c0.236-0.1,0.519-0.241,0.699-0.424c-0.338-0.271,0.088-0.813-0.026-1.22
		c-0.199,0.319-0.398,0.544-0.603,0.669c-0.056,0.037-0.114-0.025-0.092-0.07c0.1-0.313,0.041-0.571-0.071-0.866
		c-0.139,0.175-0.267,0.474-0.245,0.812c-0.001,0.096-0.089,0.066-0.104,0.051c-0.443-0.389-0.555-0.62-0.51-1.293
		c-0.354,0.218-0.649,0.221-1.083-0.015c-0.055-0.03-0.029-0.089,0.011-0.113c0.42-0.151,0.53-0.589,0.439-0.996
		c-0.049-0.225-0.005-0.471,0.055-0.708H117.245L117.245,22.588z M131.037,22.588c0.072,0.523,0.061,0.949-0.054,1.433l-0.009,0.062
		c-0.054,0.484-0.004,0.934,0.388,1.834c0.013,0.042,0.001,0.096-0.075,0.084c-0.166-0.051-0.333-0.117-0.508-0.254
		c0.153,0.445,0.233,0.861,0.195,1.316h-0.125c0.05-0.55-0.087-0.984-0.273-1.525c-0.021-0.054,0.051-0.112,0.106-0.063
		c0.173,0.2,0.342,0.296,0.512,0.363c-0.364-0.87-0.401-1.322-0.335-1.837c0.113-0.475,0.128-0.894,0.053-1.413H131.037
		L131.037,22.588z M132.823,22.588c-0.002,0.008-0.002,0.018-0.006,0.025c0,0,0.004,0.045-0.063,0.049
		c-0.81-0.013-1.135,0.347-1.19,1.174c0.438-0.319,0.741-0.28,1.038-0.162c0.415,0.165,0.856,1.227,1.199,1.593
		c0.478,0.507,0.882,0.875,1.231,1.167c0.31,0.258,0.577,0.453,0.809,0.629h-0.206c-0.201-0.15-0.427-0.325-0.681-0.536
		c-0.356-0.293-0.765-0.664-1.242-1.173c-0.319-0.337-0.808-1.424-1.157-1.563c-0.279-0.113-0.56-0.153-1.019,0.225
		c-0.058,0.047-0.098,0.03-0.104-0.049c0.024-0.771,0.254-1.233,0.823-1.379H132.823L132.823,22.588z M134.309,22.588
		c-0.162,0.42-0.129,0.902,0.231,1.45c0.088,0.137,0.195,0.268,0.316,0.393c0.911,0.944,1.9,1.606,2.687,2.632h-0.159
		c-0.771-0.975-1.729-1.624-2.616-2.543c-0.517-0.536-0.827-1.25-0.599-1.932H134.309L134.309,22.588z"/>
	<path d="M115.196,22.588c0.25-0.117,0.408-0.272,0.527-0.504c-0.152-0.192-0.148-0.384,0.109-0.548
		c0.37-0.289,0.063-0.469-0.229-0.313c-0.246,0.385-0.592,0.529-0.729,0.276c-0.292,0.066-0.4,0.183-0.492,0.584
		c-0.324-0.235-0.396-1.093,0.285-1.483c-0.039-0.292,0.213-0.452,0.544-0.329c0.169-0.021,0.482-0.214,0.255-0.372
		c-0.147-0.055-0.521-0.125-0.563-0.317c-0.007-0.098,0.015-0.16,0.052-0.204c-0.25-0.254-0.48-0.237-0.926-0.19
		c0.451-0.691,1.043-0.704,1.676-0.287c0.041-0.024,0.096-0.041,0.176-0.051c0.349-0.037,0.328,0.377,0.295,0.597
		c-0.015,0.32,0.253,0.258,0.35,0.093c0.028-0.189-0.018-0.307-0.049-0.485c-0.048-0.275,0.24-0.415,0.409-0.262
		c0.041,0.036,0.077,0.078,0.11,0.12c0.214-0.245,0.121-0.696,0.056-0.981c0.649,0.453,0.834,0.594,0.783,1.369
		c0.032,0.018,0.065,0.046,0.095,0.088c0.213,0.329-0.065,0.492-0.286,0.671c-0.051,0.284,0.278,0.486,0.478,0.608
		c1.029,0.396,2.542,1.119,3.603,1.921h-0.21c-1.039-0.754-2.462-1.429-3.444-1.806c-0.218-0.132-0.574-0.371-0.56-0.669
		c0.003-0.041,0.012-0.071,0.015-0.093l0.021-0.044c0.087-0.069,0.246-0.184,0.306-0.276c0.041-0.062,0.049-0.125-0.025-0.241
		c-0.081-0.113-0.242-0.047-0.36-0.052c-0.44-0.02-0.606-0.583-0.725-0.553c-0.238,0.063-0.129,0.195-0.097,0.396
		c0.013,0.092,0.019,0.196,0.004,0.318l-0.008,0.02c-0.138,0.262-0.616,0.346-0.588-0.153c0.017-0.126,0.07-0.484-0.158-0.461
		c-0.297,0.036-0.187,0.315-0.609,0.407c-0.118,0.026-0.269,0.011-0.258,0.178c0.03,0.104,0.405,0.194,0.489,0.225
		c0.349,0.232,0.025,0.579-0.309,0.613l-0.029-0.004c-0.234-0.093-0.533,0.011-0.354,0.291c0.134,0.213,0.217,0.292,0.163,0.584
		c-0.008,0.04-0.029,0.12-0.014,0.157c0.042,0.088,0.252,0.166,0.531-0.282l0.022-0.021c0.448-0.25,0.876,0.132,0.379,0.517
		c-0.24,0.149-0.224,0.343,0.234,0.637l0.022,0.029l0.107,0.284h-0.134l-0.083-0.221c-0.092-0.06-0.174-0.122-0.239-0.185
		c-0.082,0.146-0.195,0.288-0.356,0.405H115.196L115.196,22.588z M116.583,22.588c0.041-0.141,0.037-0.358-0.056-0.608
		c-0.124-0.654,0.831-0.663,0.847,0.086c0.001,0.114-0.096,0.396-0.129,0.522h-0.132c0.032-0.114,0.066-0.229,0.096-0.334
		c0.025-0.09,0.04-0.152,0.04-0.188c-0.011-0.563-0.685-0.59-0.604-0.126c0.093,0.243,0.107,0.478,0.067,0.647H116.583
		L116.583,22.588z M126.2,22.588c0.024-0.27-0.154-0.674-1.288-0.563c-0.167,0-0.279-0.013-0.379-0.141
		c-0.096-0.117-0.163-0.489-0.15-0.721l0.002-0.014c0.033-0.111,0.07-0.113,0.129-0.185l0.028-0.021
		c0.675-0.219,1.057-0.143,1.583,0.084c0.379,0.161,0.529-0.059,0.661-0.362c-0.552-0.288-0.901-0.226-1.533-0.157
		c-0.225,0.023-0.464,0.132-0.681,0.199c-0.286,0.091-0.628,0.176-0.986,0.169c-0.471-0.008-0.941-0.221-1.107-0.753
		c-0.142-0.441,0.054-0.795,0.401-1.041c0.063,0.419,0.235,0.674,0.606,0.879c0.793,0.438,1.488-0.104,2.285-0.085
		c0.387,0.009,0.761,0.14,1.084,0.343c-0.001-0.046-0.007-0.095-0.015-0.146c-0.045-0.321-0.158-0.487-0.591-0.509
		c-0.546-0.025-1.004,0.421-1.55,0.289c-0.513-0.122-0.572-0.572-0.511-1.006c0.016-0.104,0.053-0.188,0.1-0.263
		c-0.127-0.077-0.102-0.232-0.072-0.353c0.092-0.238,0.32-0.293,0.517-0.398c0.111-0.061,0.236-0.096,0.35-0.145
		c0.134-0.058,0.287-0.137,0.438-0.271c-0.069-0.908-0.367-1.589-1.032-2.233c0.524-0.29,0.883-0.121,1.19,0.354
		c0.388-0.313,0.813,0.05,0.88,0.424c-0.662,0.247-0.431,0.764,0.08,0.764c0.586,0,0.688-0.592,0.121-0.747
		c-0.026-0.361,0.191-0.6,0.563-0.619c0.029-0.271,0.211-0.597,0.481-0.704c0.292,0.117,0.435,0.38,0.505,0.669
		c0.374,0.014,0.616,0.322,0.631,0.662c-0.68,0.189-0.447,0.73,0.098,0.73c0.45,0,0.752-0.55,0.088-0.74
		c0.008-0.389,0.425-0.768,0.826-0.513c0.342-0.501,0.744-0.493,1.207-0.215c-0.63,0.614-1.021,1.285-1.071,2.143
		c0.246-0.053,1.089-0.204,1.246,0.095c0.088,0.285,0.184,0.906-0.471,1.792c0.316,0.339,0.362,0.801,0.346,1.492l-0.004,0.104
		c-0.044,0.417,0.048,1.013,0.339,1.352c0.057,0.074-0.041,0.103-0.041,0.103c-0.183,0.012-0.359-0.012-0.527-0.124
		c0.025,0.133,0.05,0.258,0.063,0.379h-0.125c-0.023-0.163-0.053-0.335-0.092-0.522c-0.016-0.056,0.067-0.091,0.104-0.057
		c0.142,0.141,0.291,0.192,0.45,0.2c-0.126-0.195-0.367-0.663-0.296-1.342c0.026-0.742-0.015-1.175-0.297-1.488
		c-0.106,0.113-0.221,0.171-0.308,0.188l-0.024-0.121c0.067-0.016,0.179-0.068,0.28-0.197c0.658-0.868,0.563-1.461,0.489-1.707
		c-0.128-0.217-1.015-0.045-1.111-0.024c-0.18,0.094-0.282,0.196-0.319,0.309l-0.117-0.039c0.033-0.103,0.103-0.19,0.199-0.267
		h-4.276c-0.199,0.175-0.416,0.271-0.658,0.362c-0.147,0.056-0.299,0.129-0.434,0.208c-0.077,0.043-0.132,0.096-0.165,0.177
		c-0.013,0.053-0.046,0.176,0.017,0.212c0.078-0.08,0.142-0.15,0.188-0.2l0.091,0.087c-0.05,0.055-0.127,0.143-0.203,0.238
		c-0.144,0.2-0.17,0.504-0.109,0.737c0.043,0.172,0.153,0.332,0.409,0.393c0.479,0.115,0.987-0.317,1.526-0.293
		c0.494,0.024,0.655,0.242,0.71,0.616c0.011,0.088,0.019,0.171,0.019,0.247c-0.005,0.161-0.022,0.242-0.072,0.376l-0.005,0.02
		l-0.012,0.026c-0.176,0.407-0.407,0.594-0.819,0.416c-0.5-0.214-0.85-0.284-1.478-0.084c-0.041,0.046-0.07,0.054-0.093,0.121
		c-0.01,0.221,0.06,0.547,0.125,0.628c0.063,0.08,0.119,0.093,0.276,0.093c1.165-0.113,1.451,0.319,1.419,0.688H126.2L126.2,22.588z
		 M132.257,22.588c0.133-0.033,0.281-0.051,0.452-0.051c0.18-0.762,0.435-1.324,1.041-1.813c0.751-0.605,1.676-0.957,2.514-1.419
		c0.388-0.214,1.308-0.7,1.085-1.266c-0.576-0.384-0.206-0.888,0.066-1.002c1.496-0.629,3.178,0.683,1.854,2.247
		c-0.589,0.695-1.957,1.153-2.803,1.545c-0.806,0.372-1.845,0.949-2.158,1.759h-0.14c0.066-0.196,0.178-0.392,0.342-0.579
		c0.908-1.035,2.265-1.396,3.452-1.977c0.478-0.233,0.945-0.512,1.211-0.828c1.236-1.464-0.335-2.632-1.71-2.054
		c-0.242,0.104-0.497,0.495-0.03,0.795l0.022,0.029c0.29,0.666-0.672,1.184-1.133,1.438c-0.852,0.47-1.826,0.837-2.566,1.467
		c-0.404,0.344-0.717,0.778-0.934,1.708H132.257L132.257,22.588z M126.826,20.546c0.019-0.058,0.028-0.116,0.032-0.179
		c-0.529-0.361-1.055-0.433-1.658-0.299c-0.621,0.139-1.146,0.353-1.772,0.004c-0.309-0.171-0.55-0.424-0.633-0.764
		c-0.187,0.175-0.297,0.467-0.2,0.779c0.274,0.865,1.297,0.703,1.942,0.503c0.223-0.07,0.467-0.18,0.701-0.206
		C125.83,20.322,126.278,20.25,126.826,20.546L126.826,20.546z M125.612,15.671c-0.254-0.425-0.554-0.608-0.915-0.453
		c0.559,0.571,0.883,1.296,0.945,2.166h4.316c0.025-0.543,0.235-1.335,0.995-2.104c-0.444-0.229-0.729-0.018-0.974,0.375
		c-0.235-0.211-0.676-0.158-0.729,0.236c0.658,0.227,0.381,0.955-0.215,0.955c-0.679,0-0.91-0.72-0.229-0.948
		c-0.054-0.297-0.306-0.452-0.6-0.444c-0.051-0.246-0.149-0.541-0.404-0.658c-0.241,0.122-0.354,0.448-0.359,0.692
		c-0.266-0.004-0.557,0.08-0.565,0.4c0.579,0.197,0.492,0.967-0.24,0.967c-0.647,0-0.867-0.688-0.222-0.967
		c-0.117-0.404-0.528-0.396-0.764-0.146L125.612,15.671L125.612,15.671z M114.703,20.725c-0.483,0.289-0.524,0.776-0.366,1.205
		c0.041-0.296,0.205-0.476,0.507-0.549c0.004-0.144,0.11-0.309-0.077-0.56C114.745,20.79,114.719,20.759,114.703,20.725
		L114.703,20.725z M115.611,18.989c-0.599-0.379-1.054-0.271-1.325,0.05c0.352-0.021,0.567,0.048,0.775,0.271
		c0.142-0.055,0.341-0.053,0.458-0.196C115.557,19.066,115.585,19.024,115.611,18.989L115.611,18.989z M117.708,19.271
		c0.037-0.622-0.1-0.787-0.472-1.057c0.042,0.299,0.012,0.616-0.162,0.807c0.1,0.133,0.203,0.254,0.396,0.263
		C117.557,19.288,117.634,19.268,117.708,19.271L117.708,19.271z M126.984,20.305c0,0.133-0.021,0.253-0.072,0.376
		C126.962,20.547,126.979,20.466,126.984,20.305L126.984,20.305z"/>
	<path fill="#FABB00" d="M115.611,18.989c-0.599-0.379-1.054-0.271-1.325,0.05c0.352-0.021,0.567,0.048,0.775,0.271
		c0.142-0.055,0.341-0.053,0.458-0.196C115.557,19.066,115.585,19.024,115.611,18.989L115.611,18.989z"/>
	<path fill="#FABB00" d="M117.708,19.271c0.037-0.622-0.1-0.787-0.472-1.057c0.042,0.299,0.012,0.616-0.162,0.807
		c0.1,0.133,0.203,0.254,0.396,0.263C117.557,19.288,117.634,19.268,117.708,19.271L117.708,19.271z"/>
	<path fill="#FABB00" d="M114.703,20.725c-0.483,0.289-0.524,0.776-0.366,1.205c0.041-0.296,0.205-0.476,0.507-0.549
		c0.004-0.144,0.11-0.309-0.077-0.56C114.745,20.79,114.719,20.759,114.703,20.725L114.703,20.725z"/>
	<path fill="#FABB00" d="M115.814,22.183c-0.124,0.218-0.316,0.431-0.637,0.559c0.313,0.226,0.563,0.246,1.03-0.012
		c-0.009-0.013-0.019-0.024-0.029-0.038l-0.009-0.016l-0.116-0.309C115.961,22.308,115.879,22.246,115.814,22.183L115.814,22.183z"
		/>
	<path fill="#FABB00" d="M115.116,30.222c-0.82,0.062-1.013,0.323-1.158,0.771c0.271-0.15,0.574-0.205,0.89-0.121
		c0.105-0.076,0.21-0.188,0.238-0.309C115.078,30.441,115.086,30.321,115.116,30.222L115.116,30.222z"/>
	<path fill="#FABB00" d="M114.545,32.262c-0.416,0.342-0.442,1.139-0.201,1.522c0.084-0.396,0.254-0.68,0.568-0.851
		c-0.002-0.043,0.003-0.092,0.008-0.146l0.008-0.018C114.961,32.699,114.814,32.358,114.545,32.262L114.545,32.262z"/>
	<path fill="#FABB00" d="M116.115,33.17c0.154,0.505,0.519,0.889,0.983,1.001c-0.199-0.313-0.239-0.65-0.22-1.059
		c-0.042,0-0.092-0.004-0.146-0.017l-0.021-0.008c-0.123-0.079-0.425-0.059-0.514,0.05l-0.033,0.021
		C116.149,33.163,116.131,33.167,116.115,33.17L116.115,33.17z"/>
	<path fill="#FABB00" d="M117.903,32.707c0.126,0.172,0.18,0.376,0.055,0.681c0.46-0.166,0.592-0.516,0.53-0.891
		c-0.047,0.008-0.104,0.011-0.168,0.007l-0.024-0.008c-0.109-0.055-0.22-0.039-0.274,0.05
		C117.984,32.608,117.944,32.662,117.903,32.707L117.903,32.707z"/>
	<path fill="#FABB00" d="M119.283,40.017c-0.717-0.162-1.182,0.226-1.404,0.69c0.338-0.185,0.624-0.178,0.988,0.03
		c0.117-0.027,0.224-0.049,0.245-0.199C119.145,40.313,119.205,40.138,119.283,40.017L119.283,40.017z"/>
	<path fill="#FABB00" d="M118.572,41.396c-0.467,0.479-0.393,0.896-0.181,1.338c0.074-0.316,0.254-0.501,0.487-0.56
		c0.014-0.173,0.079-0.461-0.03-0.532C118.73,41.567,118.63,41.49,118.572,41.396L118.572,41.396z"/>
	<path fill="#FABB00" d="M119.37,42.445c-0.155,0.547-0.001,1.143,0.362,1.343c-0.033-0.254-0.004-0.563,0.251-0.751
		c-0.051-0.073-0.092-0.169-0.114-0.294C119.696,42.743,119.513,42.597,119.37,42.445L119.37,42.445z"/>
	<path fill="#FABB00" d="M121.877,42.685c0.217,0.299,0.235,0.479,0.136,0.853c0.4-0.245,0.665-0.521,0.604-1.15
		c-0.093,0.019-0.203,0.019-0.325,0.011c-0.238-0.019-0.25,0.07-0.392,0.258L121.877,42.685L121.877,42.685z"/>
	<path fill="#FABB00" d="M131.851,43.659c-0.26,0.545-0.087,1.077,0.245,1.47c-0.003-0.383,0.14-0.666,0.33-0.863
		c-0.011-0.022-0.018-0.044-0.024-0.069c-0.029-0.111-0.046-0.229-0.121-0.321C132.188,43.721,132.033,43.608,131.851,43.659
		L131.851,43.659z"/>
	<path fill="#FABB00" d="M130.176,42.287c-0.317,0.173-0.504,0.413-0.571,0.813c-0.01,0.063-0.018,0.129-0.025,0.192
		c0.218-0.199,0.467-0.259,0.771-0.275c-0.037-0.119-0.009-0.273,0.002-0.379C130.333,42.553,130.227,42.405,130.176,42.287
		L130.176,42.287z"/>
	<path fill="#FABB00" d="M130.267,43.921c-0.305,0.509-0.158,0.946,0.067,1.326c0.049-0.327,0.116-0.592,0.366-0.789
		c-0.017-0.028-0.029-0.058-0.042-0.09C130.612,44.147,130.4,43.964,130.267,43.921L130.267,43.921z"/>
	<path fill="#FABB00" d="M133.867,42.784c0.272,0.045,0.608,0.228,0.784,0.486c0.096-0.466,0.017-0.938-0.438-1.346
		C133.775,42.075,133.815,42.468,133.867,42.784L133.867,42.784z"/>
</g>
</svg>
