<?xml version="1.0" encoding="utf-8"?>
<!-- Generator: Adobe Illustrator 22.1.0, SVG Export Plug-In . SVG Version: 6.00 Build 0)  -->
<svg version="1.1" id="Ebene_1" xmlns="http://www.w3.org/2000/svg" xmlns:xlink="http://www.w3.org/1999/xlink" x="0px" y="0px"
	 width="220px" height="83px" viewBox="0 0 220 83" enable-background="new 0 0 220 83" xml:space="preserve">
<style type="text/css">
	.st0{fill:#169CD8;}
	.st1{clip-path:url(#SVGID_2_);}
	.st2{clip-path:url(#SVGID_4_);}
</style>
<path class="st0" d="M60.6,1.5c-26.8,0-49.7,16.7-59,40.2c9.3,23.5,32.2,40.2,59,40.2s49.7-16.7,59-40.2
	C110.3,18.2,87.4,1.5,60.6,1.5z M60.6,75.8c-24.7,0-45.7-14.1-54.4-34.1c8.6-20,29.6-34.1,54.4-34.1c24.7,0,45.7,14.1,54.3,34.1
	C106.4,61.7,85.3,75.8,60.6,75.8z M60.6,14.7c-14.8,0-26.8,12-26.8,26.8s12,26.8,26.8,26.8s26.8-11.9,26.8-26.8
	C87.4,26.8,75.4,14.7,60.6,14.7z M60.6,63.4c-12,0-21.9-9.8-21.9-21.9c0-12,9.8-21.9,21.9-21.9c12.2,0,22,9.8,21.9,21.9
	C82.5,53.5,72.7,63.4,60.6,63.4z"/>
<g>
	<g>
		<g>
			<g>
				<g>
					<g>
						<g>
							<g>
								<g>
									<g>
										<g>
											<g>
												<g>
													<g>
														<defs>
															<rect id="SVGID_1_" x="141.6" y="-0.1" width="78.4" height="82.8"/>
														</defs>
														<clipPath id="SVGID_2_">
															<use xlink:href="#SVGID_1_"  style="overflow:visible;"/>
														</clipPath>
														<g class="st1">
															<path class="st0" d="M180.1,50.8l-16.7-22.1h8.4v-0.6c0.1-10.8,0.1-16.3-9.7-22.1l1.2-3.6
																c15.3,1.7,24.4,11.3,25.1,26.3h8.4L180.1,50.8z M171.3,32.8l8.7,11.6l8.7-11.6h-4.4v-2c0-8.2-2.6-18-13.3-22.3
																c4.6,5.5,4.6,11.5,4.5,19.7v4.6H171.3L171.3,32.8L171.3,32.8z"/>
														</g>
													</g>
												</g>
											</g>
										</g>
									</g>
								</g>
							</g>
						</g>
					</g>
				</g>
			</g>
		</g>
	</g>
	<g>
		<g>
			<g>
				<g>
					<g>
						<g>
							<g>
								<g>
									<g>
										<g>
											<g>
												<g>
													<g>
														<defs>
															<rect id="SVGID_3_" x="141.6" y="-0.1" width="78.4" height="82.8"/>
														</defs>
														<clipPath id="SVGID_4_">
															<use xlink:href="#SVGID_3_"  style="overflow:visible;"/>
														</clipPath>
														<g class="st2">
															<path class="st0" d="M217.3,80h-73.2V47.7l8.8-11.8h13.7v3.9H155l-6.9,9.1v0.8h17.8l4.6,5.2h20.2l4.6-5.2h17.8v-0.8
																l-6.9-9.1h-11.6v-3.9h13.5l8.8,11.8V80H217.3z M148.1,76h65.2V53.7h-15.9l-4.6,5.2H169l-4.6-5.2h-16.1V76H148.1z"/>
														</g>
													</g>
												</g>
											</g>
										</g>
									</g>
								</g>
							</g>
						</g>
					</g>
				</g>
			</g>
		</g>
	</g>
</g>
</svg>
