<?xml version="1.0" encoding="utf-8"?>
<!-- Generator: Adobe Illustrator 22.1.0, SVG Export Plug-In . SVG Version: 6.00 Build 0)  -->
<svg version="1.1" id="Ebene_1" xmlns="http://www.w3.org/2000/svg" xmlns:xlink="http://www.w3.org/1999/xlink" x="0px" y="0px"
	 width="45px" height="45px" viewBox="0 0 45 45" enable-background="new 0 0 45 45" xml:space="preserve">
<style type="text/css">
	.st0{fill:#FFFFFF;}
	.st1{fill:#BF1919;}
</style>
<rect x="10.2" y="1.2" class="st0" width="24" height="20"/>
<g>
	<path class="st1" d="M19.9,5.5c-0.1,0-0.3,0.1-0.4,0.2l-3.6,3.9c-0.1,0.1-0.3,0.2-0.4,0.2l-3.1,0.6c-0.4,0.1-0.7,0.5-0.6,0.9
		l0.3,1.6l0.5,2.6l0.3,1.6c0.1,0.4,0.5,0.7,0.9,0.6l3.1-0.6c0.2,0,0.3,0,0.5,0.1l4.8,2.3c0.2,0.1,0.3,0.1,0.5,0.1
		c0.4-0.1,0.7-0.4,0.6-0.9L20.8,6.1C20.7,5.7,20.3,5.5,19.9,5.5z M21.9,18.1l-4-1.9c-0.4-0.2-0.8-0.2-1.2-0.2l-2.6,0.5l-0.2-1.2
		l-0.5-2.6l-0.2-1.2l2.6-0.5c0.4-0.1,0.8-0.3,1.1-0.6l3-3.2L21.9,18.1z"/>
	<path class="st1" d="M24,7.4c-0.3-0.2-0.6-0.2-0.8,0c-0.2,0.3-0.2,0.6,0,0.8c1,0.9,1.7,2.1,2,3.5c0.3,1.4,0.1,2.8-0.6,4
		c-0.2,0.3,0,0.7,0.3,0.8c0.1,0.1,0.3,0.1,0.4,0c0.2,0,0.3-0.1,0.4-0.3c0.8-1.5,1-3.2,0.7-4.8C26.1,9.9,25.3,8.5,24,7.4z"/>
	<path class="st1" d="M25.8,4.9c-0.3-0.2-0.6-0.2-0.9,0.1c-0.2,0.3-0.2,0.6,0.1,0.9c1.7,1.4,2.8,3.3,3.2,5.4c0.4,2.1,0.1,4.3-1,6.2
		c-0.2,0.3,0,0.7,0.2,0.8c0.1,0.1,0.3,0.1,0.4,0.1c0.2,0,0.3-0.1,0.4-0.3c1.2-2.1,1.5-4.6,1.1-7S27.7,6.4,25.8,4.9z"/>
	<path class="st1" d="M27.6,2.5c-0.3-0.2-0.6-0.2-0.9,0.1s-0.2,0.6,0.1,0.9c2.2,1.8,3.8,4.4,4.3,7.2c0.5,2.8,0.1,5.7-1.3,8.2
		c-0.2,0.3,0,0.7,0.2,0.8c0.1,0.1,0.3,0.1,0.4,0.1c0.2,0,0.3-0.1,0.4-0.3c1.5-2.8,2-6,1.4-9.1C31.8,7.3,30.1,4.5,27.6,2.5z"/>
</g>
<g>
	<path class="st1" d="M18.7,33.3c1,0.7,2.1,1.1,3.4,1.1c1.3,0,2.5-0.4,3.4-1.1c1.6-1.1,2.7-3,2.7-5c0-3.4-2.7-6.1-6.1-6.1
		s-6.1,2.7-6.1,6.1C16,30.4,17.1,32.3,18.7,33.3z"/>
	<path class="st1" d="M27.2,34c-0.2,0.2-0.5,0.4-0.8,0.6c-1.3,0.9-2.7,1.3-4.3,1.3c-1.5,0-3-0.5-4.2-1.3c-0.3-0.2-0.5-0.4-0.8-0.6
		c-2.7,1.3-4.9,3.7-5.9,6.5c3.1,2.3,6.9,3.6,10.9,3.6c4.1,0,7.9-1.4,10.9-3.6C32.1,37.6,29.9,35.3,27.2,34z"/>
</g>
</svg>
