<?xml version="1.0" encoding="utf-8"?>
<!-- Generator: Adobe Illustrator 26.2.0, SVG Export Plug-In . SVG Version: 6.00 Build 0)  -->
<svg version="1.1" id="Ebene_1" xmlns="http://www.w3.org/2000/svg" xmlns:xlink="http://www.w3.org/1999/xlink" x="0px" y="0px"
	 width="45px" height="45px" viewBox="0 0 45 45" enable-background="new 0 0 45 45" xml:space="preserve">
<style type="text/css">
	.st0{fill:#BF1919;}
	.st1{fill:#FFFFFF;}
</style>
<path class="st0" d="M22.2,22.3c-4.2,0-7.6,3.4-7.6,7.6s7.6,14.3,7.6,14.3s7.6-10.1,7.6-14.3S26.4,22.3,22.2,22.3z M22.2,33.8
	c-2.2,0-3.9-1.7-3.9-3.9S20,26,22.2,26s3.9,1.7,3.9,3.9S24.4,33.8,22.2,33.8z"/>
<rect x="10.2" y="1.3" class="st1" width="24" height="20"/>
<g>
	<path class="st0" d="M12.6,10.8c0-0.9,0.7-1.6,1.6-1.6l8.6,1.9l9.8-4.5l-9.6-2c0,0-9.2,3.7-9.5,3.8c-1,0.3-1.7,1.3-1.7,2.4
		c0,1.4,1,2.4,2.5,2.5v-0.8C13.2,12.3,12.6,11.7,12.6,10.8z"/>
	<path class="st0" d="M31.7,10.5l-8.9,4L20.3,14v0.9l2.8,0.5l8.7-3.9c0,0,0.5-0.1,0.5-0.6C32.2,10.4,31.7,10.5,31.7,10.5z"/>
	<path class="st0" d="M15.4,11.9v4.9l1.5-1.2l2.3,2.3c0,0,0-4.6,0-5.3s0.6-0.7,0.6-0.7L16.2,11C15.3,10.9,15.4,11.9,15.4,11.9z"/>
	<polygon class="st1" points="22.7,11.6 31.8,7.4 31.9,8 32,8.5 32,9 31.9,9.6 31.9,10 22.8,14 19.5,13.4 19.5,12.4 19.7,12.4 
		20,12.3 20.5,12.1 20.6,11.7 15.9,10.6 15.6,10.7 15.3,10.9 15.1,11.2 15,11.6 15,12.2 14,11.9 13.5,11.6 13.2,11.3 13.1,10.9 
		13.1,10.6 13.2,10.2 13.6,9.9 14.1,9.7 14.3,9.7 	"/>
</g>
</svg>
