<?xml version="1.0" encoding="utf-8"?>
<!-- Generator: Adobe Illustrator 22.1.0, SVG Export Plug-In . SVG Version: 6.00 Build 0)  -->
<svg version="1.1" id="Ebene_1" xmlns="http://www.w3.org/2000/svg" xmlns:xlink="http://www.w3.org/1999/xlink" x="0px" y="0px"
	 width="45px" height="45px" viewBox="0 0 45 45" enable-background="new 0 0 45 45" xml:space="preserve">
<style type="text/css">
	.st0{fill:#BF1919;}
</style>
<g>
	<path class="st0" d="M18.7,33.3c1,0.7,2.1,1.1,3.4,1.1c1.3,0,2.5-0.4,3.4-1.1c1.6-1.1,2.7-3,2.7-5c0-3.4-2.7-6.1-6.1-6.1
		s-6.1,2.7-6.1,6.1C16,30.4,17.1,32.3,18.7,33.3z"/>
	<path class="st0" d="M27.2,34c-0.2,0.2-0.5,0.4-0.8,0.6c-1.3,0.9-2.7,1.3-4.3,1.3c-1.5,0-3-0.5-4.2-1.3c-0.3-0.2-0.5-0.4-0.8-0.6
		c-2.7,1.3-4.9,3.7-5.9,6.5c3.1,2.3,6.9,3.6,10.9,3.6c4.1,0,7.9-1.4,10.9-3.6C32.1,37.6,29.9,35.3,27.2,34z"/>
</g>
</svg>
