<?xml version="1.0" encoding="utf-8"?>
<!-- Generator: Adobe Illustrator 26.2.0, SVG Export Plug-In . SVG Version: 6.00 Build 0)  -->
<svg version="1.1" id="Ebene_1" xmlns="http://www.w3.org/2000/svg" xmlns:xlink="http://www.w3.org/1999/xlink" x="0px" y="0px"
	 width="45px" height="45px" viewBox="0 0 45 45" enable-background="new 0 0 45 45" xml:space="preserve">
<style type="text/css">
	.st0{fill:#BF1919;}
	.st1{fill:#FFFFFF;}
</style>
<g>
	<path class="st0" d="M4.8,29.7c0-1.7,1.3-3,3-3l16.1,3.6l18.4-8.4L24.4,18c0,0-17.4,7-17.8,7.2c-1.9,0.6-3.2,2.4-3.2,4.5
		c0,2.6,1.9,4.5,4.8,4.8v-1.6C5.8,32.5,4.8,31.4,4.8,29.7z"/>
	<path class="st0" d="M40.7,29L24,36.5l-4.7-0.9v1.7l5.2,1L40.8,31c0,0,0.9-0.2,0.9-1.1C41.7,28.9,40.7,29,40.7,29z"/>
	<path class="st0" d="M10,31.7V41l2.8-2.2l4.3,4.3c0,0,0-8.6,0-10c0-1.4,1.2-1.4,1.2-1.4L11.6,30C9.9,29.9,10,31.7,10,31.7z"/>
	<polygon class="st1" points="23.8,31.2 40.9,23.3 41.1,24.3 41.2,25.3 41.2,26.2 41.1,27.3 41,28.1 23.9,35.7 17.8,34.5 17.8,32.7 
		18.1,32.6 18.7,32.4 19.6,32.1 19.8,31.4 10.9,29.2 10.3,29.4 9.8,29.8 9.5,30.3 9.3,31.1 9.3,32.2 7.3,31.7 6.4,31.2 5.9,30.5 
		5.7,29.9 5.7,29.2 5.9,28.4 6.6,27.9 7.5,27.6 8,27.6 	"/>
</g>
</svg>
