<?xml version="1.0" encoding="utf-8"?>
<!-- Generator: Adobe Illustrator 22.0.1, SVG Export Plug-In . SVG Version: 6.00 Build 0)  -->
<svg version="1.1" xmlns="http://www.w3.org/2000/svg" xmlns:xlink="http://www.w3.org/1999/xlink" x="0" y="0" width="1682" height="928"
	 viewBox="0 0 1682 928" style="enable-background:new 0 0 1682 928;" xml:space="preserve" preserveAspectRatio="none slice">
<style type="text/css">
	.st0{display:none;}
	.st1{display:inline;}
	.st2{fill:#999999;}
	.st3{fill:#FFFFFF;}
	.st4{fill:#D6D6D6;}
	.st5{fill:#666666;}
	.st6{fill:#1E1E1C;}
	.st7{fill:#AD0A0A;}
</style>
<g id="Ebene_2" class="st0">
	<g id="Ebene_2_1_" class="st1">
		<rect x="-309" y="-394.3" class="st2" width="2300" height="1716.6"/>
	</g>
</g>
<g id="Ebene_1">
	<g>
		<g>
			<g>
				<path d="M376.3,119.5c-24.3,0-44.1-19.8-44.1-44.1s19.8-44.1,44.1-44.1c24.3,0,44.1,19.8,44.1,44.1
					C420.4,99.8,400.7,119.5,376.3,119.5z M376.3,34.2c-22.7,0-41.2,18.5-41.2,41.2s18.5,41.2,41.2,41.2s41.2-18.5,41.2-41.2
					S399.1,34.2,376.3,34.2z"/>
			</g>
		</g>
		<g>
			<g>
				<polygon points="376.4,78.6 350.3,50.3 352.4,48.4 376.5,74.5 388.2,62 390.2,63.9 				"/>
			</g>
		</g>
	</g>
	<g>
		<g>
			<path d="M546.7,49l-8.7-8.8l2.6-2.6l0,0l17.5,17.6l-58.2,58.2l-17.6-17.6l5.2-5.2l-2.6,2.7l14.6,14.6l2.7-2.8l-14.5-14.7l2.3-2.3
				l8.8,8.8l2.7-2.7l-8.8-8.8l-2.6,2.6l4.8-4.8l8.8,8.8l2.8-2.8l-8.8-8.8l-1,1.1l3.3-3.3l14.6,14.6l2.7-2.7l-14.6-14.7l-0.9,0.9
				l3.2-3.2l8.8,8.8l2.7-2.7l-8.8-8.8l-0.8,0.8l3-3l8.8,8.8l2.7-2.7l-8.8-8.8l18.9-18.9l-1.6,1.6l14.6,14.6l2.7-2.8l-14.5-14.6
				l3.7-3.7l-1.5,1.5l8.8,8.8L546.7,49z M479.6,93l-2.7,2.8l23.1,23.1l63.8-63.8l-23.2-23.2L479.6,93z"/>
		</g>
		<g>
			<polygon points="532.5,74.8 517.9,60.3 515.1,63 529.7,77.6 			"/>
		</g>
		<g>
			<polygon points="520.2,58 528.9,66.8 531.7,64 522.9,55.2 			"/>
		</g>
		<g>
			<polygon points="525.2,53 534,61.8 536.7,59 527.9,50.2 			"/>
		</g>
	</g>
	<g>
		<g>
			<path d="M663.9,120.9l-1.2-2.2c-1-1.8-25.3-44.5-26.3-46.6c-1.9-3.7-2.9-8-2.9-12.4c0-16.4,13.6-29.7,30.4-29.7
				s30.4,13.3,30.4,29.7c0,4.2-1,8.6-2.8,13l-0.1,0.1L663.9,120.9z M664,32.9c-15.2,0-27.5,12.1-27.5,26.9c0,3.9,0.9,7.8,2.6,11.1
				c0.7,1.6,16,28.5,25,44.2l25-43.6c1.7-4,2.6-8,2.6-11.8C691.5,45,679.1,32.9,664,32.9z M664.1,79c-10.9,0-19.7-8.7-19.7-19.4
				c0-10.8,8.7-19.3,19.7-19.3c10.9,0,19.7,8.7,19.7,19.4C683.5,70.6,674.9,79,664.1,79z M664.1,43.2c-9.5,0-16.9,7.2-16.9,16.4
				c0,9.1,7.6,16.5,16.9,16.5c9.3,0,16.7-7.2,16.9-16.5C680.9,50.7,673.4,43.2,664.1,43.2z"/>
		</g>
	</g>
	<g>
		<g>
			<g>
				<path d="M275.5,119.4h-85.1V118c0-17.8,11.1-33.9,27.7-40.1l1.2-0.4l-1-0.7c-4.3-3.1-7.4-7.3-9.1-12.1c-0.9-2.9-1.4-5.6-1.4-8.3
					c0-3,0.7-6.3,1.9-9.6l0.1-0.2c0.2-0.4,0.4-0.7,0.5-0.9c0.2-0.3,0.3-0.6,0.5-0.9l1.4-2.4c0.2-0.3,0.4-0.6,0.6-0.9
					c0.2-0.2,0.3-0.4,0.4-0.6l0.3-0.4c0.4-0.6,0.9-1.1,1.4-1.6l0.3-0.3l1.3-1.2l1.1-0.6c0.4-0.3,0.9-0.7,1.4-1
					c0.2-0.1,0.5-0.3,0.7-0.5c0.3-0.2,0.6-0.4,0.9-0.6l0.2-0.1l2.4-1c1.3-0.6,2.7-1,4.1-1.4l0.9-0.3h0.2c0.1,0,0.2,0,0.4-0.1
					c0.3-0.1,0.7-0.1,1.1-0.1h0.4c0.9-0.2,1.7-0.2,2.5-0.2h2.8l0.9,0.3c0.1,0,0.3,0,0.5,0.1c0.5,0.1,1,0.1,1.6,0.3l0.7,0.3
					c0.2,0.1,0.4,0.1,0.6,0.2c0.4,0.1,0.8,0.2,1.3,0.4l0.7,0.2c0.6,0.2,1.1,0.4,1.5,0.7c0.2,0.1,0.3,0.2,0.5,0.3h0.2l0.3,0.1
					c1.8,0.8,3.3,2,4.8,3.2l0.3,0.3l2,2c0.3,0.4,0.5,0.6,0.8,1s0.6,0.7,0.9,1.1c3,4.5,4.6,9.5,4.6,14.5c0,8.1-3.8,15.6-10.5,20.4
					l-1,0.7l1.2,0.4c16.8,6.1,28,22.2,28,40.1L275.5,119.4L275.5,119.4z M193.3,116.6h79.4c-0.6-16.1-10.9-30.5-26.1-36l-6.2-2.2
					l5.3-3.9c5.9-4.3,9.3-10.9,9.3-18.1c0-4.5-1.4-8.9-4.1-12.9c-0.2-0.3-0.5-0.6-0.7-0.9c-0.3-0.3-0.5-0.6-0.8-1l-1.9-1.9
					c-1.2-1-2.5-2-3.8-2.7h-0.2l-0.3-0.1c-0.4-0.2-0.7-0.3-1-0.5c-0.4-0.2-0.6-0.3-0.9-0.4l-0.9-0.3c-0.3-0.1-0.6-0.2-1-0.3
					c-0.2-0.1-0.4-0.1-0.7-0.2l-0.2-0.1l-0.8-0.3c-0.1-0.1-0.5-0.1-0.8-0.1s-0.5-0.1-0.8-0.1l-0.7-0.2H233c-0.7,0-1.3,0-1.9,0.2
					l-0.2,0.1h-0.7c-0.1,0-0.4,0-0.6,0.1c-0.2,0-0.5,0.1-0.7,0.1l-0.6,0.2c-1.3,0.3-2.5,0.7-3.8,1.3l-2.3,0.9
					c-0.2,0.1-0.4,0.3-0.6,0.4c-0.3,0.2-0.6,0.4-0.9,0.6c-0.4,0.2-0.8,0.5-1.1,0.8l-0.5,0.3l-0.7,0.3l-1.2,1.1
					c-0.5,0.5-0.9,0.9-1.1,1.3l-0.3,0.4c-0.2,0.3-0.4,0.5-0.5,0.7c-0.2,0.2-0.3,0.4-0.4,0.6l-1.4,2.4c-0.1,0.2-0.3,0.5-0.4,0.7
					c-0.1,0.3-0.3,0.6-0.5,1c-1.1,3-1.7,5.9-1.7,8.5c0,2.4,0.4,4.8,1.2,7.4c1.5,4.2,4.3,8,8.1,10.7l5.3,3.9l-6.2,2.2
					C204.1,86.2,193.9,100.5,193.3,116.6z"/>
			</g>
		</g>
	</g>
	<g>
		<g>
			<circle cx="102" cy="78.3" r="10.2"/>
			<path d="M102,90c-6.4,0-11.6-5.2-11.6-11.6s5.2-11.6,11.6-11.6s11.6,5.2,11.6,11.6C113.7,84.8,108.4,90,102,90z M102,69.5
				c-4.9,0-8.8,4-8.8,8.8s4,8.8,8.8,8.8s8.8-4,8.8-8.8S106.9,69.5,102,69.5z"/>
		</g>
		<g>
			<path d="M125.1,58.6c-7.3,0-13.2-5.9-13.2-13.2s5.9-13.2,13.2-13.2s13.2,5.9,13.2,13.2S132.4,58.6,125.1,58.6z M125.1,35.1
				c-5.7,0-10.3,4.6-10.3,10.3s4.6,10.4,10.3,10.4s10.3-4.6,10.3-10.3S130.8,35.1,125.1,35.1z"/>
		</g>
		<g>
			<path d="M132,118.6c-8.1,0-14.7-6.6-14.7-14.7s6.6-14.7,14.7-14.7s14.7,6.6,14.7,14.7S140.1,118.6,132,118.6z M132,92.1
				c-6.5,0-11.9,5.3-11.9,11.9s5.3,11.9,11.9,11.9c6.5,0,11.9-5.3,11.9-11.9S138.5,92.1,132,92.1z"/>
		</g>
		<g>
			<path d="M55.1,99.7c-8.8,0-15.9-7.1-15.9-15.9s7.1-15.9,15.9-15.9S71,75,71,83.8S63.9,99.7,55.1,99.7z M55.1,70.7
				c-7.2,0-13.1,5.9-13.1,13.1s5.9,13,13.1,13s13.1-5.8,13.1-13S62.3,70.7,55.1,70.7z"/>
		</g>
		<g>
			<rect x="68.8" y="78.8" transform="matrix(0.9942 -0.1078 0.1078 0.9942 -8.1476 9.6789)" width="33.3" height="2.8"/>
		</g>
		<g>
			<rect x="96.2" y="65.5" transform="matrix(0.5896 -0.8077 0.8077 0.5896 -8.7298 116.6145)" width="28.4" height="2.8"/>
		</g>
		<g>
			<rect x="110.5" y="73.7" transform="matrix(0.6487 -0.761 0.761 0.6487 -26.7485 115.649)" width="2.8" height="26.2"/>
		</g>
	</g>
	<g>
		<g>
			<g>
				<path class="st3" d="M376.3,267.6c-24.3,0-44.1-19.8-44.1-44.1s19.8-44.1,44.1-44.1c24.3,0,44.1,19.8,44.1,44.1
					C420.4,247.9,400.7,267.6,376.3,267.6z M376.3,182.3c-22.7,0-41.2,18.5-41.2,41.2s18.5,41.2,41.2,41.2s41.2-18.5,41.2-41.2
					S399.1,182.3,376.3,182.3z"/>
			</g>
		</g>
		<g>
			<g>
				<polygon class="st3" points="376.4,226.7 350.3,198.4 352.4,196.5 376.5,222.6 388.2,210.1 390.2,212 				"/>
			</g>
		</g>
	</g>
	<g>
		<g>
			<path class="st3" d="M546.7,197.1l-8.7-8.8l2.6-2.6l0,0l17.5,17.6l-58.2,58.2l-17.6-17.6l5.2-5.2l-2.6,2.7l14.6,14.6l2.7-2.8
				l-14.5-14.7l2.3-2.3l8.8,8.8l2.7-2.7l-8.8-8.8l-2.6,2.6l4.8-4.8l8.8,8.8l2.8-2.8l-8.8-8.8l-1,1.1l3.3-3.3l14.6,14.6l2.7-2.7
				l-14.6-14.7l-0.9,0.9l3.2-3.2l8.8,8.8l2.7-2.7l-8.8-8.8l-0.8,0.8l3-3l8.8,8.8l2.7-2.7l-8.8-8.8l18.9-18.9l-1.6,1.6l14.6,14.6
				l2.7-2.8l-14.5-14.6l3.7-3.7l-1.5,1.5l8.8,8.8L546.7,197.1z M479.6,241.1l-2.7,2.8L500,267l63.8-63.8L540.6,180L479.6,241.1z"/>
		</g>
		<g>
			<polygon class="st3" points="532.5,222.8 517.9,208.4 515.1,211.1 529.7,225.7 			"/>
		</g>
		<g>
			<polygon class="st3" points="520.2,206.1 528.9,214.9 531.7,212.1 522.9,203.3 			"/>
		</g>
		<g>
			<polygon class="st3" points="525.2,201.1 534,209.9 536.7,207.1 527.9,198.3 			"/>
		</g>
	</g>
	<g>
		<g>
			<path class="st3" d="M663.9,269l-1.2-2.2c-1-1.8-25.3-44.5-26.3-46.6c-1.9-3.7-2.9-8-2.9-12.4c0-16.4,13.6-29.7,30.4-29.7
				s30.4,13.3,30.4,29.7c0,4.2-1,8.6-2.8,13l-0.1,0.1L663.9,269z M664,181c-15.2,0-27.5,12.1-27.5,26.9c0,3.9,0.9,7.8,2.6,11.1
				c0.7,1.6,16,28.5,25,44.2l25-43.6c1.7-4,2.6-8,2.6-11.8C691.5,193,679.1,181,664,181z M664.1,227.1c-10.9,0-19.7-8.7-19.7-19.4
				c0-10.8,8.7-19.3,19.7-19.3c10.9,0,19.7,8.7,19.7,19.4C683.5,218.7,674.9,227.1,664.1,227.1z M664.1,191.3
				c-9.5,0-16.9,7.2-16.9,16.4c0,9.1,7.6,16.5,16.9,16.5c9.3,0,16.7-7.2,16.9-16.5C680.9,198.7,673.4,191.3,664.1,191.3z"/>
		</g>
	</g>
	<g>
		<g>
			<g>
				<path class="st3" d="M275.5,267.5h-85.1v-1.4c0-17.8,11.1-33.9,27.7-40.1l1.2-0.4l-1-0.7c-4.3-3.1-7.4-7.3-9.1-12.1
					c-0.9-2.9-1.4-5.6-1.4-8.3c0-3,0.7-6.3,1.9-9.6l0.1-0.2c0.2-0.4,0.4-0.7,0.5-0.9c0.2-0.3,0.3-0.6,0.5-0.9l1.4-2.4
					c0.2-0.3,0.4-0.6,0.6-0.9c0.2-0.2,0.3-0.4,0.4-0.6l0.3-0.4c0.4-0.6,0.9-1.1,1.4-1.6l0.3-0.3l1.3-1.2l1.1-0.6
					c0.4-0.3,0.9-0.7,1.4-1c0.2-0.1,0.5-0.3,0.7-0.5c0.3-0.2,0.6-0.4,0.9-0.6l0.2-0.1l2.4-1c1.3-0.6,2.7-1,4.1-1.4l0.9-0.3h0.2
					c0.1,0,0.2,0,0.4-0.1c0.3-0.1,0.7-0.1,1.1-0.1h0.4c0.9-0.2,1.7-0.2,2.5-0.2h2.8l0.9,0.3c0.1,0,0.3,0,0.5,0.1
					c0.5,0.1,1,0.1,1.6,0.3l0.7,0.3c0.2,0.1,0.4,0.1,0.6,0.2c0.4,0.1,0.8,0.2,1.3,0.4l0.7,0.2c0.6,0.2,1.1,0.4,1.5,0.7
					c0.2,0.1,0.3,0.2,0.5,0.3h0.2l0.3,0.1c1.8,0.8,3.3,2,4.8,3.2l0.3,0.3l2,2c0.3,0.4,0.5,0.6,0.8,0.9c0.3,0.4,0.6,0.7,0.9,1.1
					c3,4.5,4.6,9.5,4.6,14.5c0,8.1-3.8,15.6-10.5,20.4l-1,0.7l1.2,0.4c16.8,6.1,28,22.2,28,40.1L275.5,267.5L275.5,267.5z
					 M193.3,264.7h79.4c-0.6-16.1-10.9-30.5-26.1-36l-6.2-2.2l5.3-3.9c5.9-4.3,9.3-10.9,9.3-18.1c0-4.5-1.4-8.9-4.1-12.9
					c-0.2-0.3-0.5-0.6-0.7-0.9c-0.3-0.3-0.5-0.6-0.8-1l-1.9-1.9c-1.2-1-2.5-2-3.8-2.7h-0.2l-0.3-0.1c-0.4-0.2-0.7-0.3-1-0.5
					c-0.4-0.2-0.6-0.3-0.9-0.4l-0.9-0.3c-0.3-0.1-0.6-0.2-1-0.3c-0.2-0.1-0.4-0.1-0.7-0.2l-0.2-0.1l-0.8-0.3
					c-0.1-0.1-0.5-0.1-0.8-0.1s-0.5-0.1-0.8-0.1l-0.7-0.2H233c-0.7,0-1.3,0-1.9,0.2l-0.2,0.1h-0.7c-0.1,0-0.4,0-0.6,0.1
					c-0.2,0-0.5,0.1-0.7,0.1l-0.6,0.2c-1.3,0.3-2.5,0.7-3.8,1.3l-2.3,0.9c-0.2,0.1-0.4,0.3-0.6,0.4c-0.3,0.2-0.6,0.4-0.9,0.6
					c-0.4,0.2-0.8,0.5-1.1,0.8l-0.5,0.3l-0.7,0.4l-1.2,1.1c-0.5,0.5-0.9,0.9-1.1,1.3l-0.3,0.4c-0.2,0.3-0.4,0.5-0.5,0.7
					c-0.2,0.2-0.3,0.4-0.4,0.6l-1.4,2.4c-0.1,0.2-0.3,0.5-0.4,0.7c-0.1,0.3-0.3,0.6-0.5,1c-1.1,3-1.7,5.9-1.7,8.5
					c0,2.4,0.4,4.8,1.2,7.4c1.5,4.3,4.3,8,8.1,10.7l5.3,3.9l-6.2,2.2C204.1,234.3,193.9,248.6,193.3,264.7z"/>
			</g>
		</g>
	</g>
	<g>
		<g>
			<circle class="st3" cx="102" cy="226.4" r="10.2"/>
			<path class="st3" d="M102,238.1c-6.4,0-11.6-5.2-11.6-11.6s5.2-11.6,11.6-11.6s11.6,5.2,11.6,11.6S108.4,238.1,102,238.1z
				 M102,217.6c-4.9,0-8.8,4-8.8,8.8s4,8.8,8.8,8.8s8.8-4,8.8-8.8S106.9,217.6,102,217.6z"/>
		</g>
		<g>
			<path class="st3" d="M125.1,206.7c-7.3,0-13.2-5.9-13.2-13.2s5.9-13.2,13.2-13.2s13.2,5.9,13.2,13.2S132.4,206.7,125.1,206.7z
				 M125.1,183.2c-5.7,0-10.3,4.6-10.3,10.3s4.6,10.3,10.3,10.3s10.3-4.6,10.3-10.3S130.8,183.2,125.1,183.2z"/>
		</g>
		<g>
			<path class="st3" d="M132,266.7c-8.1,0-14.7-6.6-14.7-14.7c0-8.1,6.6-14.7,14.7-14.7s14.7,6.6,14.7,14.7
				C146.7,260.1,140.1,266.7,132,266.7z M132,240.2c-6.5,0-11.9,5.3-11.9,11.9c0,6.6,5.3,11.9,11.9,11.9c6.5,0,11.9-5.3,11.9-11.9
				C143.9,245.5,138.5,240.2,132,240.2z"/>
		</g>
		<g>
			<path class="st3" d="M55.1,247.8c-8.8,0-15.9-7.1-15.9-15.9S46.3,216,55.1,216S71,223.1,71,231.9S63.9,247.8,55.1,247.8z
				 M55.1,218.8c-7.2,0-13.1,5.9-13.1,13.1c0,7.2,5.9,13.1,13.1,13.1s13.1-5.9,13.1-13.1S62.3,218.8,55.1,218.8z"/>
		</g>
		<g>
			
				<rect x="68.8" y="226.9" transform="matrix(0.9942 -0.1078 0.1078 0.9942 -24.1128 10.5419)" class="st3" width="33.3" height="2.8"/>
		</g>
		<g>
			
				<rect x="96.2" y="213.6" transform="matrix(0.5896 -0.8077 0.8077 0.5896 -128.3522 177.3952)" class="st3" width="28.4" height="2.8"/>
		</g>
		<g>
			
				<rect x="110.5" y="221.8" transform="matrix(0.6487 -0.761 0.761 0.6487 -139.453 167.6715)" class="st3" width="2.8" height="26.2"/>
		</g>
	</g>
	<g id="Ebene_14">
		<path d="M864.3,44.3l-7.8-7.8l-31.1,31.1l-31.1-31.1l-7.8,7.8l31.1,31.1l-31.1,31.1l7.8,7.8l31.1-31.1l31.1,31.1l7.8-7.8
			l-31.1-31.1L864.3,44.3z"/>
	</g>
	<g id="Ebene_10">
		<path d="M1011.8,85.6h-3.5l-1.3-1.2c10.5-12.2,9.1-30.7-3.1-41.2s-30.7-9.1-41.2,3.1s-9.1,30.7,3.1,41.2c10.9,9.4,27.1,9.4,38.1,0
			l1.2,1.3v3.5l22.4,22.4l6.7-6.7L1011.8,85.6z M984.9,85.6c-11.2,0-20.2-9-20.2-20.2s9-20.2,20.2-20.2s20.2,9,20.2,20.2
			C1005.1,76.6,996,85.6,984.9,85.6L984.9,85.6z"/>
	</g>
	<g id="Ebene_14_1_">
		<path class="st3" d="M864.3,192.4l-7.8-7.8l-31.1,31.1l-31.1-31.1l-7.8,7.8l31.1,31.1l-31.1,31.1l7.8,7.8l31.1-31.1l31.1,31.1
			l7.8-7.8l-31.1-31.1L864.3,192.4z"/>
	</g>
	<g id="Ebene_10_1_">
		<path class="st3" d="M1011.8,233.7h-3.5l-1.3-1.2c10.5-12.2,9.1-30.7-3.1-41.2s-30.7-9.1-41.2,3.1c-10.5,12.2-9.1,30.7,3.1,41.2
			c10.9,9.4,27.1,9.4,38.1,0l1.2,1.3v3.5l22.4,22.4l6.7-6.7L1011.8,233.7z M984.9,233.7c-11.2,0-20.2-9-20.2-20.2s9-20.2,20.2-20.2
			s20.2,9,20.2,20.2C1005.1,224.7,996,233.7,984.9,233.7L984.9,233.7z"/>
	</g>
	<path d="M1603.9,31.3c-24.3,0-44.1,19.7-44.1,44.1s19.7,44.1,44.1,44.1s44.1-19.7,44.1-44.1S1628.2,31.3,1603.9,31.3z M1595.9,55.4
		c0-2.2,0.8-4.3,2.4-5.8c1.5-1.6,3.7-2.5,5.9-2.4c2.2,0,4.3,0.8,5.9,2.4c1.6,1.5,2.6,3.7,2.5,5.9c0,4.6-3.7,8.3-8.3,8.3
		c-2.2,0-4.3-0.9-5.9-2.5C1596.7,59.8,1595.9,57.7,1595.9,55.4L1595.9,55.4z M1615,103.5h-21.7v-3.7h0.7c1-0.6,1.7-1.6,1.9-2.7V77
		c0.1-1-0.1-2-0.5-2.9c-0.4-0.7-1.1-1.3-1.8-1.6l-0.5-0.2l-0.4-0.1v-3.5h19.7v26.7l0.1,0.8c0.1,0.8,0.3,1.5,0.7,2.2
		c0.3,0.5,0.8,1,1.3,1.4h0.6L1615,103.5L1615,103.5z"/>
	<path d="M1425.6,106.7c-3.1,1.6-5.9,3-8.7,4.3c-0.8,0.4-2,0.5-2.9,0.2c-3.3-1-6.5-2.2-9.8-3.2c-1.4-0.4-2-1.2-2-2.7
		c0-20.1,0-40.1,0-60.2c0-1.4,0.6-2.1,1.8-2.6c9.8-3.6,19.6-7.3,29.4-10.9c0.8-0.3,1.9-0.2,2.8,0c3.2,1,6.3,2.1,9.4,3.1
		c1.7,0.5,2.2,1.4,2.2,3.1c-0.1,12.8,0,25.5,0,38.3c0,0.7,0,1.4,0,2.6c3-1.5,5.6-2.8,8.2-4.2c0.3-0.2,0.4-1,0.5-1.6
		c0-2.7,0.1-5.5,0-8.2c0-1.4,0.5-2.2,1.7-2.8c4.7-2.3,9.3-4.7,14-6.9c0.7-0.4,1.8-0.5,2.6-0.2c3.4,1,6.8,2.3,10.2,3.3
		c1.3,0.4,1.7,1.2,1.7,2.4c0,11.1,0,22.1,0,33.2c0,1.4-0.5,2.1-1.7,2.7c-13.3,6.7-26.5,13.5-39.8,20.3c-7.1,3.6-4.5,3.6-12.5,0.8
		c-1.8-0.6-3.5-1.3-5.3-1.9c-1.3-0.4-1.7-1.2-1.7-2.5C1425.7,111.2,1425.6,109.1,1425.6,106.7z M1437.6,41.6
		c-1.7,0.1-2.8,0.6-2.7,2.6c0,1.9-0.2,3.9-0.3,5.8c-0.1,2.3-0.1,4.7-0.3,7c-0.3,3.4-1,6.8-1.2,10.2c-0.4,5.4-0.6,10.9-0.9,16.3
		c-0.1,2.3-0.2,4.5-0.4,6.8c0,0.4-0.6,0.8-0.9,1.2c-0.3-0.4-0.7-0.7-0.8-1.1c-0.2-0.5,0-1-0.1-1.6c-0.1-5-0.1-10-0.5-15
		c-0.5-7.9-1.2-15.8-1.9-23.6c-0.1-1.5-0.5-3-0.8-4.4c-0.3,0-0.6,0.1-1,0.1c2.2,18.2,1,36.4,0.9,55c2.6-1.3,4.7-2.5,7-3.5
		c1.3-0.5,1.8-1.4,2-2.6c0.2-1.7,0.3-3.4,0.5-5c0.3-3.1,0.4-6.2,0.7-9.3c0.4-3.8,1.1-7.6,1.1-11.4c0.1-8.8-0.2-17.7-0.3-26.5
		C1437.7,42.2,1437.6,41.9,1437.6,41.6z M1454.9,97.2c9.6-4.8,18.7-9.3,27.8-13.9c0.4-0.2,1-0.7,1-1c0.1-2.9,0-5.9,0-9.1
		c-9.6,4.8-18.8,9.4-28,14c-0.4,0.2-0.9,0.9-0.9,1.3C1454.9,91.2,1454.9,94,1454.9,97.2z M1439.6,115.9c0.5-0.1,0.7-0.1,0.9-0.2
		c7.8-3.9,15.5-7.9,23.3-11.8c0.4-0.2,0.9-0.6,0.9-0.9c0.1-2.8,0-5.5,0-8.3c-0.4,0-0.6,0-0.7,0c-7.8,3.9-15.6,7.7-23.4,11.7
		c-0.5,0.2-0.9,1-0.9,1.5C1439.6,110.5,1439.6,113.1,1439.6,115.9z M1417,107.7c1.2-0.6,2.2-1,3.1-1.5c0.4-0.3,0.8-0.9,0.8-1.4
		c0.1-1.4,0-2.9,0-4.3c-0.1-7.1-0.5-14.2-0.2-21.2c0.3-7.2,1.1-14.4,0.2-21.6c-0.4-3-1.4-6-2.1-8.9c-2.2,0.1-1.9,1.4-1.9,2.4
		c0,18.2,0,36.3,0,54.5C1416.9,106.2,1417,106.8,1417,107.7z M1405.8,46.5c0.2,3.8,0.5,7.3,0.5,10.7c0,9.1,0.7,18.1,1.5,27.2
		c0.6,6.5,0.4,13,0.5,19.5c0,2.6,0.2,2.8,3,3.1c0.1-0.2,0.2-0.4,0.2-0.5c-0.3-9.2-0.4-18.4-0.8-27.6c-0.5-9.7-1-19.3,0.1-28.9
		c0.1-1.1-0.1-1.9-1.3-2.2C1408.4,47.4,1407.4,47,1405.8,46.5z M1422.6,104.5c0.2,0.1,0.4,0.2,0.7,0.3c0.5-0.7,1.5-1.4,1.5-2.1
		c0.3-3.1,0.4-6.2,0.4-9.3c0.1-6.1,0.1-12.1,0-18.2c-0.1-6.8-0.2-13.7-0.4-20.5c-0.1-2.7-0.5-5.3-0.8-8.2c-0.8,0.3-1.4,0.5-1.9,0.7
		c-0.6,0.2-1.2,0.5-1.9,0.7c2.8,6.9,3.2,14,2.9,21.2c-0.1,3.8-0.6,7.5-0.7,11.3c-0.1,7.4,0,14.9,0,22.3
		C1422.5,103.2,1422.6,103.9,1422.6,104.5z M1466.6,102.5c5.8-3,11.1-5.7,16.5-8.5c0.3-0.2,0.7-0.6,0.7-0.9c0.1-2.7,0-5.4,0-8.4
		c-5.7,2.9-11.1,5.5-16.4,8.2c-0.4,0.2-0.8,0.9-0.8,1.4C1466.6,96.9,1466.6,99.4,1466.6,102.5z M1437.3,95.6c1.1-0.6,1.8-1,2.5-1.2
		c1.1-0.4,1.4-1.1,1.4-2.2c0.1-8.9,0.3-17.8,0.4-26.7c0.1-7.5,0-14.9,0-22.4c0-0.9,0-1.9,0-2.8c-1.7-0.1-2,0.7-2,1.9
		c0,4.3,0,8.6,0,12.9c0.1,4.7,0.6,9.5,0.3,14.2C1439.3,77.9,1438.2,86.5,1437.3,95.6z M1470.5,77.7c4.4-2.2,8.5-4.2,12.5-6.3
		c0.4-0.2,0.8-0.8,0.8-1.2c0.1-2.6,0-5.2,0-8.1c-4.5,2.2-8.6,4.3-12.7,6.5c-0.3,0.2-0.6,0.9-0.6,1.3
		C1470.5,72.3,1470.5,74.8,1470.5,77.7z M1430.2,102.5c1.6,0.5,2.8,0.8,3.8,1.3c3.1,1.6,5.9,1.3,8.9-0.5c2.7-1.7,5.7-2.9,8.9-4.5
		c-2.8-0.9-5.1-1.8-7.5-2.5c-0.5-0.1-1.1-0.2-1.5,0C1438.7,98.2,1434.6,100.2,1430.2,102.5z M1445.8,83.1c1.3,0.5,2.4,0.8,3.4,1.3
		c3.3,1.6,6.3,1.4,9.4-0.6c2.6-1.7,5.5-2.9,8.6-4.4c-2.8-0.9-5.2-1.7-7.6-2.5c-0.4-0.1-1.1-0.1-1.5,0.1
		C1454.1,78.9,1450.1,80.9,1445.8,83.1z M1453.4,97.3c0-3.1,0-5.9,0-8.7c0-0.4-0.3-1-0.6-1.1c-2.8-1-5.7-2-8.8-3c0,3.2,0,5.9,0,8.7
		c0,0.5,0.5,1.1,0.9,1.3C1447.6,95.4,1450.3,96.2,1453.4,97.3z M1413.6,107.7c0.1,0,0.2,0,0.4,0c0-0.7,0-1.4,0-2
		c0-16.7,0-33.4,0-50.2c0-1.7,0.1-3.4,0-5.1c0-0.6-0.5-1.1-0.8-1.7c-0.2,0.1-0.4,0.2-0.5,0.2c-0.1,0.3-0.2,0.6-0.2,0.9
		c-0.1,4.8-0.5,9.6-0.4,14.4c0.2,8.6,0.8,17.1,1.1,25.6c0.2,5.6,0.3,11.3,0.4,16.9C1413.4,107.1,1413.5,107.4,1413.6,107.7z
		 M1437.7,116.2c0-3.1,0-5.7,0-8.4c0-0.4-0.5-1-0.8-1.1c-2.7-1-5.5-1.9-8.2-2.7c0,2.9,0,5.6,0,8.3c0,0.4,0.5,0.9,0.9,1.1
		C1432.2,114.3,1434.7,115.1,1437.7,116.2z M1459.6,65.7c0,2.9,0,5.5,0,8.1c0,0.4,0.4,1.1,0.7,1.2c2.7,1,5.3,1.8,8.3,2.8
		c0-2.9,0-5.5,0-8.1c0-0.4-0.4-1.1-0.8-1.2C1465.2,67.5,1462.5,66.7,1459.6,65.7z M1481.2,60.1c-0.7-0.3-0.9-0.3-1.1-0.4
		c-4.2-2.2-8.2-2.2-12.1,0.6c-1.7,1.2-3.8,2-6.1,3.1c2.4,0.8,4.4,1.5,6.3,2.1c0.5,0.2,1.2,0.3,1.7,0.1
		C1473.6,63.9,1477.2,62,1481.2,60.1z M1444.8,39.1c-0.4,0-0.8-0.1-1.3-0.1c-1.1,13.9,0.7,27.8-0.6,41.7c2.1-0.2,1.9-1.4,1.9-2.4
		c0-12.6,0-25.3,0-37.9C1444.8,40,1444.8,39.5,1444.8,39.1z M1431.3,70.3c0.6-8.5,1.3-17.7,2-27.3c-1.6,0.6-2.7,0.9-3.7,1.4
		c-0.4,0.2-0.9,0.9-0.9,1.3c0.2,3.6,0.4,7.1,0.8,10.6C1430.1,61.2,1430.7,66.1,1431.3,70.3z M1414.1,41.8c0,0.2,0,0.4-0.1,0.6
		c1.8,0.3,3.6,0.7,5.4,1c2.6,0.4,5-0.3,7.3-1.5c2.6-1.3,5.3-2.6,7.7-4.2c0.6-0.4,0.6-1.9,0.9-2.9c-0.7,0-1.6-0.2-2.2,0
		c-0.8,0.3-1.4,1-2,1.6c-1.1,1.1-1.9,2.6-3.2,3.3c-3.4,2-7.1,2.6-11,2.1C1416,41.7,1415,41.8,1414.1,41.8z M1405.2,75.1
		c0,9.4,0,18.8,0,28.2c0,0.7,0.2,1.4,0.3,2.1c0.3,0,0.5-0.1,0.8-0.1C1407.3,95.2,1406.1,85.1,1405.2,75.1z M1418.4,45
		c-3.3,0.4-6.3-2.8-9.7-0.8C1411.9,44.9,1414.9,47.8,1418.4,45z M1428.6,37.1c-0.1-0.2-0.1-0.3-0.2-0.5c-3,1.1-6.1,2.3-9.1,3.4
		C1422.6,39.9,1426,39.5,1428.6,37.1z M1442,36.5c-1.8-0.6-3.2-1-4.4-1.4c-0.3,1.3-0.5,2.3-0.8,3.3
		C1438.3,37.9,1439.9,37.3,1442,36.5z"/>
	<path d="M1237.3,93.5c5.4-3,10.6-6,16-9.1c-5.4-3.1-10.7-6.1-16-9.2c5.4-3.1,10.6-6,16-9.1c-5.4-3.1-10.6-6.1-16-9.1
		c0.5-0.3,0.8-0.5,1.1-0.7c14.6-8.3,29.1-16.5,43.7-24.7c0.4-0.2,1.2-0.3,1.5-0.1c14.8,8.4,29.6,16.8,44.5,25.2
		c0.1,0.1,0.3,0.2,0.6,0.4c-5.3,3-10.5,6-16,9.1c5.4,3.1,10.6,6.1,16.1,9.1c-5.4,3.1-10.6,6.1-16,9.2c5.4,3.1,10.6,6,16,9.1
		c-1.5,0.9-2.8,1.6-4.1,2.4c-13.6,7.7-27.1,15.5-40.7,23.2c-0.7,0.4-1.1,0.4-1.8,0c-14.6-8.3-29.2-16.7-43.7-25
		C1238,94,1237.7,93.8,1237.3,93.5z M1321.9,57c-0.4-0.2-0.6-0.4-0.8-0.5c-12.4-7-24.8-14-37.2-21.1c-0.8-0.4-1.3-0.4-2,0
		c-10.7,6.1-21.5,12.2-32.2,18.3c-1.9,1.1-3.7,2.1-5.7,3.2c0.3,0.2,0.5,0.4,0.6,0.5c12.5,7.1,25,14.3,37.6,21.4
		c0.4,0.2,1.1,0.1,1.5-0.1c11.1-6.3,22.1-12.6,33.2-18.9C1318.5,58.9,1320.1,58,1321.9,57z M1244,75.2c0.4,0.3,0.7,0.5,1,0.7
		c12.4,7.1,24.7,14.1,37.1,21.2c0.4,0.2,1.1,0.2,1.5,0c12.4-7,24.8-14.1,37.1-21.2c0.3-0.2,0.6-0.4,1-0.7c-0.5-0.3-0.8-0.5-1.2-0.7
		c-3.5-2-6.9-3.9-10.4-5.9c-0.7-0.4-1.3-0.4-2,0c-8.1,4.6-16.2,9.2-24.3,13.9c-0.8,0.5-1.3,0.4-2.1,0c-8-4.6-16.1-9.2-24.2-13.8
		c-0.4-0.2-1.2-0.5-1.5-0.3C1252.1,70.6,1248.2,72.8,1244,75.2z M1244,93.5c0.5,0.3,0.7,0.5,1,0.6c12.4,7.1,24.8,14.1,37.1,21.2
		c0.7,0.4,1.2,0.3,1.8-0.1c11.7-6.7,23.5-13.4,35.2-20.1c0.9-0.5,1.8-1,2.8-1.6c-0.4-0.3-0.7-0.5-1-0.6c-3.6-2-7.1-4-10.7-6.1
		c-0.7-0.4-1.2-0.4-1.9,0c-8.1,4.6-16.2,9.2-24.3,13.9c-0.8,0.4-1.3,0.5-2.1,0c-8-4.6-16-9.1-23.9-13.7c-1-0.6-1.7-0.6-2.7,0
		c-1.1,0.8-2.4,1.4-3.6,2C1249.2,90.5,1246.7,92,1244,93.5z"/>
	<path class="st3" d="M1603.9,179.4c-24.3,0-44.1,19.7-44.1,44.1s19.7,44.1,44.1,44.1s44.1-19.7,44.1-44.1
		S1628.2,179.4,1603.9,179.4z M1595.9,203.5c0-2.2,0.8-4.3,2.4-5.8c1.5-1.6,3.7-2.5,5.9-2.4c2.2,0,4.3,0.8,5.9,2.4
		c1.6,1.5,2.6,3.7,2.5,5.9c0,4.6-3.7,8.3-8.3,8.3c-2.2,0-4.3-0.9-5.9-2.5C1596.7,207.9,1595.9,205.8,1595.9,203.5L1595.9,203.5z
		 M1615,251.6h-21.7v-3.7h0.7c1-0.6,1.7-1.6,1.9-2.7v-20.1c0.1-1-0.1-2-0.5-2.9c-0.4-0.7-1.1-1.3-1.8-1.6l-0.5-0.2l-0.4-0.1v-3.6
		h19.7v26.7l0.1,0.8c0.1,0.8,0.3,1.5,0.7,2.2c0.3,0.5,0.8,1,1.3,1.4h0.6L1615,251.6L1615,251.6z"/>
	<path class="st3" d="M1425.6,254.8c-3.1,1.6-5.9,3-8.7,4.3c-0.8,0.4-2,0.5-2.9,0.2c-3.3-1-6.5-2.2-9.8-3.2c-1.4-0.4-2-1.2-2-2.7
		c0-20.1,0-40.1,0-60.2c0-1.4,0.6-2.1,1.8-2.6c9.8-3.6,19.6-7.3,29.4-10.9c0.8-0.3,1.9-0.2,2.8,0c3.2,1,6.3,2.1,9.4,3.1
		c1.7,0.5,2.2,1.4,2.2,3.1c-0.1,12.8,0,25.5,0,38.3c0,0.7,0,1.4,0,2.6c3-1.5,5.6-2.8,8.2-4.2c0.3-0.2,0.4-1,0.5-1.6
		c0-2.7,0.1-5.5,0-8.2c0-1.4,0.5-2.2,1.7-2.8c4.7-2.3,9.3-4.7,14-6.9c0.7-0.4,1.8-0.5,2.6-0.2c3.4,1,6.8,2.3,10.2,3.3
		c1.3,0.4,1.7,1.2,1.7,2.4c0,11.1,0,22.1,0,33.2c0,1.4-0.5,2.1-1.7,2.7c-13.3,6.7-26.5,13.5-39.8,20.3c-7.1,3.6-4.5,3.6-12.5,0.8
		c-1.8-0.6-3.5-1.3-5.3-1.9c-1.3-0.4-1.7-1.2-1.7-2.5C1425.7,259.2,1425.6,257.2,1425.6,254.8z M1437.6,189.7
		c-1.7,0.1-2.8,0.6-2.7,2.6c0,1.9-0.2,3.9-0.3,5.8c-0.1,2.3-0.1,4.7-0.3,7c-0.3,3.4-1,6.8-1.2,10.2c-0.4,5.4-0.6,10.9-0.9,16.3
		c-0.1,2.3-0.2,4.5-0.4,6.8c0,0.4-0.6,0.8-0.9,1.2c-0.3-0.4-0.7-0.7-0.8-1.1c-0.2-0.5,0-1-0.1-1.6c-0.1-5-0.1-10-0.5-15
		c-0.5-7.9-1.2-15.8-1.9-23.6c-0.1-1.5-0.5-3-0.8-4.4c-0.3,0-0.6,0.1-1,0.1c2.2,18.2,1,36.4,0.9,55c2.6-1.3,4.7-2.5,7-3.5
		c1.3-0.5,1.8-1.4,2-2.6c0.2-1.7,0.3-3.4,0.5-5c0.3-3.1,0.4-6.2,0.7-9.3c0.4-3.8,1.1-7.6,1.1-11.4c0.1-8.8-0.2-17.7-0.3-26.5
		C1437.7,190.3,1437.6,190,1437.6,189.7z M1454.9,245.3c9.6-4.8,18.7-9.3,27.8-13.9c0.4-0.2,1-0.7,1-1c0.1-2.9,0-5.9,0-9.1
		c-9.6,4.8-18.8,9.4-28,14c-0.4,0.2-0.9,0.9-0.9,1.3C1454.9,239.3,1454.9,242.1,1454.9,245.3z M1439.6,264c0.5-0.1,0.7-0.1,0.9-0.2
		c7.8-3.9,15.5-7.9,23.3-11.8c0.4-0.2,0.9-0.6,0.9-0.9c0.1-2.8,0-5.5,0-8.3c-0.4,0-0.6,0-0.7,0c-7.8,3.9-15.6,7.7-23.4,11.7
		c-0.5,0.2-0.9,1-0.9,1.5C1439.6,258.6,1439.6,261.2,1439.6,264z M1417,255.8c1.2-0.6,2.2-1,3.1-1.5c0.4-0.3,0.8-0.9,0.8-1.4
		c0.1-1.4,0-2.9,0-4.3c-0.1-7.1-0.5-14.2-0.2-21.2c0.3-7.2,1.1-14.4,0.2-21.6c-0.4-3-1.4-6-2.1-8.9c-2.2,0.1-1.9,1.4-1.9,2.4
		c0,18.2,0,36.3,0,54.5C1416.9,254.3,1417,254.9,1417,255.8z M1405.8,194.6c0.2,3.8,0.5,7.3,0.5,10.7c0,9.1,0.7,18.1,1.5,27.2
		c0.6,6.5,0.4,13,0.5,19.5c0,2.6,0.2,2.8,3,3.1c0.1-0.2,0.2-0.4,0.2-0.5c-0.3-9.2-0.4-18.4-0.8-27.6c-0.5-9.7-1-19.3,0.1-28.9
		c0.1-1.1-0.1-1.9-1.3-2.2C1408.4,195.4,1407.4,195.1,1405.8,194.6z M1422.6,252.6c0.2,0.1,0.4,0.2,0.7,0.3c0.5-0.7,1.5-1.4,1.5-2.1
		c0.3-3.1,0.4-6.2,0.4-9.3c0.1-6.1,0.1-12.1,0-18.2c-0.1-6.8-0.2-13.7-0.4-20.5c-0.1-2.7-0.5-5.3-0.8-8.2c-0.8,0.3-1.4,0.5-1.9,0.7
		c-0.6,0.2-1.2,0.5-1.9,0.7c2.8,6.9,3.2,14,2.9,21.2c-0.1,3.8-0.6,7.5-0.7,11.3c-0.1,7.4,0,14.9,0,22.3
		C1422.5,251.3,1422.6,252,1422.6,252.6z M1466.6,250.6c5.8-3,11.1-5.7,16.5-8.5c0.3-0.2,0.7-0.6,0.7-0.9c0.1-2.7,0-5.4,0-8.4
		c-5.7,2.9-11.1,5.5-16.4,8.2c-0.4,0.2-0.8,0.9-0.8,1.4C1466.6,245,1466.6,247.5,1466.6,250.6z M1437.3,243.7c1.1-0.6,1.8-1,2.5-1.2
		c1.1-0.4,1.4-1.1,1.4-2.2c0.1-8.9,0.3-17.8,0.4-26.7c0.1-7.5,0-14.9,0-22.4c0-0.9,0-1.9,0-2.8c-1.7-0.1-2,0.7-2,1.9
		c0,4.3,0,8.6,0,12.9c0.1,4.7,0.6,9.5,0.3,14.2C1439.3,226,1438.2,234.6,1437.3,243.7z M1470.5,225.8c4.4-2.2,8.5-4.2,12.5-6.3
		c0.4-0.2,0.8-0.8,0.8-1.2c0.1-2.6,0-5.2,0-8.1c-4.5,2.2-8.6,4.3-12.7,6.5c-0.3,0.2-0.6,0.9-0.6,1.3
		C1470.5,220.4,1470.5,222.9,1470.5,225.8z M1430.2,250.5c1.6,0.5,2.8,0.8,3.8,1.3c3.1,1.6,5.9,1.3,8.9-0.5c2.7-1.7,5.7-2.9,8.9-4.5
		c-2.8-0.9-5.1-1.8-7.5-2.5c-0.5-0.1-1.1-0.2-1.5,0C1438.7,246.3,1434.6,248.3,1430.2,250.5z M1445.8,231.2c1.3,0.5,2.4,0.8,3.4,1.3
		c3.3,1.6,6.3,1.4,9.4-0.6c2.6-1.7,5.5-2.9,8.6-4.4c-2.8-0.9-5.2-1.7-7.6-2.5c-0.4-0.1-1.1-0.1-1.5,0.1
		C1454.1,227,1450.1,229,1445.8,231.2z M1453.4,245.4c0-3.1,0-5.9,0-8.7c0-0.4-0.3-1-0.6-1.1c-2.8-1-5.7-2-8.8-3c0,3.2,0,5.9,0,8.7
		c0,0.5,0.5,1.1,0.9,1.3C1447.6,243.5,1450.3,244.3,1453.4,245.4z M1413.6,255.8c0.1,0,0.2,0,0.4,0c0-0.7,0-1.4,0-2
		c0-16.7,0-33.4,0-50.2c0-1.7,0.1-3.4,0-5.1c0-0.6-0.5-1.1-0.8-1.7c-0.2,0.1-0.4,0.2-0.5,0.2c-0.1,0.3-0.2,0.6-0.2,0.9
		c-0.1,4.8-0.5,9.6-0.4,14.4c0.2,8.6,0.8,17.1,1.1,25.6c0.2,5.6,0.3,11.3,0.4,16.9C1413.4,255.2,1413.5,255.5,1413.6,255.8z
		 M1437.7,264.3c0-3.1,0-5.7,0-8.4c0-0.4-0.5-1-0.8-1.1c-2.7-1-5.5-1.9-8.2-2.7c0,2.9,0,5.6,0,8.3c0,0.4,0.5,0.9,0.9,1.1
		C1432.2,262.4,1434.7,263.2,1437.7,264.3z M1459.6,213.8c0,2.9,0,5.5,0,8.1c0,0.4,0.4,1.1,0.7,1.2c2.7,1,5.3,1.8,8.3,2.8
		c0-2.9,0-5.5,0-8.1c0-0.4-0.4-1.1-0.8-1.2C1465.2,215.6,1462.5,214.8,1459.6,213.8z M1481.2,208.2c-0.7-0.3-0.9-0.3-1.1-0.4
		c-4.2-2.2-8.2-2.2-12.1,0.6c-1.7,1.2-3.8,2-6.1,3.1c2.4,0.8,4.4,1.5,6.3,2.1c0.5,0.2,1.2,0.3,1.7,0.1
		C1473.6,212,1477.2,210.1,1481.2,208.2z M1444.8,187.2c-0.4,0-0.8-0.1-1.3-0.1c-1.1,13.9,0.7,27.8-0.6,41.7
		c2.1-0.2,1.9-1.4,1.9-2.4c0-12.6,0-25.3,0-37.9C1444.8,188.1,1444.8,187.6,1444.8,187.2z M1431.3,218.4c0.6-8.5,1.3-17.7,2-27.3
		c-1.6,0.6-2.7,0.9-3.7,1.4c-0.4,0.2-0.9,0.9-0.9,1.3c0.2,3.6,0.4,7.1,0.8,10.6C1430.1,209.3,1430.7,214.2,1431.3,218.4z
		 M1414.1,189.9c0,0.2,0,0.4-0.1,0.6c1.8,0.3,3.6,0.7,5.4,1c2.6,0.4,5-0.3,7.3-1.5c2.6-1.3,5.3-2.6,7.7-4.2c0.6-0.4,0.6-1.9,0.9-2.9
		c-0.7,0-1.6-0.2-2.2,0c-0.8,0.3-1.4,1-2,1.6c-1.1,1.1-1.9,2.6-3.2,3.3c-3.4,2-7.1,2.6-11,2.1C1416,189.8,1415,189.9,1414.1,189.9z
		 M1405.2,223.2c0,9.4,0,18.8,0,28.2c0,0.7,0.2,1.4,0.3,2.1c0.3,0,0.5-0.1,0.8-0.1C1407.3,243.3,1406.1,233.2,1405.2,223.2z
		 M1418.4,193.1c-3.3,0.4-6.3-2.8-9.7-0.8C1411.9,193,1414.9,195.9,1418.4,193.1z M1428.6,185.2c-0.1-0.2-0.1-0.3-0.2-0.5
		c-3,1.1-6.1,2.3-9.1,3.4C1422.6,188,1426,187.6,1428.6,185.2z M1442,184.6c-1.8-0.6-3.2-1-4.4-1.4c-0.3,1.3-0.5,2.3-0.8,3.3
		C1438.3,186,1439.9,185.4,1442,184.6z"/>
	<path class="st3" d="M1237.3,241.6c5.4-3,10.6-6,16-9.1c-5.4-3.1-10.7-6.1-16-9.2c5.4-3.1,10.6-6,16-9.1c-5.4-3.1-10.6-6.1-16-9.1
		c0.5-0.3,0.8-0.5,1.1-0.7c14.6-8.3,29.1-16.5,43.7-24.7c0.4-0.2,1.2-0.3,1.5-0.1c14.8,8.4,29.6,16.8,44.5,25.2
		c0.1,0.1,0.3,0.2,0.6,0.4c-5.3,3-10.5,6-16,9.1c5.4,3.1,10.6,6.1,16.1,9.1c-5.4,3.1-10.6,6.1-16,9.2c5.4,3.1,10.6,6,16,9.1
		c-1.5,0.9-2.8,1.6-4.1,2.4c-13.6,7.7-27.1,15.5-40.7,23.2c-0.7,0.4-1.1,0.4-1.8,0c-14.6-8.3-29.2-16.7-43.7-25
		C1238,242.1,1237.7,241.9,1237.3,241.6z M1321.9,205.1c-0.4-0.2-0.6-0.4-0.8-0.5c-12.4-7-24.8-14-37.2-21.1c-0.8-0.4-1.3-0.4-2,0
		c-10.7,6.1-21.5,12.2-32.2,18.3c-1.9,1.1-3.7,2.1-5.7,3.2c0.3,0.2,0.5,0.4,0.6,0.5c12.5,7.1,25,14.3,37.6,21.4
		c0.4,0.2,1.1,0.1,1.5-0.1c11.1-6.3,22.1-12.6,33.2-18.9C1318.5,207,1320.1,206.1,1321.9,205.1z M1244,223.3c0.4,0.3,0.7,0.5,1,0.7
		c12.4,7.1,24.7,14.1,37.1,21.2c0.4,0.2,1.1,0.2,1.5,0c12.4-7,24.8-14.1,37.1-21.2c0.3-0.2,0.6-0.4,1-0.7c-0.5-0.3-0.8-0.5-1.2-0.7
		c-3.5-2-6.9-3.9-10.4-5.9c-0.7-0.4-1.3-0.4-2,0c-8.1,4.6-16.2,9.2-24.3,13.9c-0.8,0.5-1.3,0.4-2.1,0c-8-4.6-16.1-9.2-24.2-13.8
		c-0.4-0.2-1.2-0.5-1.5-0.3C1252.1,218.7,1248.2,220.9,1244,223.3z M1244,241.6c0.5,0.3,0.7,0.5,1,0.6c12.4,7.1,24.8,14.1,37.1,21.2
		c0.7,0.4,1.2,0.3,1.8-0.1c11.7-6.7,23.5-13.4,35.2-20.1c0.9-0.5,1.8-1,2.8-1.6c-0.4-0.3-0.7-0.5-1-0.6c-3.6-2-7.1-4-10.7-6.1
		c-0.7-0.4-1.2-0.4-1.9,0c-8.1,4.6-16.2,9.2-24.3,13.9c-0.8,0.4-1.3,0.5-2.1,0c-8-4.6-16-9.1-23.9-13.7c-1-0.6-1.7-0.6-2.7,0
		c-1.1,0.8-2.4,1.4-3.6,2C1249.2,238.6,1246.7,240.1,1244,241.6z"/>
	<path class="st3" d="M1173.7,179.5h-81c-6.1,0-11.1,5-11.1,11.1V255c0,6.9,5.7,12.6,12.6,12.6h78.1c6.9,0,12.6-5.7,12.6-12.6v-64.4
		C1184.9,184.5,1179.9,179.5,1173.7,179.5z M1179.8,262.6h-92.2v-78h92.2V262.6z M1096.3,228l10.2-6.1l10.2,6.1v-32.6h-20.3
		L1096.3,228L1096.3,228z"/>
	<path d="M1176.2,31.4h-81c-6.1,0-11.1,5-11.1,11.1v64.4c0,6.9,5.7,12.6,12.6,12.6h78.1c6.9,0,12.6-5.7,12.6-12.6V42.5
		C1187.4,36.4,1182.4,31.4,1176.2,31.4z M1182.3,114.5h-93.2v-78h93.2V114.5z M1098.8,79.9l10.2-6.1l10.2,6.1V47.3h-20.3
		L1098.8,79.9L1098.8,79.9z"/>
	<path d="M416.3,346.5c-29.4,0-54.5,18.3-64.7,44.1c10.2,25.8,35.3,44.1,64.7,44.1s54.5-18.3,64.7-44.1
		C470.8,364.8,445.7,346.5,416.3,346.5z M416.3,428c-27.1,0-50.2-15.5-59.7-37.4c9.4-21.9,32.5-37.4,59.7-37.4
		c27.1,0,50.2,15.5,59.6,37.4C466.5,412.5,443.4,428,416.3,428z M416.3,361c-16.2,0-29.4,13.2-29.4,29.4c0,16.2,13.2,29.4,29.4,29.4
		s29.4-13.1,29.4-29.4C445.7,374.2,432.5,361,416.3,361z M416.3,414.4c-13.2,0-24-10.8-24-24s10.8-24,24-24c13.4,0,24.1,10.8,24,24
		C440.3,403.6,429.5,414.4,416.3,414.4z"/>
	<path class="st3" d="M103.9,346.5c-29.4,0-54.5,18.3-64.7,44.1c10.2,25.8,35.3,44.1,64.7,44.1s54.5-18.3,64.7-44.1
		C158.4,364.8,133.3,346.5,103.9,346.5z M103.9,428c-27.1,0-50.2-15.5-59.7-37.4c9.4-21.9,32.5-37.4,59.7-37.4
		c27.1,0,50.2,15.5,59.6,37.4C154.1,412.5,131,428,103.9,428z M103.9,361c-16.2,0-29.4,13.2-29.4,29.4c0,16.2,13.2,29.4,29.4,29.4
		s29.4-13.1,29.4-29.4C133.3,374.2,120.1,361,103.9,361z M103.9,414.4c-13.2,0-24-10.8-24-24s10.8-24,24-24c13.4,0,24.1,10.8,24,24
		C127.9,403.6,117.1,414.4,103.9,414.4z"/>
	<polygon class="st3" points="714,346.3 691.8,384.9 736.3,384.9 	"/>
	<polygon class="st4" points="714,434.3 736.3,395.7 691.8,395.7 	"/>
	<polygon points="946,346.6 923.8,385.2 968.3,385.2 	"/>
	<polygon class="st5" points="946,434.6 968.3,396 923.8,396 	"/>
	<polygon class="st5" points="1058.5,346.6 1036.3,385.2 1080.8,385.2 	"/>
	<polygon points="1058.5,434.6 1080.8,396 1036.3,396 	"/>
	<polygon class="st4" points="834.6,346.3 812.3,384.9 856.8,384.9 	"/>
	<polygon class="st3" points="834.6,434.3 856.8,395.7 812.3,395.7 	"/>
	<polygon points="1357.3,391 1288.5,351.2 1288.5,430.6 	"/>
	<polygon class="st3" points="1644.3,390.9 1575.5,351.3 1575.5,430.7 	"/>
	<g>
		<path d="M251.4,596.6c-24,0-48,0-72,0c0-0.2,0-0.4,0-0.6c0-20.9,0-41.9,0-62.8c0-0.4,0.1-0.7,0.4-1c7.2-7.2,14.4-14.4,21.7-21.6
			c0.6-0.6,1.2-1.1,1.7-1.7c0.3-0.3,0.6-0.4,1-0.4c13.2,0,26.3,0,39.5,0c2.4,0,4.8,0,7.1,0c0.2,0,0.4,0,0.6,0
			C251.4,537.9,251.4,567.2,251.4,596.6z M248.6,593.8c0-27.6,0-55.1,0-82.6c-0.2,0-0.3,0-0.4,0c-14.3,0-28.7,0-43,0
			c-0.3,0-0.6,0.2-0.8,0.4c-7.2,7.2-14.5,14.5-21.7,21.7c-0.3,0.3-0.4,0.6-0.4,1c0,19.6,0,39.3,0,58.9c0,0.2,0,0.4,0,0.6
			C204.4,593.8,226.5,593.8,248.6,593.8z"/>
		<path d="M189.6,553.1c0-1.9,0-3.7,0-5.5c17.3,0,34.5,0,51.8,0c0,1.8,0,3.7,0,5.5C224.1,553.1,206.9,553.1,189.6,553.1z"/>
		<path d="M241.4,563.6c0,1.9,0,3.7,0,5.5c-17.2,0-34.5,0-51.7,0c0-1.8,0-3.6,0-5.5C206.9,563.6,224.1,563.6,241.4,563.6z"/>
		<path d="M189.6,585.2c0-1.9,0-3.7,0-5.5c17.2,0,34.5,0,51.7,0c0,1.8,0,3.6,0,5.5C224.1,585.2,206.9,585.2,189.6,585.2z"/>
	</g>
	<g>
		<path d="M544.2,434.7c0-29.4,0-58.8,0-88.2c0.2,0,0.4,0,0.6,0c15.5,0,31.1,0,46.6,0c0.4,0,0.7,0.1,1,0.4
			c7.8,7.8,15.5,15.6,23.3,23.4c0.3,0.3,0.4,0.6,0.4,1c0,20.9,0,41.8,0,62.8c0,0.2,0,0.4,0,0.6C592.2,434.7,568.3,434.7,544.2,434.7
			z M613.5,431.9c0-0.2,0-0.3,0-0.4c0-19.7,0-39.5,0-59.2c0-0.3-0.2-0.6-0.4-0.8c-7.2-7.3-14.5-14.5-21.7-21.7
			c-0.3-0.3-0.6-0.4-1-0.4c-14.3,0-28.5,0-42.8,0c-0.2,0-0.4,0-0.6,0c0,27.6,0,55.1,0,82.6C569.2,431.9,591.3,431.9,613.5,431.9z"/>
		<path d="M562.6,396.4c11.8,0,23.5,0,35.3,0c0,3.3,0,6.6,0,10c-11.8,0-23.5,0-35.3,0C562.6,403.1,562.6,399.8,562.6,396.4z"/>
		<path d="M562.6,422.5c0-3.3,0-6.6,0-10c11.8,0,23.6,0,35.3,0c0,3.3,0,6.6,0,10C586.1,422.5,574.4,422.5,562.6,422.5z"/>
		<path d="M589,353c7,7,14,14,21,21c-7,0-14,0-21,0C589,367,589,360,589,353z"/>
	</g>
	<polygon points="1143.2,390.8 1212.1,430.6 1212.1,351.2 	"/>
	<polygon class="st3" points="1430.7,391.1 1499.5,430.7 1499.5,351.3 	"/>
	<g>
		<path class="st3" d="M217,434.7c0-29.4,0-58.8,0-88.2c0.2,0,0.4,0,0.6,0c15.5,0,31.1,0,46.6,0c0.4,0,0.7,0.1,1,0.4
			c7.8,7.8,15.5,15.6,23.3,23.4c0.3,0.3,0.4,0.6,0.4,1c0,20.9,0,41.8,0,62.8c0,0.2,0,0.4,0,0.6C265,434.7,241.1,434.7,217,434.7z
			 M286.3,431.9c0-0.2,0-0.3,0-0.4c0-19.7,0-39.5,0-59.2c0-0.3-0.2-0.6-0.4-0.8c-7.2-7.3-14.5-14.5-21.7-21.7
			c-0.3-0.3-0.6-0.4-1-0.4c-14.3,0-28.5,0-42.8,0c-0.2,0-0.4,0-0.6,0c0,27.6,0,55.1,0,82.6C242,431.9,264.1,431.9,286.3,431.9z"/>
		<path class="st3" d="M235.4,396.4c11.8,0,23.5,0,35.3,0c0,3.3,0,6.6,0,10c-11.8,0-23.5,0-35.3,0
			C235.4,403.1,235.4,399.8,235.4,396.4z"/>
		<path class="st3" d="M235.4,422.5c0-3.3,0-6.6,0-10c11.8,0,23.6,0,35.3,0c0,3.3,0,6.6,0,10C258.9,422.5,247.2,422.5,235.4,422.5z"
			/>
		<path class="st3" d="M261.8,353c7,7,14,14,21,21c-7,0-14,0-21,0C261.8,367,261.8,360,261.8,353z"/>
	</g>
	<g>
		<path class="st3" d="M115.8,596.6c-24,0-48,0-72,0c0-0.2,0-0.4,0-0.6c0-20.9,0-41.9,0-62.8c0-0.4,0.1-0.7,0.4-1
			c7.2-7.2,14.4-14.4,21.7-21.6c0.6-0.6,1.2-1.1,1.7-1.7c0.3-0.3,0.6-0.4,1-0.4c13.2,0,26.3,0,39.5,0c2.4,0,4.8,0,7.1,0
			c0.2,0,0.4,0,0.6,0C115.8,537.9,115.8,567.2,115.8,596.6z M113,593.8c0-27.6,0-55.1,0-82.6c-0.2,0-0.3,0-0.4,0
			c-14.3,0-28.7,0-43,0c-0.3,0-0.6,0.2-0.8,0.4c-7.2,7.2-14.5,14.5-21.7,21.7c-0.3,0.3-0.4,0.6-0.4,1c0,19.6,0,39.3,0,58.9
			c0,0.2,0,0.4,0,0.6C68.8,593.8,90.9,593.8,113,593.8z"/>
		<path class="st3" d="M54,553.1c0-1.9,0-3.7,0-5.5c17.3,0,34.5,0,51.8,0c0,1.8,0,3.7,0,5.5C88.5,553.1,71.3,553.1,54,553.1z"/>
		<path class="st3" d="M105.7,563.6c0,1.9,0,3.7,0,5.5c-17.2,0-34.5,0-51.7,0c0-1.8,0-3.6,0-5.5C71.2,563.6,88.5,563.6,105.7,563.6z
			"/>
		<path class="st3" d="M54,585.2c0-1.9,0-3.7,0-5.5c17.2,0,34.5,0,51.7,0c0,1.8,0,3.6,0,5.5C88.5,585.2,71.3,585.2,54,585.2z"/>
	</g>
	<path class="st3" d="M393.1,563.8h-3.9l-1.4-1.3c11.6-13.5,10.1-34-3.4-45.6c-13.5-11.6-34-10.1-45.6,3.4c-2.8,3.3-4.9,7-6.1,10.8
		c-1.6-1-3.2-2-4.9-3c-0.3-0.2-0.5-0.2-0.8,0.1c-3.5,3.5-6.9,7-10.4,10.4c-0.1,0.1-0.1,0.2-0.2,0.3c0.9,1.3,1.9,2.7,2.8,4
		c0.6,0.9,1.2,1.8,1.8,2.7c0.1,0.2,0.1,0.4,0.1,0.6c-0.3,0.7-0.6,1.4-1,2c-0.1,0.2-0.3,0.4-0.5,0.5c-2.6,0.6-5.2,1.1-7.8,1.7
		c-0.1,0-0.2,0-0.3,0c0,5.4,0,10.7,0,16.1c0.6,0.1,1.3,0.3,1.9,0.4c2,0.4,4.1,0.8,6.1,1.2c0.3,0.1,0.5,0.3,0.6,0.6
		c0.3,0.6,0.5,1.3,0.6,2c0,0.2-0.1,0.5-0.2,0.7c-1.5,2.2-2.9,4.4-4.4,6.5c3.8,3.8,7.6,7.6,11.5,11.5c0.7-0.5,1.6-1.1,2.4-1.7
		c1.4-0.9,2.7-1.9,4.1-2.8c0.2-0.1,0.6-0.2,0.8-0.1c0.6,0.1,1.3,0.3,1.8,0.6c0.2,0.1,0.4,0.4,0.5,0.6c0.6,2.5,1.1,5.1,1.6,7.6
		c0,0.1,0,0.2,0,0.3c5.4,0,10.7,0,16.1,0c0.1-0.6,0.3-1.3,0.4-1.9c0.4-2,0.8-4.1,1.2-6.1c0.1-0.3,0.3-0.5,0.6-0.6
		c0.6-0.3,1.3-0.5,2-0.6c0.2,0,0.5,0.1,0.7,0.2c2.2,1.5,4.4,2.9,6.4,4.4c3.8-3.8,7.6-7.6,11.5-11.5c-0.3-0.5-0.8-1.1-1.2-1.7
		c-0.9-1.3-1.8-2.6-2.7-4c3.8-1.3,7.4-3.3,10.7-6.1l1.3,1.4v3.9l24.8,24.8l7.4-7.4L393.1,563.8z M367.8,546.3c1,1.8,1.8,3.7,2.3,5.8
		c0.1,0.2,0.4,0.5,0.6,0.5c2.1,0.4,4.3,0.8,6.4,1.1c0.2,0,0.3,0.1,0.5,0.2c0,1.5,0,3.1,0,4.6c-3.9,3.3-8.9,5.3-14.4,5.3
		c-0.7,0-1.4,0-2.1-0.1c0.7-1.7,1-3.5,1-5.4c0-8.4-7.1-15.4-15.5-15.5c-2,0-3.9,0.4-5.7,1.1c-0.1-0.8-0.2-1.7-0.2-2.5
		c0-5.4,1.9-10.3,5-14.2c1.5,0,3.1,0,4.6,0c0.5,0,0.7,0.1,0.8,0.6c0.4,2.1,0.7,4.3,1.1,6.4c0,0.2,0.3,0.6,0.6,0.6
		c2,0.5,3.9,1.2,5.6,2.3c0.4,0.2,0.6,0.2,1,0c1.7-1.1,3.4-2.2,5.1-3.3c0.2-0.1,0.4-0.3,0.6-0.4c2.1,2.1,4.1,4.1,6.3,6.3
		c-0.5,0.8-1.1,1.8-1.7,2.7c-0.6,1-1.3,2-1.9,3C367.7,545.7,367.7,546.1,367.8,546.3z M335.6,558.2c1.7,2.8,3.9,5.4,6.5,7.7
		c1.6,1.3,3.2,2.5,4.9,3.5c-0.1,0-0.3,0-0.4,0C340.4,569.4,335.6,564.5,335.6,558.2C335.6,558.3,335.6,558.2,335.6,558.2z
		 M356.8,562.9c-7.1-2.1-12.7-7.6-14.9-14.6c1.4-0.7,3-1,4.8-1c6.2,0,11.1,4.9,11.1,11.1C357.8,560,357.4,561.5,356.8,562.9z
		 M371.4,576.8c-2.1,2.1-4.2,4.2-6.3,6.3c-1.4-0.9-2.9-1.8-4.3-2.8c-1.2-0.9-2.1-1-3.4-0.2s-2.9,1.2-4.4,1.6
		c-0.4,0.1-0.6,0.3-0.7,0.7c-0.3,2.1-0.7,4.3-1.1,6.4c0,0.2-0.1,0.3-0.1,0.5c-2.9,0-5.9,0-8.9,0c-0.3-1.5-0.5-3-0.8-4.5
		c-0.1-0.8-0.3-1.7-0.5-2.5c-0.1-0.2-0.3-0.5-0.6-0.6c-2-0.5-3.8-1.2-5.5-2.3c-0.4-0.3-0.7-0.2-1.1,0.1c-1.9,1.2-3.7,2.4-5.5,3.6
		c-2.1-2.1-4.2-4.2-6.3-6.3c1.1-1.7,2.3-3.6,3.5-5.4c0.3-0.5,0.3-0.9,0-1.4c-1-1.7-1.7-3.4-2.1-5.3c-0.1-0.5-0.3-0.7-0.8-0.7
		c-2.1-0.3-4.2-0.7-6.3-1.1c-0.3-0.1-0.6-0.1-0.5-0.5c0-2.8,0-5.6,0-8.5c1.8-0.3,3.6-0.7,5.4-0.9c1.4-0.2,2.3-0.5,2.6-2.2
		c0.3-1.5,1.1-2.9,1.8-4.2c0.2-0.5,0.2-0.8-0.1-1.2c-1.3-1.8-2.7-3.7-3.9-5.5c2.1-2.1,4.2-4.2,6.3-6.3c1.1,0.7,2.4,1.5,3.6,2.3
		c-0.9,5.4-0.5,10.9,1.3,16.1c-0.9,2-1.5,4.1-1.4,6.4c0,8.4,7.1,15.4,15.5,15.5c2.4,0,4.7-0.6,6.7-1.6c5.1,1.6,10.5,1.9,15.7,1
		C369.9,574.4,370.7,575.6,371.4,576.8z M382.1,553.4c0-1,0-2.1,0-3.1c-0.6-0.1-1.3-0.3-1.9-0.4c-2-0.4-4.1-0.8-6.1-1.2
		c-0.3-0.1-0.5-0.3-0.6-0.6c-0.3-0.6-0.5-1.3-0.6-2c0-0.2,0.1-0.5,0.2-0.7c1.5-2.2,2.9-4.4,4.4-6.5c-3.8-3.8-7.6-7.6-11.5-11.5
		c-0.7,0.5-1.6,1.1-2.4,1.7c-1.4,0.9-2.7,1.9-4.1,2.8c-0.2,0.1-0.6,0.2-0.8,0.1c-0.6-0.1-1.3-0.3-1.8-0.6c-0.2-0.1-0.4-0.4-0.5-0.6
		c-0.6-2.5-1.1-5.1-1.6-7.6c0-0.1,0-0.2,0-0.3c-1.3,0-2.7,0-4,0c3.6-2.4,7.9-3.8,12.5-3.8c12.4,0,22.4,10,22.4,22.4
		C385.6,545.9,384.3,550,382.1,553.4z"/>
	<path d="M545.9,563.8H542l-1.4-1.3c11.6-13.5,10.1-34-3.4-45.6c-13.5-11.6-34-10.1-45.6,3.4c-2.8,3.3-4.9,7-6.1,10.8
		c-1.6-1-3.2-2-4.9-3c-0.3-0.2-0.5-0.2-0.8,0.1c-3.5,3.5-6.9,7-10.4,10.4c-0.1,0.1-0.1,0.2-0.2,0.3c0.9,1.3,1.9,2.7,2.8,4
		c0.6,0.9,1.2,1.8,1.8,2.7c0.1,0.2,0.1,0.4,0.1,0.6c-0.3,0.7-0.6,1.4-1,2c-0.1,0.2-0.3,0.4-0.5,0.5c-2.6,0.6-5.2,1.1-7.8,1.7
		c-0.1,0-0.2,0-0.3,0c0,5.4,0,10.7,0,16.1c0.6,0.1,1.3,0.3,1.9,0.4c2,0.4,4.1,0.8,6.1,1.2c0.3,0.1,0.5,0.3,0.6,0.6
		c0.3,0.6,0.5,1.3,0.6,2c0,0.2-0.1,0.5-0.2,0.7c-1.5,2.2-2.9,4.4-4.4,6.5c3.8,3.8,7.6,7.6,11.5,11.5c0.7-0.5,1.6-1.1,2.4-1.7
		c1.4-0.9,2.7-1.9,4.1-2.8c0.2-0.1,0.6-0.2,0.8-0.1c0.6,0.1,1.3,0.3,1.8,0.6c0.2,0.1,0.4,0.4,0.5,0.6c0.6,2.5,1.1,5.1,1.6,7.6
		c0,0.1,0,0.2,0,0.3c5.4,0,10.7,0,16.1,0c0.1-0.6,0.3-1.3,0.4-1.9c0.4-2,0.8-4.1,1.2-6.1c0.1-0.3,0.3-0.5,0.6-0.6
		c0.6-0.3,1.3-0.5,2-0.6c0.2,0,0.5,0.1,0.7,0.2c2.2,1.5,4.4,2.9,6.4,4.4c3.8-3.8,7.6-7.6,11.5-11.5c-0.3-0.5-0.8-1.1-1.2-1.7
		c-0.9-1.3-1.8-2.6-2.7-4c3.8-1.3,7.4-3.3,10.7-6.1l1.3,1.4v3.9l24.8,24.8l7.4-7.4L545.9,563.8z M520.6,546.3c1,1.8,1.8,3.7,2.3,5.8
		c0.1,0.2,0.4,0.5,0.6,0.5c2.1,0.4,4.3,0.8,6.4,1.1c0.2,0,0.3,0.1,0.5,0.2c0,1.5,0,3.1,0,4.6c-3.9,3.3-8.9,5.3-14.4,5.3
		c-0.7,0-1.4,0-2.1-0.1c0.7-1.7,1-3.5,1-5.4c0-8.4-7.1-15.4-15.5-15.5c-2,0-3.9,0.4-5.7,1.1c-0.1-0.8-0.2-1.7-0.2-2.5
		c0-5.4,1.9-10.3,5-14.2c1.5,0,3.1,0,4.6,0c0.5,0,0.7,0.1,0.8,0.6c0.4,2.1,0.7,4.3,1.1,6.4c0,0.2,0.3,0.6,0.6,0.6
		c2,0.5,3.9,1.2,5.6,2.3c0.4,0.2,0.6,0.2,1,0c1.7-1.1,3.4-2.2,5.1-3.3c0.2-0.1,0.4-0.3,0.6-0.4c2.1,2.1,4.1,4.1,6.3,6.3
		c-0.5,0.8-1.1,1.8-1.7,2.7c-0.6,1-1.3,2-1.9,3C520.5,545.7,520.5,546.1,520.6,546.3z M488.4,558.2c1.7,2.8,3.9,5.4,6.5,7.7
		c1.6,1.3,3.2,2.5,4.9,3.5c-0.1,0-0.3,0-0.4,0C493.2,569.4,488.4,564.5,488.4,558.2C488.4,558.3,488.4,558.2,488.4,558.2z
		 M509.6,562.9c-7.1-2.1-12.7-7.6-14.9-14.6c1.4-0.7,3-1,4.8-1c6.2,0,11.1,4.9,11.1,11.1C510.6,560,510.2,561.5,509.6,562.9z
		 M524.2,576.8c-2.1,2.1-4.2,4.2-6.3,6.3c-1.4-0.9-2.9-1.8-4.3-2.8c-1.2-0.9-2.1-1-3.4-0.2s-2.9,1.2-4.4,1.6
		c-0.4,0.1-0.6,0.3-0.7,0.7c-0.3,2.1-0.7,4.3-1.1,6.4c0,0.2-0.1,0.3-0.1,0.5c-2.9,0-5.9,0-8.9,0c-0.3-1.5-0.5-3-0.8-4.5
		c-0.1-0.8-0.3-1.7-0.5-2.5c-0.1-0.2-0.3-0.5-0.6-0.6c-2-0.5-3.8-1.2-5.5-2.3c-0.4-0.3-0.7-0.2-1.1,0.1c-1.9,1.2-3.7,2.4-5.5,3.6
		c-2.1-2.1-4.2-4.2-6.3-6.3c1.1-1.7,2.3-3.6,3.5-5.4c0.3-0.5,0.3-0.9,0-1.4c-1-1.7-1.7-3.4-2.1-5.3c-0.1-0.5-0.3-0.7-0.8-0.7
		c-2.1-0.3-4.2-0.7-6.3-1.1c-0.3-0.1-0.6-0.1-0.5-0.5c0-2.8,0-5.6,0-8.5c1.8-0.3,3.6-0.7,5.4-0.9c1.4-0.2,2.3-0.5,2.6-2.2
		c0.3-1.5,1.1-2.9,1.8-4.2c0.2-0.5,0.2-0.8-0.1-1.2c-1.3-1.8-2.7-3.7-3.9-5.5c2.1-2.1,4.2-4.2,6.3-6.3c1.1,0.7,2.4,1.5,3.6,2.3
		c-0.9,5.4-0.5,10.9,1.3,16.1c-0.9,2-1.5,4.1-1.4,6.4c0,8.4,7.1,15.4,15.5,15.5c2.4,0,4.7-0.6,6.7-1.6c5.1,1.6,10.5,1.9,15.7,1
		C522.7,574.4,523.5,575.6,524.2,576.8z M534.9,553.4c0-1,0-2.1,0-3.1c-0.6-0.1-1.3-0.3-1.9-0.4c-2-0.4-4.1-0.8-6.1-1.2
		c-0.3-0.1-0.5-0.3-0.6-0.6c-0.3-0.6-0.5-1.3-0.6-2c0-0.2,0.1-0.5,0.2-0.7c1.5-2.2,2.9-4.4,4.4-6.5c-3.8-3.8-7.6-7.6-11.5-11.5
		c-0.7,0.5-1.6,1.1-2.4,1.7c-1.4,0.9-2.7,1.9-4.1,2.8c-0.2,0.1-0.6,0.2-0.8,0.1c-0.6-0.1-1.3-0.3-1.8-0.6c-0.2-0.1-0.4-0.4-0.5-0.6
		c-0.6-2.5-1.1-5.1-1.6-7.6c0-0.1,0-0.2,0-0.3c-1.3,0-2.7,0-4,0c3.6-2.4,7.9-3.8,12.5-3.8c12.4,0,22.4,10,22.4,22.4
		C538.4,545.9,537.1,550,534.9,553.4z"/>
	<g>
		<path class="st3" d="M629.9,528.6c0-4.7,0-8.9,0-13.8c37.6,0,74.8,0,112.7,0c0,4.5,0,8.7,0,13.8
			C705.6,528.6,668.4,528.6,629.9,528.6z"/>
		<path class="st3" d="M629.8,557c0-4.7,0-8.8,0-13.8c37.6,0,74.8,0,112.7,0c0,4.5,0,8.6,0,13.8C705.6,557,668.4,557,629.8,557z"/>
		<path class="st3" d="M742.6,571.8c0,5,0,9.2,0,14c-37.7,0-74.9,0-112.7,0c0-4.8,0-9,0-14C667.2,571.8,704.4,571.8,742.6,571.8z"/>
	</g>
	<g>
		<path d="M802.3,528.5c0-4.7,0-8.9,0-13.8c37.6,0,74.8,0,112.7,0c0,4.5,0,8.7,0,13.8C878.1,528.5,840.9,528.5,802.3,528.5z"/>
		<path d="M802.3,556.9c0-4.7,0-8.8,0-13.8c37.6,0,74.8,0,112.7,0c0,4.5,0,8.6,0,13.8C878.1,556.9,840.9,556.9,802.3,556.9z"/>
		<path d="M915.1,571.6c0,5,0,9.2,0,14c-37.7,0-74.9,0-112.7,0c0-4.8,0-9,0-14C839.6,571.6,876.9,571.6,915.1,571.6z"/>
	</g>
	<g id="Ebene_10_3_">
		<path d="M1156.5,566.4h-3.5l-1.3-1.2c10.5-12.2,9.1-30.7-3.1-41.2s-30.7-9.1-41.2,3.1c-10.5,12.2-9.1,30.7,3.1,41.2
			c10.9,9.4,27.1,9.4,38.1,0l1.2,1.3v3.5l22.4,22.4l6.7-6.7L1156.5,566.4z M1129.6,566.4c-11.2,0-20.2-9-20.2-20.2s9-20.2,20.2-20.2
			s20.2,9,20.2,20.2C1149.8,557.4,1140.7,566.4,1129.6,566.4L1129.6,566.4z"/>
	</g>
	<g>
		<g id="XMLID_1_">
			<g>
				<path d="M1411.1,534.2c0,4.2-1,8.6-2.8,13l-0.1,0.1l-27.5,48.1l-1.2-2.2c-1-1.8-25.3-44.5-26.3-46.6c-1.9-3.7-2.9-8-2.9-12.4
					c0-16.4,13.6-29.7,30.4-29.7C1397.5,504.5,1411.1,517.8,1411.1,534.2z M1397.8,534.1c-0.1-8.9-7.6-16.4-16.9-16.4
					c-9.5,0-16.9,7.2-16.9,16.4c0,9.1,7.6,16.5,16.9,16.5S1397.6,543.4,1397.8,534.1z"/>
			</g>
		</g>
	</g>
	<polygon points="1169.3,514.5 1169.3,503.4 1164.3,503.4 1164.3,514.5 1153.2,514.5 1153.2,519.5 1164.3,519.5 1164.3,530.6 
		1169.3,530.6 1169.3,519.5 1180.4,519.5 1180.4,514.5 	"/>
	<g id="Ebene_10_2_">
		<path class="st3" d="M1024.2,566.4h-3.5l-1.3-1.2c10.5-12.2,9.1-30.7-3.1-41.2s-30.7-9.1-41.2,3.1c-10.5,12.2-9.1,30.7,3.1,41.2
			c10.9,9.4,27.1,9.4,38.1,0l1.2,1.3v3.5l22.4,22.4l6.7-6.7L1024.2,566.4z M997.3,566.4c-11.2,0-20.2-9-20.2-20.2s9-20.2,20.2-20.2
			s20.2,9,20.2,20.2S1008.4,566.4,997.3,566.4L997.3,566.4z"/>
	</g>
	<polygon class="st3" points="1037,514.5 1037,503.4 1032,503.4 1032,514.5 1020.9,514.5 1020.9,519.5 1032,519.5 1032,530.6 
		1037,530.6 1037,519.5 1048.1,519.5 1048.1,514.5 	"/>
	<g>
		<g id="XMLID_2_">
			<g>
				<path class="st3" d="M1298.3,534.2c0,4.2-1,8.6-2.8,13l-0.1,0.1l-27.5,48.1l-1.2-2.2c-1-1.8-25.3-44.5-26.3-46.6
					c-1.9-3.7-2.9-8-2.9-12.4c0-16.4,13.6-29.7,30.4-29.7C1284.7,504.5,1298.3,517.8,1298.3,534.2z M1285,534.1
					c-0.1-8.9-7.6-16.4-16.9-16.4c-9.5,0-16.9,7.2-16.9,16.4c0,9.1,7.6,16.5,16.9,16.5S1284.8,543.4,1285,534.1z"/>
			</g>
		</g>
	</g>
	<g>
		<path class="st3" d="M105.7,707.2v29.4H52v-33.7h5.9v-9.1h-6.8c-4.5,0-8.2,3.7-8.2,8.2v35.5c0,4.5,3.7,8.2,8.2,8.2h55.6
			c4.5,0,8.2-3.7,8.2-8.2V702L105.7,707.2z"/>
		<rect x="55.6" y="724" class="st3" width="46.5" height="8.3"/>
		<rect x="55.6" y="711.3" class="st3" width="46.5" height="8.3"/>
		<path class="st3" d="M105.3,695l-14.4-8.3v4.3c0,0-11.5-0.8-12.2,12.3c0,0,3.9-5.1,12.2-4.3v4.3L105.3,695z"/>
		<path class="st6" d="M92.7,703.7"/>
		<g>
			<path class="st3" d="M54.1,683.2l-1.7-5c-0.5-1.6-1-3.1-1.5-4.8h-0.1c-0.4,1.7-0.8,3.4-1.3,4.9l-1.5,4.9h-5.3l5.1-13.9L43,656
				h5.5l1.6,5.1c0.4,1.4,0.8,2.8,1.2,4.4h0.1c0.4-1.7,0.8-2.9,1.2-4.4l1.4-5h5.3l-5.1,13.5l5.4,13.7L54.1,683.2L54.1,683.2z"/>
			<path class="st3" d="M61.7,656H67v22.7h7v4.5H61.7V656z"/>
			<path class="st3" d="M76.5,677.8c1.1,0.6,3,1.1,4.5,1.1c2.5,0,3.7-1.3,3.7-3.1c0-2-1.2-2.9-3.5-4.4c-3.7-2.3-5.1-5.1-5.1-7.6
				c0-4.4,2.9-8,8.6-8c1.8,0,3.5,0.5,4.3,1l-0.8,4.6c-0.8-0.5-1.9-0.9-3.4-0.9c-2.3,0-3.4,1.4-3.4,2.8c0,1.6,0.8,2.5,3.7,4.2
				c3.6,2.2,4.9,4.9,4.9,7.8c0,5-3.7,8.2-9,8.2c-2.2,0-4.3-0.6-5.2-1.1L76.5,677.8z"/>
		</g>
	</g>
	<g>
		<path d="M224.2,707.2v29.4h-53.8v-33.7h5.9v-9.1h-6.8c-4.5,0-8.2,3.7-8.2,8.2v35.5c0,4.5,3.7,8.2,8.2,8.2h55.6
			c4.5,0,8.2-3.7,8.2-8.2V702L224.2,707.2z"/>
		<rect x="174.1" y="724" width="46.5" height="8.3"/>
		<rect x="174.1" y="711.3" width="46.5" height="8.3"/>
		<path d="M223.8,695l-14.4-8.3v4.3c0,0-11.5-0.8-12.2,12.3c0,0,3.9-5.1,12.2-4.3v4.3L223.8,695z"/>
		<path d="M211.2,703.7"/>
		<g>
			<path d="M172.6,683.2l-1.7-5c-0.5-1.6-1-3.1-1.5-4.8h-0.1c-0.4,1.7-0.8,3.4-1.3,4.9l-1.5,4.9h-5.3l5.1-13.9l-4.9-13.3h5.5
				l1.6,5.1c0.4,1.4,0.8,2.8,1.2,4.4h0.1c0.4-1.7,0.8-2.9,1.2-4.4l1.4-5h5.3l-5.1,13.5l5.4,13.7h-5.4V683.2z"/>
			<path d="M180.3,656h5.3v22.7h6.9v4.5h-12.2V656z"/>
			<path d="M195,677.8c1.1,0.6,3,1.1,4.5,1.1c2.5,0,3.7-1.3,3.7-3.1c0-2-1.2-2.9-3.5-4.4c-3.7-2.3-5.1-5.1-5.1-7.6
				c0-4.4,2.9-8,8.6-8c1.8,0,3.5,0.5,4.3,1l-0.8,4.6c-0.8-0.5-1.9-0.9-3.4-0.9c-2.3,0-3.4,1.4-3.4,2.8c0,1.6,0.8,2.5,3.7,4.2
				c3.6,2.2,4.9,4.9,4.9,7.8c0,5-3.7,8.2-9,8.2c-2.2,0-4.3-0.6-5.2-1.1L195,677.8z"/>
		</g>
	</g>
	<g>
		<g>
			<path class="st3" d="M315.9,707l16.5-28.6h-8.5c0,0,1.5-22.9-24.5-24.2c0,0,10.2,7.8,8.5,24.2h-8.5L315.9,707z"/>
		</g>
		<path class="st3" d="M343.7,695.2h-6.8v9.1h5.9V738H289v-33.7h5.9v-9.1h-6.8c-4.5,0-8.2,3.7-8.2,8.2V739c0,4.5,3.7,8.2,8.2,8.2
			h55.6c4.5,0,8.2-3.7,8.2-8.2v-35.5C351.9,698.9,348.2,695.2,343.7,695.2"/>
		<rect x="292.6" y="725.4" class="st3" width="46.5" height="8.3"/>
		<rect x="292.6" y="712.8" class="st3" width="46.5" height="8.3"/>
	</g>
	<g>
		<g>
			<path d="M434.4,707l16.5-28.6h-8.5c0,0,1.5-22.9-24.5-24.2c0,0,10.2,7.8,8.5,24.2h-8.5L434.4,707z"/>
		</g>
		<path d="M462.2,695.2h-6.8v9.1h5.9V738h-53.8v-33.7h5.9v-9.1h-6.8c-4.5,0-8.2,3.7-8.2,8.2V739c0,4.5,3.7,8.2,8.2,8.2h55.6
			c4.5,0,8.2-3.7,8.2-8.2v-35.5C470.4,698.9,466.7,695.2,462.2,695.2"/>
		<rect x="411.1" y="725.4" width="46.5" height="8.3"/>
		<rect x="411.1" y="712.8" width="46.5" height="8.3"/>
	</g>
	<path class="st3" d="M594.4,689.4h-20.6v-30.9h-30.9v30.9h-20.6l36,36L594.4,689.4z M522.4,735.7V746h72v-10.3H522.4z"/>
	<path d="M718.4,689.4h-20.6v-30.9h-30.9v30.9h-20.6l36,36L718.4,689.4z M646.4,735.7V746h72v-10.3H646.4z"/>
	<g>
		<path d="M1608.6,557.4l9.3,9.3c0.4,0.4,1.1,0.4,1.5,0l5.9-5.9c0.4-0.4,0.4-1.1,0-1.5l-9.3-9.3l9.3-9.3c0.4-0.4,0.4-1.1,0-1.5
			l-5.9-5.9c-0.4-0.4-1.1-0.4-1.5,0l-9.3,9.3l-9.3-9.3c-0.4-0.4-1.1-0.4-1.5,0l-5.9,5.9c-0.4,0.4-0.4,1.1,0,1.5l9.3,9.3l-9.3,9.3
			c-0.4,0.4-0.4,1.1,0,1.5l5.9,5.9c0.4,0.4,1.1,0.4,1.5,0L1608.6,557.4z"/>
		<path d="M1608.6,585.9c-19.9,0-36-16.2-36-36c0-19.9,16.1-36,36-36c19.8,0,36,16.1,36,36C1644.6,569.8,1628.4,585.9,1608.6,585.9z
			 M1608.6,520.1c-16.5,0-29.9,13.4-29.9,29.9s13.4,29.9,29.9,29.9s29.9-13.4,29.9-29.9S1625.1,520.1,1608.6,520.1z"/>
	</g>
	<g>
		<path class="st3" d="M1499.2,557.4l9.3,9.3c0.4,0.4,1.1,0.4,1.5,0l5.9-5.9c0.4-0.4,0.4-1.1,0-1.5l-9.3-9.3l9.3-9.3
			c0.4-0.4,0.4-1.1,0-1.5l-5.9-5.9c-0.4-0.4-1.1-0.4-1.5,0l-9.3,9.3l-9.3-9.3c-0.4-0.4-1.1-0.4-1.5,0l-5.9,5.9
			c-0.4,0.4-0.4,1.1,0,1.5l9.3,9.3l-9.3,9.3c-0.4,0.4-0.4,1.1,0,1.5l5.9,5.9c0.4,0.4,1.1,0.4,1.5,0L1499.2,557.4z"/>
		<path class="st3" d="M1499.2,585.9c-19.9,0-36-16.2-36-36c0-19.9,16.1-36,36-36c19.8,0,36,16.1,36,36
			C1535.2,569.8,1519.1,585.9,1499.2,585.9z M1499.2,520.1c-16.5,0-29.9,13.4-29.9,29.9s13.4,29.9,29.9,29.9s29.9-13.4,29.9-29.9
			S1515.7,520.1,1499.2,520.1z"/>
	</g>
	<g>
		<path class="st3" d="M772.8,745.7c20.7,0,41.3,0,61.9,0c0-2.6,0-5.1,0-7.6c-20.6,0-41.3,0-61.9,0
			C772.8,740.6,772.8,743.1,772.8,745.7z"/>
		<path class="st3" d="M856.7,707.5h-3.5l-1.3-1.2c10.6-12.3,9.2-31-3.1-41.6s-31-9.2-41.6,3.1c-6.3,7.3-8.4,16.9-6.4,25.7
			c-9.3,0-18.6,0-27.9,0c0,2.5,0,5,0,7.6c10.3,0,20.5,0,30.8,0c1.7,3.1,3.9,5.9,6.7,8.3c3.7,3.2,8,5.3,12.4,6.3
			c-16.6,0-33.2,0-49.8,0c0,2.6,0,5.1,0,7.6c20.6,0,41.3,0,61.9,0c0-2.4,0-4.8,0-7.3c5-0.9,9.8-3.1,14-6.6l1.2,1.3v3.5l22.6,22.6
			l6.8-6.8L856.7,707.5z M829.5,707.5c-5.8,0-11.1-2.4-14.8-6.3c6.7,0,13.3,0,20,0c0-2.5,0-5.1,0-7.6c-8.2,0-16.4,0-24.6,0
			c-0.7-2-1-4.2-1-6.4c0-11.3,9.1-20.4,20.4-20.4s20.4,9.1,20.4,20.4C849.9,698.4,840.7,707.5,829.5,707.5z"/>
	</g>
	<g>
		<path d="M926.1,745.7c20.7,0,41.3,0,61.9,0c0-2.6,0-5.1,0-7.6c-20.6,0-41.3,0-61.9,0C926.1,740.6,926.1,743.1,926.1,745.7z"/>
		<path d="M1010,707.5h-3.5l-1.3-1.2c10.6-12.3,9.2-31-3.1-41.6s-31-9.2-41.6,3.1c-6.3,7.3-8.4,16.9-6.4,25.7c-9.3,0-18.6,0-27.9,0
			c0,2.5,0,5,0,7.6c10.3,0,20.5,0,30.8,0c1.7,3.1,3.9,5.9,6.7,8.3c3.7,3.2,8,5.3,12.4,6.3c-16.6,0-33.2,0-49.8,0c0,2.6,0,5.1,0,7.6
			c20.6,0,41.3,0,61.9,0c0-2.4,0-4.8,0-7.3c5-0.9,9.8-3.1,14-6.6l1.2,1.3v3.5l22.6,22.6l6.8-6.8L1010,707.5z M982.8,707.5
			c-5.8,0-11.1-2.4-14.8-6.3c6.7,0,13.3,0,20,0c0-2.5,0-5.1,0-7.6c-8.2,0-16.4,0-24.6,0c-0.7-2-1-4.2-1-6.4
			c0-11.3,9.1-20.4,20.4-20.4s20.4,9.1,20.4,20.4C1003.3,698.4,994.1,707.5,982.8,707.5z"/>
	</g>
	<path class="st3" d="M1122,707.5c4.7-10.4,9.1-20.5,13.6-30.6c2.3-5.3,4.5-10.6,7.1-15.8c0.8-1.5,2.5-3.6,3.8-3.6s3.1,2,3.8,3.6
		c6.6,14.4,12.9,29,19.4,43.5c0.3,0.6,0.6,1.1,1.2,2.2c4.8-3.7,9.5-7.2,14.1-10.7c5.6-4.3,11.1-8.7,16.9-12.8
		c1.3-0.9,3.4-0.6,5.2-0.8c0.1,1.6,0.7,3.5,0.2,4.9c-6.9,18.1-13.9,36.2-20.9,54.3c-1.1,2.8-2.8,3.9-5.8,3.9
		c-22.6-0.1-45.3-0.1-67.9,0c-3.2,0-4.9-1.2-6.1-4.2c-6.8-17.8-13.8-35.5-20.6-53.4c-0.6-1.6,0.1-3.8,0.2-5.7
		c1.9,0.4,4.1,0.4,5.5,1.4C1101.7,691.5,1111.6,699.4,1122,707.5z M1146.5,668.2c-0.8,1.7-1.1,2.2-1.4,2.8
		c-6,13.6-12,27.2-18.1,40.8c-2,4.4-3.4,4.8-7.2,1.9c-3.4-2.6-6.8-5.4-10.2-8c-4.4-3.5-8.9-6.9-13.3-10.3
		c4.7,14.2,9.9,27.8,15.3,41.3c0.5,1.2,2.8,2.5,4.3,2.5c20.4,0.2,40.7,0.1,61.1,0.2c2.7,0,4-0.9,4.9-3.4
		c4.2-11.2,8.6-22.4,12.9-33.6c0.9-2.3,1.8-4.7,3.2-8.2c-9.1,6.9-17.2,13-25.2,19.2c-3.3,2.5-5.4,2.1-7-1.7c-1.9-4.6-4-9.1-6-13.6
		C1155.5,688.3,1151.2,678.7,1146.5,668.2z"/>
	<path d="M1306.5,709.2c4.7-10.4,9.1-20.5,13.6-30.6c2.3-5.3,4.5-10.6,7.1-15.8c0.8-1.5,2.5-3.6,3.8-3.6s3.1,2,3.8,3.6
		c6.6,14.4,12.9,29,19.4,43.5c0.3,0.6,0.6,1.1,1.2,2.2c4.8-3.7,9.5-7.2,14.1-10.7c5.6-4.3,11.1-8.7,16.9-12.8
		c1.3-0.9,3.4-0.6,5.2-0.8c0.1,1.6,0.7,3.5,0.2,4.9c-6.9,18.1-13.9,36.2-20.9,54.3c-1.1,2.8-2.8,3.9-5.8,3.9
		c-22.6-0.1-45.3-0.1-67.9,0c-3.2,0-4.9-1.2-6.1-4.2c-6.8-17.8-13.8-35.5-20.6-53.4c-0.6-1.6,0.1-3.8,0.2-5.7
		c1.9,0.4,4.1,0.4,5.5,1.4C1286.2,693.2,1296.1,701.1,1306.5,709.2z M1331,669.8c-0.8,1.7-1.1,2.2-1.4,2.8
		c-6,13.6-12,27.2-18.1,40.8c-2,4.4-3.4,4.8-7.2,1.9c-3.4-2.6-6.8-5.4-10.2-8c-4.4-3.5-8.9-6.9-13.3-10.3
		c4.7,14.2,9.9,27.8,15.3,41.3c0.5,1.2,2.8,2.5,4.3,2.5c20.4,0.2,40.7,0.1,61.1,0.2c2.7,0,4-0.9,4.9-3.4
		c4.2-11.2,8.6-22.4,12.9-33.6c0.9-2.3,1.8-4.7,3.2-8.2c-9.1,6.9-17.2,13-25.2,19.2c-3.3,2.5-5.4,2.1-7-1.7c-1.9-4.6-4-9.1-6-13.6
		C1339.9,690,1335.7,680.4,1331,669.8z"/>
	<g>
		<path class="st3" d="M1517.2,728.6c0-3.6-2.7-6.4-6.3-6.4c-6.2,0-12.5,0-18.7,0c-3.7,0-6.4,2.7-6.4,6.4c0,1,0,1.9,0,3
			c-4.2,0-8.4,0-12.6,0c0-8.4,0-16.7,0-25.1c4.2,0,8.3,0,12.6,0c0,0.9,0,1.8,0,2.7c0,4,2.7,6.7,6.6,6.7c6.1,0,12.1,0,18.2,0
			c3.9,0,6.6-2.7,6.6-6.6c0-4,0-7.9,0-11.9c0-3.9-2.7-6.6-6.6-6.6c-6.1,0-12.2,0-18.3,0c-3.9,0-6.5,2.7-6.6,6.6c0,0.9,0,1.9,0,2.8
			c-4.3,0-8.4,0-12.5,0c0-5.3,0-10.5,0-15.7c2.1,0,4.2,0,6.3,0c3.5,0,6.2-2.8,6.2-6.3c0-4.2,0-8.4,0-12.6c0-3.5-2.8-6.3-6.2-6.3
			c-6.3,0-12.7,0-19,0c-3.4,0-6.2,2.8-6.2,6.2c0,4.2,0,8.5,0,12.7c0,3,2.1,5.6,5,6c2.1,0.3,4.2,0.1,6.4,0.2c0.4,0,0.8,0,1.2,0
			c0,0.6,0,1,0,1.4c0,16.2,0,32.3,0,48.5c0,2.4,1.2,3.6,3.6,3.6c4.7,0,9.4,0,14.2,0c0.4,0,0.7,0,1.2,0c0,1.1,0,2.1,0,3
			c0,3.7,2.7,6.4,6.4,6.4c6.2,0,12.5,0,18.7,0c3.6,0,6.3-2.8,6.4-6.4C1517.2,736.8,1517.2,732.7,1517.2,728.6z M1492.1,697.1
			c6.2,0,12.5,0,18.8,0c0,4.2,0,8.3,0,12.5c-6.3,0-12.5,0-18.8,0C1492.1,705.4,1492.1,701.3,1492.1,697.1z M1460.6,678.1
			c0-4.1,0-8.3,0-12.5c6.3,0,12.5,0,18.8,0c0,4.2,0,8.3,0,12.5C1473.2,678.1,1466.9,678.1,1460.6,678.1z M1510.9,741
			c-6.2,0-12.4,0-18.8,0c0-4.2,0-8.3,0-12.5c6.2,0,12.5,0,18.8,0C1510.9,732.6,1510.9,736.8,1510.9,741z"/>
	</g>
	<g>
		<path d="M1642.2,728.6c0-3.6-2.7-6.4-6.3-6.4c-6.2,0-12.5,0-18.7,0c-3.7,0-6.4,2.7-6.4,6.4c0,1,0,1.9,0,3c-4.2,0-8.4,0-12.6,0
			c0-8.4,0-16.7,0-25.1c4.2,0,8.3,0,12.6,0c0,0.9,0,1.8,0,2.7c0,4,2.7,6.7,6.6,6.7c6.1,0,12.1,0,18.2,0c3.9,0,6.6-2.7,6.6-6.6
			c0-4,0-7.9,0-11.9c0-3.9-2.7-6.6-6.6-6.6c-6.1,0-12.2,0-18.3,0c-3.9,0-6.5,2.7-6.6,6.6c0,0.9,0,1.9,0,2.8c-4.3,0-8.4,0-12.5,0
			c0-5.3,0-10.5,0-15.7c2.1,0,4.2,0,6.3,0c3.5,0,6.2-2.8,6.2-6.3c0-4.2,0-8.4,0-12.6c0-3.5-2.8-6.3-6.2-6.3c-6.3,0-12.7,0-19,0
			c-3.4,0-6.2,2.8-6.2,6.2c0,4.2,0,8.5,0,12.7c0,3,2.1,5.6,5,6c2.1,0.3,4.2,0.1,6.4,0.2c0.4,0,0.8,0,1.2,0c0,0.6,0,1,0,1.4
			c0,16.2,0,32.3,0,48.5c0,2.4,1.2,3.6,3.6,3.6c4.7,0,9.4,0,14.2,0c0.4,0,0.7,0,1.2,0c0,1.1,0,2.1,0,3c0,3.7,2.7,6.4,6.4,6.4
			c6.2,0,12.5,0,18.7,0c3.6,0,6.3-2.8,6.4-6.4C1642.2,736.8,1642.2,732.7,1642.2,728.6z M1617.1,697.1c6.2,0,12.5,0,18.8,0
			c0,4.2,0,8.3,0,12.5c-6.3,0-12.5,0-18.8,0C1617.1,705.4,1617.1,701.3,1617.1,697.1z M1585.6,678.1c0-4.1,0-8.3,0-12.5
			c6.3,0,12.5,0,18.8,0c0,4.2,0,8.3,0,12.5C1598.2,678.1,1591.9,678.1,1585.6,678.1z M1635.9,741c-6.2,0-12.4,0-18.8,0
			c0-4.2,0-8.3,0-12.5c6.2,0,12.5,0,18.8,0C1635.9,732.6,1635.9,736.8,1635.9,741z"/>
	</g>
	<g>
		<path d="M224.2,851.2v29.4h-53.8v-33.7h5.9v-9.1h-6.8c-4.5,0-8.2,3.7-8.2,8.2v35.5c0,4.5,3.7,8.2,8.2,8.2h55.6
			c4.5,0,8.2-3.7,8.2-8.2V846L224.2,851.2z"/>
		<rect x="174.1" y="868" width="46.5" height="8.3"/>
		<rect x="174.1" y="855.3" width="46.5" height="8.3"/>
		<path d="M223.8,839l-14.4-8.3v4.3c0,0-11.5-0.8-12.2,12.3c0,0,3.9-5.1,12.2-4.3v4.3L223.8,839z"/>
		<path d="M211.2,847.7"/>
		<g>
			<path d="M160.9,800.2c1.5-0.3,3.6-0.5,5.6-0.5c3.2,0,5.7,0.5,7.5,2.1c1.6,1.4,2.4,3.7,2.4,6.1c0,3-0.9,5.1-2.3,6.7
				c-1.7,1.8-4.5,2.6-6.7,2.6c-0.4,0-0.7,0-1.1,0v10.3h-5.4V800.2z M166.3,812.7c0.2,0.1,0.5,0.1,0.9,0.1c2.7,0,3.9-1.9,3.9-4.5
				c0-2.4-1-4.3-3.5-4.3c-0.5,0-1,0.1-1.3,0.2L166.3,812.7L166.3,812.7z"/>
			<path d="M179.7,800.2c1.4-0.3,3.3-0.5,5.5-0.5c3.5,0,5.9,0.8,7.7,2.5c2.4,2.1,3.6,5.8,3.6,11.2c0,5.6-1.4,9.6-3.9,11.7
				c-1.9,1.8-4.6,2.7-8.5,2.7c-1.7,0-3.4-0.2-4.4-0.3L179.7,800.2L179.7,800.2z M185.1,823.2c0.2,0.1,0.7,0.1,0.9,0.1
				c2.6,0,4.9-2.5,4.9-10.2c0-5.7-1.5-9.1-4.7-9.1c-0.4,0-0.7,0-1.1,0.1L185.1,823.2L185.1,823.2z"/>
			<path d="M199.9,799.8h12v4.7h-6.7v7.1h6.2v4.5h-6.2v11.4h-5.4L199.9,799.8L199.9,799.8z"/>
		</g>
	</g>
	<g>
		<path class="st3" d="M106,851.2v29.4H52.2v-33.7h5.9v-9.1h-6.8c-4.5,0-8.2,3.7-8.2,8.2v35.5c0,4.5,3.7,8.2,8.2,8.2h55.6
			c4.5,0,8.2-3.7,8.2-8.2V846L106,851.2z"/>
		<rect x="55.9" y="868" class="st3" width="46.5" height="8.3"/>
		<rect x="55.9" y="855.3" class="st3" width="46.5" height="8.3"/>
		<path class="st3" d="M105.6,839l-14.4-8.3v4.3c0,0-11.5-0.8-12.2,12.3c0,0,3.9-5.1,12.2-4.3v4.3L105.6,839z"/>
		<path class="st3" d="M93,847.7"/>
		<g>
			<path class="st3" d="M42.7,800.2c1.5-0.3,3.6-0.5,5.6-0.5c3.2,0,5.7,0.5,7.5,2.1c1.6,1.4,2.4,3.7,2.4,6.1c0,3-0.9,5.1-2.3,6.7
				c-1.7,1.8-4.5,2.6-6.7,2.6c-0.4,0-0.7,0-1.1,0v10.3h-5.4V800.2z M48.1,812.7c0.2,0.1,0.5,0.1,0.9,0.1c2.7,0,3.9-1.9,3.9-4.5
				c0-2.4-1-4.3-3.5-4.3c-0.5,0-1,0.1-1.3,0.2C48.1,804.2,48.1,812.7,48.1,812.7z"/>
			<path class="st3" d="M61.5,800.2c1.4-0.3,3.3-0.5,5.5-0.5c3.5,0,5.9,0.8,7.7,2.5c2.4,2.1,3.6,5.8,3.6,11.2
				c0,5.6-1.4,9.6-3.9,11.7c-1.9,1.8-4.6,2.7-8.5,2.7c-1.7,0-3.4-0.2-4.4-0.3C61.5,827.5,61.5,800.2,61.5,800.2z M66.9,823.2
				c0.2,0.1,0.7,0.1,0.9,0.1c2.6,0,4.9-2.5,4.9-10.2c0-5.7-1.5-9.1-4.7-9.1c-0.4,0-0.7,0-1.1,0.1C66.9,804.1,66.9,823.2,66.9,823.2z
				"/>
			<path class="st3" d="M81.7,799.8h12v4.7H87v7.1h6.2v4.5H87v11.4h-5.4L81.7,799.8L81.7,799.8z"/>
		</g>
	</g>
	<g>
		<rect x="389.4" y="799.7" width="26.5" height="26.5"/>
		<rect x="421.2" y="799.7" width="26.5" height="26.5"/>
		<rect x="452.9" y="799.7" width="26.5" height="26.5"/>
		<rect x="389.4" y="831.5" width="26.5" height="26.5"/>
		<rect x="421.2" y="831.5" width="26.5" height="26.5"/>
		<rect x="452.9" y="831.5" width="26.5" height="26.5"/>
		<rect x="389.4" y="863.2" width="26.5" height="26.5"/>
		<rect x="421.2" y="863.2" width="26.5" height="26.5"/>
		<rect x="452.9" y="863.2" width="26.5" height="26.5"/>
		<g>
			<rect x="389.4" y="799.7" width="26.5" height="26.5"/>
			<rect x="421.2" y="799.7" width="26.5" height="26.5"/>
			<rect x="452.9" y="799.7" width="26.5" height="26.5"/>
			<rect x="389.4" y="831.5" width="26.5" height="26.5"/>
			<rect x="421.2" y="831.5" width="26.5" height="26.5"/>
			<rect x="452.9" y="831.5" width="26.5" height="26.5"/>
			<rect x="389.4" y="863.2" width="26.5" height="26.5"/>
			<rect x="421.2" y="863.2" width="26.5" height="26.5"/>
			<rect x="452.9" y="863.2" width="26.5" height="26.5"/>
		</g>
		<g>
			<rect x="389.4" y="799.7" width="26.5" height="26.5"/>
			<rect x="421.2" y="799.7" width="26.5" height="26.5"/>
			<rect x="452.9" y="799.7" width="26.5" height="26.5"/>
			<rect x="389.4" y="831.5" width="26.5" height="26.5"/>
			<rect x="421.2" y="831.5" width="26.5" height="26.5"/>
			<rect x="452.9" y="831.5" width="26.5" height="26.5"/>
			<rect x="389.4" y="863.2" width="26.5" height="26.5"/>
			<rect x="421.2" y="863.2" width="26.5" height="26.5"/>
			<rect x="452.9" y="863.2" width="26.5" height="26.5"/>
		</g>
		<g>
			<rect x="389.4" y="799.7" width="26.5" height="26.5"/>
			<rect x="421.2" y="799.7" width="26.5" height="26.5"/>
			<rect x="452.9" y="799.7" width="26.5" height="26.5"/>
			<rect x="389.4" y="831.5" width="26.5" height="26.5"/>
			<rect x="421.2" y="831.5" width="26.5" height="26.5"/>
			<rect x="452.9" y="831.5" width="26.5" height="26.5"/>
			<rect x="389.4" y="863.2" width="26.5" height="26.5"/>
			<rect x="421.2" y="863.2" width="26.5" height="26.5"/>
			<rect x="452.9" y="863.2" width="26.5" height="26.5"/>
		</g>
		<g>
			<rect x="389.4" y="799.7" width="26.5" height="26.5"/>
			<rect x="421.2" y="799.7" width="26.5" height="26.5"/>
			<rect x="452.9" y="799.7" width="26.5" height="26.5"/>
			<rect x="389.4" y="831.5" width="26.5" height="26.5"/>
			<rect x="421.2" y="831.5" width="26.5" height="26.5"/>
			<rect x="452.9" y="831.5" width="26.5" height="26.5"/>
			<rect x="389.4" y="863.2" width="26.5" height="26.5"/>
			<rect x="421.2" y="863.2" width="26.5" height="26.5"/>
			<rect x="452.9" y="863.2" width="26.5" height="26.5"/>
		</g>
		<g>
			<rect x="389.4" y="799.7" width="26.5" height="26.5"/>
			<rect x="421.2" y="799.7" width="26.5" height="26.5"/>
			<rect x="452.9" y="799.7" width="26.5" height="26.5"/>
			<rect x="389.4" y="831.5" width="26.5" height="26.5"/>
			<rect x="421.2" y="831.5" width="26.5" height="26.5"/>
			<rect x="452.9" y="831.5" width="26.5" height="26.5"/>
			<rect x="389.4" y="863.2" width="26.5" height="26.5"/>
			<rect x="421.2" y="863.2" width="26.5" height="26.5"/>
			<rect x="452.9" y="863.2" width="26.5" height="26.5"/>
		</g>
		<rect x="389.4" y="799.7" width="26.5" height="26.5"/>
		<rect x="421.2" y="799.7" width="26.5" height="26.5"/>
		<rect x="452.9" y="799.7" width="26.5" height="26.5"/>
		<rect x="389.4" y="831.5" width="26.5" height="26.5"/>
		<rect x="421.2" y="831.5" width="26.5" height="26.5"/>
		<rect x="452.9" y="831.5" width="26.5" height="26.5"/>
		<rect x="389.4" y="863.2" width="26.5" height="26.5"/>
		<rect x="421.2" y="863.2" width="26.5" height="26.5"/>
		<rect x="452.9" y="863.2" width="26.5" height="26.5"/>
	</g>
	<g>
		<rect x="270.7" y="799.7" class="st3" width="26.5" height="26.5"/>
		<rect x="302.4" y="799.7" class="st3" width="26.5" height="26.5"/>
		<rect x="334.2" y="799.7" class="st3" width="26.5" height="26.5"/>
		<rect x="270.7" y="831.5" class="st3" width="26.5" height="26.5"/>
		<rect x="302.4" y="831.5" class="st3" width="26.5" height="26.5"/>
		<rect x="334.2" y="831.5" class="st3" width="26.5" height="26.5"/>
		<rect x="270.7" y="863.2" class="st3" width="26.5" height="26.5"/>
		<rect x="302.4" y="863.2" class="st3" width="26.5" height="26.5"/>
		<rect x="334.2" y="863.2" class="st3" width="26.5" height="26.5"/>
		<g>
			<rect x="270.7" y="799.7" class="st3" width="26.5" height="26.5"/>
			<rect x="302.4" y="799.7" class="st3" width="26.5" height="26.5"/>
			<rect x="334.2" y="799.7" class="st3" width="26.5" height="26.5"/>
			<rect x="270.7" y="831.5" class="st3" width="26.5" height="26.5"/>
			<rect x="302.4" y="831.5" class="st3" width="26.5" height="26.5"/>
			<rect x="334.2" y="831.5" class="st3" width="26.5" height="26.5"/>
			<rect x="270.7" y="863.2" class="st3" width="26.5" height="26.5"/>
			<rect x="302.4" y="863.2" class="st3" width="26.5" height="26.5"/>
			<rect x="334.2" y="863.2" class="st3" width="26.5" height="26.5"/>
		</g>
		<g>
			<rect x="270.7" y="799.7" class="st3" width="26.5" height="26.5"/>
			<rect x="302.4" y="799.7" class="st3" width="26.5" height="26.5"/>
			<rect x="334.2" y="799.7" class="st3" width="26.5" height="26.5"/>
			<rect x="270.7" y="831.5" class="st3" width="26.5" height="26.5"/>
			<rect x="302.4" y="831.5" class="st3" width="26.5" height="26.5"/>
			<rect x="334.2" y="831.5" class="st3" width="26.5" height="26.5"/>
			<rect x="270.7" y="863.2" class="st3" width="26.5" height="26.5"/>
			<rect x="302.4" y="863.2" class="st3" width="26.5" height="26.5"/>
			<rect x="334.2" y="863.2" class="st3" width="26.5" height="26.5"/>
		</g>
		<g>
			<rect x="270.7" y="799.7" class="st3" width="26.5" height="26.5"/>
			<rect x="302.4" y="799.7" class="st3" width="26.5" height="26.5"/>
			<rect x="334.2" y="799.7" class="st3" width="26.5" height="26.5"/>
			<rect x="270.7" y="831.5" class="st3" width="26.5" height="26.5"/>
			<rect x="302.4" y="831.5" class="st3" width="26.5" height="26.5"/>
			<rect x="334.2" y="831.5" class="st3" width="26.5" height="26.5"/>
			<rect x="270.7" y="863.2" class="st3" width="26.5" height="26.5"/>
			<rect x="302.4" y="863.2" class="st3" width="26.5" height="26.5"/>
			<rect x="334.2" y="863.2" class="st3" width="26.5" height="26.5"/>
		</g>
		<g>
			<rect x="270.7" y="799.7" class="st3" width="26.5" height="26.5"/>
			<rect x="302.4" y="799.7" class="st3" width="26.5" height="26.5"/>
			<rect x="334.2" y="799.7" class="st3" width="26.5" height="26.5"/>
			<rect x="270.7" y="831.5" class="st3" width="26.5" height="26.5"/>
			<rect x="302.4" y="831.5" class="st3" width="26.5" height="26.5"/>
			<rect x="334.2" y="831.5" class="st3" width="26.5" height="26.5"/>
			<rect x="270.7" y="863.2" class="st3" width="26.5" height="26.5"/>
			<rect x="302.4" y="863.2" class="st3" width="26.5" height="26.5"/>
			<rect x="334.2" y="863.2" class="st3" width="26.5" height="26.5"/>
		</g>
		<g>
			<rect x="270.7" y="799.7" class="st3" width="26.5" height="26.5"/>
			<rect x="302.4" y="799.7" class="st3" width="26.5" height="26.5"/>
			<rect x="334.2" y="799.7" class="st3" width="26.5" height="26.5"/>
			<rect x="270.7" y="831.5" class="st3" width="26.5" height="26.5"/>
			<rect x="302.4" y="831.5" class="st3" width="26.5" height="26.5"/>
			<rect x="334.2" y="831.5" class="st3" width="26.5" height="26.5"/>
			<rect x="270.7" y="863.2" class="st3" width="26.5" height="26.5"/>
			<rect x="302.4" y="863.2" class="st3" width="26.5" height="26.5"/>
			<rect x="334.2" y="863.2" class="st3" width="26.5" height="26.5"/>
		</g>
		<rect x="270.7" y="799.7" class="st3" width="26.5" height="26.5"/>
		<rect x="302.4" y="799.7" class="st3" width="26.5" height="26.5"/>
		<rect x="334.2" y="799.7" class="st3" width="26.5" height="26.5"/>
		<rect x="270.7" y="831.5" class="st3" width="26.5" height="26.5"/>
		<rect x="302.4" y="831.5" class="st3" width="26.5" height="26.5"/>
		<rect x="334.2" y="831.5" class="st3" width="26.5" height="26.5"/>
		<rect x="270.7" y="863.2" class="st3" width="26.5" height="26.5"/>
		<rect x="302.4" y="863.2" class="st3" width="26.5" height="26.5"/>
		<rect x="334.2" y="863.2" class="st3" width="26.5" height="26.5"/>
	</g>
	<g>
		<g>
			<path d="M663.7,826.1h-26.5v-26.4h26.5V826.1z M640.6,822.8h19.7V803h-19.7V822.8z"/>
		</g>
		<g>
			<path d="M648.2,814.1l1.5-4.2c0.3-0.8,0.5-1.4,0.6-2.1h0.1c0.2,0.7,0.3,1.3,0.6,2.2l1.5,4.1H648.2z M652.8,814.8l1.6,4.3h0.9
				l-4.4-12.5h-0.8l-4.6,12.5h0.9l1.5-4.3C648,814.8,652.8,814.8,652.8,814.8z"/>
		</g>
		<g>
			<path d="M695.6,826.1h-26.5v-26.4h26.5V826.1z M672.5,822.8h19.7V803h-19.7V822.8z"/>
		</g>
		<g>
			<path d="M680.3,814.1l1.5-4.2c0.3-0.8,0.5-1.4,0.6-2.1h0.1c0.2,0.7,0.3,1.3,0.6,2.2l1.5,4.1H680.3z M685,814.8l1.6,4.3h0.9
				l-4.4-12.5h-0.8l-4.6,12.5h0.9l1.5-4.3C680.1,814.8,685,814.8,685,814.8z"/>
		</g>
		<g>
			<path d="M727.6,826.1h-26.5v-26.4h26.5V826.1z M704.4,822.8h19.7V803h-19.7V822.8z"/>
		</g>
		<g>
			<path d="M712.4,814.1l1.5-4.2c0.3-0.8,0.5-1.4,0.6-2.1h0.1c0.2,0.7,0.3,1.3,0.6,2.2l1.5,4.1H712.4z M717.1,814.8l1.6,4.3h0.9
				l-4.4-12.5h-0.8l-4.6,12.5h0.9l1.5-4.3H717.1z"/>
		</g>
		<g>
			<path d="M663.7,857.9h-26.5v-26.4h26.5V857.9z M640.5,854.6h19.7v-19.7h-19.7V854.6z"/>
		</g>
		<g>
			<path d="M648.1,845.9l1.5-4.2c0.3-0.8,0.5-1.4,0.6-2.1h0.1c0.2,0.7,0.3,1.3,0.6,2.2l1.5,4.1H648.1z M652.8,846.6l1.6,4.3h0.9
				l-4.4-12.5h-0.8l-4.6,12.5h0.9l1.5-4.3H652.8z"/>
		</g>
		<g>
			<path d="M695.6,857.9h-26.5v-26.4h26.5V857.9z M672.4,854.6h19.7v-19.7h-19.7V854.6z"/>
		</g>
		<g>
			<path d="M680.3,845.9l1.5-4.2c0.3-0.8,0.5-1.4,0.6-2.1h0.1c0.2,0.7,0.3,1.3,0.6,2.2l1.5,4.1H680.3z M684.9,846.6l1.6,4.3h0.9
				l-4.4-12.5h-0.8l-4.6,12.5h0.9l1.5-4.3C680,846.6,684.9,846.6,684.9,846.6z"/>
		</g>
		<g>
			<path d="M727.5,857.9H701v-26.4h26.5V857.9z M704.4,854.6h19.7v-19.7h-19.7V854.6z"/>
		</g>
		<g>
			<path d="M712.4,845.9l1.5-4.2c0.3-0.8,0.5-1.4,0.6-2.1h0.1c0.2,0.7,0.3,1.3,0.6,2.2l1.5,4.1H712.4z M717,846.6l1.6,4.3h0.9
				l-4.4-12.5h-0.8l-4.6,12.5h0.9l1.5-4.3C712.2,846.6,717,846.6,717,846.6z"/>
		</g>
		<g>
			<path d="M663.6,889.7h-26.5v-26.4h26.5V889.7z M640.5,886.4h19.7v-19.7h-19.7V886.4z"/>
		</g>
		<g>
			<path d="M648.1,877.7l1.5-4.2c0.3-0.8,0.5-1.4,0.6-2.1h0.1c0.2,0.7,0.3,1.3,0.6,2.2l1.5,4.1H648.1z M652.7,878.4l1.6,4.3h0.9
				l-4.4-12.5H650l-4.6,12.5h0.9l1.5-4.3C647.9,878.4,652.7,878.4,652.7,878.4z"/>
		</g>
		<g>
			<path d="M695.5,889.7H669v-26.4h26.5V889.7z M672.4,886.4h19.7v-19.7h-19.7V886.4z"/>
		</g>
		<g>
			<path d="M680.2,877.7l1.5-4.2c0.3-0.8,0.5-1.4,0.6-2.1h0.1c0.2,0.7,0.3,1.3,0.6,2.2l1.5,4.1H680.2z M684.9,878.4l1.6,4.3h0.9
				l-4.4-12.5h-0.8l-4.6,12.5h0.9l1.5-4.3C680,878.4,684.9,878.4,684.9,878.4z"/>
		</g>
		<g>
			<path d="M727.5,889.7H701v-26.4h26.5V889.7z M704.3,886.4H724v-19.7h-19.7V886.4z"/>
		</g>
		<g>
			<path d="M712.3,877.7l1.5-4.2c0.3-0.8,0.5-1.4,0.6-2.1h0.1c0.2,0.7,0.3,1.3,0.6,2.2l1.5,4.1H712.3z M717,878.4l1.6,4.3h0.9
				l-4.4-12.5h-0.8l-4.6,12.5h0.9l1.5-4.3C712.1,878.4,717,878.4,717,878.4z"/>
		</g>
	</g>
	<g>
		<g>
			<path class="st3" d="M539.7,826.1h-26.5v-26.4h26.5V826.1z M516.6,822.8h19.7V803h-19.7V822.8z"/>
		</g>
		<g>
			<path class="st3" d="M524.2,814.1l1.5-4.2c0.3-0.8,0.5-1.4,0.6-2.1h0.1c0.2,0.7,0.3,1.3,0.6,2.2l1.5,4.1H524.2z M528.8,814.8
				l1.6,4.3h0.9l-4.4-12.5h-0.8l-4.6,12.5h0.9l1.5-4.3C524,814.8,528.8,814.8,528.8,814.8z"/>
		</g>
		<g>
			<path class="st3" d="M571.6,826.1h-26.5v-26.4h26.5V826.1z M548.5,822.8h19.7V803h-19.7V822.8z"/>
		</g>
		<g>
			<path class="st3" d="M556.3,814.1l1.5-4.2c0.3-0.8,0.5-1.4,0.6-2.1h0.1c0.2,0.7,0.3,1.3,0.6,2.2l1.5,4.1H556.3z M561,814.8
				l1.6,4.3h0.9l-4.4-12.5h-0.8l-4.6,12.5h0.9l1.5-4.3C556.1,814.8,561,814.8,561,814.8z"/>
		</g>
		<g>
			<path class="st3" d="M603.6,826.1h-26.5v-26.4h26.5V826.1z M580.4,822.8h19.7V803h-19.7V822.8z"/>
		</g>
		<g>
			<path class="st3" d="M588.4,814.1l1.5-4.2c0.3-0.8,0.5-1.4,0.6-2.1h0.1c0.2,0.7,0.3,1.3,0.6,2.2l1.5,4.1H588.4z M593.1,814.8
				l1.6,4.3h0.9l-4.4-12.5h-0.8l-4.6,12.5h0.9l1.5-4.3H593.1z"/>
		</g>
		<g>
			<path class="st3" d="M539.7,857.9h-26.5v-26.4h26.5V857.9z M516.5,854.6h19.7v-19.7h-19.7V854.6z"/>
		</g>
		<g>
			<path class="st3" d="M524.1,845.9l1.5-4.2c0.3-0.8,0.5-1.4,0.6-2.1h0.1c0.2,0.7,0.3,1.3,0.6,2.2l1.5,4.1H524.1z M528.8,846.6
				l1.6,4.3h0.9l-4.4-12.5h-0.8l-4.6,12.5h0.9l1.5-4.3H528.8z"/>
		</g>
		<g>
			<path class="st3" d="M571.6,857.9h-26.5v-26.4h26.5V857.9z M548.4,854.6h19.7v-19.7h-19.7V854.6z"/>
		</g>
		<g>
			<path class="st3" d="M556.3,845.9l1.5-4.2c0.3-0.8,0.5-1.4,0.6-2.1h0.1c0.2,0.7,0.3,1.3,0.6,2.2l1.5,4.1H556.3z M560.9,846.6
				l1.6,4.3h0.9l-4.4-12.5h-0.8l-4.6,12.5h0.9l1.5-4.3C556,846.6,560.9,846.6,560.9,846.6z"/>
		</g>
		<g>
			<path class="st3" d="M603.5,857.9H577v-26.4h26.5V857.9z M580.4,854.6h19.7v-19.7h-19.7V854.6z"/>
		</g>
		<g>
			<path class="st3" d="M588.4,845.9l1.5-4.2c0.3-0.8,0.5-1.4,0.6-2.1h0.1c0.2,0.7,0.3,1.3,0.6,2.2l1.5,4.1H588.4z M593,846.6
				l1.6,4.3h0.9l-4.4-12.5h-0.8l-4.6,12.5h0.9l1.5-4.3C588.2,846.6,593,846.6,593,846.6z"/>
		</g>
		<g>
			<path class="st3" d="M539.6,889.7h-26.5v-26.4h26.5V889.7z M516.5,886.4h19.7v-19.7h-19.7V886.4z"/>
		</g>
		<g>
			<path class="st3" d="M524.1,877.7l1.5-4.2c0.3-0.8,0.5-1.4,0.6-2.1h0.1c0.2,0.7,0.3,1.3,0.6,2.2l1.5,4.1H524.1z M528.7,878.4
				l1.6,4.3h0.9l-4.4-12.5H526l-4.6,12.5h0.9l1.5-4.3C523.9,878.4,528.7,878.4,528.7,878.4z"/>
		</g>
		<g>
			<path class="st3" d="M571.5,889.7H545v-26.4h26.5V889.7z M548.4,886.4h19.7v-19.7h-19.7V886.4z"/>
		</g>
		<g>
			<path class="st3" d="M556.2,877.7l1.5-4.2c0.3-0.8,0.5-1.4,0.6-2.1h0.1c0.2,0.7,0.3,1.3,0.6,2.2l1.5,4.1H556.2z M560.9,878.4
				l1.6,4.3h0.9l-4.4-12.5h-0.8l-4.6,12.5h0.9l1.5-4.3C556,878.4,560.9,878.4,560.9,878.4z"/>
		</g>
		<g>
			<path class="st3" d="M603.5,889.7H577v-26.4h26.5V889.7z M580.3,886.4H600v-19.7h-19.7V886.4z"/>
		</g>
		<g>
			<path class="st3" d="M588.3,877.7l1.5-4.2c0.3-0.8,0.5-1.4,0.6-2.1h0.1c0.2,0.7,0.3,1.3,0.6,2.2l1.5,4.1H588.3z M593,878.4
				l1.6,4.3h0.9l-4.4-12.5h-0.8l-4.6,12.5h0.9l1.5-4.3C588.1,878.4,593,878.4,593,878.4z"/>
		</g>
	</g>
	<path class="st3" d="M815.6,825.6l30.6,30.5l30.6-30.5l9.4,9.4l-40,40l-40-40L815.6,825.6z"/>
	<path class="st3" d="M1131.6,830.3l40,40l40-40H1131.6z"/>
	<path d="M981.5,825.6l30.6,30.5l30.6-30.5l9.4,9.4l-40,40l-40-40L981.5,825.6z"/>
	<path d="M1283.3,830.3l40,40l40-40H1283.3z"/>
	<path class="st3" d="M1445.6,851.5c0,19.4,15.8,35.2,35.2,35.2s35.2-15.8,35.2-35.2h-8.8c0,14.6-11.8,26.4-26.4,26.4
		s-26.4-11.8-26.4-26.4c0-14.6,11.8-26.4,26.4-26.4v17.6l22-22l-22-22v17.6C1461.4,816.4,1445.6,832.1,1445.6,851.5z"/>
	<path class="st7" d="M1579.1,851.5c0,19.4,15.8,35.2,35.2,35.2s35.2-15.8,35.2-35.2h-8.8c0,14.6-11.8,26.4-26.4,26.4
		s-26.4-11.8-26.4-26.4c0-14.6,11.8-26.4,26.4-26.4v17.6l22-22l-22-22v17.6C1594.9,816.4,1579.1,832.1,1579.1,851.5z"/>
</g>
</svg>
