<?xml version="1.0" encoding="utf-8"?>
<!-- Generator: Adobe Illustrator 23.0.1, SVG Export Plug-In . SVG Version: 6.00 Build 0)  -->
<svg version="1.1" id="Ebene_1" xmlns="http://www.w3.org/2000/svg" xmlns:xlink="http://www.w3.org/1999/xlink" x="0px" y="0px"
	 viewBox="0 0 133.2 147.4" style="enable-background:new 0 0 133.2 147.4;" xml:space="preserve">
<style type="text/css">
	.st0{fill:#141519;}
</style>
<path class="st0" d="M129.8,70.2c-3.5-10-10-16.9-19.7-20.9c-5.2-2.1-10.5-3.1-15.9-3.1l0.1,0H29.1v2.2c0.9,0.1,2,0.2,3.2,0.2
	c1.2,0,2.7,0.2,4.5,0.4c1.8,0.2,3.1,0.9,4.1,1.9c0.9,1,1.6,3,1.8,6l0.3,6.2v59.8l-0.3,6.2c0,3.8-0.7,7.2-2.1,10.2
	c-1.4,3-4,4.5-7.9,4.5c-1.9,0-3.5-0.2-4.7-0.5c-1.3-0.3-1.9-0.9-1.9-1.8c2.2-2.4,4.5-4.9,6.9-7.3c2.1-2.6,3.1-6.1,3.1-10.4
	c0-4.9-1.6-9-4.7-12c-3.2-3.1-7.5-4.6-12.9-4.6c-4.6,0-8.6,1.6-11.9,4.9c-3.3,3.2-5,7.1-5,11.6c0,7.1,2.7,12.6,8.1,16.6
	c5.4,4,12.3,5.9,20.8,5.9c11.5,0,22-3.5,31.5-10.6c4-3,7.1-6.3,9.4-9.8c0,0,0,0,0,0c3.6-4.8,8.2-6.2,13.5-5.8c0.4,0,0.8,0.1,1.1,0.1
	c2.1,0.3,4.3,0.8,6.6,1.5c10.2,3.1,18.8,10.3,21.3,17.2c0-0.2,0-0.5,0-0.7c-0.2-6.6-7.2-14.2-16.5-18.7c2.2-0.4,4.4-1,6.7-1.8
	c10.1-3.5,17.8-9.9,23.1-19C132.3,89.6,133.2,80.1,129.8,70.2z M108.5,108.1c-0.4,3.9-2.2,6.4-5.2,7.4c-3.2,1.1-6.1,0.3-8.7-2.4
	c-2.7-2.7-4.9-6.6-6.6-11.6c-0.2-0.7-1.1-3-2.7-7c-1.6-4-2.6-6.6-3.1-7.9c-0.9-3-1.8-5.8-2.5-8.4c-0.7-2.6-1.4-4.8-2-6.6
	c-1.6-4.8-2.3-9.1-1.9-13c0.4-3.9,2.1-6.4,5.1-7.5c3.3-1.1,6.2-0.3,8.9,2.4c2.7,2.7,4.9,6.6,6.6,11.6c0.3,0.8,1.2,3,2.7,6.9
	c1.5,3.8,2.5,6.4,3,7.7c0.9,3.1,1.7,6,2.5,8.6c0.8,2.6,1.5,4.8,2.2,6.7C108.3,99.8,108.9,104.2,108.5,108.1z M47.9,32.1
	c3.4,3,7.3,4.5,11.8,4.5c4.3,0,8.1-1.4,11.4-4.1c3.3-2.7,4.9-6.2,4.9-10.5c0-3.3-1.1-6.3-3.4-8.8c-2.3-2.5-3.4-4.4-3.4-5.6
	c0-1,0.4-1.6,1.2-2.3c0.3-0.3,1.1-0.8,2.3-0.8c4.1,0,3.1-3.1,3.1-3.1c-1.6-0.2-1.2-0.2-2.9-0.2c-8.7,0-15.9,1.5-21.6,4.6
	c-5.7,3.1-8.6,8.1-8.6,15.2C42.8,25.4,44.5,29.1,47.9,32.1z M92.7,135.2c-3.1-0.9-5.6-0.1-5.5,2c0,0.3,0.1,0.6,0.2,0.9
	c0.1-1.9,2.5-2.7,5.5-1.8c2.6,0.8,4.9,2.7,5.5,4.5c0-0.1,0-0.1,0-0.2C98.3,138.5,95.8,136.1,92.7,135.2z M92.1,126.5
	c-7.4-2.2-13.3-0.2-13.1,4.7c0,0.7,0.2,1.5,0.4,2.2c0.2-4.5,6-6.4,13.1-4.2c6.3,1.9,11.6,6.4,13.1,10.6c0-0.1,0-0.3,0-0.4
	C105.6,134.5,99.5,128.7,92.1,126.5z"/>
</svg>
