<?xml version="1.0" encoding="utf-8"?>
<!-- Generator: Adobe Illustrator 15.0.0, SVG Export Plug-In . SVG Version: 6.00 Build 0)  -->
<!DOCTYPE svg PUBLIC "-//W3C//DTD SVG 1.1//EN" "http://www.w3.org/Graphics/SVG/1.1/DTD/svg11.dtd">
<svg version="1.1" id="Ebene_1" xmlns="http://www.w3.org/2000/svg" xmlns:xlink="http://www.w3.org/1999/xlink" x="0px" y="0px"
	 width="306.732px" height="249.199px" viewBox="0 0 306.732 249.199" enable-background="new 0 0 306.732 249.199"
	 xml:space="preserve">
<g id="Ebene_17">
</g>
<g id="Ebene_1_1_" display="none">
	<g display="inline">
		<g>
			<g>
				<g>
					<g>
						<g>
							<defs>
								<rect id="SVGID_1_" x="6.613" y="5.501" width="526.51" height="643"/>
							</defs>
							<clipPath id="SVGID_2_">
								<use xlink:href="#SVGID_1_"  overflow="visible"/>
							</clipPath>
							<path clip-path="url(#SVGID_2_)" fill="#FFFFFF" d="M446.424,215.916c36.333,0,65.771-29.461,65.771-65.793
								c0-36.308-29.438-65.755-65.771-65.755c-36.329,0-65.769,29.448-65.769,65.755
								C380.656,186.455,410.094,215.916,446.424,215.916"/>
						</g>
					</g>
				</g>
			</g>
			<g>
				<g>
					<g>
						<g>
							<defs>
								<rect id="SVGID_3_" x="6.613" y="5.501" width="526.51" height="643"/>
							</defs>
							<clipPath id="SVGID_4_">
								<use xlink:href="#SVGID_3_"  overflow="visible"/>
							</clipPath>
							<path clip-path="url(#SVGID_4_)" fill="#FFFFFF" d="M93.313,215.916c36.333,0,65.768-29.461,65.768-65.793
								c0-36.308-29.436-65.755-65.768-65.755c-36.333,0-65.771,29.448-65.771,65.755C27.545,186.455,56.98,215.916,93.313,215.916"
								/>
						</g>
					</g>
				</g>
			</g>
			<g>
				<g>
					<g>
						<g>
							<defs>
								<rect id="SVGID_5_" x="6.613" y="5.501" width="526.51" height="643"/>
							</defs>
							<clipPath id="SVGID_6_">
								<use xlink:href="#SVGID_5_"  overflow="visible"/>
							</clipPath>
							<path clip-path="url(#SVGID_6_)" fill="#FFFFFF" d="M155.5,261.482c-15.768-16.24-37.771-26.354-62.188-26.354
								c-47.884,0-86.7,38.83-86.7,86.711c0,47.896,38.816,259.795,86.7,259.795c26.805,0,50.758-66.426,66.671-133.289
								c-11.233-54.826-18.032-105.854-18.032-130.025C141.95,297.861,146.848,278.578,155.5,261.482"/>
						</g>
					</g>
				</g>
			</g>
			<g>
				<g>
					<g>
						<g>
							<defs>
								<rect id="SVGID_7_" x="6.613" y="5.501" width="526.51" height="643"/>
							</defs>
							<clipPath id="SVGID_8_">
								<use xlink:href="#SVGID_7_"  overflow="visible"/>
							</clipPath>
							<path clip-path="url(#SVGID_8_)" fill="#FFFFFF" d="M268.15,178.767c47.858,0,86.649-38.781,86.649-86.638
								c0-47.835-38.791-86.628-86.649-86.628c-47.833,0-86.627,38.793-86.627,86.627
								C181.523,139.985,220.317,178.767,268.15,178.767"/>
						</g>
					</g>
				</g>
			</g>
			<g>
				<g>
					<g>
						<g>
							<defs>
								<rect id="SVGID_9_" x="6.613" y="5.501" width="526.51" height="643"/>
							</defs>
							<clipPath id="SVGID_10_">
								<use xlink:href="#SVGID_9_"  overflow="visible"/>
							</clipPath>
							<path clip-path="url(#SVGID_10_)" fill="#FFFFFF" d="M365.719,368.564c0.22-1.24,0.392-2.531,0.536-3.705
								c0-0.191,0-0.34,0.051-0.512c0.145-1.098,0.29-2.189,0.438-3.266c0.048-0.314,0.071-0.609,0.121-0.926
								c0.146-1.195,0.293-2.414,0.414-3.584c0-0.099,0.049-0.244,0.049-0.365c0.146-1.07,0.271-2.146,0.415-3.191
								c0.023-0.27,0.05-0.584,0.072-0.828c0.122-1.168,0.271-2.313,0.414-3.41c0-0.072,0-0.146,0.024-0.221
								c0.097-1.049,0.218-2.07,0.339-3.096c0.022-0.291,0.05-0.537,0.05-0.777c0.123-1.072,0.22-2.121,0.314-3.168
								c0-0.074,0.024-0.146,0.024-0.195c0.098-0.975,0.194-1.947,0.269-2.898l0.071-0.719c0.05-0.977,0.171-1.977,0.244-2.926
								v-0.121c0.049-0.928,0.121-1.826,0.195-2.691c0-0.231,0.021-0.426,0.049-0.657c0.048-0.892,0.122-1.791,0.17-2.668v-0.099
								c0.049-0.83,0.1-1.621,0.146-2.426c0-0.195,0-0.391,0.022-0.598c0.022-0.814,0.073-1.621,0.097-2.361v-0.051
								c0.023-0.777,0.072-1.475,0.072-2.182v-0.549v-2.07c0-1.146,0-2.242-0.049-3.387c0-0.279-0.023-0.549-0.023-0.854
								c-0.047-1-0.097-1.998-0.169-2.998c-0.021-0.121-0.021-0.219-0.021-0.364c-0.101-1.146-0.196-2.304-0.316-3.425l-0.073-0.547
								c-0.099-1.047-0.242-2.099-0.392-3.146c0-0.071-0.022-0.172-0.048-0.27c-0.342-2.377-0.758-4.729-1.315-7.043
								c0-0.049,0-0.07-0.021-0.121c-0.515-2.354-1.1-4.666-1.777-6.969v-0.023c-12.601-42.191-51.731-73.029-97.958-73.029
								c-44.567,0-82.56,28.691-96.494,68.57c-1.364,3.885-2.512,7.932-3.389,12.023c0,0.072-0.022,0.146-0.05,0.221
								c-0.27,1.326-0.561,2.617-0.777,3.973c0,0.071,0,0.193-0.05,0.328c-0.438,2.619-0.757,5.287-1.021,7.979
								c0,0.193-0.024,0.4-0.05,0.598c-0.1,1.268-0.194,2.547-0.244,3.813c-0.023,0.232-0.023,0.451-0.023,0.707
								c-0.049,1.316-0.098,2.646-0.098,3.961c0,0.477,0,0.949,0.022,1.425v0.524c0,0.328,0,0.668,0.023,0.998v0.623
								c0.023,0.328,0.023,0.621,0.023,0.95c0.022,0.255,0.022,0.476,0.022,0.669c0.022,0.329,0.022,0.684,0.049,0.975
								c0,0.259,0.023,0.476,0.023,0.731c0.024,0.341,0.049,0.694,0.049,1.022c0.023,0.242,0.023,0.463,0.049,0.719
								c0.023,0.4,0.05,0.828,0.073,1.244c0,0.254,0.023,0.5,0.05,0.777c0.022,0.498,0.049,1.021,0.099,1.521
								c0.022,0.315,0.022,0.646,0.049,0.951c0.022,0.315,0.05,0.62,0.072,0.95c0.022,0.34,0.071,0.693,0.071,1.047
								c0,0.293,0,0.599,0.049,0.892c0.052,0.377,0.074,0.755,0.101,1.121c0.022,0.278,0.048,0.569,0.07,0.853
								c0.022,0.402,0.071,0.793,0.098,1.219c0.022,0.258,0.05,0.5,0.074,0.758c0.049,0.451,0.071,0.891,0.123,1.34
								c0.022,0.184,0.022,0.354,0.048,0.475c0.193,1.814,0.364,3.646,0.563,5.545c0,0.049,0.024,0.146,0.024,0.242
								c0.07,0.607,0.12,1.243,0.19,1.827c0.024,0.122,0.024,0.245,0.051,0.392c0.07,0.608,0.146,1.22,0.22,1.853
								c0,0.146,0.023,0.244,0.023,0.392c0.071,0.608,0.12,1.27,0.221,1.949c0,0.049,0,0.146,0.022,0.194
								c4.802,41.276,16.009,103.073,30.481,157.485c27.222,102.275,54.271,138.533,69.158,138.533
								c14.889,0,41.96-36.258,69.154-138.529c12.187-45.857,22.079-96.959,27.756-136.58c0.021-0.146,0.05-0.293,0.073-0.438
								c0.146-1.146,0.29-2.27,0.438-3.363L365.719,368.564z"/>
						</g>
					</g>
				</g>
			</g>
			<g>
				<g>
					<g>
						<g>
							<defs>
								<rect id="SVGID_11_" x="6.613" y="5.501" width="526.51" height="643"/>
							</defs>
							<clipPath id="SVGID_12_">
								<use xlink:href="#SVGID_11_"  overflow="visible"/>
							</clipPath>
							<path clip-path="url(#SVGID_12_)" fill="#FFFFFF" d="M446.424,235.143c-25.584,0-48.563,11.108-64.45,28.717
								c7.919,16.496,12.354,34.968,12.354,54.449c0,23.017-6.188,70.385-16.425,122.144
								c15.862,69.447,40.67,141.186,68.521,141.186c47.885,0,86.7-211.898,86.7-259.781
								C533.122,273.97,494.307,235.143,446.424,235.143"/>
						</g>
					</g>
				</g>
			</g>
		</g>
	</g>
</g>
<g id="Ebene_2" display="none">
	<g display="inline">
		<polygon fill="#FFFFFF" points="58.642,301.73 223.922,201.558 130.212,12.403 6.166,77.582 		"/>
		<polygon opacity="0.4" fill="#FFFFFF" enable-background="new    " points="223.922,201.558 381.36,252.458 243.062,56.937 
			130.212,12.403 		"/>
		<polygon opacity="0.8" fill="#FFFFFF" enable-background="new    " points="381.36,252.458 533.948,172.945 359.069,4.436 
			243.062,56.937 		"/>
	</g>
</g>
<g id="Ebene_9" display="none">
	<g display="inline">
		<g opacity="0.5">
			<polygon points="58.081,365.4 223.769,264.994 129.804,75.439 5.5,140.744 			"/>
			<polygon opacity="0.4" enable-background="new    " points="223.769,264.994 381.541,316 242.908,120.027 129.804,75.439 			"/>
			<polygon opacity="0.8" enable-background="new    " points="381.541,316 534.478,236.339 359.193,67.446 242.908,120.027 			"/>
		</g>
		<path fill="#A7171F" d="M215.748,5.126c-22.077,0-39.914,17.892-39.914,39.944c0,22.046,39.914,100.678,39.914,100.678
			s39.886-78.63,39.886-100.678C255.634,23.018,237.824,5.126,215.748,5.126z M215.748,77.124c-15.877,0-28.71-12.862-28.71-28.685
			c0-15.853,12.833-28.686,28.71-28.686c15.851,0,28.684,12.833,28.684,28.686C244.431,64.262,231.598,77.124,215.748,77.124z"/>
	</g>
</g>
<g id="Ebene_14" display="none">
	<polygon display="inline" fill="#FFFFFF" points="5.216,236.189 531.854,10.605 306.267,537.173 258.26,284.13 	"/>
</g>
<g id="Ebene_15" display="none">
	<g display="inline">
		<path fill="#FFFFFF" d="M342.654,327.975v195.815H196.288V327.975H5.502v-129.19h190.786V5h146.365v193.785h190.754v129.189
			L342.654,327.975L342.654,327.975z"/>
	</g>
</g>
<g id="Ebene_16" display="none">
	<path display="inline" fill="#FFFFFF" d="M6.86,173.597V5.551h525.141v168.046H6.86z"/>
</g>
<g id="Ebene_10" display="none">
	<g display="inline">
		<g opacity="0.8">
			<path fill="#FFFFFF" d="M432.739,301.521h-45.633v60.797h39.53V587.25H68.042V362.318h39.505v-60.797H61.969
				c-30.225,0-54.75,24.574-54.75,54.727v237.074c0,30.15,24.525,54.678,54.75,54.678h370.77c30.175,0,54.672-24.525,54.672-54.678
				V356.248C487.41,326.096,462.913,301.521,432.739,301.521z"/>
			<polygon fill="#FFFFFF" points="189.168,5.342 189.168,182.156 126.728,182.156 247.339,390.977 367.927,182.156 
				305.511,182.156 305.511,5.342 			"/>
			<rect x="92.284" y="503.123" fill="#FFFFFF" width="310.135" height="55.242"/>
			<rect x="92.284" y="418.734" fill="#FFFFFF" width="310.135" height="55.24"/>
		</g>
	</g>
</g>
<g id="Ebene_12" display="none">
	<g display="inline">
		<polygon opacity="0.2" fill="#FFFFFF" enable-background="new    " points="265.479,650.98 9.182,339.725 265.479,204.242 
			521.823,339.725 		"/>
		<g opacity="0.3">
			<polygon fill="#FFFFFF" points="265.479,514.091 9.182,235.787 265.479,100.271 521.823,235.787 			"/>
		</g>
		<g opacity="0.4">
			<polygon fill="#FFFFFF" points="265.479,376.787 9.182,142.416 265.479,6.9 521.823,142.416 			"/>
		</g>
	</g>
</g>
<g id="Ebene_13" display="none">
	<g display="inline" opacity="0.5">
		<g>
			<path fill="#FFFFFF" d="M49.294,574.289c-23.166,0-42.014-20.398-42.014-45.471V52.479C7.281,27.402,26.128,7,49.294,7h440.574
				c23.165,0,42.013,20.402,42.013,45.479v476.339c0,25.07-18.848,45.471-42.013,45.471H49.294z"/>
			<path d="M489.868,8c22.613,0,41.013,19.954,41.013,44.479v476.339c0,24.521-18.397,44.471-41.013,44.471H49.294
				c-22.614,0-41.014-19.949-41.014-44.471V52.479C8.281,27.954,26.68,8,49.294,8H489.868 M489.868,6H49.294
				C25.577,6,6.281,26.816,6.281,52.479v476.339c0,25.686,19.297,46.471,43.014,46.471h440.574
				c23.771,0,43.013-20.785,43.013-46.471V52.479C532.881,26.816,513.641,6,489.868,6L489.868,6z"/>
		</g>
		<g opacity="0.8">
			<path d="M361.31,486.203H201.305v-8.527l11.832-0.537c9.486-1.037,15.244-3.51,17.216-7.428
				c1.974-3.92,2.984-12.395,2.984-25.504l0.479-24.521V292.511l-0.479-21.819c-0.69-8.502-1.705-14.931-2.984-19.168
				c-1.332-4.263-7.193-6.926-17.695-7.994l-13.325-1.063v-8.473H328.8v185.692l0.53,24.521c0,12.738,0.959,21.156,2.935,25.229
				c1.971,4.082,7.674,6.664,17.214,7.701l11.833,0.537L361.31,486.203L361.31,486.203z M232.325,145.087
				c0-13.807,4.743-25.612,14.125-35.392c9.381-9.756,20.68-14.629,33.897-14.629c13.483,0,24.944,4.714,34.378,14.12
				c9.381,9.411,14.072,21.35,14.072,35.9c0,14.203-4.691,26.168-14.072,35.924c-9.434,9.752-20.895,14.656-34.378,14.656
				c-13.219,0-24.518-4.904-33.897-14.656C237.069,171.255,232.325,159.291,232.325,145.087z"/>
		</g>
	</g>
</g>
<g id="Ebene_3" display="none">
	<g display="inline">
		<path fill="#1D1D1B" d="M268.271,5.827C123.492,5.827,5.7,123.666,5.7,268.449c0,144.729,117.792,262.52,262.57,262.52
			s262.523-117.791,262.523-262.52C530.796,123.666,413.051,5.827,268.271,5.827z M268.271,478.955
			c-116.128,0-210.558-94.43-210.558-210.506c0-116.178,94.43-210.607,210.558-210.607c116.077,0,210.557,94.429,210.557,210.607
			C478.827,384.525,384.349,478.955,268.271,478.955z"/>
		<path fill="#1D1D1B" d="M326.945,181.367l-58.92,52.404l-106.92-92.768c-10.821-9.4-27.229-8.225-36.684,2.551
			c-9.402,10.869-8.229,27.328,2.598,36.734L242.706,280.69c4.604,9.5,14.302,16.063,25.565,16.063
			c11.361,0,21.157-6.709,25.664-16.354l67.592-60.245c10.725-9.5,11.705-25.955,2.152-36.683
			C354.08,172.744,337.674,171.761,326.945,181.367z"/>
	</g>
</g>
<g id="Ebene_4" display="none">
	<g display="inline">
		<g>
			<path fill="#1A171B" d="M341.321,5.441H7.113V648.5h514.426V185.617L341.321,5.441z M84.279,82.607h221.773v138.284h138.32
				v350.444H84.279V82.607z"/>
			<rect x="127.95" y="472.916" fill="#1A171B" width="272.714" height="53.432"/>
			<rect x="127.95" y="368.4" fill="#1A171B" width="272.714" height="53.424"/>
			<rect x="127.95" y="263.917" fill="#1A171B" width="272.714" height="53.422"/>
		</g>
	</g>
</g>
<g id="Ebene_5" display="none">
	<g display="inline">
		<path fill="#FFFFFF" d="M341.324,5.503H6.268v644.702h515.732V186.141L341.324,5.503z M83.626,82.862h222.343V221.5H444.64
			v351.344H83.626V82.862z"/>
		<rect x="127.401" y="474.175" fill="#FFFFFF" width="273.41" height="53.566"/>
		<rect x="127.401" y="369.393" fill="#FFFFFF" width="273.41" height="53.562"/>
		<rect x="127.401" y="264.634" fill="#FFFFFF" width="273.41" height="53.563"/>
	</g>
</g>
<g id="Ebene_6" display="none">
	<g display="inline">
		<g opacity="0.2">
			<polygon fill="#FFFFFF" points="352.988,527.654 533.735,429.355 533.053,56.111 352.327,154.412 			"/>
		</g>
		<g opacity="0.6">
			<polygon fill="#FFFFFF" points="352.327,154.412 533.053,56.111 187.24,7.502 6.492,105.803 			"/>
		</g>
		<g>
			<polygon fill="#FFFFFF" points="6.492,105.803 7.222,479.044 352.988,527.654 352.327,154.412 			"/>
		</g>
	</g>
</g>
<g id="Ebene_7" display="none">
	<g display="inline">
		<g opacity="0.5">
			<g>
				<g>
					<path d="M420.308,174.522h-82.034v51.733h82.034c4.646,0,8.611,3.859,8.611,8.609v353.504c0,4.758-3.965,8.617-8.611,8.617
						H66.75c-4.703,0-8.61-3.859-8.61-8.617V234.865c0-4.75,3.907-8.609,8.61-8.609h81.979v-51.733H66.75
						c-33.264,0-60.343,27.081-60.343,60.343v353.504c0,33.27,27.079,60.395,60.343,60.395h353.558
						c33.265,0,60.289-27.127,60.289-60.395V234.865C480.597,201.603,453.572,174.522,420.308,174.522z"/>
				</g>
				<polygon points="183.234,5.024 183.234,274.621 118.483,274.621 243.481,491.15 368.575,274.621 303.777,274.621 303.777,5.024 
									"/>
			</g>
			<g>
				<g opacity="0.5">
					<path fill="#009245" d="M420.308,174.522h-82.034v51.733h82.034c4.646,0,8.611,3.859,8.611,8.609v353.504
						c0,4.758-3.965,8.617-8.611,8.617H66.75c-4.703,0-8.61-3.859-8.61-8.617V234.865c0-4.75,3.907-8.609,8.61-8.609h81.979v-51.733
						H66.75c-33.264,0-60.343,27.081-60.343,60.343v353.504c0,33.27,27.079,60.395,60.343,60.395h353.558
						c33.265,0,60.289-27.127,60.289-60.395V234.865C480.597,201.603,453.572,174.522,420.308,174.522z"/>
				</g>
				<polygon opacity="0.5" fill="#009245" enable-background="new    " points="183.234,5.024 183.234,274.621 118.483,274.621 
					243.481,491.15 368.575,274.621 303.777,274.621 303.777,5.024 				"/>
			</g>
		</g>
	</g>
</g>
<g id="Ebene_8" display="none">
	<g display="inline">
		<path fill="#FFFFFF" d="M6,7.5v445h527.001V7.5H6z M490.001,50.5v210.439L372.282,118.488L236.02,252.598l50.418,62.637
			c2.827,3.636,2.866,8.856-0.771,11.703c-1.523,1.205-3.008,1.78-4.805,1.78c-0.91,0-1.594-0.278-2.463-0.596
			c-0.556-0.197-1.016-0.477-1.548-0.75c-0.831-0.516-1.611-1.049-2.245-1.858l-47.98-61.252l-0.142,0.116l-45.029-57.178L45,325.63
			V50.5H490.001z"/>
		<path fill="#FFFFFF" d="M123.046,167.895c24.991,0,45.219-20.265,45.219-45.236c0-24.991-20.228-45.199-45.219-45.199
			c-24.99,0-45.218,20.208-45.218,45.199C77.829,147.63,98.055,167.895,123.046,167.895z"/>
	</g>
</g>
<path fill="#FFFFFF" d="M302.325,237.603c-7.756,11.227-23.184,14.045-34.409,6.262l-101.646-70.342
	c-7.196-4.963-10.92-13.061-10.644-21.195c-13.094,14.043-30.293,23.476-49.559,26.978c-23.664,4.315-47.563-0.846-67.289-14.497
	c-19.734-13.65-32.979-34.183-37.292-57.832c-4.314-23.664,0.833-47.574,14.498-67.32c28.221-40.769,84.357-50.989,125.145-22.778
	c37.019,25.632,48.85,74.266,29.606,113.521c7.519-3.16,16.435-2.543,23.667,2.455l101.676,70.34
	C307.304,210.978,310.111,226.379,302.325,237.603z M151.631,79.617c-3-16.491-12.229-30.81-25.989-40.324
	C97.215,19.605,58.058,26.724,38.36,55.15c-19.672,28.461-12.547,67.605,15.886,87.264c28.429,19.687,67.581,12.572,87.274-15.865
	C151.046,112.787,154.638,96.117,151.631,79.617z"/>
</svg>
