<?xml version="1.0" encoding="utf-8"?>
<!-- Generator: Adobe Illustrator 16.0.3, SVG Export Plug-In . SVG Version: 6.00 Build 0)  -->
<!DOCTYPE svg PUBLIC "-//W3C//DTD SVG 1.1//EN" "http://www.w3.org/Graphics/SVG/1.1/DTD/svg11.dtd">
<svg version="1.1" id="Ebene_1" xmlns="http://www.w3.org/2000/svg" xmlns:xlink="http://www.w3.org/1999/xlink" x="0px" y="0px"
	 width="25px" height="25px" viewBox="0 0 25 25" enable-background="new 0 0 25 25" xml:space="preserve">
<g>
	<path d="M3.653,15.341v-3.297c0-0.292-0.046-0.507-0.137-0.646c-0.09-0.139-0.243-0.209-0.459-0.209
		c-0.075,0-0.163,0.011-0.259,0.033c-0.095,0.023-0.19,0.055-0.286,0.094c-0.098,0.039-0.193,0.085-0.286,0.137
		c-0.094,0.05-0.178,0.102-0.253,0.16v3.729H0.5v-4.913h1.314l0.129,0.574h0.014c0.102-0.062,0.219-0.132,0.357-0.212
		c0.134-0.076,0.283-0.152,0.439-0.222c0.16-0.07,0.324-0.129,0.498-0.177c0.17-0.048,0.342-0.071,0.509-0.071
		c0.275,0,0.518,0.062,0.737,0.187c0.218,0.125,0.383,0.312,0.492,0.561c0.105-0.067,0.235-0.143,0.388-0.23
		c0.153-0.086,0.316-0.167,0.489-0.245c0.173-0.075,0.349-0.141,0.528-0.192c0.178-0.054,0.352-0.08,0.519-0.08
		c0.187,0,0.364,0.032,0.533,0.091c0.167,0.06,0.312,0.151,0.434,0.272c0.122,0.121,0.22,0.272,0.292,0.453
		c0.071,0.18,0.107,0.391,0.107,0.635v3.569H6.806v-3.297c0-0.292-0.046-0.507-0.135-0.646c-0.092-0.139-0.245-0.209-0.461-0.209
		c-0.075,0-0.163,0.011-0.259,0.033c-0.095,0.023-0.191,0.055-0.286,0.094c-0.095,0.039-0.192,0.085-0.286,0.137
		c-0.09,0.05-0.178,0.102-0.253,0.16v3.729H3.653z"/>
	<path d="M12.087,10.32c0.249,0,0.487,0.034,0.72,0.102c0.232,0.065,0.445,0.179,0.64,0.336c0.195,0.159,0.363,0.37,0.506,0.632
		c0.145,0.265,0.252,0.592,0.324,0.984v0.066c-0.047,0.058-0.111,0.109-0.186,0.157c-0.076,0.048-0.18,0.09-0.301,0.126
		c-0.121,0.036-0.27,0.068-0.447,0.093c-0.178,0.026-0.39,0.049-0.641,0.069L11.072,13v0.207c0,0.191,0.029,0.37,0.08,0.533
		c0.054,0.163,0.131,0.304,0.237,0.421c0.105,0.116,0.239,0.21,0.398,0.277c0.161,0.068,0.348,0.099,0.558,0.099
		c0.17,0,0.353-0.019,0.542-0.048c0.188-0.039,0.371-0.075,0.542-0.122c0.172-0.054,0.33-0.102,0.471-0.15
		c0.141-0.051,0.248-0.095,0.328-0.13l0.121,0.352c-0.16,0.115-0.334,0.232-0.529,0.344c-0.195,0.123-0.402,0.228-0.626,0.325
		c-0.222,0.097-0.458,0.179-0.706,0.235c-0.249,0.063-0.505,0.09-0.77,0.09c-0.31,0-0.599-0.042-0.864-0.126
		c-0.266-0.088-0.497-0.226-0.69-0.417c-0.195-0.19-0.348-0.442-0.462-0.751c-0.111-0.308-0.167-0.683-0.167-1.124
		c0-0.493,0.065-0.913,0.194-1.257c0.129-0.346,0.308-0.622,0.539-0.833c0.229-0.21,0.499-0.363,0.811-0.461
		C11.391,10.368,11.727,10.32,12.087,10.32z M11.389,11.153c-0.042,0.03-0.082,0.089-0.119,0.176
		c-0.035,0.089-0.068,0.193-0.093,0.307c-0.026,0.121-0.048,0.244-0.064,0.38c-0.019,0.133-0.024,0.26-0.024,0.379l1.622-0.071
		c-0.02-0.143-0.047-0.292-0.082-0.445c-0.037-0.153-0.084-0.294-0.148-0.423c-0.062-0.129-0.141-0.235-0.237-0.319
		c-0.095-0.083-0.211-0.126-0.344-0.126c-0.091,0-0.182,0.011-0.27,0.033C11.541,11.063,11.46,11.102,11.389,11.153z"/>
	<path d="M15.619,11.104l-0.549-0.173v-0.302l1.594-1.062h0.4l0.023,0.861h1.557l-0.066,0.539c-0.119,0.02-0.262,0.037-0.43,0.054
		c-0.166,0.017-0.33,0.033-0.488,0.047c-0.188,0.018-0.377,0.034-0.566,0.042v2.769c0,0.174,0.031,0.324,0.096,0.442
		c0.066,0.118,0.207,0.174,0.42,0.174c0.055,0,0.135-0.003,0.229-0.009c0.094-0.011,0.189-0.018,0.291-0.024
		c0.107-0.013,0.207-0.021,0.305-0.036c0.105-0.009,0.186-0.022,0.254-0.03v0.408c-0.123,0.079-0.268,0.153-0.43,0.226
		c-0.162,0.075-0.338,0.144-0.514,0.199c-0.182,0.063-0.365,0.112-0.553,0.15c-0.186,0.035-0.359,0.055-0.527,0.055
		c-0.133,0-0.256-0.009-0.385-0.032c-0.123-0.023-0.236-0.069-0.332-0.141c-0.098-0.068-0.176-0.165-0.238-0.293
		c-0.061-0.123-0.09-0.286-0.09-0.49V11.104z"/>
	<path d="M23.988,14.613c0.133,0,0.301-0.027,0.512-0.082v0.331c-0.076,0.07-0.168,0.141-0.275,0.208
		c-0.104,0.063-0.217,0.125-0.336,0.174c-0.119,0.05-0.248,0.09-0.373,0.119c-0.133,0.027-0.256,0.042-0.379,0.042
		c-0.137,0-0.252-0.019-0.348-0.051c-0.094-0.039-0.18-0.086-0.25-0.144c-0.07-0.063-0.127-0.129-0.172-0.201
		c-0.049-0.07-0.09-0.143-0.123-0.214c-0.127,0.079-0.25,0.162-0.367,0.237c-0.119,0.075-0.242,0.144-0.377,0.205
		c-0.133,0.058-0.268,0.104-0.418,0.144c-0.145,0.032-0.307,0.051-0.482,0.051c-0.406,0-0.719-0.118-0.953-0.356
		c-0.23-0.239-0.348-0.604-0.348-1.083c0-0.259,0.037-0.484,0.1-0.674c0.076-0.188,0.184-0.348,0.338-0.476
		c0.15-0.124,0.354-0.219,0.596-0.286c0.246-0.063,0.541-0.102,0.9-0.112l0.881-0.027v-0.712c0-0.19-0.055-0.33-0.166-0.417
		c-0.111-0.089-0.291-0.135-0.549-0.135c-0.188,0-0.406,0.022-0.648,0.066c-0.242,0.042-0.498,0.113-0.76,0.214l-0.203-0.509
		c0.18-0.078,0.359-0.151,0.559-0.222c0.191-0.074,0.387-0.138,0.588-0.195c0.195-0.058,0.4-0.104,0.605-0.137
		c0.199-0.034,0.404-0.05,0.611-0.05c0.223,0,0.428,0.021,0.609,0.061c0.176,0.042,0.328,0.11,0.449,0.206
		c0.123,0.095,0.215,0.223,0.281,0.38c0.066,0.159,0.096,0.354,0.096,0.588v2.273C23.586,14.354,23.721,14.613,23.988,14.613z
		 M22.178,14.384c-0.002-0.016-0.006-0.072-0.014-0.157c-0.006-0.089-0.01-0.203-0.016-0.34c-0.01-0.139-0.016-0.29-0.02-0.465
		c-0.004-0.172-0.012-0.353-0.012-0.544c-0.355,0-0.627,0.021-0.813,0.06c-0.188,0.042-0.303,0.091-0.346,0.148
		c-0.021,0.024-0.039,0.065-0.051,0.121c-0.016,0.061-0.025,0.121-0.037,0.198c-0.01,0.07-0.02,0.145-0.023,0.22
		c-0.002,0.075-0.004,0.145-0.004,0.209c0,0.218,0.029,0.401,0.096,0.542s0.176,0.21,0.326,0.21c0.164,0,0.32-0.02,0.469-0.055
		C21.881,14.491,22.031,14.443,22.178,14.384z"/>
</g>
</svg>
