<?xml version="1.0" encoding="utf-8"?>
<!-- Generator: Adobe Illustrator 15.0.0, SVG Export Plug-In . SVG Version: 6.00 Build 0)  -->
<!DOCTYPE svg PUBLIC "-//W3C//DTD SVG 1.1//EN" "http://www.w3.org/Graphics/SVG/1.1/DTD/svg11.dtd">
<svg version="1.1" id="Ebene_1" xmlns="http://www.w3.org/2000/svg" xmlns:xlink="http://www.w3.org/1999/xlink" x="0px" y="0px"
	 width="25px" height="25px" viewBox="0 0 25 25" enable-background="new 0 0 25 25" xml:space="preserve">
<path fill="#FFFFFF" d="M12.5,17.75l6.531,6.531c0.291,0.291,0.764,0.293,1.056,0l4.194-4.195c0.292-0.291,0.292-0.762,0-1.055
	L17.75,12.5l6.531-6.532c0.292-0.291,0.292-0.764,0-1.056l-4.194-4.194c-0.291-0.292-0.765-0.292-1.056,0L12.5,7.25L5.969,0.719
	c-0.292-0.292-0.765-0.292-1.056,0L0.719,4.913c-0.292,0.292-0.292,0.764,0,1.056L7.25,12.5l-6.531,6.532
	c-0.292,0.291-0.292,0.764,0,1.055l4.194,4.195c0.292,0.293,0.764,0.291,1.056,0L12.5,17.75z"/>
</svg>
