<?xml version="1.0" encoding="utf-8"?>
<!-- Generator: Adobe Illustrator 15.0.0, SVG Export Plug-In . SVG Version: 6.00 Build 0)  -->
<!DOCTYPE svg PUBLIC "-//W3C//DTD SVG 1.1//EN" "http://www.w3.org/Graphics/SVG/1.1/DTD/svg11.dtd">
<svg version="1.1" id="Ebene_1" xmlns="http://www.w3.org/2000/svg" xmlns:xlink="http://www.w3.org/1999/xlink" x="0px" y="0px"
	 width="25px" height="25px" viewBox="0 0 25 25" enable-background="new 0 0 25 25" xml:space="preserve">
<g>
	<path fill="#052640" d="M12.502,19.157c-6.34,0-11.344-5.679-11.553-5.921L0.5,12.722l0.431-0.531
		c0.21-0.26,5.214-6.348,11.571-6.348c6.354,0,11.357,6.088,11.568,6.348l0.43,0.531l-0.445,0.516
		C23.843,13.479,18.84,19.157,12.502,19.157z M2.671,12.683c1.346,1.342,5.291,4.844,9.831,4.844c4.538,0,8.482-3.502,9.828-4.844
		c-1.327-1.425-5.283-5.21-9.828-5.21C7.955,7.473,3.999,11.258,2.671,12.683z"/>
</g>
<g>
	<path fill="#052640" d="M12.5,17.938c-2.997,0-5.436-2.439-5.436-5.438c0-2.997,2.438-5.437,5.436-5.437s5.438,2.439,5.438,5.437
		S15.498,17.938,12.5,17.938z M12.5,8.693c-2.098,0-3.806,1.708-3.806,3.806c0,2.099,1.708,3.808,3.806,3.808
		c2.1,0,3.807-1.709,3.807-3.808C16.307,10.401,14.6,8.693,12.5,8.693z"/>
</g>
<g>
	<path fill="#052640" d="M14.705,10.608c0.008,0.063,0.02,0.126,0.02,0.192c0,0.902-0.73,1.636-1.636,1.636
		c-0.902,0-1.636-0.733-1.636-1.636c0-0.455,0.188-0.865,0.487-1.162c-1.327,0.261-2.328,1.428-2.328,2.833
		c0,1.595,1.293,2.888,2.889,2.888c1.595,0,2.888-1.293,2.888-2.888C15.391,11.761,15.132,11.11,14.705,10.608z"/>
</g>
</svg>
